<svg width="372" height="922" viewBox="0 0 372 922" fill="none" xmlns="http://www.w3.org/2000/svg">
<g clip-path="url(#clip0)">
<path fill-rule="evenodd" clip-rule="evenodd" d="M412.06 83.915C405.303 127.209 374.283 128.856 356.925 155.626C346.861 171.122 352.207 187.201 353.836 201.243C355.393 214.584 350.352 233.528 344.496 243.782C334.012 262.248 321.557 274.764 307.748 287.825C305.547 289.889 302.35 290.989 300.088 292.846C287.135 303.21 272.489 311.604 263.891 328.147C260.983 333.719 257.998 345.859 258.558 353.227C259.456 364.782 259.89 377.334 261.054 389.034C261.824 397.422 259.69 405.784 260.035 414.391C259.455 417.726 258.875 421.06 258.294 424.395C255.758 438.972 252.447 452.429 244.86 459.82C229.778 474.619 188.65 459.142 162.884 454.553C151.787 452.577 133.638 446.006 127.344 452.645C123.08 457.092 122.005 473.304 122.62 479.798C123.379 487.694 122.883 495.562 123.813 503.586C125.11 514.523 127.119 524.704 127.747 536.701C128.457 549.892 118.072 564.447 110.909 566.609C99.6367 570.102 83.7755 555.392 78.7964 550.576C62.0223 534.427 48.6329 515.54 28.1477 501.775C13.8252 492.152 -4.60089 486.611 -15.6381 474.823C-25.4472 464.334 -22.6906 444.59 -12.7418 433.101C-6.31565 425.699 -0.807922 417.447 7.69303 413.165C21.5257 406.1 38.9385 405.763 56.3675 403.661C65.2783 402.596 74.1452 402.898 82.4475 401.429C85.3569 400.867 89.6051 401.525 91.491 399.602C96.1807 394.936 93.8666 383.719 94.9992 376.652C96.0158 370.252 96.7666 362.037 98.9505 356.728C101.809 349.772 101.182 341.115 103.704 334.982C104.118 332.6 104.532 330.219 104.947 327.837C106.196 325.112 107.54 322.405 108.79 319.68C119.462 302.918 137.36 294.219 155.856 288.771C162.405 286.794 169.43 287.652 176.598 286.571C190.526 284.533 204.038 279.867 213.241 270.995C222.444 262.124 228.963 249.729 235.222 236.601C239.192 228.271 241.005 218.967 244.565 210.761C247.662 203.552 248.49 195.449 251.365 188.397C253.852 175.776 256.449 163.076 258.936 150.454C267.279 130.919 275.817 114.169 284.951 95.6592C289.43 86.6341 290.568 77.3084 294.709 67.4373C300.713 52.9866 296.47 31.2469 294.709 16.2973C291.911 -7.18621 364.568 -22.7344 381.037 -18.7769C430.663 -6.85179 448.545 5.93585 455.598 7.1918C458.809 19.9438 389.836 -11.852 402.266 29.6973C416.599 -17.5403 313.38 -8.97293 319.679 16.2974C320.184 24.5402 311.101 50.1215 308.065 57.5374C307.601 60.2051 307.12 62.9681 306.656 65.6358C305.13 69.3914 304.495 75.2702 302.842 79.1996C299.471 94.1192 295.989 109.117 292.617 124.037C286.795 137.44 278.976 147.835 272.738 160.279C269.924 165.868 269.477 171.781 266.768 177.879C263.29 185.609 260.177 194.583 256.733 202.123C243.855 229.887 236.688 266.625 217.586 285.03C205.247 296.879 184.311 294.624 165.51 297.366C147.998 299.945 131.079 308.032 122.259 323.061C116.055 333.646 114.294 356.023 115.574 367.056C116.067 371.466 115.471 374.895 116.406 378.991C121.134 400.854 133.168 420.285 150.6 433.212C156.431 437.59 164.175 440.442 171.068 443.733C177.524 446.748 187.138 449.443 194.55 450.861C207.417 453.251 217.296 454.42 225.941 451.54C260.078 440.331 251.775 377.166 248.877 347.574C248.162 339.981 250.538 324.099 254.099 317.562C260.596 305.851 273.04 299.522 283.908 293.894C286.89 292.362 289.694 289.62 292.287 287.527C303.199 278.862 315.378 270.717 323.562 258.226C331.348 246.352 342.108 221.845 340.091 202.233C338.794 189.625 331.047 171.743 338.229 157.208C351.057 131.399 381.225 128.52 396.244 105.164C405.451 90.6946 405.553 71.1653 402.264 56.6314C395.461 26.6391 410.319 58.6353 402.266 29.6973C405.839 30.3337 442.246 17.6848 445.819 18.3211C453.623 43.6784 400.738 24.7302 408.21 50.3231C410.263 57.4665 411.083 65.5689 412.003 73.0998C412.396 76.4113 410.815 81.0412 412.06 83.915Z" fill="#C761F7"/>
<path d="M402.266 29.6973C389.836 -11.852 458.809 19.9438 455.598 7.1918C448.545 5.93585 430.663 -6.85179 381.037 -18.7769C364.568 -22.7344 291.911 -7.18621 294.709 16.2973C296.47 31.2469 300.713 52.9866 294.709 67.4373C290.568 77.3084 289.43 86.6341 284.951 95.6592C275.817 114.169 267.279 130.919 258.936 150.454C256.449 163.076 253.852 175.776 251.365 188.397C248.49 195.449 247.662 203.552 244.565 210.761C241.005 218.967 239.192 228.271 235.222 236.601C228.963 249.729 222.444 262.124 213.241 270.995C204.038 279.867 190.526 284.533 176.598 286.571C169.43 287.652 162.405 286.794 155.856 288.771C137.36 294.219 119.462 302.918 108.79 319.68C107.54 322.405 106.196 325.112 104.947 327.837C104.532 330.219 104.118 332.6 103.704 334.982C101.182 341.115 101.809 349.772 98.9505 356.728C96.7666 362.037 96.0158 370.252 94.9992 376.652C93.8666 383.719 96.1807 394.936 91.491 399.602C89.6051 401.525 85.3569 400.867 82.4475 401.429C74.1452 402.898 65.2783 402.596 56.3675 403.661C38.9385 405.763 21.5257 406.1 7.69303 413.165C-0.807922 417.447 -6.31565 425.699 -12.7418 433.101C-22.6906 444.59 -25.4472 464.334 -15.6381 474.823C-4.60089 486.611 13.8252 492.152 28.1477 501.775C48.6329 515.54 62.0223 534.427 78.7964 550.576C83.7755 555.392 99.6367 570.102 110.909 566.609C118.072 564.447 128.457 549.892 127.747 536.701C127.119 524.704 125.11 514.523 123.813 503.586C122.883 495.562 123.379 487.694 122.62 479.798C122.005 473.304 123.08 457.092 127.344 452.645C133.638 446.006 151.787 452.577 162.884 454.553C188.65 459.142 229.778 474.619 244.86 459.82C252.447 452.429 255.758 438.972 258.294 424.395C258.875 421.06 259.455 417.726 260.035 414.391C259.69 405.784 261.824 397.422 261.054 389.034C259.89 377.334 259.456 364.782 258.558 353.227C257.998 345.859 260.983 333.719 263.891 328.147C272.489 311.604 287.135 303.21 300.088 292.846C302.35 290.989 305.547 289.889 307.748 287.825C321.557 274.764 334.012 262.248 344.496 243.782C350.352 233.528 355.393 214.584 353.836 201.243C352.207 187.201 346.861 171.122 356.925 155.626C374.283 128.856 405.303 127.209 412.06 83.915C410.815 81.0412 412.396 76.4113 412.003 73.0998C411.083 65.5689 410.263 57.4665 408.21 50.3231C400.738 24.7302 453.623 43.6784 445.819 18.3211C442.246 17.6848 405.839 30.3337 402.266 29.6973ZM402.266 29.6973C416.599 -17.5403 313.38 -8.97293 319.679 16.2974C320.184 24.5402 311.101 50.1215 308.065 57.5374C307.601 60.2051 307.12 62.9681 306.656 65.6358C305.13 69.3914 304.495 75.2702 302.842 79.1996C299.471 94.1192 295.989 109.117 292.617 124.037C286.795 137.44 278.976 147.835 272.738 160.279C269.924 165.868 269.477 171.781 266.768 177.879C263.29 185.609 260.177 194.583 256.733 202.123C243.855 229.887 236.688 266.625 217.586 285.03C205.247 296.879 184.311 294.624 165.51 297.366C147.998 299.945 131.079 308.032 122.259 323.061C116.055 333.646 114.294 356.023 115.574 367.056C116.067 371.466 115.471 374.895 116.406 378.991C121.134 400.854 133.168 420.285 150.6 433.212C156.431 437.59 164.175 440.442 171.068 443.733C177.524 446.748 187.138 449.443 194.55 450.861C207.417 453.251 217.296 454.42 225.941 451.54C260.078 440.331 251.775 377.166 248.877 347.574C248.162 339.981 250.538 324.099 254.099 317.562C260.596 305.851 273.04 299.522 283.908 293.894C286.89 292.362 289.694 289.62 292.287 287.527C303.199 278.862 315.378 270.717 323.562 258.226C331.348 246.352 342.108 221.845 340.091 202.233C338.794 189.625 331.047 171.743 338.229 157.208C351.057 131.399 381.225 128.52 396.244 105.164C405.451 90.6946 405.553 71.1653 402.264 56.6314C395.461 26.6391 410.319 58.6353 402.266 29.6973Z" stroke="white" stroke-width="5" stroke-miterlimit="10"/>
<path fill-rule="evenodd" clip-rule="evenodd" d="M327.906 208.152C327.932 202.931 327.833 197.799 327.86 192.578C326.619 183.239 323.615 171.363 317.742 165.203C310.082 157.278 301.204 158.255 293.752 163.71C280.876 173.092 271.814 191.603 263.578 207.259C258.262 217.543 246.83 243.971 247.528 258.328C247.837 266.055 245.567 272.766 251.569 276.281C258.323 283.711 277.036 276.258 282.284 273.968C306.609 263.4 321.665 245.289 327.906 208.152Z" fill="#5177FD" stroke="white" stroke-width="5" stroke-miterlimit="10"/>
<path fill-rule="evenodd" clip-rule="evenodd" d="M228.65 410.574C227.586 407.547 229.883 402.944 229.657 399.405C229.339 394.241 230.206 388.721 229.648 383.326C228.419 371.569 226.688 360.007 224.344 349.282C222.99 343.082 222.875 337.293 220.331 332.017C216.553 324.157 201.519 318.075 188.032 318.699C164.724 319.845 145.07 317.196 132.531 333.877C125.832 342.803 124.476 360.814 125.988 371.486C129.878 399.132 143.352 420.634 167.549 433.738C171.137 435.701 175.306 437.011 178.867 438.591C181.739 439.292 184.536 439.884 187.408 440.585C191.076 442.089 196.782 442.633 200.192 442.389C217.565 440.943 225.054 431.779 228.65 410.574Z" fill="#0038FF" stroke="white" stroke-width="5" stroke-miterlimit="10"/>
<path d="M-34.3951 911.776L-21.118 914.14C-17.7719 904.979 -6.59667 898.653 -0.444384 892.874C10.18 882.791 22.9667 874.757 35.2536 867.076C45.4542 860.688 55.842 853.224 68.299 850.231C82.2491 846.839 90.623 862.416 104.289 860.521C127.292 850.231 110.852 827.206 108.587 816.935C106.56 807.814 111.374 797.14 115.296 790.964C124.938 775.827 135.555 764.524 147.116 752.833C162.275 737.46 177.59 722.446 194.149 709.096C210.189 696.207 228.817 685.443 240.901 666.971C243.274 663.402 243.922 660.302 246.052 656.246C250.092 648.761 254.736 633.399 254.164 622.21C253.655 613.803 254.39 605.175 253.063 597.066C248.05 565.46 236.627 536.704 207.558 521.881C188.744 512.321 161.572 511.141 150.455 522.8C139.856 533.996 140.705 555.547 141.41 571.639C141.699 578.787 136.963 598.456 134.734 603.714C132.449 609.294 132.407 613.944 129.896 618.93C121.423 636.159 111.192 643.984 90.9183 644.698C75.8241 645.225 58.731 625.771 52.144 618.943C33.5952 599.674 21.3055 576.529 -0.416472 559.133C-10.2214 551.289 -19.3065 548.119 -32.5345 542.326C-49.4179 534.884 -75.6655 531.541 -88.7026 537.867C-103.664 545.182 -110.449 564.043 -119.585 580.046C-123.963 587.582 -127.721 597.225 -131.698 605.608C-133.921 610.202 -134.625 615.51 -136.349 619.749C-138.615 625.222 -138.806 634.502 -138.561 638.759C-137.074 660.423 -128.407 666.624 -113.746 678.659C-101.004 689.133 -88.4489 700.683 -73.7829 710.169C-56.6485 721.204 -35.3981 728.093 -16.0464 737.083C-6.1237 741.733 5.341 742.555 15.601 747.154C41.8947 759.043 66.1583 771.902 73.7502 796.871C78.7594 813.397 63.8314 826.816 56.2988 834.234C51.5394 838.931 45.249 842.356 40.4021 846.926C22.1764 864.193 0.831885 877.357 -18.5314 892.98C-22.6039 896.246 -27.2945 901.177 -30.5234 905.258C-32.066 907.201 -32.6026 909.656 -34.3015 911.238L-34.3951 911.776Z" stroke="white" stroke-width="5" stroke-miterlimit="10"/>
<path fill-rule="evenodd" clip-rule="evenodd" d="M245.261 627.616C244.342 625.343 245.748 622.928 245.51 619.888C244.947 613.681 244.727 606.758 243.383 600.634C238.167 577.72 227.163 551.556 207.591 538.743C202.09 535.099 191.77 528.931 181.244 529.61C169.599 530.423 161.162 535.472 156.431 546.288C154.382 551.141 154.452 558.926 154.683 562.631C153.116 572.9 151.442 583.15 149.875 593.419C147.025 600.351 147.339 608.623 144.346 615.752C136.11 635.381 131.031 655.129 113.505 660.779C93.8983 667.059 74.1015 655.539 62.5617 645.045C51.5846 635.096 42.4635 622.036 34.1488 610.007C31.4042 605.632 28.766 601.276 26.0214 596.901C11.1994 580.716 -0.153426 565.37 -22.9879 554.309C-27.8885 552.881 -32.6828 551.472 -37.5833 550.044C-80.044 541.594 -94.0118 557.649 -108.553 589.591C-111.939 597.093 -117.282 612.686 -116.58 623.137C-114.106 662.439 -87.3384 687.413 -55.9711 706.101C-41.5751 714.661 -25.1668 720.469 -9.33961 727.729C3.25586 733.414 17.8447 734.569 30.1026 740.305C41.4417 745.655 53.3932 750.004 64.0136 756.337C71.9523 761.081 82.4166 768.941 94.9549 767.398C114.987 764.97 128.93 747.8 142.173 735.28C146.898 730.792 153.948 728.05 159.392 724.467C161.248 723.243 162.898 721.317 164.579 719.839C171.929 713.487 181.023 708.444 188.516 701.896C192.479 699.27 196.335 696.626 200.298 694.001C214.922 683.614 230.816 672.232 239.608 653.812C242.882 646.956 243.725 636.447 245.261 627.616Z" stroke="white" stroke-width="5" stroke-miterlimit="10"/>
<path d="M552.107 123.02C557.076 116.814 566.134 110.55 567.753 104.755C573.069 81.4952 546.429 107.495 537.188 117.039L528.529 123.807C523.553 128.904 517.984 135.114 511.993 138.59C494.251 148.837 475.485 159.234 460.884 174.361C451.028 184.572 440.847 195.501 428.669 201.863C425.374 203.603 419.848 207.272 413.799 204.201C408.39 201.465 404.587 195.802 402.217 190.505C398.986 183.282 393.404 177.523 392.038 168.749C391.594 165.567 392.798 163.234 392.66 159.442C392.591 157.546 392.993 153.518 394.156 150.844C404.851 125.493 426.16 117.1 437.115 93.1246C444.806 76.4345 442.253 49.8318 439.878 37.1105C436.428 19.1011 433.179 2.23525 428.943 -14.6954C427.181 -21.7677 427.16 -28.53 425.629 -35.7828C423.798 -44.751 419.97 -54.8505 419.662 -64.5447L410.954 -66.0953C411.775 -54.7587 416.499 -43.5025 419.17 -33.0552C420.398 -28.0723 420.424 -23.6358 421.67 -18.7604C426.022 -1.91999 429.733 14.5849 432.606 33.0455C434.675 46.3772 435.985 68.659 428.562 84.9537C415.337 113.954 389.961 121.069 377.538 151.763C373.518 161.684 376.919 171.375 378.372 178.503C380.822 190.794 382.325 213.11 374.702 228.262C361.442 254.597 343.434 275.543 325.316 294.255L312.04 304.632C298.995 314.829 285.953 325.58 277.862 343.418C271.583 357.147 274.561 373.853 275.5 385.654C276.458 397.348 274.885 409.255 275.322 421.078C275.602 429.215 271.799 436.737 272.083 445.43C272.454 459.346 268.176 474.76 272.03 485.861C281.746 514.293 333.982 505.868 361.917 519.596C379.461 528.26 393.366 539.489 405.023 552.755C408.272 556.436 410.661 561.626 413.795 565.397C416.598 568.777 420.004 572.707 421.787 576.792C425.038 583.908 428.903 590.358 432.153 597.473C433.361 599.129 434.551 600.892 435.759 602.547C437.913 607.363 441.339 614.621 446.186 617.146C446.595 617.662 446.245 617.378 447.06 617.856C450.235 612.216 451.992 598.68 451.734 590.989C451.48 583.852 453.332 576.648 453.055 569.065C452.515 556.116 453.364 542.639 451.673 531.148C450.847 525.572 450.874 520.258 448.298 516.143C445.938 512.51 440.658 511.902 436.469 509.605C427.355 504.658 417.202 500.523 408.644 494.678C385.025 478.506 357.395 447.548 352.81 417.149C351.984 411.573 352.045 405.49 351.838 399.803C351.47 389.876 356.313 375.227 359.382 367.907C361.269 363.368 361.346 360.058 363.467 355.893C369.447 343.884 376.579 333.853 384.743 325.335C387.246 323.565 389.652 321.777 392.154 320.007C404.488 310.459 419.5 302.717 429.767 290.142C433.951 285.015 437.161 278.606 439.999 271.467C443.56 262.462 440.684 253.196 440.429 246.06C440.052 234.47 447.591 218.085 451.344 211.995C463.079 192.701 482.891 172.851 500.733 163.176C512.197 156.908 529.962 150.543 538.973 141.179C543.986 135.867 547.386 128.938 552.107 123.02Z" stroke="white" stroke-width="5" stroke-miterlimit="10"/>
<path fill-rule="evenodd" clip-rule="evenodd" d="M430.21 262.155C427.431 256.779 428.909 253.935 423.698 249.346C416.331 242.708 405.827 245.941 399.729 248.961C384.673 256.376 376.496 275.113 364.687 287.101C357.666 294.172 349.224 299.992 341.243 305.671C338.712 307.661 336.199 309.544 333.668 311.534C314.216 321.606 297.601 331.074 287.777 355.509C284.858 362.867 287.238 371.168 287.929 376.617C289.192 386.938 289.433 396.856 290.291 406.995C291.914 425.923 283.443 451.376 288.471 467.694C293.86 485.074 312.073 497.194 336.155 495.047C343.804 494.412 350.112 495.203 356.259 492.525C359.458 491.097 361.166 488.184 363.929 486.124C369.463 462.478 355.713 451.708 349.289 435.253C342.436 417.501 343.489 388.841 353.138 366.039C355.165 361.296 354.53 357.411 356.538 352.776C360.03 344.632 362.071 334.788 366.424 327.353C370.184 320.811 375.191 315.267 380.298 310.407C397.064 294.42 424.699 294.459 430.21 262.155Z" fill="#B403CC" stroke="white" stroke-width="5" stroke-miterlimit="10"/>
<path fill-rule="evenodd" clip-rule="evenodd" d="M231.306 631.356C230.475 629.212 231.736 626.997 231.461 624.175C231.023 619.772 230.773 614.294 229.555 609.974C225.458 595.16 218.29 581.02 207.951 570.64C202.369 564.988 200.433 559.764 188.847 557.811C186.762 559.104 183.997 559.276 182.261 561.074C169.185 574.604 165.992 607.415 157.455 628.185C154.99 634.178 155.309 641.776 153.025 647.358C151.683 650.668 151.416 656.608 151.497 659.284C150.973 662.296 150.43 665.416 149.906 668.427C150.344 676.601 149.384 688.407 157.494 690.849C163.731 696.506 179.18 686.948 183.057 685.421C199.986 678.676 217.776 666.984 227.063 649.453C229.516 644.788 230.308 637.721 231.306 631.356Z" fill="#4A0B9B" stroke="white" stroke-width="5" stroke-miterlimit="10"/>
<path fill-rule="evenodd" clip-rule="evenodd" d="M120.216 708.525C119.451 706.624 119.502 702.554 119.393 700.661C117.228 698.621 115.424 695.765 112.884 693.989C105.245 688.77 95.2818 688.099 86.1819 683.722C79.4147 680.422 73.2401 676.236 68.0088 671.666C36.2142 644.065 24.6245 596.69 -11.7216 572.578C-15.7309 570.43 -19.7216 568.176 -23.7308 566.029C-28.7843 563.586 -37.9747 561.618 -43.8307 561.898C-48.3555 562.085 -51.6448 560.838 -55.8004 561.421C-68.6231 563.326 -79.7005 570.945 -86.6491 581.284C-97.1531 596.942 -98.135 623.998 -93.4145 639.061C-82.6424 673.502 -59.5965 688.41 -25.0408 705.809C-16.3846 710.217 -6.48211 711.87 2.81712 715.731C6.74942 716.431 10.5754 717.113 14.5077 717.813C24.2986 720.108 34.1957 722.421 43.9866 724.716C52.7784 727.715 61.5516 730.821 70.3433 733.82C74.3898 735.753 81.7893 739.827 88.5699 739.27C103.144 738.007 116.814 725.558 120.216 708.525Z" fill="#5C77D7" stroke="white" stroke-width="5" stroke-miterlimit="10"/>
<path fill-rule="evenodd" clip-rule="evenodd" d="M245.66 155.888C242.183 175.873 235.681 191.22 222.159 196.567C211.592 200.666 198.174 198.499 186.838 201.354C175.271 204.279 162.923 207.286 151.831 210.628C144.08 213.014 136.384 213.195 129.44 216.61C107.876 227.281 90.6879 248.037 75.6175 267.951C67.0959 279.173 63.3113 295.89 49.8021 299.909C41.358 302.504 30.2117 296.088 27.3735 290.376C22.272 280.052 19.3312 268.008 15.0853 257.171C13.7159 253.715 10.6099 250.171 9.24051 246.715C3.17499 231.234 -4.40196 216.26 -7.61369 198.85C-9.8613 186.597 -11.2597 158.765 -4.6385 143.993C1.24013 130.972 7.54952 117.363 14.1469 105.245C19.7519 95.0545 23.8005 82.4827 34.4058 80.0511C43.5185 78.0184 59.7054 83.7811 67.1399 86.9882C72.5253 89.3872 77.0103 89.4105 82.1646 91.8792C95.722 98.2814 110.041 104.708 123.649 111.452C129.509 114.268 136.075 115.548 141.673 117.985C146.671 120.093 157.84 121.972 162.912 121.767C169.314 121.467 174.007 124.075 180.09 123.718C190.253 123.202 200.635 123.943 210.416 122.472C217.499 121.408 230.889 116.813 237.713 122.903C243.025 127.615 245.071 136.619 246.03 144.323C246.494 147.95 244.359 152.666 245.66 155.888Z" fill="#D50EBB" stroke="white" stroke-width="5" stroke-miterlimit="10"/>
<path d="M110.617 197.333C117.897 190.207 124.522 175.563 120.896 158.231C114.8 134.429 108.074 118.472 81.9767 107.509C71.3286 103.064 59.121 106.32 52.6265 108.931C30.8948 117.693 8.3885 150.475 14.2883 184.104C17.594 202.977 22.5648 210.352 35.4751 222.624C42.1592 229.022 57.7355 234.913 68.6014 230.532C75.275 227.841 76.5157 226.417 86.4678 219.149C95.1813 210.727 101.283 206.469 110.617 197.333Z" fill="#5E0BC9" stroke="white" stroke-width="5" stroke-miterlimit="10"/>
<path fill-rule="evenodd" clip-rule="evenodd" d="M40.8675 682.385C37.3647 701.255 2.51786 700.256 -16.1779 691.61C-45.9569 677.889 -67.6953 663.384 -74.6924 633.561C-77.8295 620.043 -76.5515 599.447 -66.8415 588.438C-55.067 575.028 -31.0685 574.649 -14.5795 587.776C4.24076 602.647 16.0472 625.019 26.3368 646.014C29.6559 652.808 34.0771 659.576 37.002 666.743C38.7595 671.154 38.9287 678.384 40.8675 682.385Z" fill="#3907FF" stroke="white" stroke-width="5" stroke-miterlimit="10"/>
<path fill-rule="evenodd" clip-rule="evenodd" d="M415.823 701.51C414.941 699.028 417.07 694.978 416.974 691.75C416.55 681.598 419.786 670.548 418.488 661.016C414.146 628.686 396.594 596.108 365.268 582.889C353.237 577.757 342.673 583.073 338.34 589.72C328.22 605.08 324.188 625.732 316.126 645.002C312.9 652.843 312.885 660.48 309.453 667.62C303.074 680.989 296.407 692.867 288.821 704.36C283.196 712.77 275.471 720.031 269.808 728.656C263.696 737.975 254.396 756.804 259.427 769.436C264.527 782.303 293.078 796.356 315.148 795.414C318.122 795.944 321.203 796.493 324.178 797.022C330.489 797.261 336.925 797.41 343.237 797.648C391.942 792.813 405.509 760.794 415.823 701.51Z" stroke="white" stroke-width="5" stroke-miterlimit="10"/>
<path fill-rule="evenodd" clip-rule="evenodd" d="M218.385 400.834C216.965 397.048 219.051 391.348 218.592 387.071C217.924 380.218 217.194 372.471 215.142 366.034C211.676 355.15 204.447 343.265 194.496 336.967C178.451 326.713 151.485 328.314 142.24 338.7C136.268 345.364 133.529 361.105 134.966 371.075C137.96 391.59 152.742 414.756 169.205 425.746C173.225 427.787 177.264 429.72 181.284 431.761C186.065 433.827 192.012 434.223 196.23 433.87C213.244 432.264 215.076 421.109 218.385 400.834Z" fill="#D50EBB" stroke="white" stroke-width="5" stroke-miterlimit="10"/>
<path fill-rule="evenodd" clip-rule="evenodd" d="M404.131 683.108C403.386 681.092 405.009 678.059 404.908 675.494C404.936 670.294 404.839 665.183 404.867 659.983C401.845 638.293 391.399 619.6 370.167 610.614C358.728 605.808 346.917 615.111 342.132 620.571C330.086 634.373 327.431 657.821 318.221 676.115C313.019 686.484 307.53 697.245 300.921 706.257C295.873 713.221 289.907 719.799 285.21 727.269C279.27 736.842 275.435 753.214 280.105 762.905C287.267 777.802 318.399 780.909 335.51 778.309C379.522 771.639 394.45 738.749 404.131 683.108Z" stroke="white" stroke-width="5" stroke-miterlimit="10"/>
</g>
<defs>
<clipPath id="clip0">
<rect width="375" height="922" fill="white" transform="translate(-3)"/>
</clipPath>
</defs>
</svg>
