<svg width="184" height="182" viewBox="0 0 184 182" fill="none" xmlns="http://www.w3.org/2000/svg">
<path d="M37.9003 101.08C39.3302 103.735 40.7274 106.357 42.1025 108.938C51.0451 125.721 59.0524 140.749 69.0356 151.724C74.7565 158.014 81.0508 162.875 88.4365 165.912C95.8126 168.946 104.417 170.218 114.846 169.132C138.647 166.655 154.23 158.43 163.368 145.434C172.558 132.362 175.588 113.962 173.133 90.3777C171.901 78.5393 164.631 67.7633 153.292 58.2456C141.965 48.7385 126.806 40.6872 110.342 34.3044C77.3539 21.5154 39.8063 15.6751 18.7486 17.8673C13.6351 18.3996 10.229 19.7189 8.02455 21.4349C5.87868 23.1052 4.6824 25.296 4.23076 28.0297C3.2837 33.7621 5.63813 41.6995 9.93366 50.8193C14.1147 59.6958 19.8612 69.1531 25.1975 77.9351L25.4079 78.2813C30.6797 86.9577 35.6319 95.1192 37.9003 101.08Z" stroke="white" stroke-width="5"/>
<path d="M63.9198 106.504C64.9851 108.493 66.0251 110.454 67.0477 112.383C73.7384 125.002 79.6836 136.214 87.0871 144.401C91.3163 149.078 95.9452 152.667 101.354 154.907C106.753 157.144 113.07 158.094 120.764 157.293C138.417 155.455 149.849 149.343 156.527 139.783C163.262 130.144 165.523 116.499 163.685 98.85C162.782 90.1734 157.474 82.209 149.071 75.1125C140.68 68.0262 129.425 62.0026 117.167 57.2157C92.5893 47.6181 64.6553 43.2443 49.0654 44.8673C45.3202 45.2571 42.9075 46.2201 41.3882 47.4094C39.9266 48.5534 39.1045 50.0509 38.7902 51.9715C38.1187 56.0753 39.7998 61.8861 43.0094 68.7335C46.1217 75.3733 50.403 82.4562 54.3981 89.0657L54.5464 89.3109C58.462 95.7892 62.1916 101.963 63.9198 106.504Z" fill="#B403CC" stroke="white" stroke-width="5"/>
<path d="M96.8945 120H90.1211V93.8906L82.0352 96.3984V90.8906L96.168 85.8281H96.8945V120ZM123.848 106.359C122.082 108.094 120.02 108.961 117.66 108.961C114.645 108.961 112.23 107.93 110.418 105.867C108.605 103.789 107.699 100.992 107.699 97.4766C107.699 95.2422 108.184 93.1953 109.152 91.3359C110.137 89.4609 111.504 88.0078 113.254 86.9766C115.004 85.9297 116.973 85.4062 119.16 85.4062C121.41 85.4062 123.41 85.9688 125.16 87.0938C126.91 88.2188 128.27 89.8359 129.238 91.9453C130.207 94.0547 130.699 96.4688 130.715 99.1875V101.695C130.715 107.383 129.301 111.852 126.473 115.102C123.645 118.352 119.637 120.086 114.449 120.305L112.785 120.328V114.68L114.285 114.656C120.176 114.391 123.363 111.625 123.848 106.359ZM119.324 103.781C120.418 103.781 121.355 103.5 122.137 102.938C122.934 102.375 123.535 101.695 123.941 100.898V98.1094C123.941 95.8125 123.504 94.0312 122.629 92.7656C121.754 91.5 120.582 90.8672 119.113 90.8672C117.754 90.8672 116.637 91.4922 115.762 92.7422C114.887 93.9766 114.449 95.5312 114.449 97.4062C114.449 99.2656 114.871 100.797 115.715 102C116.574 103.188 117.777 103.781 119.324 103.781Z" fill="white"/>
</svg>
