<svg width="184" height="182" viewBox="0 0 184 182" fill="none" xmlns="http://www.w3.org/2000/svg">
<path d="M37.9003 101.08C39.3302 103.735 40.7274 106.357 42.1025 108.938C51.0451 125.721 59.0524 140.749 69.0356 151.724C74.7565 158.014 81.0508 162.875 88.4365 165.912C95.8126 168.946 104.417 170.218 114.846 169.132C138.647 166.655 154.23 158.43 163.368 145.434C172.558 132.362 175.588 113.962 173.133 90.3777C171.901 78.5393 164.631 67.7633 153.292 58.2456C141.965 48.7385 126.806 40.6872 110.342 34.3044C77.3539 21.5154 39.8063 15.6751 18.7486 17.8673C13.6351 18.3996 10.229 19.7189 8.02455 21.4349C5.87868 23.1052 4.6824 25.296 4.23076 28.0297C3.2837 33.7621 5.63813 41.6995 9.93366 50.8193C14.1147 59.6958 19.8612 69.1531 25.1975 77.9351L25.4079 78.2813C30.6797 86.9577 35.6319 95.1192 37.9003 101.08Z" stroke="white" stroke-width="5"/>
</svg>
