<svg width="184" height="182" viewBox="0 0 184 182" fill="none" xmlns="http://www.w3.org/2000/svg">
<path d="M37.9003 101.08C39.3302 103.735 40.7274 106.357 42.1025 108.938C51.0451 125.721 59.0524 140.749 69.0356 151.724C74.7565 158.014 81.0508 162.875 88.4365 165.912C95.8126 168.946 104.417 170.218 114.846 169.132C138.647 166.655 154.23 158.43 163.368 145.434C172.558 132.362 175.588 113.962 173.133 90.3777C171.901 78.5393 164.631 67.7633 153.292 58.2456C141.965 48.7385 126.806 40.6872 110.342 34.3044C77.3539 21.5154 39.8063 15.6751 18.7486 17.8673C13.6351 18.3996 10.229 19.7189 8.02455 21.4349C5.87868 23.1052 4.6824 25.296 4.23076 28.0297C3.2837 33.7621 5.63813 41.6995 9.93366 50.8193C14.1147 59.6958 19.8612 69.1531 25.1975 77.9351L25.4079 78.2813C30.6797 86.9577 35.6319 95.1192 37.9003 101.08Z" stroke="white" stroke-width="5"/>
<path d="M63.9198 106.504C64.9851 108.493 66.0251 110.454 67.0477 112.383C73.7384 125.002 79.6836 136.214 87.0871 144.401C91.3163 149.078 95.9452 152.667 101.354 154.907C106.753 157.144 113.07 158.094 120.764 157.293C138.417 155.455 149.849 149.343 156.527 139.783C163.262 130.144 165.523 116.499 163.685 98.85C162.782 90.1734 157.474 82.209 149.071 75.1125C140.68 68.0262 129.425 62.0026 117.167 57.2157C92.5893 47.6181 64.6553 43.2443 49.0654 44.8673C45.3202 45.2571 42.9075 46.2201 41.3882 47.4094C39.9266 48.5534 39.1045 50.0509 38.7902 51.9715C38.1187 56.0753 39.7998 61.8861 43.0094 68.7335C46.1217 75.3733 50.403 82.4562 54.3981 89.0657L54.5464 89.3109C58.462 95.7892 62.1916 101.963 63.9198 106.504Z" fill="#9750E1" stroke="white" stroke-width="5"/>
<path d="M96.8945 110.618H90.1211V84.5088L82.0352 87.0166V81.5088L96.168 76.4463H96.8945V110.618ZM123.848 96.9775C122.082 98.7119 120.02 99.5791 117.66 99.5791C114.645 99.5791 112.23 98.5479 110.418 96.4854C108.605 94.4072 107.699 91.6104 107.699 88.0947C107.699 85.8604 108.184 83.8135 109.152 81.9541C110.137 80.0791 111.504 78.626 113.254 77.5947C115.004 76.5479 116.973 76.0244 119.16 76.0244C121.41 76.0244 123.41 76.5869 125.16 77.7119C126.91 78.8369 128.27 80.4541 129.238 82.5635C130.207 84.6729 130.699 87.0869 130.715 89.8057V92.3135C130.715 98.001 129.301 102.47 126.473 105.72C123.645 108.97 119.637 110.704 114.449 110.923L112.785 110.946V105.298L114.285 105.274C120.176 105.009 123.363 102.243 123.848 96.9775ZM119.324 94.3994C120.418 94.3994 121.355 94.1182 122.137 93.5557C122.934 92.9932 123.535 92.3135 123.941 91.5166V88.7275C123.941 86.4307 123.504 84.6494 122.629 83.3838C121.754 82.1182 120.582 81.4854 119.113 81.4854C117.754 81.4854 116.637 82.1104 115.762 83.3604C114.887 84.5947 114.449 86.1494 114.449 88.0244C114.449 89.8838 114.871 91.415 115.715 92.6182C116.574 93.8057 117.777 94.3994 119.324 94.3994Z" fill="white"/>
</svg>
