<svg width="90" height="86" viewBox="0 0 90 86" fill="none" xmlns="http://www.w3.org/2000/svg">
<path d="M26.889 31.8351C27.7009 31.1722 28.4963 30.5172 29.2775 29.8738C34.4243 25.6353 38.9569 21.9025 43.5713 19.7229C46.1975 18.4824 48.785 17.7825 51.4548 17.7868C54.1181 17.7911 56.9543 18.4962 60.0819 20.1968C67.3014 24.1222 71.0433 28.7349 72.1791 33.9235C73.3274 39.1688 71.8961 45.364 67.96 52.6029C66.0731 56.0732 62.4508 58.5117 57.6054 60.0478C52.769 61.581 46.8825 62.1572 40.7674 62.0227C28.4981 61.7528 15.7416 58.6376 9.37965 55.1784C7.86986 54.3574 7.06065 53.549 6.66055 52.8377C6.28199 52.1646 6.20125 51.4598 6.39313 50.648C6.81362 48.8689 8.50604 46.7277 11.1133 44.3557C13.6302 42.066 16.7311 39.7916 19.6414 37.6571L19.7415 37.5837L19.754 37.5745C22.5758 35.5049 25.3047 33.5033 26.889 31.8351Z" fill="#B403CC" stroke="white" stroke-width="3"/>
<path d="M38.8262 52.7461H35.4395V39.6914L31.3965 40.9453V38.1914L38.4629 35.6602H38.8262V52.7461ZM52.3027 45.9258C51.4199 46.793 50.3887 47.2266 49.209 47.2266C47.7012 47.2266 46.4941 46.7109 45.5879 45.6797C44.6816 44.6406 44.2285 43.2422 44.2285 41.4844C44.2285 40.3672 44.4707 39.3438 44.9551 38.4141C45.4473 37.4766 46.1309 36.75 47.0059 36.2344C47.8809 35.7109 48.8652 35.4492 49.959 35.4492C51.084 35.4492 52.084 35.7305 52.959 36.293C53.834 36.8555 54.5137 37.6641 54.998 38.7188C55.4824 39.7734 55.7285 40.9805 55.7363 42.3398V43.5938C55.7363 46.4375 55.0293 48.6719 53.6152 50.2969C52.2012 51.9219 50.1973 52.7891 47.6035 52.8984L46.7715 52.9102V50.0859L47.5215 50.0742C50.4668 49.9414 52.0605 48.5586 52.3027 45.9258ZM50.041 44.6367C50.5879 44.6367 51.0566 44.4961 51.4473 44.2148C51.8457 43.9336 52.1465 43.5938 52.3496 43.1953V41.8008C52.3496 40.6523 52.1309 39.7617 51.6934 39.1289C51.2559 38.4961 50.6699 38.1797 49.9355 38.1797C49.2559 38.1797 48.6973 38.4922 48.2598 39.1172C47.8223 39.7344 47.6035 40.5117 47.6035 41.4492C47.6035 42.3789 47.8145 43.1445 48.2363 43.7461C48.666 44.3398 49.2676 44.6367 50.041 44.6367Z" fill="white"/>
</svg>
