<svg width="113" height="113" viewBox="0 0 113 113" fill="none" xmlns="http://www.w3.org/2000/svg">
<path d="M34.7177 42.5092C35.8061 41.6244 36.8736 40.7489 37.9233 39.888C44.7861 34.2597 50.8901 29.2536 57.115 26.3351C60.6725 24.6672 64.2049 23.718 67.8689 23.7332C71.5268 23.7483 75.4062 24.7246 79.6609 27.038C89.4138 32.341 94.5651 38.6075 96.1437 45.7168C97.7342 52.8803 95.7818 61.2608 90.5165 70.9444C87.9217 75.7167 82.9516 79.0147 76.4078 81.0676C69.8736 83.1175 61.9422 83.8673 53.7299 83.6665C37.2666 83.264 20.1071 79.0579 11.492 74.3736C9.4182 73.246 8.24485 72.1059 7.6441 71.0445C7.0653 70.022 6.94807 68.9516 7.22649 67.7655C7.82016 65.2364 10.183 62.3003 13.6651 59.1443C17.043 56.0828 21.2004 53.0484 25.0775 50.2187L25.2223 50.113C29.0259 47.3367 32.6437 44.6946 34.7177 42.5092Z" stroke="white" stroke-width="3"/>
<path d="M46.889 44.8351C47.7009 44.1722 48.4962 43.5172 49.2774 42.8739C54.4243 38.6353 58.9569 34.9025 63.5713 32.7229C66.1975 31.4824 68.785 30.7825 71.4548 30.7868C74.1181 30.7911 76.9543 31.4962 80.0819 33.1968C87.3014 37.1222 91.0433 41.7349 92.1791 46.9235C93.3274 52.1688 91.8961 58.364 87.96 65.6029C86.0731 69.0732 82.4508 71.5117 77.6054 73.0478C72.769 74.581 66.8825 75.1572 60.7674 75.0227C48.4981 74.7528 35.7416 71.6376 29.3796 68.1784C27.8699 67.3574 27.0607 66.549 26.6606 65.8377C26.282 65.1646 26.2013 64.4598 26.3931 63.648C26.8136 61.8689 28.506 59.7277 31.1133 57.3557C33.6301 55.066 36.7311 52.7917 39.6413 50.6572L39.7415 50.5837L39.754 50.5745C42.5758 48.5049 45.3047 46.5033 46.889 44.8351Z" fill="#B403CC" stroke="white" stroke-width="3"/>
<path d="M58.8262 65.7461H55.4395V52.6914L51.3965 53.9453V51.1914L58.4629 48.6602H58.8262V65.7461ZM72.3027 58.9258C71.4199 59.793 70.3887 60.2266 69.209 60.2266C67.7012 60.2266 66.4941 59.7109 65.5879 58.6797C64.6816 57.6406 64.2285 56.2422 64.2285 54.4844C64.2285 53.3672 64.4707 52.3438 64.9551 51.4141C65.4473 50.4766 66.1309 49.75 67.0059 49.2344C67.8809 48.7109 68.8652 48.4492 69.959 48.4492C71.084 48.4492 72.084 48.7305 72.959 49.293C73.834 49.8555 74.5137 50.6641 74.998 51.7188C75.4824 52.7734 75.7285 53.9805 75.7363 55.3398V56.5938C75.7363 59.4375 75.0293 61.6719 73.6152 63.2969C72.2012 64.9219 70.1973 65.7891 67.6035 65.8984L66.7715 65.9102V63.0859L67.5215 63.0742C70.4668 62.9414 72.0605 61.5586 72.3027 58.9258ZM70.041 57.6367C70.5879 57.6367 71.0566 57.4961 71.4473 57.2148C71.8457 56.9336 72.1465 56.5938 72.3496 56.1953V54.8008C72.3496 53.6523 72.1309 52.7617 71.6934 52.1289C71.2559 51.4961 70.6699 51.1797 69.9355 51.1797C69.2559 51.1797 68.6973 51.4922 68.2598 52.1172C67.8223 52.7344 67.6035 53.5117 67.6035 54.4492C67.6035 55.3789 67.8145 56.1445 68.2363 56.7461C68.666 57.3398 69.2676 57.6367 70.041 57.6367Z" fill="white"/>
</svg>
