<svg width="137" height="138" viewBox="0 0 137 138" fill="none" xmlns="http://www.w3.org/2000/svg">
<path d="M28.9198 76.5039C29.9851 78.4925 31.0251 80.4541 32.0477 82.3828C38.7384 95.0017 44.6836 106.214 52.0871 114.401C56.3163 119.078 60.9452 122.667 66.3542 124.907C71.7532 127.144 78.0696 128.094 85.7638 127.293C103.417 125.455 114.849 119.343 121.527 109.783C128.262 100.144 130.523 86.4994 128.685 68.85C127.782 60.1734 122.474 52.209 114.071 45.1125C105.68 38.0262 94.4247 32.0026 82.1666 27.2157C57.5893 17.6181 29.6553 13.2443 14.0654 14.8673C10.3202 15.2571 7.90755 16.2201 6.38825 17.4094C4.92661 18.5534 4.10453 20.0509 3.79025 21.9715C3.1187 26.0753 4.79981 31.8861 8.00942 38.7335C11.1217 45.3733 15.403 52.4562 19.3981 59.0657L19.5464 59.3109C23.462 65.7892 27.1916 71.9629 28.9198 76.5039Z" fill="#9750E1" stroke="white" stroke-width="5"/>
<path d="M61.8945 90H55.1211L55.1211 63.8906L47.0352 66.3984V60.8906L61.168 55.8281H61.8945V90ZM88.8477 76.3594C87.082 78.0938 85.0195 78.9609 82.6602 78.9609C79.6445 78.9609 77.2305 77.9297 75.418 75.8672C73.6055 73.7891 72.6992 70.9922 72.6992 67.4766C72.6992 65.2422 73.1836 63.1953 74.1523 61.3359C75.1367 59.4609 76.5039 58.0078 78.2539 56.9766C80.0039 55.9297 81.9727 55.4062 84.1602 55.4063C86.4102 55.4063 88.4102 55.9688 90.1602 57.0938C91.9102 58.2188 93.2695 59.8359 94.2383 61.9453C95.207 64.0547 95.6992 66.4688 95.7148 69.1875V71.6953C95.7148 77.3828 94.3008 81.8516 91.4727 85.1016C88.6445 88.3516 84.6367 90.0859 79.4492 90.3047L77.7852 90.3281V84.6797L79.2852 84.6562C85.1758 84.3906 88.3633 81.625 88.8477 76.3594ZM84.3242 73.7812C85.418 73.7812 86.3555 73.5 87.1367 72.9375C87.9336 72.375 88.5352 71.6953 88.9414 70.8984V68.1094C88.9414 65.8125 88.5039 64.0312 87.6289 62.7656C86.7539 61.5 85.582 60.8672 84.1133 60.8672C82.7539 60.8672 81.6367 61.4922 80.7617 62.7422C79.8867 63.9766 79.4492 65.5312 79.4492 67.4062C79.4492 69.2656 79.8711 70.7969 80.7148 72C81.5742 73.1875 82.7773 73.7812 84.3242 73.7812Z" fill="white"/>
</svg>
