<svg width="137" height="137" viewBox="0 0 137 137" fill="none" xmlns="http://www.w3.org/2000/svg">
<path d="M28.9198 61.3145C29.9851 59.3258 31.0251 57.3643 32.0477 55.4356C38.7384 42.8166 44.6836 31.6039 52.0871 23.4174C56.3163 18.7408 60.9452 15.1514 66.3542 12.911C71.7532 10.6748 78.0696 9.72429 85.7638 10.5253C103.417 12.363 114.849 18.4753 121.527 28.035C128.262 37.6741 130.523 51.319 128.685 68.9683C127.782 77.6449 122.474 85.6093 114.071 92.7058C105.68 99.7922 94.4247 105.816 82.1666 110.603C57.5893 120.2 29.6553 124.574 14.0654 122.951C10.3202 122.561 7.90755 121.598 6.38825 120.409C4.92661 119.265 4.10453 117.767 3.79025 115.847C3.1187 111.743 4.79981 105.932 8.00942 99.0849C11.1217 92.4451 15.403 85.3621 19.3981 78.7527L19.5464 78.5074C23.462 72.0291 27.1916 65.8554 28.9198 61.3145Z" fill="#B403CC" stroke="white" stroke-width="5"/>
<path d="M68.832 89.2002H45.4414V84.5596L56.4805 72.7939C57.9961 71.1377 59.1133 69.6924 59.832 68.458C60.5664 67.2236 60.9336 66.0518 60.9336 64.9424C60.9336 63.4268 60.5508 62.2393 59.7852 61.3799C59.0195 60.5049 57.9258 60.0674 56.5039 60.0674C54.9727 60.0674 53.7617 60.5986 52.8711 61.6611C51.9961 62.708 51.5586 64.0908 51.5586 65.8096H44.7617C44.7617 63.7314 45.2539 61.833 46.2383 60.1143C47.2383 58.3955 48.6445 57.0518 50.457 56.083C52.2695 55.0986 54.3242 54.6064 56.6211 54.6064C60.1367 54.6064 62.8633 55.4502 64.8008 57.1377C66.7539 58.8252 67.7305 61.208 67.7305 64.2861C67.7305 65.9736 67.293 67.6924 66.418 69.4424C65.543 71.1924 64.043 73.2314 61.918 75.5596L54.1602 83.7393H68.832V89.2002ZM96.3945 89.2002H73.0039V84.5596L84.043 72.7939C85.5586 71.1377 86.6758 69.6924 87.3945 68.458C88.1289 67.2236 88.4961 66.0518 88.4961 64.9424C88.4961 63.4268 88.1133 62.2393 87.3477 61.3799C86.582 60.5049 85.4883 60.0674 84.0664 60.0674C82.5352 60.0674 81.3242 60.5986 80.4336 61.6611C79.5586 62.708 79.1211 64.0908 79.1211 65.8096H72.3242C72.3242 63.7314 72.8164 61.833 73.8008 60.1143C74.8008 58.3955 76.207 57.0518 78.0195 56.083C79.832 55.0986 81.8867 54.6064 84.1836 54.6064C87.6992 54.6064 90.4258 55.4502 92.3633 57.1377C94.3164 58.8252 95.293 61.208 95.293 64.2861C95.293 65.9736 94.8555 67.6924 93.9805 69.4424C93.1055 71.1924 91.6055 73.2314 89.4805 75.5596L81.7227 83.7393H96.3945V89.2002Z" fill="white"/>
</svg>
