<svg width="184" height="182" viewBox="0 0 184 182" fill="none" xmlns="http://www.w3.org/2000/svg">
<path d="M37.9003 80.7386C39.3302 78.0832 40.7274 75.461 42.1025 72.8802C51.0451 56.0971 59.0524 41.0694 69.0356 30.0939C74.7565 23.8043 81.0508 18.9435 88.4365 15.9062C95.8126 12.8728 104.417 11.6004 114.846 12.6861C138.647 15.1638 154.23 23.3881 163.368 36.3842C172.558 49.4562 175.588 67.8567 173.133 91.4407C171.901 103.279 164.631 114.055 153.292 123.573C141.965 133.08 126.806 141.131 110.342 147.514C77.3539 160.303 39.8063 166.143 18.7486 163.951C13.6351 163.419 10.229 162.099 8.02455 160.384C5.87868 158.713 4.6824 156.522 4.23076 153.789C3.2837 148.056 5.63813 140.119 9.93366 130.999C14.1147 122.123 19.8612 112.665 25.1975 103.883L25.4079 103.537C30.6797 94.8606 35.6319 86.6992 37.9003 80.7386Z" stroke="white" stroke-width="5"/>
</svg>
