<svg width="113" height="112" viewBox="0 0 113 112" fill="none" xmlns="http://www.w3.org/2000/svg">
<path d="M35.5693 42.0707C36.6577 41.1859 37.7251 40.3104 38.7749 39.4495C45.6376 33.8212 51.7417 28.8151 57.9666 25.8966C61.524 24.2287 65.0565 23.2796 68.7205 23.2947C72.3783 23.3098 76.2578 24.2862 80.5124 26.5995C90.2653 31.9025 95.4167 38.1691 96.9952 45.2783C98.5858 52.4419 96.6334 60.8224 91.3681 70.506C88.7732 75.2782 83.8031 78.5762 77.2594 80.6291C70.7251 82.679 62.7938 83.4289 54.5814 83.2281C38.1182 82.8255 20.9586 78.6194 12.3436 73.9351C10.2698 72.8075 9.09641 71.6674 8.49566 70.6061C7.91686 69.5835 7.79963 68.5132 8.07806 67.327C8.67172 64.798 11.0346 61.8618 14.5166 58.7058C17.8945 55.6443 22.0519 52.61 25.929 49.7802L26.0739 49.6745C29.8775 46.8982 33.4952 44.2561 35.5693 42.0707Z" stroke="white" stroke-width="3"/>
<path d="M47.7405 44.3967C48.5525 43.7337 49.3478 43.0787 50.129 42.4354C55.2758 38.1968 59.8085 34.4641 64.4229 32.2845C67.0491 31.0439 69.6365 30.3441 72.3064 30.3484C74.9696 30.3526 77.8059 31.0577 80.9335 32.7583C88.153 36.6838 91.8948 41.2964 93.0307 46.485C94.179 51.7303 92.7476 57.9255 88.8116 65.1644C86.9246 68.6347 83.3024 71.0732 78.457 72.6093C73.6206 74.1426 67.7341 74.7188 61.619 74.5842C49.3496 74.3143 36.5932 71.1991 30.2312 67.7399C28.7214 66.919 27.9122 66.1105 27.5121 65.3992C27.1336 64.7262 27.0528 64.0213 27.2447 63.2095C27.6652 61.4304 29.3576 59.2892 31.9649 56.9173C34.4817 54.6275 37.5826 52.3532 40.4929 50.2187L40.5931 50.1452L40.6056 50.1361C43.4273 48.0664 46.1562 46.0649 47.7405 44.3967Z" fill="#B403CC" stroke="white" stroke-width="3"/>
<path d="M63.3594 66.2803H51.6641V63.96L57.1836 58.0771C57.9414 57.249 58.5 56.5264 58.8594 55.9092C59.2266 55.292 59.4102 54.7061 59.4102 54.1514C59.4102 53.3936 59.2188 52.7998 58.8359 52.3701C58.4531 51.9326 57.9062 51.7139 57.1953 51.7139C56.4297 51.7139 55.8242 51.9795 55.3789 52.5107C54.9414 53.0342 54.7227 53.7256 54.7227 54.585H51.3242C51.3242 53.5459 51.5703 52.5967 52.0625 51.7373C52.5625 50.8779 53.2656 50.2061 54.1719 49.7217C55.0781 49.2295 56.1055 48.9834 57.2539 48.9834C59.0117 48.9834 60.375 49.4053 61.3438 50.249C62.3203 51.0928 62.8086 52.2842 62.8086 53.8232C62.8086 54.667 62.5898 55.5264 62.1523 56.4014C61.7148 57.2764 60.9648 58.2959 59.9023 59.46L56.0234 63.5498H63.3594V66.2803ZM77.1406 66.2803H65.4453V63.96L70.9648 58.0771C71.7227 57.249 72.2812 56.5264 72.6406 55.9092C73.0078 55.292 73.1914 54.7061 73.1914 54.1514C73.1914 53.3936 73 52.7998 72.6172 52.3701C72.2344 51.9326 71.6875 51.7139 70.9766 51.7139C70.2109 51.7139 69.6055 51.9795 69.1602 52.5107C68.7227 53.0342 68.5039 53.7256 68.5039 54.585H65.1055C65.1055 53.5459 65.3516 52.5967 65.8438 51.7373C66.3438 50.8779 67.0469 50.2061 67.9531 49.7217C68.8594 49.2295 69.8867 48.9834 71.0352 48.9834C72.793 48.9834 74.1562 49.4053 75.125 50.249C76.1016 51.0928 76.5898 52.2842 76.5898 53.8232C76.5898 54.667 76.3711 55.5264 75.9336 56.4014C75.4961 57.2764 74.7461 58.2959 73.6836 59.46L69.8047 63.5498H77.1406V66.2803Z" fill="white"/>
</svg>
