<svg width="84" height="85" viewBox="0 0 84 85" fill="none" xmlns="http://www.w3.org/2000/svg">
<path d="M26.7405 32.3967C27.5525 31.7337 28.3478 31.0787 29.129 30.4354C34.2759 26.1968 38.8085 22.4641 43.4229 20.2845C46.0491 19.0439 48.6366 18.3441 51.3064 18.3484C53.9696 18.3526 56.8059 19.0577 59.9335 20.7583C67.153 24.6838 70.8948 29.2964 72.0307 34.485C73.179 39.7303 71.7476 45.9255 67.8116 53.1644C65.9246 56.6347 62.3024 59.0732 57.457 60.6093C52.6206 62.1426 46.7341 62.7188 40.619 62.5842C28.3496 62.3143 15.5932 59.1991 9.23121 55.7399C7.72142 54.919 6.91221 54.1105 6.51212 53.3992C6.13356 52.7262 6.05282 52.0213 6.24469 51.2095C6.66518 49.4304 8.3576 47.2892 10.9649 44.9173C13.4817 42.6275 16.5827 40.3531 19.4929 38.2187L19.5931 38.1452L19.6056 38.1361C22.4274 36.0664 25.1563 34.0649 26.7405 32.3967Z" fill="#B403CC" stroke="white" stroke-width="3"/>
<path d="M42.3594 54.2803H30.6641V51.96L36.1836 46.0771C36.9414 45.249 37.5 44.5264 37.8594 43.9092C38.2266 43.292 38.4102 42.7061 38.4102 42.1514C38.4102 41.3936 38.2188 40.7998 37.8359 40.3701C37.4531 39.9326 36.9062 39.7139 36.1953 39.7139C35.4297 39.7139 34.8242 39.9795 34.3789 40.5107C33.9414 41.0342 33.7227 41.7256 33.7227 42.585H30.3242C30.3242 41.5459 30.5703 40.5967 31.0625 39.7373C31.5625 38.8779 32.2656 38.2061 33.1719 37.7217C34.0781 37.2295 35.1055 36.9834 36.2539 36.9834C38.0117 36.9834 39.375 37.4053 40.3438 38.249C41.3203 39.0928 41.8086 40.2842 41.8086 41.8232C41.8086 42.667 41.5898 43.5264 41.1523 44.4014C40.7148 45.2764 39.9648 46.2959 38.9023 47.46L35.0234 51.5498H42.3594V54.2803ZM56.1406 54.2803H44.4453V51.96L49.9648 46.0771C50.7227 45.249 51.2812 44.5264 51.6406 43.9092C52.0078 43.292 52.1914 42.7061 52.1914 42.1514C52.1914 41.3936 52 40.7998 51.6172 40.3701C51.2344 39.9326 50.6875 39.7139 49.9766 39.7139C49.2109 39.7139 48.6055 39.9795 48.1602 40.5107C47.7227 41.0342 47.5039 41.7256 47.5039 42.585H44.1055C44.1055 41.5459 44.3516 40.5967 44.8438 39.7373C45.3438 38.8779 46.0469 38.2061 46.9531 37.7217C47.8594 37.2295 48.8867 36.9834 50.0352 36.9834C51.793 36.9834 53.1562 37.4053 54.125 38.249C55.1016 39.0928 55.5898 40.2842 55.5898 41.8232C55.5898 42.667 55.3711 43.5264 54.9336 44.4014C54.4961 45.2764 53.7461 46.2959 52.6836 47.46L48.8047 51.5498H56.1406V54.2803Z" fill="white"/>
</svg>
