<svg width="246" height="81" viewBox="0 0 246 81" fill="none" xmlns="http://www.w3.org/2000/svg">
<path d="M53 75H7.10938L7.10938 67.1719L29.8438 42.375C33.125 38.7188 35.4531 35.6719 36.8281 33.2344C38.2344 30.7656 38.9375 28.2969 38.9375 25.8281C38.9375 22.5781 38.0156 19.9531 36.1719 17.9531C34.3594 15.9531 31.9062 14.9531 28.8125 14.9531C25.125 14.9531 22.2656 16.0781 20.2344 18.3281C18.2031 20.5781 17.1875 23.6562 17.1875 27.5625H5.79688C5.79688 23.4062 6.73438 19.6719 8.60938 16.3594C10.5156 13.0156 13.2188 10.4219 16.7188 8.57812C20.25 6.73438 24.3125 5.8125 28.9062 5.8125C35.5312 5.8125 40.75 7.48438 44.5625 10.8281C48.4062 14.1406 50.3281 18.7344 50.3281 24.6094C50.3281 28.0156 49.3594 31.5938 47.4219 35.3438C45.5156 39.0625 42.375 43.2969 38 48.0469L21.3125 65.9062H53V75ZM74.8438 35.6719H81.7812C85.2812 35.6406 88.0469 34.7344 90.0781 32.9531C92.1406 31.1719 93.1719 28.5937 93.1719 25.2187C93.1719 21.9687 92.3125 19.4531 90.5938 17.6719C88.9062 15.8594 86.3125 14.9531 82.8125 14.9531C79.75 14.9531 77.2344 15.8437 75.2656 17.625C73.2969 19.375 72.3125 21.6719 72.3125 24.5156L60.9219 24.5156C60.9219 21.0156 61.8438 17.8281 63.6875 14.9531C65.5625 12.0781 68.1562 9.84375 71.4688 8.25C74.8125 6.625 78.5469 5.8125 82.6719 5.8125C89.4844 5.8125 94.8281 7.53125 98.7031 10.9687C102.609 14.375 104.562 19.125 104.562 25.2187C104.562 28.2812 103.578 31.1719 101.609 33.8906C99.6719 36.5781 97.1562 38.6094 94.0625 39.9844C97.8125 41.2656 100.656 43.2812 102.594 46.0312C104.562 48.7812 105.547 52.0625 105.547 55.875C105.547 62 103.438 66.875 99.2188 70.5C95.0312 74.125 89.5156 75.9375 82.6719 75.9375C76.1094 75.9375 70.7344 74.1875 66.5469 70.6875C62.3594 67.1875 60.2656 62.5312 60.2656 56.7188H71.6562C71.6562 59.7188 72.6562 62.1562 74.6562 64.0312C76.6875 65.9062 79.4062 66.8438 82.8125 66.8438C86.3438 66.8438 89.125 65.9062 91.1562 64.0312C93.1875 62.1562 94.2031 59.4375 94.2031 55.875C94.2031 52.2812 93.1406 49.5156 91.0156 47.5781C88.8906 45.6406 85.7344 44.6719 81.5469 44.6719H74.8438V35.6719ZM123.828 63C125.953 63 127.594 63.6094 128.75 64.8281C129.906 66.0156 130.484 67.5156 130.484 69.3281C130.484 71.1094 129.906 72.5938 128.75 73.7812C127.594 74.9375 125.953 75.5156 123.828 75.5156C121.797 75.5156 120.188 74.9375 119 73.7812C117.812 72.625 117.219 71.1406 117.219 69.3281C117.219 67.5156 117.797 66.0156 118.953 64.8281C120.109 63.6094 121.734 63 123.828 63ZM123.828 23.2031C125.953 23.2031 127.594 23.8125 128.75 25.0312C129.906 26.2187 130.484 27.7187 130.484 29.5312C130.484 31.3125 129.906 32.7969 128.75 33.9844C127.594 35.1406 125.953 35.7187 123.828 35.7187C121.797 35.7187 120.188 35.1406 119 33.9844C117.812 32.8281 117.219 31.3437 117.219 29.5312C117.219 27.7187 117.797 26.2187 118.953 25.0312C120.109 23.8125 121.734 23.2031 123.828 23.2031ZM186.219 46.2656C186.219 56.0781 184.375 63.4844 180.688 68.4844C177.031 73.4531 171.453 75.9375 163.953 75.9375C156.578 75.9375 151.016 73.5156 147.266 68.6719C143.547 63.7969 141.641 56.5937 141.547 47.0625V35.25C141.547 25.4375 143.375 18.0781 147.031 13.1719C150.719 8.26562 156.328 5.8125 163.859 5.8125C171.328 5.8125 176.891 8.20312 180.547 12.9844C184.234 17.7656 186.125 24.9219 186.219 34.4531V46.2656ZM174.828 33.5156C174.828 27.1094 173.953 22.4219 172.203 19.4531C170.453 16.4531 167.672 14.9531 163.859 14.9531C160.141 14.9531 157.406 16.375 155.656 19.2187C153.906 22.0312 152.984 26.4375 152.891 32.4375V47.9062C152.891 54.2812 153.781 59.0312 155.562 62.1562C157.344 65.2812 160.141 66.8437 163.953 66.8437C167.609 66.8437 170.312 65.4062 172.062 62.5312C173.812 59.625 174.734 55.0937 174.828 48.9375V33.5156ZM240.781 46.2656C240.781 56.0781 238.938 63.4844 235.25 68.4844C231.594 73.4531 226.016 75.9375 218.516 75.9375C211.141 75.9375 205.578 73.5156 201.828 68.6719C198.109 63.7969 196.203 56.5937 196.109 47.0625V35.25C196.109 25.4375 197.938 18.0781 201.594 13.1719C205.281 8.26562 210.891 5.8125 218.422 5.8125C225.891 5.8125 231.453 8.20312 235.109 12.9844C238.797 17.7656 240.688 24.9219 240.781 34.4531V46.2656ZM229.391 33.5156C229.391 27.1094 228.516 22.4219 226.766 19.4531C225.016 16.4531 222.234 14.9531 218.422 14.9531C214.703 14.9531 211.969 16.375 210.219 19.2187C208.469 22.0312 207.547 26.4375 207.453 32.4375V47.9062C207.453 54.2812 208.344 59.0312 210.125 62.1562C211.906 65.2812 214.703 66.8437 218.516 66.8437C222.172 66.8437 224.875 65.4062 226.625 62.5312C228.375 59.625 229.297 55.0937 229.391 48.9375V33.5156Z" fill="black"/>
<path d="M53 75V80H58V75H53ZM7.10938 75H2.10938L2.10938 80H7.10938V75ZM7.10938 67.1719L3.42389 63.7929L2.10938 65.2267V67.1719H7.10938ZM29.8438 42.375L33.5292 45.7539L33.5472 45.7343L33.565 45.7145L29.8438 42.375ZM36.8281 33.2344L32.4835 30.7596L32.4784 30.7687L32.4732 30.7778L36.8281 33.2344ZM36.1719 17.9531L32.4669 21.3107L32.4812 21.3265L32.4957 21.3421L36.1719 17.9531ZM17.1875 27.5625V32.5625H22.1875V27.5625H17.1875ZM5.79688 27.5625H0.796875L0.796875 32.5625H5.79688L5.79688 27.5625ZM8.60938 16.3594L4.26566 13.8831L4.26187 13.8897L4.25809 13.8964L8.60938 16.3594ZM16.7188 8.57812L14.4046 4.1459L14.3965 4.15013L14.3884 4.15439L16.7188 8.57812ZM44.5625 10.8281L41.2656 14.5872L41.282 14.6015L41.2984 14.6157L44.5625 10.8281ZM47.4219 35.3438L42.9797 33.0486L42.9761 33.0558L42.9724 33.0629L47.4219 35.3438ZM38 48.0469L41.6534 51.4605L41.6656 51.4474L41.6777 51.4343L38 48.0469ZM21.3125 65.9062L17.6591 62.4926L9.79757 70.9062H21.3125V65.9062ZM53 65.9062H58V60.9062H53V65.9062ZM53 70H7.10938L7.10938 80H53V70ZM12.1094 75V67.1719H2.10938L2.10938 75H12.1094ZM10.7949 70.5508L33.5292 45.7539L26.1583 38.9961L3.42389 63.7929L10.7949 70.5508ZM33.565 45.7145C36.9363 41.9579 39.5443 38.596 41.183 35.691L32.4732 30.7778C31.3619 32.7478 29.3137 35.4796 26.1225 39.0355L33.565 45.7145ZM41.1727 35.7091C42.9429 32.6015 43.9375 29.2883 43.9375 25.8281H33.9375C33.9375 27.3055 33.5259 28.9297 32.4835 30.7596L41.1727 35.7091ZM43.9375 25.8281C43.9375 21.5812 42.7037 17.6617 39.8481 14.5641L32.4957 21.3421C33.3276 22.2446 33.9375 23.575 33.9375 25.8281H43.9375ZM39.8768 14.5955C36.9737 11.3921 33.0901 9.95312 28.8125 9.95312L28.8125 19.9531C30.7224 19.9531 31.745 20.5141 32.4669 21.3107L39.8768 14.5955ZM28.8125 9.95312C24.0421 9.95312 19.704 11.4541 16.523 14.9776L23.9457 21.6786C24.8273 20.7022 26.2079 19.9531 28.8125 19.9531L28.8125 9.95312ZM16.523 14.9776C13.445 18.3871 12.1875 22.7863 12.1875 27.5625H22.1875C22.1875 24.5262 22.9613 22.7691 23.9457 21.6786L16.523 14.9776ZM17.1875 22.5625H5.79688L5.79688 32.5625H17.1875V22.5625ZM10.7969 27.5625C10.7969 24.1879 11.5493 21.3157 12.9607 18.8224L4.25809 13.8964C1.91943 18.028 0.796875 22.6246 0.796875 27.5625H10.7969ZM12.9531 18.8357C14.3738 16.3436 16.3673 14.4146 19.0491 13.0019L14.3884 4.15439C10.0702 6.42916 6.65744 9.68764 4.26566 13.8831L12.9531 18.8357ZM19.0329 13.0103C21.7474 11.5931 24.9943 10.8125 28.9062 10.8125V0.8125C23.6307 0.8125 18.7526 1.8757 14.4046 4.1459L19.0329 13.0103ZM28.9062 10.8125C34.6975 10.8125 38.6149 12.2624 41.2656 14.5872L47.8594 7.06906C42.8851 2.7064 36.365 0.8125 28.9062 0.8125V10.8125ZM41.2984 14.6157C43.8607 16.8238 45.3281 19.9347 45.3281 24.6094H55.3281C55.3281 17.5341 52.9518 11.4574 47.8266 7.04055L41.2984 14.6157ZM45.3281 24.6094C45.3281 27.0485 44.6368 29.8415 42.9797 33.0486L51.864 37.6389C54.082 33.346 55.3281 28.9828 55.3281 24.6094H45.3281ZM42.9724 33.0629C41.3521 36.2238 38.5384 40.082 34.3223 44.6595L41.6777 51.4343C46.2116 46.5117 49.6791 41.9012 51.8714 37.6246L42.9724 33.0629ZM34.3466 44.6332L17.6591 62.4926L24.9659 69.3199L41.6534 51.4605L34.3466 44.6332ZM21.3125 70.9062H53V60.9062H21.3125V70.9062ZM48 65.9062V75H58V65.9062H48ZM74.8438 35.6719V30.6719H69.8438V35.6719H74.8438ZM81.7812 35.6719V40.6719H81.8036L81.8259 40.6717L81.7812 35.6719ZM90.0781 32.9531L86.81 29.169L86.7957 29.1814L86.7815 29.1938L90.0781 32.9531ZM90.5938 17.6719L86.9343 21.079L86.9647 21.1116L86.9957 21.1437L90.5938 17.6719ZM75.2656 17.625L78.5874 21.362L78.6039 21.3474L78.6202 21.3327L75.2656 17.625ZM72.3125 24.5156V29.5156H77.3125V24.5156H72.3125ZM60.9219 24.5156H55.9219V29.5156H60.9219V24.5156ZM63.6875 14.9531L59.4994 12.2218L59.489 12.2378L59.4786 12.254L63.6875 14.9531ZM71.4688 8.25L73.6365 12.7556L73.6454 12.7514L73.6542 12.7471L71.4688 8.25ZM98.7031 10.9687L95.3851 14.7091L95.401 14.7232L95.417 14.7372L98.7031 10.9687ZM101.609 33.8906L97.5597 30.9581L97.5535 30.9666L101.609 33.8906ZM94.0625 39.9844L92.0318 35.4153L80.3808 40.5936L92.4459 44.7158L94.0625 39.9844ZM102.594 46.0312L98.5063 48.911L98.5172 48.9265L98.5282 48.9418L102.594 46.0312ZM99.2188 70.5L95.9602 66.7077L95.9532 66.7137L95.9462 66.7197L99.2188 70.5ZM60.2656 56.7188V51.7188H55.2656V56.7188H60.2656ZM71.6562 56.7188H76.6562V51.7188H71.6562V56.7188ZM74.6562 64.0312L71.2365 67.6789L71.2506 67.6922L71.2648 67.7053L74.6562 64.0312ZM74.8438 44.6719H69.8438V49.6719H74.8438V44.6719ZM74.8438 40.6719H81.7812V30.6719H74.8438V40.6719ZM81.8259 40.6717C86.1621 40.633 90.2042 39.4928 93.3747 36.7124L86.7815 29.1938C85.8896 29.976 84.4004 30.6483 81.7366 30.6721L81.8259 40.6717ZM93.3462 36.7372C96.7643 33.7853 98.1719 29.6708 98.1719 25.2187H88.1719C88.1719 27.5167 87.517 28.5585 86.81 29.169L93.3462 36.7372ZM98.1719 25.2187C98.1719 21.0924 97.0639 17.1765 94.1918 14.2L86.9957 21.1437C87.5611 21.7297 88.1719 22.8451 88.1719 25.2187H98.1719ZM94.2532 14.2648C91.283 11.0746 87.1138 9.95312 82.8125 9.95312V19.9531C85.5112 19.9531 86.5295 20.6442 86.9343 21.079L94.2532 14.2648ZM82.8125 9.95312C78.7134 9.95312 74.9394 11.1774 71.9111 13.9173L78.6202 21.3327C79.5294 20.5101 80.7866 19.9531 82.8125 19.9531V9.95312ZM71.9438 13.888C68.8155 16.6686 67.3125 20.3717 67.3125 24.5156H77.3125C77.3125 22.9721 77.7782 22.0814 78.5874 21.362L71.9438 13.888ZM72.3125 19.5156L60.9219 19.5156V29.5156L72.3125 29.5156V19.5156ZM65.9219 24.5156C65.9219 21.9475 66.5825 19.701 67.8964 17.6523L59.4786 12.254C57.105 15.9553 55.9219 20.0838 55.9219 24.5156H65.9219ZM67.8756 17.6845C69.2162 15.6288 71.0862 13.9827 73.6365 12.7556L69.301 3.74438C65.2263 5.7048 61.9088 8.52748 59.4994 12.2218L67.8756 17.6845ZM73.6542 12.7471C76.2454 11.4878 79.2202 10.8125 82.6719 10.8125V0.8125C77.8736 0.8125 73.3796 1.76216 69.2833 3.75293L73.6542 12.7471ZM82.6719 10.8125C88.6546 10.8125 92.6814 12.3107 95.3851 14.7091L102.021 7.22838C96.9748 2.75177 90.3142 0.8125 82.6719 0.8125V10.8125ZM95.417 14.7372C98.0399 17.0244 99.5625 20.29 99.5625 25.2187H109.562C109.562 17.96 107.179 11.7256 101.989 7.20027L95.417 14.7372ZM99.5625 25.2187C99.5625 27.1264 98.9731 29.0061 97.5597 30.9581L105.659 36.8232C108.183 33.3376 109.562 29.4361 109.562 25.2187H99.5625ZM97.5535 30.9666C96.1453 32.9199 94.3353 34.3915 92.0318 35.4153L96.0932 44.5534C99.9772 42.8272 103.198 40.2363 105.665 36.8146L97.5535 30.9666ZM92.4459 44.7158C95.3807 45.7185 97.2792 47.1692 98.5063 48.911L106.681 43.1515C104.033 39.3933 100.244 36.8127 95.6791 35.2529L92.4459 44.7158ZM98.5282 48.9418C99.8133 50.7369 100.547 52.968 100.547 55.875H110.547C110.547 51.157 109.312 46.8256 106.659 43.1207L98.5282 48.9418ZM100.547 55.875C100.547 60.7086 98.9534 64.1357 95.9602 66.7077L102.477 74.2923C107.922 69.6143 110.547 63.2914 110.547 55.875H100.547ZM95.9462 66.7197C92.8676 69.3848 88.6077 70.9375 82.6719 70.9375V80.9375C90.4236 80.9375 97.1949 78.8652 102.491 74.2803L95.9462 66.7197ZM82.6719 70.9375C77.0343 70.9375 72.8684 69.4547 69.7534 66.8511L63.3403 74.5239C68.6003 78.9203 75.1845 80.9375 82.6719 80.9375V70.9375ZM69.7534 66.8511C66.7843 64.3695 65.2656 61.16 65.2656 56.7188H55.2656C55.2656 63.9025 57.9344 70.0055 63.3403 74.5239L69.7534 66.8511ZM60.2656 61.7188H71.6562V51.7188H60.2656V61.7188ZM66.6562 56.7188C66.6562 60.9559 68.1272 64.764 71.2365 67.6789L78.076 60.3836C77.1853 59.5485 76.6562 58.4816 76.6562 56.7188H66.6562ZM71.2648 67.7053C74.4224 70.6199 78.4553 71.8438 82.8125 71.8438V61.8438C80.3572 61.8438 78.9526 61.1926 78.0477 60.3572L71.2648 67.7053ZM82.8125 71.8438C87.2394 71.8438 91.3578 70.6498 94.5477 67.7053L87.7648 60.3572C86.8922 61.1627 85.4481 61.8438 82.8125 61.8438V71.8438ZM94.5477 67.7053C97.8806 64.6287 99.2031 60.4063 99.2031 55.875H89.2031C89.2031 58.4687 88.4944 59.6838 87.7648 60.3572L94.5477 67.7053ZM99.2031 55.875C99.2031 51.2515 97.7975 46.9953 94.3844 43.8833L87.6469 51.2729C88.4838 52.036 89.2031 53.311 89.2031 55.875H99.2031ZM94.3844 43.8833C90.9944 40.7924 86.42 39.6719 81.5469 39.6719V49.6719C85.0488 49.6719 86.7869 50.4888 87.6469 51.2729L94.3844 43.8833ZM81.5469 39.6719H74.8438V49.6719H81.5469V39.6719ZM79.8438 44.6719V35.6719H69.8438V44.6719H79.8438ZM128.75 64.8281L125.123 68.2694L125.145 68.293L125.168 68.3162L128.75 64.8281ZM128.75 73.7812L132.286 77.3168L132.309 77.2932L132.332 77.2693L128.75 73.7812ZM118.953 64.8281L122.535 68.3162L122.558 68.293L122.58 68.2694L118.953 64.8281ZM128.75 25.0312L125.123 28.4726L125.145 28.4961L125.168 28.5193L128.75 25.0312ZM128.75 33.9844L132.286 37.5199L132.309 37.4963L132.332 37.4725L128.75 33.9844ZM118.953 25.0312L122.535 28.5193L122.558 28.4961L122.58 28.4726L118.953 25.0312ZM123.828 68C124.42 68 124.753 68.0854 124.911 68.1442C125.047 68.1945 125.092 68.2372 125.123 68.2694L132.377 61.3868C130.041 58.9241 126.939 58 123.828 58V68ZM125.168 68.3162C125.326 68.4786 125.484 68.685 125.484 69.3281L135.484 69.3281C135.484 66.3462 134.487 63.5526 132.332 61.34L125.168 68.3162ZM125.484 69.3281C125.484 69.9136 125.343 70.1133 125.168 70.2932L132.332 77.2693C134.47 75.0742 135.484 72.3052 135.484 69.3281L125.484 69.3281ZM125.214 70.2457C125.198 70.2619 125.152 70.3094 124.991 70.3663C124.808 70.4308 124.446 70.5156 123.828 70.5156V80.5156C126.865 80.5156 129.935 79.6677 132.286 77.3168L125.214 70.2457ZM123.828 70.5156C122.789 70.5156 122.541 70.25 122.488 70.1989L115.512 77.3636C117.834 79.625 120.805 80.5156 123.828 80.5156V70.5156ZM122.488 70.1989C122.363 70.0769 122.219 69.9309 122.219 69.3281H112.219C112.219 72.3503 113.262 75.1731 115.512 77.3636L122.488 70.1989ZM122.219 69.3281C122.219 68.685 122.377 68.4786 122.535 68.3162L115.371 61.34C113.216 63.5526 112.219 66.3462 112.219 69.3281H122.219ZM122.58 68.2694C122.619 68.2285 122.668 68.1862 122.795 68.1387C122.943 68.083 123.261 68 123.828 68V58C120.723 58 117.648 58.9388 115.326 61.3868L122.58 68.2694ZM123.828 28.2031C124.42 28.2031 124.753 28.2885 124.911 28.3473C125.047 28.3976 125.092 28.4404 125.123 28.4726L132.377 21.5899C130.041 19.1273 126.939 18.2031 123.828 18.2031V28.2031ZM125.168 28.5193C125.326 28.6817 125.484 28.8881 125.484 29.5312H135.484C135.484 26.5494 134.487 23.7558 132.332 21.5432L125.168 28.5193ZM125.484 29.5312C125.484 30.1167 125.343 30.3164 125.168 30.4963L132.332 37.4725C134.47 35.2773 135.484 32.5083 135.484 29.5312H125.484ZM125.214 30.4488C125.198 30.465 125.152 30.5125 124.991 30.5694C124.808 30.6339 124.446 30.7187 123.828 30.7187V40.7187C126.865 40.7187 129.935 39.8709 132.286 37.5199L125.214 30.4488ZM123.828 30.7187C122.789 30.7187 122.541 30.4531 122.488 30.402L115.512 37.5667C117.834 39.8281 120.805 40.7187 123.828 40.7187V30.7187ZM122.488 30.402C122.363 30.2801 122.219 30.1341 122.219 29.5312H112.219C112.219 32.5534 113.262 35.3762 115.512 37.5667L122.488 30.402ZM122.219 29.5312C122.219 28.8881 122.377 28.6817 122.535 28.5193L115.371 21.5432C113.216 23.7558 112.219 26.5494 112.219 29.5312H122.219ZM122.58 28.4726C122.619 28.4316 122.668 28.3894 122.795 28.3418C122.943 28.2861 123.261 28.2031 123.828 28.2031V18.2031C120.723 18.2031 117.648 19.1419 115.326 21.5899L122.58 28.4726ZM180.688 68.4844L176.663 65.5167L176.66 65.521L180.688 68.4844ZM147.266 68.6719L143.29 71.7044L143.301 71.7186L143.312 71.7327L147.266 68.6719ZM141.547 47.0625H136.547V47.0871L136.547 47.1117L141.547 47.0625ZM147.031 13.1719L143.034 10.1678L143.028 10.176L143.022 10.1841L147.031 13.1719ZM180.547 12.9844L176.575 16.0216L176.581 16.0298L176.588 16.0379L180.547 12.9844ZM186.219 34.4531H191.219V34.4285L191.219 34.4039L186.219 34.4531ZM172.203 19.4531L167.884 21.9725L167.89 21.9823L167.896 21.9922L172.203 19.4531ZM155.656 19.2187L159.902 21.8603L159.908 21.8498L159.915 21.8392L155.656 19.2187ZM152.891 32.4375L147.891 32.3594L147.891 32.3984V32.4375H152.891ZM172.062 62.5312L176.333 65.131L176.34 65.1208L176.346 65.1105L172.062 62.5312ZM174.828 48.9375L179.828 49.0136L179.828 48.9756V48.9375H174.828ZM181.219 46.2656C181.219 55.5851 179.445 61.7457 176.663 65.5167L184.712 71.4521C189.305 65.223 191.219 56.5712 191.219 46.2656H181.219ZM176.66 65.521C174.154 68.9277 170.249 70.9375 163.953 70.9375V80.9375C172.658 80.9375 179.909 77.9786 184.715 71.4478L176.66 65.521ZM163.953 70.9375C157.773 70.9375 153.826 68.9777 151.219 65.611L143.312 71.7327C148.206 78.0535 155.383 80.9375 163.953 80.9375V70.9375ZM151.241 65.6394C148.45 61.9807 146.635 56.0261 146.547 47.0133L136.547 47.1117C136.646 57.1614 138.644 65.6131 143.29 71.7044L151.241 65.6394ZM146.547 47.0625V35.25H136.547V47.0625H146.547ZM146.547 35.25C146.547 25.9133 148.312 19.8208 151.04 16.1596L143.022 10.1841C138.438 16.3354 136.547 24.9617 136.547 35.25H146.547ZM151.028 16.1759C153.555 12.8138 157.502 10.8125 163.859 10.8125V0.8125C155.154 0.8125 147.882 3.71744 143.034 10.1678L151.028 16.1759ZM163.859 10.8125C170.186 10.8125 174.092 12.774 176.575 16.0216L184.519 9.94712C179.69 3.63229 172.47 0.8125 163.859 0.8125V10.8125ZM176.588 16.0379C179.325 19.5866 181.13 25.4723 181.219 34.5023L191.219 34.4039C191.12 24.3714 189.144 15.9446 184.506 9.93082L176.588 16.0379ZM181.219 34.4531V46.2656H191.219V34.4531H181.219ZM179.828 33.5156C179.828 26.8655 178.958 21.0655 176.51 16.9141L167.896 21.9922C168.949 23.7783 169.828 27.3533 169.828 33.5156H179.828ZM176.522 16.9338C173.775 12.2242 169.24 9.95312 163.859 9.95312V19.9531C166.104 19.9531 167.131 20.6821 167.884 21.9725L176.522 16.9338ZM163.859 9.95312C158.64 9.95312 154.175 12.0856 151.398 16.5983L159.915 21.8392C160.638 20.6644 161.641 19.9531 163.859 19.9531V9.95312ZM151.411 16.5772C148.932 20.5611 147.989 26.0837 147.891 32.3594L157.89 32.5156C157.979 26.7913 158.88 23.5014 159.902 21.8603L151.411 16.5772ZM147.891 32.4375V47.9062H157.891V32.4375H147.891ZM147.891 47.9062C147.891 54.5712 148.791 60.3731 151.219 64.6323L159.906 59.6802C158.772 57.6894 157.891 53.9913 157.891 47.9062H147.891ZM151.219 64.6323C153.953 69.4293 158.477 71.8437 163.953 71.8437V61.8437C161.805 61.8437 160.735 61.1332 159.906 59.6802L151.219 64.6323ZM163.953 71.8437C169.173 71.8437 173.586 69.6452 176.333 65.131L167.792 59.9315C167.039 61.1673 166.046 61.8437 163.953 61.8437V71.8437ZM176.346 65.1105C178.789 61.0539 179.73 55.4379 179.828 49.0136L169.829 48.8614C169.739 54.7496 168.836 58.1961 167.779 59.952L176.346 65.1105ZM179.828 48.9375V33.5156H169.828V48.9375H179.828ZM235.25 68.4844L231.226 65.5167L231.223 65.521L235.25 68.4844ZM201.828 68.6719L197.853 71.7044L197.864 71.7186L197.875 71.7327L201.828 68.6719ZM196.109 47.0625L191.109 47.0625V47.0871L191.11 47.1117L196.109 47.0625ZM201.594 13.1719L197.597 10.1678L197.591 10.176L197.585 10.1841L201.594 13.1719ZM235.109 12.9844L231.138 16.0216L231.144 16.0298L231.15 16.0379L235.109 12.9844ZM240.781 34.4531H245.781V34.4285L245.781 34.4039L240.781 34.4531ZM226.766 19.4531L222.447 21.9725L222.452 21.9823L222.458 21.9922L226.766 19.4531ZM210.219 19.2187L214.464 21.8603L214.471 21.8498L214.477 21.8392L210.219 19.2187ZM207.453 32.4375L202.454 32.3594L202.453 32.3984V32.4375H207.453ZM226.625 62.5312L230.896 65.131L230.902 65.1208L230.908 65.1105L226.625 62.5312ZM229.391 48.9375L234.39 49.0136L234.391 48.9756V48.9375H229.391ZM235.781 46.2656C235.781 55.5851 234.007 61.7457 231.226 65.5167L239.274 71.4521C243.868 65.223 245.781 56.5712 245.781 46.2656H235.781ZM231.223 65.521C228.716 68.9277 224.811 70.9375 218.516 70.9375V80.9375C227.22 80.9375 234.471 77.9786 239.277 71.4478L231.223 65.521ZM218.516 70.9375C212.335 70.9375 208.388 68.9777 205.782 65.611L197.875 71.7327C202.768 78.0535 209.946 80.9375 218.516 80.9375V70.9375ZM205.804 65.6394C203.013 61.9807 201.198 56.0261 201.109 47.0133L191.11 47.1117C191.208 57.1614 193.206 65.6131 197.853 71.7044L205.804 65.6394ZM201.109 47.0625V35.25L191.109 35.25V47.0625L201.109 47.0625ZM201.109 35.25C201.109 25.9133 202.875 19.8208 205.603 16.1596L197.585 10.1841C193 16.3354 191.109 24.9617 191.109 35.25L201.109 35.25ZM205.591 16.1759C208.118 12.8138 212.064 10.8125 218.422 10.8125V0.8125C209.717 0.8125 202.445 3.71744 197.597 10.1678L205.591 16.1759ZM218.422 10.8125C224.749 10.8125 228.654 12.774 231.138 16.0216L239.081 9.94712C234.252 3.63229 227.032 0.8125 218.422 0.8125V10.8125ZM231.15 16.0379C233.887 19.5866 235.693 25.4723 235.781 34.5023L245.781 34.4039C245.682 24.3714 243.707 15.9446 239.069 9.93082L231.15 16.0379ZM235.781 34.4531V46.2656H245.781V34.4531H235.781ZM234.391 33.5156C234.391 26.8655 233.52 21.0655 231.073 16.9141L222.458 21.9922C223.511 23.7783 224.391 27.3533 224.391 33.5156H234.391ZM231.085 16.9338C228.337 12.2242 223.802 9.95312 218.422 9.95312V19.9531C220.666 19.9531 221.694 20.6821 222.447 21.9725L231.085 16.9338ZM218.422 9.95312C213.202 9.95312 208.737 12.0856 205.96 16.5983L214.477 21.8392C215.2 20.6644 216.204 19.9531 218.422 19.9531V9.95312ZM205.973 16.5772C203.495 20.5611 202.552 26.0837 202.454 32.3594L212.453 32.5156C212.542 26.7913 213.443 23.5014 214.464 21.8603L205.973 16.5772ZM202.453 32.4375V47.9062H212.453V32.4375H202.453ZM202.453 47.9062C202.453 54.5712 203.353 60.3731 205.781 64.6323L214.469 59.6802C213.334 57.6894 212.453 53.9913 212.453 47.9062H202.453ZM205.781 64.6323C208.515 69.4293 213.039 71.8437 218.516 71.8437V61.8437C216.367 61.8437 215.297 61.1332 214.469 59.6802L205.781 64.6323ZM218.516 71.8437C223.735 71.8437 228.148 69.6452 230.896 65.131L222.354 59.9315C221.602 61.1673 220.608 61.8437 218.516 61.8437V71.8437ZM230.908 65.1105C233.351 61.0539 234.292 55.4379 234.39 49.0136L224.391 48.8614C224.302 54.7496 223.399 58.1961 222.342 59.952L230.908 65.1105ZM234.391 48.9375V33.5156H224.391V48.9375H234.391Z" fill="white"/>
</svg>
