<svg width="137" height="137" viewBox="0 0 137 137" fill="none" xmlns="http://www.w3.org/2000/svg">
<path d="M28.9198 61.3145C29.9851 59.3258 31.0251 57.3642 32.0478 55.4355C38.7385 42.8166 44.6836 31.6038 52.0871 23.4174C56.3163 18.7408 60.9452 15.1514 66.3542 12.911C71.7532 10.6748 78.0696 9.72429 85.7638 10.5253C103.417 12.363 114.849 18.4753 121.527 28.035C128.262 37.6741 130.523 51.319 128.685 68.9683C127.782 77.6449 122.474 85.6093 114.071 92.7058C105.68 99.7922 94.4247 105.816 82.1666 110.603C57.5893 120.2 29.6553 124.574 14.0654 122.951C10.3202 122.561 7.90754 121.598 6.38825 120.409C4.92661 119.265 4.10453 117.767 3.79025 115.847C3.1187 111.743 4.79981 105.932 8.00942 99.0849C11.1217 92.4451 15.403 85.3621 19.3982 78.7526L19.5464 78.5074C23.462 72.0291 27.1916 65.8554 28.9198 61.3145Z" fill="#B403CC" stroke="white" stroke-width="5"/>
<path d="M68.832 89.2002H45.4414V84.5596L56.4805 72.7939C57.9961 71.1377 59.1133 69.6924 59.832 68.458C60.5664 67.2236 60.9336 66.0518 60.9336 64.9424C60.9336 63.4268 60.5508 62.2393 59.7852 61.3799C59.0195 60.5049 57.9258 60.0674 56.5039 60.0674C54.9727 60.0674 53.7617 60.5986 52.8711 61.6611C51.9961 62.708 51.5586 64.0908 51.5586 65.8096H44.7617C44.7617 63.7314 45.2539 61.833 46.2383 60.1143C47.2383 58.3955 48.6445 57.0518 50.457 56.083C52.2695 55.0986 54.3242 54.6064 56.6211 54.6064C60.1367 54.6064 62.8633 55.4502 64.8008 57.1377C66.7539 58.8252 67.7305 61.208 67.7305 64.2861C67.7305 65.9736 67.293 67.6924 66.418 69.4424C65.543 71.1924 64.043 73.2314 61.918 75.5596L54.1602 83.7393H68.832V89.2002ZM74.0117 72.4189L75.9805 55.0752L95.1055 55.0752V60.7236L81.5352 60.7236L80.6914 68.0596C82.3008 67.2002 84.0117 66.7705 85.8242 66.7705C89.0742 66.7705 91.6211 67.7783 93.4648 69.7939C95.3086 71.8096 96.2305 74.6299 96.2305 78.2549C96.2305 80.458 95.7617 82.4346 94.8242 84.1846C93.9023 85.9189 92.5742 87.2705 90.8398 88.2393C89.1055 89.1924 87.0586 89.6689 84.6992 89.6689C82.6367 89.6689 80.7227 89.2549 78.957 88.4268C77.1914 87.583 75.793 86.4033 74.7617 84.8877C73.7461 83.3721 73.207 81.6455 73.1445 79.708H79.8477C79.9883 81.1299 80.4805 82.2393 81.3242 83.0361C82.1836 83.8174 83.3008 84.208 84.6758 84.208C86.207 84.208 87.3867 83.6611 88.2148 82.5674C89.043 81.458 89.457 79.8955 89.457 77.8799C89.457 75.9424 88.9805 74.458 88.0273 73.4268C87.0742 72.3955 85.7227 71.8799 83.9727 71.8799C82.3633 71.8799 81.0586 72.3018 80.0586 73.1455L79.4023 73.7549L74.0117 72.4189Z" fill="white"/>
</svg>
