<svg width="184" height="182" viewBox="0 0 184 182" fill="none" xmlns="http://www.w3.org/2000/svg">
<path d="M37.9003 80.7386C39.3302 78.0832 40.7274 75.461 42.1025 72.8802C51.0451 56.0971 59.0524 41.0694 69.0356 30.0939C74.7565 23.8043 81.0508 18.9435 88.4365 15.9062C95.8126 12.8728 104.417 11.6004 114.846 12.6861C138.647 15.1638 154.23 23.3881 163.368 36.3842C172.558 49.4562 175.588 67.8567 173.133 91.4407C171.901 103.279 164.631 114.055 153.292 123.573C141.965 133.08 126.806 141.131 110.342 147.514C77.3539 160.303 39.8063 166.143 18.7486 163.951C13.6351 163.419 10.229 162.099 8.02455 160.384C5.87868 158.713 4.6824 156.522 4.23076 153.789C3.2837 148.056 5.63813 140.119 9.93366 130.999C14.1147 122.123 19.8612 112.665 25.1975 103.883L25.4079 103.537C30.6797 94.8606 35.6319 86.6992 37.9003 80.7386Z" stroke="white" stroke-width="5"/>
<path d="M63.9198 75.3145C64.9851 73.3258 66.0251 71.3643 67.0477 69.4356C73.7384 56.8166 79.6836 45.6039 87.0871 37.4174C91.3163 32.7408 95.9452 29.1514 101.354 26.911C106.753 24.6748 113.07 23.7243 120.764 24.5253C138.417 26.363 149.849 32.4753 156.527 42.035C163.262 51.6741 165.523 65.319 163.685 82.9683C162.782 91.6449 157.474 99.6093 149.071 106.706C140.68 113.792 129.425 119.816 117.167 124.603C92.5893 134.2 64.6553 138.574 49.0654 136.951C45.3202 136.561 42.9075 135.598 41.3882 134.409C39.9266 133.265 39.1045 131.767 38.7902 129.847C38.1187 125.743 39.7998 119.932 43.0094 113.085C46.1217 106.445 50.403 99.3621 54.3981 92.7527L54.5464 92.5074C58.462 86.0291 62.1916 79.8554 63.9198 75.3145Z" fill="#B403CC" stroke="white" stroke-width="5"/>
<path d="M103.832 103.2H80.4414V98.5596L91.4805 86.7939C92.9961 85.1377 94.1133 83.6924 94.832 82.458C95.5664 81.2236 95.9336 80.0518 95.9336 78.9424C95.9336 77.4268 95.5508 76.2393 94.7852 75.3799C94.0195 74.5049 92.9258 74.0674 91.5039 74.0674C89.9727 74.0674 88.7617 74.5986 87.8711 75.6611C86.9961 76.708 86.5586 78.0908 86.5586 79.8096H79.7617C79.7617 77.7314 80.2539 75.833 81.2383 74.1143C82.2383 72.3955 83.6445 71.0518 85.457 70.083C87.2695 69.0986 89.3242 68.6064 91.6211 68.6064C95.1367 68.6064 97.8633 69.4502 99.8008 71.1377C101.754 72.8252 102.73 75.208 102.73 78.2861C102.73 79.9736 102.293 81.6924 101.418 83.4424C100.543 85.1924 99.043 87.2314 96.918 89.5596L89.1602 97.7393H103.832V103.2ZM109.012 86.4189L110.98 69.0752H130.105V74.7236H116.535L115.691 82.0596C117.301 81.2002 119.012 80.7705 120.824 80.7705C124.074 80.7705 126.621 81.7783 128.465 83.7939C130.309 85.8096 131.23 88.6299 131.23 92.2549C131.23 94.458 130.762 96.4346 129.824 98.1846C128.902 99.9189 127.574 101.271 125.84 102.239C124.105 103.192 122.059 103.669 119.699 103.669C117.637 103.669 115.723 103.255 113.957 102.427C112.191 101.583 110.793 100.403 109.762 98.8877C108.746 97.3721 108.207 95.6455 108.145 93.708H114.848C114.988 95.1299 115.48 96.2393 116.324 97.0361C117.184 97.8174 118.301 98.208 119.676 98.208C121.207 98.208 122.387 97.6611 123.215 96.5674C124.043 95.458 124.457 93.8955 124.457 91.8799C124.457 89.9424 123.98 88.458 123.027 87.4268C122.074 86.3955 120.723 85.8799 118.973 85.8799C117.363 85.8799 116.059 86.3018 115.059 87.1455L114.402 87.7549L109.012 86.4189Z" fill="white"/>
</svg>
