<svg width="121" height="120" viewBox="0 0 121 120" fill="none" xmlns="http://www.w3.org/2000/svg">
<path d="M48.6919 37.8052C50.0744 37.5682 51.434 37.3291 52.7711 37.0939C61.5125 35.5567 69.2875 34.1894 76.1436 34.7004C80.0618 34.9924 83.6055 35.8985 86.7908 37.7093C89.9707 39.5171 92.8721 42.2713 95.4445 46.3745C101.341 55.7804 102.755 63.7683 100.643 70.7375C98.5141 77.76 92.7011 84.1046 83.362 89.9593C78.7595 92.8446 72.8106 93.2799 66.1014 91.8581C59.4019 90.4385 52.1229 87.2005 45.0654 82.9964C30.9174 74.5683 18.0287 62.4842 12.8201 54.1757C11.5662 52.1756 11.1032 50.6065 11.1004 49.3869C11.0978 48.2119 11.5208 47.2217 12.3453 46.3248C14.1035 44.4123 17.6029 43.0131 22.1855 41.9715C26.6309 40.9611 31.7421 40.3568 36.5087 39.7933L36.6872 39.7722C41.3637 39.2192 45.8124 38.6919 48.6919 37.8052Z" stroke="white" stroke-width="3"/>
<path d="M58.1581 45.8057C59.1908 45.6264 60.2052 45.4458 61.2016 45.2685C67.7659 44.1004 73.547 43.0716 78.6371 43.4363C81.5342 43.6439 84.1322 44.3035 86.4565 45.6171C88.7751 46.9276 90.9006 48.9334 92.7915 51.9498C97.1564 58.9124 98.1538 64.7676 96.5979 69.8461C95.025 74.9801 90.7382 79.6761 83.7568 84.0527C80.41 86.1508 76.0572 86.4985 71.0815 85.4597C66.1149 84.4228 60.7029 82.0368 55.4404 78.9194C44.8817 72.6645 35.2946 63.6913 31.4481 57.5557C30.5353 56.0996 30.2269 54.9981 30.2272 54.182C30.2276 53.4098 30.503 52.756 31.0685 52.1428C32.3078 50.7988 34.833 49.7634 38.2687 48.9757C41.5852 48.2154 45.4031 47.755 48.9863 47.3229L49.1096 47.308L49.125 47.3062C52.5992 46.8872 55.9591 46.482 58.1581 45.8057Z" fill="#B403CC" stroke="white" stroke-width="3"/>
<path d="M65.8555 71H54.1602V68.6797L59.6797 62.7969C60.4375 61.9688 60.9961 61.2461 61.3555 60.6289C61.7227 60.0117 61.9062 59.4258 61.9062 58.8711C61.9062 58.1133 61.7148 57.5195 61.332 57.0898C60.9492 56.6523 60.4023 56.4336 59.6914 56.4336C58.9258 56.4336 58.3203 56.6992 57.875 57.2305C57.4375 57.7539 57.2188 58.4453 57.2188 59.3047H53.8203C53.8203 58.2656 54.0664 57.3164 54.5586 56.457C55.0586 55.5977 55.7617 54.9258 56.668 54.4414C57.5742 53.9492 58.6016 53.7031 59.75 53.7031C61.5078 53.7031 62.8711 54.125 63.8398 54.9688C64.8164 55.8125 65.3047 57.0039 65.3047 58.543C65.3047 59.3867 65.0859 60.2461 64.6484 61.1211C64.2109 61.9961 63.4609 63.0156 62.3984 64.1797L58.5195 68.2695H65.8555V71ZM68.4453 62.6094L69.4297 53.9375H78.9922V56.7617H72.207L71.7852 60.4297C72.5898 60 73.4453 59.7852 74.3516 59.7852C75.9766 59.7852 77.25 60.2891 78.1719 61.2969C79.0938 62.3047 79.5547 63.7148 79.5547 65.5273C79.5547 66.6289 79.3203 67.6172 78.8516 68.4922C78.3906 69.3594 77.7266 70.0352 76.8594 70.5195C75.9922 70.9961 74.9688 71.2344 73.7891 71.2344C72.7578 71.2344 71.8008 71.0273 70.918 70.6133C70.0352 70.1914 69.3359 69.6016 68.8203 68.8438C68.3125 68.0859 68.043 67.2227 68.0117 66.2539H71.3633C71.4336 66.9648 71.6797 67.5195 72.1016 67.918C72.5312 68.3086 73.0898 68.5039 73.7773 68.5039C74.543 68.5039 75.1328 68.2305 75.5469 67.6836C75.9609 67.1289 76.168 66.3477 76.168 65.3398C76.168 64.3711 75.9297 63.6289 75.4531 63.1133C74.9766 62.5977 74.3008 62.3398 73.4258 62.3398C72.6211 62.3398 71.9688 62.5508 71.4688 62.9727L71.1406 63.2773L68.4453 62.6094Z" fill="white"/>
</svg>
