<svg width="91" height="90" viewBox="0 0 91 90" fill="none" xmlns="http://www.w3.org/2000/svg">
<path d="M37.1581 28.8057C38.1908 28.6264 39.2052 28.4458 40.2016 28.2685C46.7659 27.1004 52.5469 26.0716 57.6371 26.4363C60.5342 26.6439 63.1322 27.3035 65.4565 28.6171C67.7751 29.9276 69.9006 31.9334 71.7915 34.9498C76.1564 41.9124 77.1538 47.7676 75.5979 52.8461C74.025 57.9801 69.7382 62.6761 62.7568 67.0527C59.41 69.1508 55.0572 69.4985 50.0815 68.4597C45.1149 67.4228 39.7029 65.0368 34.4404 61.9194C23.8817 55.6645 14.2946 46.6913 10.4481 40.5557C9.53532 39.0996 9.22686 37.9981 9.22722 37.182C9.22756 36.4098 9.50301 35.756 10.0685 35.1428C11.3078 33.7988 13.833 32.7634 17.2687 31.9757C20.5852 31.2154 24.4031 30.755 27.9863 30.3229L28.1096 30.308L28.125 30.3062C31.5992 29.8872 34.9591 29.482 37.1581 28.8057Z" fill="#B403CC" stroke="white" stroke-width="3"/>
<path d="M44.8555 54H33.1602V51.6797L38.6797 45.7969C39.4375 44.9688 39.9961 44.2461 40.3555 43.6289C40.7227 43.0117 40.9062 42.4258 40.9062 41.8711C40.9062 41.1133 40.7148 40.5195 40.332 40.0898C39.9492 39.6523 39.4023 39.4336 38.6914 39.4336C37.9258 39.4336 37.3203 39.6992 36.875 40.2305C36.4375 40.7539 36.2188 41.4453 36.2188 42.3047H32.8203C32.8203 41.2656 33.0664 40.3164 33.5586 39.457C34.0586 38.5977 34.7617 37.9258 35.668 37.4414C36.5742 36.9492 37.6016 36.7031 38.75 36.7031C40.5078 36.7031 41.8711 37.125 42.8398 37.9688C43.8164 38.8125 44.3047 40.0039 44.3047 41.543C44.3047 42.3867 44.0859 43.2461 43.6484 44.1211C43.2109 44.9961 42.4609 46.0156 41.3984 47.1797L37.5195 51.2695H44.8555V54ZM47.4453 45.6094L48.4297 36.9375H57.9922V39.7617H51.207L50.7852 43.4297C51.5898 43 52.4453 42.7852 53.3516 42.7852C54.9766 42.7852 56.25 43.2891 57.1719 44.2969C58.0938 45.3047 58.5547 46.7148 58.5547 48.5273C58.5547 49.6289 58.3203 50.6172 57.8516 51.4922C57.3906 52.3594 56.7266 53.0352 55.8594 53.5195C54.9922 53.9961 53.9688 54.2344 52.7891 54.2344C51.7578 54.2344 50.8008 54.0273 49.918 53.6133C49.0352 53.1914 48.3359 52.6016 47.8203 51.8438C47.3125 51.0859 47.043 50.2227 47.0117 49.2539H50.3633C50.4336 49.9648 50.6797 50.5195 51.1016 50.918C51.5312 51.3086 52.0898 51.5039 52.7773 51.5039C53.543 51.5039 54.1328 51.2305 54.5469 50.6836C54.9609 50.1289 55.168 49.3477 55.168 48.3398C55.168 47.3711 54.9297 46.6289 54.4531 46.1133C53.9766 45.5977 53.3008 45.3398 52.4258 45.3398C51.6211 45.3398 50.9688 45.5508 50.4688 45.9727L50.1406 46.2773L47.4453 45.6094Z" fill="white"/>
</svg>
