<svg width="138" height="137" viewBox="0 0 138 137" fill="none" xmlns="http://www.w3.org/2000/svg">
<path d="M108.447 61.3145C107.382 59.3258 106.342 57.3643 105.319 55.4356C98.6287 42.8166 92.6836 31.6039 85.2801 23.4174C81.0508 18.7408 76.422 15.1514 71.013 12.911C65.614 10.6748 59.2976 9.72429 51.6034 10.5253C33.9501 12.363 22.5186 18.4753 15.8398 28.035C9.10567 37.6741 6.84439 51.319 8.6817 68.9683C9.58494 77.6449 14.8931 85.6093 23.2962 92.7058C31.6874 99.7922 42.9425 105.816 55.2006 110.603C79.7779 120.2 107.712 124.574 123.302 122.951C127.047 122.561 129.46 121.598 130.979 120.409C132.441 119.265 133.263 117.767 133.577 115.847C134.248 111.743 132.567 105.932 129.358 99.0849C126.246 92.4451 121.964 85.3621 117.969 78.7527L117.821 78.5074C113.905 72.0291 110.176 65.8554 108.447 61.3145Z" fill="#B403CC" stroke="white" stroke-width="5"/>
<path d="M63.957 89.2002H40.5664V84.5596L51.6055 72.7939C53.1211 71.1377 54.2383 69.6924 54.957 68.458C55.6914 67.2236 56.0586 66.0518 56.0586 64.9424C56.0586 63.4268 55.6758 62.2393 54.9102 61.3799C54.1445 60.5049 53.0508 60.0674 51.6289 60.0674C50.0977 60.0674 48.8867 60.5986 47.9961 61.6611C47.1211 62.708 46.6836 64.0908 46.6836 65.8096H39.8867C39.8867 63.7314 40.3789 61.833 41.3633 60.1143C42.3633 58.3955 43.7695 57.0518 45.582 56.083C47.3945 55.0986 49.4492 54.6064 51.7461 54.6064C55.2617 54.6064 57.9883 55.4502 59.9258 57.1377C61.8789 58.8252 62.8555 61.208 62.8555 64.2861C62.8555 65.9736 62.418 67.6924 61.543 69.4424C60.668 71.1924 59.168 73.2314 57.043 75.5596L49.2852 83.7393H63.957V89.2002ZM91.332 58.8721L78.1367 89.2002H70.9883L84.207 60.5596L67.2383 60.5596V55.0752L91.332 55.0752V58.8721Z" fill="white"/>
</svg>
