<svg width="184" height="182" viewBox="0 0 184 182" fill="none" xmlns="http://www.w3.org/2000/svg">
<path d="M145.467 80.7386C144.037 78.0832 142.64 75.461 141.265 72.8802C132.322 56.0971 124.315 41.0694 114.332 30.0939C108.611 23.8043 102.316 18.9435 94.9307 15.9062C87.5545 12.8728 78.9503 11.6004 68.5213 12.6861C44.7201 15.1638 29.1368 23.3881 19.9995 36.3842C10.8089 49.4562 7.77895 67.8567 10.2341 91.4407C11.4664 103.279 18.7362 114.055 30.0755 123.573C41.402 133.08 56.5617 141.131 73.0256 147.514C106.013 160.303 143.561 166.143 164.619 163.951C169.732 163.419 173.138 162.099 175.343 160.384C177.489 158.713 178.685 156.522 179.136 153.789C180.083 148.056 177.729 140.119 173.434 130.999C169.253 122.123 163.506 112.665 158.17 103.883L157.959 103.537C152.687 94.8606 147.735 86.6992 145.467 80.7386Z" stroke="white" stroke-width="5"/>
</svg>
