<svg width="184" height="182" viewBox="0 0 184 182" fill="none" xmlns="http://www.w3.org/2000/svg">
<path d="M145.467 80.7386C144.037 78.0832 142.64 75.461 141.265 72.8802C132.322 56.0971 124.315 41.0694 114.332 30.0939C108.611 23.8043 102.316 18.9435 94.9307 15.9062C87.5545 12.8728 78.9503 11.6004 68.5213 12.6861C44.7201 15.1638 29.1368 23.3881 19.9995 36.3842C10.8089 49.4562 7.77895 67.8567 10.2341 91.4407C11.4664 103.279 18.7362 114.055 30.0755 123.573C41.402 133.08 56.5617 141.131 73.0256 147.514C106.013 160.303 143.561 166.143 164.619 163.951C169.732 163.419 173.138 162.099 175.343 160.384C177.489 158.713 178.685 156.522 179.136 153.789C180.083 148.056 177.729 140.119 173.434 130.999C169.253 122.123 163.506 112.665 158.17 103.883L157.959 103.537C152.687 94.8606 147.735 86.6992 145.467 80.7386Z" stroke="white" stroke-width="5"/>
<path d="M119.447 75.3145C118.382 73.3258 117.342 71.3643 116.319 69.4356C109.629 56.8166 103.684 45.6039 96.2801 37.4174C92.0508 32.7408 87.422 29.1514 82.013 26.911C76.614 24.6748 70.2976 23.7243 62.6034 24.5253C44.9501 26.363 33.5186 32.4753 26.8398 42.035C20.1057 51.6741 17.8444 65.319 19.6817 82.9683C20.5849 91.6449 25.8931 99.6093 34.2962 106.706C42.6874 113.792 53.9425 119.816 66.2006 124.603C90.7779 134.2 118.712 138.574 134.302 136.951C138.047 136.561 140.46 135.598 141.979 134.409C143.441 133.265 144.263 131.767 144.577 129.847C145.248 125.743 143.567 119.932 140.358 113.085C137.246 106.445 132.964 99.3621 128.969 92.7527L128.821 92.5074C124.905 86.0291 121.176 79.8554 119.447 75.3145Z" fill="#9750E1" stroke="white" stroke-width="5"/>
<path d="M74.957 103.2H51.5664V98.5596L62.6055 86.7939C64.1211 85.1377 65.2383 83.6924 65.957 82.458C66.6914 81.2236 67.0586 80.0518 67.0586 78.9424C67.0586 77.4268 66.6758 76.2393 65.9102 75.3799C65.1445 74.5049 64.0508 74.0674 62.6289 74.0674C61.0977 74.0674 59.8867 74.5986 58.9961 75.6611C58.1211 76.708 57.6836 78.0908 57.6836 79.8096H50.8867C50.8867 77.7314 51.3789 75.833 52.3633 74.1143C53.3633 72.3955 54.7695 71.0518 56.582 70.083C58.3945 69.0986 60.4492 68.6064 62.7461 68.6064C66.2617 68.6064 68.9883 69.4502 70.9258 71.1377C72.8789 72.8252 73.8555 75.208 73.8555 78.2861C73.8555 79.9736 73.418 81.6924 72.543 83.4424C71.668 85.1924 70.168 87.2314 68.043 89.5596L60.2852 97.7393H74.957V103.2ZM102.332 72.8721L89.1367 103.2H81.9883L95.207 74.5596H78.2383V69.0752H102.332V72.8721Z" fill="white"/>
</svg>
