<svg width="72" height="73" viewBox="0 0 72 73" fill="none" xmlns="http://www.w3.org/2000/svg">
<path d="M41.3224 19.0878C42.175 19.6975 43.0156 20.2934 43.8413 20.8786C49.2809 24.7343 54.0713 28.1298 57.3844 32.0114C59.27 34.2206 60.6237 36.534 61.3195 39.1116C62.0136 41.6828 62.0767 44.6047 61.2555 48.0687C59.36 56.0648 55.8897 60.8851 51.1803 63.3414C46.4194 65.8246 40.0657 66.0675 32.0481 64.1668C28.2045 63.2557 24.9017 60.3993 22.1491 56.1261C19.4015 51.8608 17.3023 46.3313 15.829 40.3948C12.873 28.4838 12.535 15.3569 14.2054 8.3105C14.6018 6.63831 15.1699 5.64546 15.7514 5.07287C16.3016 4.53112 16.9606 4.26843 17.7944 4.24077C19.6215 4.18014 22.1315 5.25205 25.104 7.14628C27.9735 8.97483 30.9812 11.3711 33.804 13.62L33.9012 13.6974L33.9133 13.707C36.6503 15.8875 39.2972 17.9963 41.3224 19.0878Z" fill="#B403CC" stroke="white" stroke-width="3"/>
<path d="M33.8555 46L22.1602 46L22.1602 43.6797L27.6797 37.7969C28.4375 36.9687 28.9961 36.2461 29.3555 35.6289C29.7227 35.0117 29.9063 34.4258 29.9063 33.8711C29.9063 33.1133 29.7148 32.5195 29.332 32.0898C28.9492 31.6523 28.4023 31.4336 27.6914 31.4336C26.9258 31.4336 26.3203 31.6992 25.875 32.2305C25.4375 32.7539 25.2188 33.4453 25.2188 34.3047L21.8203 34.3047C21.8203 33.2656 22.0664 32.3164 22.5586 31.457C23.0586 30.5977 23.7617 29.9258 24.668 29.4414C25.5742 28.9492 26.6016 28.7031 27.75 28.7031C29.5078 28.7031 30.8711 29.125 31.8398 29.9687C32.8164 30.8125 33.3047 32.0039 33.3047 33.543C33.3047 34.3867 33.0859 35.2461 32.6484 36.1211C32.2109 36.9961 31.4609 38.0156 30.3984 39.1797L26.5195 43.2695L33.8555 43.2695L33.8555 46ZM47.543 30.8359L40.9453 46L37.3711 46L43.9805 31.6797L35.4961 31.6797L35.4961 28.9375L47.543 28.9375L47.543 30.8359Z" fill="white"/>
</svg>
