<svg width="96" height="97" viewBox="0 0 96 97" fill="none" xmlns="http://www.w3.org/2000/svg">
<path d="M55.3724 24.7272C56.5115 25.5456 57.6362 26.3462 58.7422 27.1335C65.9728 32.2808 72.404 36.859 76.8524 42.101C79.3946 45.0968 81.2366 48.2569 82.1825 51.7967C83.1269 55.3306 83.2017 59.3303 82.0846 64.0426C79.5239 74.8446 74.827 81.4586 68.3803 84.8457C61.8842 88.2586 53.285 88.5715 42.5597 86.029C37.2741 84.776 32.7885 80.8443 29.092 75.0676C25.4008 69.2993 22.5978 61.8419 20.6387 53.8642C16.7111 37.8712 16.2716 20.2091 18.5336 10.6674C19.0781 8.37048 19.8707 6.93927 20.7374 6.0813C21.5725 5.25468 22.5747 4.86094 23.7923 4.81868C26.3886 4.72856 29.8415 6.23903 33.7999 8.77196C37.6399 11.2291 41.658 14.4456 45.4052 17.4453L45.5452 17.5573C49.2215 20.5001 52.7196 23.2987 55.3724 24.7272Z" stroke="white" stroke-width="3"/>
<path d="M56.3224 37.0878C57.175 37.6975 58.0156 38.2934 58.8412 38.8786C64.2809 42.7342 69.0713 46.1298 72.3844 50.0114C74.27 52.2206 75.6237 54.534 76.3195 57.1116C77.0136 59.6828 77.0767 62.6047 76.2555 66.0687C74.36 74.0648 70.8897 78.8851 66.1803 81.3414C61.4194 83.8246 55.0657 84.0675 47.0481 82.1668C43.2045 81.2557 39.9017 78.3993 37.1491 74.1261C34.4015 69.8608 32.3023 64.3313 30.829 58.3948C27.873 46.4838 27.535 33.3569 29.2054 26.3105C29.6018 24.6383 30.1699 23.6455 30.7514 23.0729C31.3016 22.5311 31.9606 22.2684 32.7944 22.2408C34.6215 22.1801 37.1315 23.252 40.104 25.1463C42.9734 26.9748 45.9812 29.371 48.8039 31.6199L48.9012 31.6974L48.9133 31.707C51.6503 33.8875 54.2972 35.9963 56.3224 37.0878Z" fill="#B403CC" stroke="white" stroke-width="3"/>
<path d="M48.8555 64L37.1602 64L37.1602 61.6797L42.6797 55.7969C43.4375 54.9687 43.9961 54.2461 44.3555 53.6289C44.7227 53.0117 44.9063 52.4258 44.9063 51.8711C44.9063 51.1133 44.7148 50.5195 44.332 50.0898C43.9492 49.6523 43.4023 49.4336 42.6914 49.4336C41.9258 49.4336 41.3203 49.6992 40.875 50.2305C40.4375 50.7539 40.2188 51.4453 40.2188 52.3047L36.8203 52.3047C36.8203 51.2656 37.0664 50.3164 37.5586 49.457C38.0586 48.5977 38.7617 47.9258 39.668 47.4414C40.5742 46.9492 41.6016 46.7031 42.75 46.7031C44.5078 46.7031 45.8711 47.125 46.8398 47.9687C47.8164 48.8125 48.3047 50.0039 48.3047 51.543C48.3047 52.3867 48.0859 53.2461 47.6484 54.1211C47.2109 54.9961 46.4609 56.0156 45.3984 57.1797L41.5195 61.2695L48.8555 61.2695L48.8555 64ZM62.543 48.8359L55.9453 64L52.3711 64L58.9805 49.6797L50.4961 49.6797L50.4961 46.9375L62.543 46.9375L62.543 48.8359Z" fill="white"/>
</svg>
