<svg width="138" height="137" viewBox="0 0 138 137" fill="none" xmlns="http://www.w3.org/2000/svg">
<path d="M108.447 61.3145C107.382 59.3258 106.342 57.3643 105.319 55.4356C98.6287 42.8166 92.6836 31.6039 85.2801 23.4174C81.0508 18.7408 76.422 15.1514 71.013 12.911C65.614 10.6748 59.2976 9.72429 51.6034 10.5253C33.9501 12.363 22.5186 18.4753 15.8398 28.035C9.10567 37.6741 6.84439 51.319 8.6817 68.9683C9.58494 77.6449 14.8931 85.6093 23.2962 92.7058C31.6874 99.7922 42.9425 105.816 55.2006 110.603C79.7779 120.2 107.712 124.574 123.302 122.951C127.047 122.561 129.46 121.598 130.979 120.409C132.441 119.265 133.263 117.767 133.577 115.847C134.248 111.743 132.567 105.932 129.358 99.0849C126.246 92.4451 121.964 85.3621 117.969 78.7527L117.821 78.5074C113.905 72.0291 110.176 65.8554 108.447 61.3145Z" fill="#B403CC" stroke="white" stroke-width="5"/>
<path d="M63.957 89.2002H40.5664V84.5596L51.6055 72.7939C53.1211 71.1377 54.2383 69.6924 54.957 68.458C55.6914 67.2236 56.0586 66.0518 56.0586 64.9424C56.0586 63.4268 55.6758 62.2393 54.9102 61.3799C54.1445 60.5049 53.0508 60.0674 51.6289 60.0674C50.0977 60.0674 48.8867 60.5986 47.9961 61.6611C47.1211 62.708 46.6836 64.0908 46.6836 65.8096H39.8867C39.8867 63.7314 40.3789 61.833 41.3633 60.1143C42.3633 58.3955 43.7695 57.0518 45.582 56.083C47.3945 55.0986 49.4492 54.6064 51.7461 54.6064C55.2617 54.6064 57.9883 55.4502 59.9258 57.1377C61.8789 58.8252 62.8555 61.208 62.8555 64.2861C62.8555 65.9736 62.418 67.6924 61.543 69.4424C60.668 71.1924 59.168 73.2314 57.043 75.5596L49.2852 83.7393H63.957V89.2002ZM90.3711 64.1455C90.3711 65.8018 89.957 67.2705 89.1289 68.5518C88.3008 69.833 87.1602 70.8564 85.707 71.6221C87.3633 72.4189 88.6758 73.5205 89.6445 74.9268C90.6133 76.3174 91.0977 77.958 91.0977 79.8486C91.0977 82.8799 90.0664 85.2783 88.0039 87.0439C85.9414 88.7939 83.1367 89.6689 79.5898 89.6689C76.043 89.6689 73.2305 88.7861 71.1523 87.0205C69.0742 85.2549 68.0352 82.8643 68.0352 79.8486C68.0352 77.958 68.5195 76.3096 69.4883 74.9033C70.457 73.4971 71.7617 72.4033 73.4023 71.6221C71.9492 70.8564 70.8086 69.833 69.9805 68.5518C69.168 67.2705 68.7617 65.8018 68.7617 64.1455C68.7617 61.2393 69.7305 58.9268 71.668 57.208C73.6055 55.4736 76.2383 54.6064 79.5664 54.6064C82.8789 54.6064 85.5039 55.4658 87.4414 57.1846C89.3945 58.8877 90.3711 61.208 90.3711 64.1455ZM84.3008 79.3564C84.3008 77.8721 83.8711 76.6846 83.0117 75.7939C82.1523 74.9033 80.9961 74.458 79.543 74.458C78.1055 74.458 76.957 74.9033 76.0977 75.7939C75.2383 76.6689 74.8086 77.8564 74.8086 79.3564C74.8086 80.8096 75.2305 81.9814 76.0742 82.8721C76.918 83.7627 78.0898 84.208 79.5898 84.208C81.0586 84.208 82.207 83.7783 83.0352 82.9189C83.8789 82.0596 84.3008 80.8721 84.3008 79.3564ZM83.5977 64.4736C83.5977 63.1455 83.2461 62.083 82.543 61.2861C81.8398 60.4736 80.8477 60.0674 79.5664 60.0674C78.3008 60.0674 77.3164 60.458 76.6133 61.2393C75.9102 62.0205 75.5586 63.0986 75.5586 64.4736C75.5586 65.833 75.9102 66.9268 76.6133 67.7549C77.3164 68.583 78.3086 68.9971 79.5898 68.9971C80.8711 68.9971 81.8555 68.583 82.543 67.7549C83.2461 66.9268 83.5977 65.833 83.5977 64.4736Z" fill="white"/>
</svg>
