<svg width="184" height="182" viewBox="0 0 184 182" fill="none" xmlns="http://www.w3.org/2000/svg">
<path d="M145.467 80.7386C144.037 78.0832 142.64 75.461 141.265 72.8802C132.322 56.0971 124.315 41.0694 114.332 30.0939C108.611 23.8043 102.316 18.9435 94.9307 15.9062C87.5545 12.8728 78.9503 11.6004 68.5213 12.6861C44.7201 15.1638 29.1368 23.3881 19.9995 36.3842C10.8089 49.4562 7.77895 67.8567 10.2341 91.4407C11.4664 103.279 18.7362 114.055 30.0755 123.573C41.402 133.08 56.5617 141.131 73.0256 147.514C106.013 160.303 143.561 166.143 164.619 163.951C169.732 163.419 173.138 162.099 175.343 160.384C177.489 158.713 178.685 156.522 179.136 153.789C180.083 148.056 177.729 140.119 173.434 130.999C169.253 122.123 163.506 112.665 158.17 103.883L157.959 103.537C152.687 94.8606 147.735 86.6992 145.467 80.7386Z" stroke="white" stroke-width="5"/>
<path d="M119.447 75.3145C118.382 73.3258 117.342 71.3643 116.319 69.4356C109.629 56.8166 103.684 45.6039 96.2801 37.4174C92.0508 32.7408 87.422 29.1514 82.013 26.911C76.614 24.6748 70.2976 23.7243 62.6034 24.5253C44.9501 26.363 33.5186 32.4753 26.8398 42.035C20.1057 51.6741 17.8444 65.319 19.6817 82.9683C20.5849 91.6449 25.8931 99.6093 34.2962 106.706C42.6874 113.792 53.9425 119.816 66.2006 124.603C90.7779 134.2 118.712 138.574 134.302 136.951C138.047 136.561 140.46 135.598 141.979 134.409C143.441 133.265 144.263 131.767 144.577 129.847C145.248 125.743 143.567 119.932 140.358 113.085C137.246 106.445 132.964 99.3621 128.969 92.7527L128.821 92.5074C124.905 86.0291 121.176 79.8554 119.447 75.3145Z" fill="#9750E1" stroke="white" stroke-width="5"/>
<path d="M74.957 103.2H51.5664V98.5596L62.6055 86.7939C64.1211 85.1377 65.2383 83.6924 65.957 82.458C66.6914 81.2236 67.0586 80.0518 67.0586 78.9424C67.0586 77.4268 66.6758 76.2393 65.9102 75.3799C65.1445 74.5049 64.0508 74.0674 62.6289 74.0674C61.0977 74.0674 59.8867 74.5986 58.9961 75.6611C58.1211 76.708 57.6836 78.0908 57.6836 79.8096H50.8867C50.8867 77.7314 51.3789 75.833 52.3633 74.1143C53.3633 72.3955 54.7695 71.0518 56.582 70.083C58.3945 69.0986 60.4492 68.6064 62.7461 68.6064C66.2617 68.6064 68.9883 69.4502 70.9258 71.1377C72.8789 72.8252 73.8555 75.208 73.8555 78.2861C73.8555 79.9736 73.418 81.6924 72.543 83.4424C71.668 85.1924 70.168 87.2314 68.043 89.5596L60.2852 97.7393H74.957V103.2ZM101.371 78.1455C101.371 79.8018 100.957 81.2705 100.129 82.5518C99.3008 83.833 98.1602 84.8564 96.707 85.6221C98.3633 86.4189 99.6758 87.5205 100.645 88.9268C101.613 90.3174 102.098 91.958 102.098 93.8486C102.098 96.8799 101.066 99.2783 99.0039 101.044C96.9414 102.794 94.1367 103.669 90.5898 103.669C87.043 103.669 84.2305 102.786 82.1523 101.021C80.0742 99.2549 79.0352 96.8643 79.0352 93.8486C79.0352 91.958 79.5195 90.3096 80.4883 88.9033C81.457 87.4971 82.7617 86.4033 84.4023 85.6221C82.9492 84.8564 81.8086 83.833 80.9805 82.5518C80.168 81.2705 79.7617 79.8018 79.7617 78.1455C79.7617 75.2393 80.7305 72.9268 82.668 71.208C84.6055 69.4736 87.2383 68.6064 90.5664 68.6064C93.8789 68.6064 96.5039 69.4658 98.4414 71.1846C100.395 72.8877 101.371 75.208 101.371 78.1455ZM95.3008 93.3564C95.3008 91.8721 94.8711 90.6846 94.0117 89.7939C93.1523 88.9033 91.9961 88.458 90.543 88.458C89.1055 88.458 87.957 88.9033 87.0977 89.7939C86.2383 90.6689 85.8086 91.8564 85.8086 93.3564C85.8086 94.8096 86.2305 95.9814 87.0742 96.8721C87.918 97.7627 89.0898 98.208 90.5898 98.208C92.0586 98.208 93.207 97.7783 94.0352 96.9189C94.8789 96.0596 95.3008 94.8721 95.3008 93.3564ZM94.5977 78.4736C94.5977 77.1455 94.2461 76.083 93.543 75.2861C92.8398 74.4736 91.8477 74.0674 90.5664 74.0674C89.3008 74.0674 88.3164 74.458 87.6133 75.2393C86.9102 76.0205 86.5586 77.0986 86.5586 78.4736C86.5586 79.833 86.9102 80.9268 87.6133 81.7549C88.3164 82.583 89.3086 82.9971 90.5898 82.9971C91.8711 82.9971 92.8555 82.583 93.543 81.7549C94.2461 80.9268 94.5977 79.833 94.5977 78.4736Z" fill="white"/>
</svg>
