<svg width="87" height="87" viewBox="0 0 87 87" fill="none" xmlns="http://www.w3.org/2000/svg">
<path d="M54.5495 28.7882C55.1602 29.6401 55.7639 30.475 56.357 31.295C60.2642 36.6977 63.7051 41.4557 65.5909 46.1978C66.6641 48.8967 67.2003 51.5229 67.0284 54.1872C66.857 56.845 65.9754 59.6314 64.0819 62.6461C59.7111 69.605 54.8727 73.05 49.623 73.858C44.316 74.6749 38.2229 72.8575 31.2452 68.475C27.9001 66.374 25.6938 62.6058 24.4648 57.6736C23.2381 52.7505 23.0324 46.8394 23.5504 40.7449C24.5898 28.5166 28.4994 15.9808 32.351 9.84845C33.2651 8.39316 34.1228 7.63628 34.8578 7.28161C35.5532 6.94604 36.2617 6.90968 37.0599 7.15213C38.8091 7.68344 40.8399 9.5069 43.0436 12.2579C45.1708 14.9134 47.2461 18.151 49.1938 21.1895L49.2608 21.2941L49.2691 21.3071C51.1576 24.2532 52.984 27.1023 54.5495 28.7882Z" fill="#B403CC" stroke="white" stroke-width="3"/>
<path d="M40.7793 52.8193L29.084 52.8193L29.084 50.499L34.6035 44.6162C35.3613 43.7881 35.9199 43.0654 36.2793 42.4482C36.6465 41.8311 36.8301 41.2451 36.8301 40.6904C36.8301 39.9326 36.6387 39.3389 36.2559 38.9092C35.873 38.4717 35.3262 38.2529 34.6152 38.2529C33.8496 38.2529 33.2441 38.5186 32.7988 39.0498C32.3613 39.5732 32.1426 40.2646 32.1426 41.124L28.7441 41.124C28.7441 40.085 28.9902 39.1357 29.4824 38.2764C29.9824 37.417 30.6855 36.7451 31.5918 36.2607C32.498 35.7686 33.5254 35.5225 34.6738 35.5225C36.4316 35.5225 37.7949 35.9443 38.7637 36.7881C39.7402 37.6318 40.2285 38.8232 40.2285 40.3623C40.2285 41.2061 40.0098 42.0654 39.5723 42.9404C39.1348 43.8154 38.3848 44.835 37.3223 45.999L33.4434 50.0889L40.7793 50.0889L40.7793 52.8193ZM53.9863 40.292C53.9863 41.1201 53.7793 41.8545 53.3652 42.4951C52.9512 43.1357 52.3809 43.6475 51.6543 44.0303C52.4824 44.4287 53.1387 44.9795 53.623 45.6826C54.1074 46.3779 54.3496 47.1982 54.3496 48.1436C54.3496 49.6592 53.834 50.8584 52.8027 51.7412C51.7715 52.6162 50.3691 53.0537 48.5957 53.0537C46.8223 53.0537 45.416 52.6123 44.377 51.7295C43.3379 50.8467 42.8184 49.6514 42.8184 48.1436C42.8184 47.1982 43.0605 46.374 43.5449 45.6709C44.0293 44.9678 44.6816 44.4209 45.502 44.0303C44.7754 43.6475 44.2051 43.1357 43.791 42.4951C43.3848 41.8545 43.1816 41.1201 43.1816 40.292C43.1816 38.8389 43.666 37.6826 44.6348 36.8232C45.6035 35.9561 46.9199 35.5225 48.584 35.5225C50.2402 35.5225 51.5527 35.9521 52.5215 36.8115C53.498 37.6631 53.9863 38.8232 53.9863 40.292ZM50.9512 47.8975C50.9512 47.1553 50.7363 46.5615 50.3066 46.1162C49.877 45.6709 49.2988 45.4482 48.5723 45.4482C47.8535 45.4482 47.2793 45.6709 46.8496 46.1162C46.4199 46.5537 46.2051 47.1475 46.2051 47.8975C46.2051 48.624 46.416 49.21 46.8379 49.6553C47.2598 50.1006 47.8457 50.3232 48.5957 50.3232C49.3301 50.3232 49.9043 50.1084 50.3184 49.6787C50.7402 49.249 50.9512 48.6553 50.9512 47.8975ZM50.5996 40.4561C50.5996 39.792 50.4238 39.2607 50.0723 38.8623C49.7207 38.4561 49.2246 38.2529 48.584 38.2529C47.9512 38.2529 47.459 38.4482 47.1074 38.8389C46.7559 39.2295 46.5801 39.7686 46.5801 40.4561C46.5801 41.1357 46.7559 41.6826 47.1074 42.0967C47.459 42.5107 47.9551 42.7178 48.5957 42.7178C49.2363 42.7178 49.7285 42.5107 50.0723 42.0967C50.4238 41.6826 50.5996 41.1357 50.5996 40.4561Z" fill="white"/>
</svg>
