<svg width="115" height="116" viewBox="0 0 115 116" fill="none" xmlns="http://www.w3.org/2000/svg">
<path d="M72.6347 37.781C73.4495 38.9228 74.2562 40.0431 75.0495 41.1447C80.2361 48.3472 84.8492 54.7534 87.3713 61.1491C88.8127 64.8043 89.5383 68.3894 89.2933 72.0452C89.0487 75.6948 87.8308 79.5054 85.2549 83.6064C79.3504 93.0073 72.7729 97.7553 65.5786 98.8846C58.3293 100.022 50.0879 97.548 40.7538 91.6853C36.1538 88.7961 33.1742 83.6289 31.536 76.9692C29.9002 70.3192 29.6496 62.3564 30.3653 54.1728C31.8002 37.7673 37.0749 20.9055 42.2906 12.6014C43.5461 10.6024 44.7577 9.50295 45.8546 8.96998C46.9114 8.45649 47.9871 8.40667 49.1534 8.75898C51.6402 9.51019 54.4223 12.0526 57.3535 15.7259C60.1971 19.2893 62.9645 23.6289 65.5454 27.6759L65.6418 27.8271C68.1739 31.7975 70.5837 35.5739 72.6347 37.781Z" stroke="white" stroke-width="3"/>
<path d="M69.5495 49.7882C70.1602 50.6401 70.7639 51.475 71.357 52.295C75.2642 57.6977 78.7051 62.4557 80.5909 67.1978C81.6641 69.8967 82.2003 72.5229 82.0284 75.1872C81.857 77.845 80.9754 80.6314 79.0819 83.6461C74.7111 90.605 69.8727 94.05 64.623 94.858C59.316 95.6749 53.2229 93.8575 46.2452 89.475C42.9001 87.374 40.6938 83.6058 39.4648 78.6736C38.2381 73.7505 38.0324 67.8394 38.5504 61.7449C39.5898 49.5166 43.4994 36.9808 47.351 30.8485C48.2651 29.3932 49.1228 28.6363 49.8578 28.2816C50.5532 27.946 51.2617 27.9097 52.0599 28.1521C53.8091 28.6834 55.8399 30.5069 58.0436 33.2579C60.1708 35.9135 62.2461 39.151 64.1938 42.1895L64.2608 42.2941L64.2691 42.3071C66.1576 45.2532 67.984 48.1023 69.5495 49.7882Z" fill="#B403CC" stroke="white" stroke-width="3"/>
<path d="M55.7793 73.8193L44.084 73.8193L44.084 71.499L49.6035 65.6162C50.3613 64.7881 50.9199 64.0654 51.2793 63.4482C51.6465 62.8311 51.8301 62.2451 51.8301 61.6904C51.8301 60.9326 51.6387 60.3389 51.2559 59.9092C50.873 59.4717 50.3262 59.2529 49.6152 59.2529C48.8496 59.2529 48.2441 59.5186 47.7988 60.0498C47.3613 60.5732 47.1426 61.2646 47.1426 62.124L43.7441 62.124C43.7441 61.085 43.9902 60.1357 44.4824 59.2764C44.9824 58.417 45.6855 57.7451 46.5918 57.2607C47.498 56.7686 48.5254 56.5225 49.6738 56.5225C51.4316 56.5225 52.7949 56.9443 53.7637 57.7881C54.7402 58.6318 55.2285 59.8232 55.2285 61.3623C55.2285 62.2061 55.0098 63.0654 54.5723 63.9404C54.1348 64.8154 53.3848 65.835 52.3223 66.999L48.4434 71.0889L55.7793 71.0889L55.7793 73.8193ZM68.9863 61.292C68.9863 62.1201 68.7793 62.8545 68.3652 63.4951C67.9512 64.1357 67.3809 64.6475 66.6543 65.0303C67.4824 65.4287 68.1387 65.9795 68.623 66.6826C69.1074 67.3779 69.3496 68.1982 69.3496 69.1436C69.3496 70.6592 68.834 71.8584 67.8027 72.7412C66.7715 73.6162 65.3691 74.0537 63.5957 74.0537C61.8223 74.0537 60.416 73.6123 59.377 72.7295C58.3379 71.8467 57.8184 70.6514 57.8184 69.1436C57.8184 68.1982 58.0605 67.374 58.5449 66.6709C59.0293 65.9678 59.6816 65.4209 60.502 65.0303C59.7754 64.6475 59.2051 64.1357 58.791 63.4951C58.3848 62.8545 58.1816 62.1201 58.1816 61.292C58.1816 59.8389 58.666 58.6826 59.6348 57.8232C60.6035 56.9561 61.9199 56.5225 63.584 56.5225C65.2402 56.5225 66.5527 56.9521 67.5215 57.8115C68.498 58.6631 68.9863 59.8232 68.9863 61.292ZM65.9512 68.8975C65.9512 68.1553 65.7363 67.5615 65.3066 67.1162C64.877 66.6709 64.2988 66.4482 63.5723 66.4482C62.8535 66.4482 62.2793 66.6709 61.8496 67.1162C61.4199 67.5537 61.2051 68.1475 61.2051 68.8975C61.2051 69.624 61.416 70.21 61.8379 70.6553C62.2598 71.1006 62.8457 71.3232 63.5957 71.3232C64.3301 71.3232 64.9043 71.1084 65.3184 70.6787C65.7402 70.249 65.9512 69.6553 65.9512 68.8975ZM65.5996 61.4561C65.5996 60.792 65.4238 60.2607 65.0723 59.8623C64.7207 59.4561 64.2246 59.2529 63.584 59.2529C62.9512 59.2529 62.459 59.4482 62.1074 59.8389C61.7559 60.2295 61.5801 60.7686 61.5801 61.4561C61.5801 62.1357 61.7559 62.6826 62.1074 63.0967C62.459 63.5107 62.9551 63.7178 63.5957 63.7178C64.2363 63.7178 64.7285 63.5107 65.0723 63.0967C65.4238 62.6826 65.5996 62.1357 65.5996 61.4561Z" fill="white"/>
</svg>
