<svg width="138" height="138" viewBox="0 0 138 138" fill="none" xmlns="http://www.w3.org/2000/svg">
<path d="M108.447 76.5039C107.382 78.4925 106.342 80.4541 105.319 82.3828C98.6287 95.0017 92.6836 106.214 85.2801 114.401C81.0508 119.078 76.422 122.667 71.013 124.907C65.614 127.144 59.2976 128.094 51.6034 127.293C33.9501 125.455 22.5186 119.343 15.8398 109.783C9.10567 100.144 6.84439 86.4994 8.6817 68.85C9.58494 60.1734 14.8931 52.209 23.2962 45.1125C31.6874 38.0262 42.9425 32.0026 55.2006 27.2157C79.7779 17.6181 107.712 13.2443 123.302 14.8673C127.047 15.2571 129.46 16.2201 130.979 17.4094C132.441 18.5534 133.263 20.0509 133.577 21.9715C134.248 26.0753 132.567 31.8861 129.358 38.7335C126.246 45.3733 121.964 52.4562 117.969 59.0657L117.821 59.3109C113.905 65.7892 110.176 71.9629 108.447 76.5039Z" fill="#B403CC" stroke="white" stroke-width="5"/>
<path d="M45.2109 69.9375H48.8203C50.5391 69.9375 51.8125 69.5078 52.6406 68.6484C53.4688 67.7891 53.8828 66.6484 53.8828 65.2266C53.8828 63.8516 53.4688 62.7812 52.6406 62.0156C51.8281 61.25 50.7031 60.8672 49.2656 60.8672C47.9688 60.8672 46.8828 61.2266 46.0078 61.9453C45.1328 62.6484 44.6953 63.5703 44.6953 64.7109H37.9219C37.9219 62.9297 38.3984 61.3359 39.3516 59.9297C40.3203 58.5078 41.6641 57.3984 43.3828 56.6016C45.1172 55.8047 47.0234 55.4062 49.1016 55.4062C52.7109 55.4062 55.5391 56.2734 57.5859 58.0078C59.6328 59.7266 60.6562 62.1016 60.6562 65.1328C60.6562 66.6953 60.1797 68.1328 59.2266 69.4453C58.2734 70.7578 57.0234 71.7656 55.4766 72.4688C57.3984 73.1562 58.8281 74.1875 59.7656 75.5625C60.7188 76.9375 61.1953 78.5625 61.1953 80.4375C61.1953 83.4688 60.0859 85.8984 57.8672 87.7266C55.6641 89.5547 52.7422 90.4688 49.1016 90.4688C45.6953 90.4688 42.9062 89.5703 40.7344 87.7734C38.5781 85.9766 37.5 83.6016 37.5 80.6484H44.2734C44.2734 81.9297 44.75 82.9766 45.7031 83.7891C46.6719 84.6016 47.8594 85.0078 49.2656 85.0078C50.875 85.0078 52.1328 84.5859 53.0391 83.7422C53.9609 82.8828 54.4219 81.75 54.4219 80.3438C54.4219 76.9375 52.5469 75.2344 48.7969 75.2344H45.2109V69.9375ZM82.3359 90H75.5625V63.8906L67.4766 66.3984V60.8906L81.6094 55.8281H82.3359V90Z" fill="white"/>
</svg>
