<svg width="184" height="182" viewBox="0 0 184 182" fill="none" xmlns="http://www.w3.org/2000/svg">
<path d="M145.467 101.08C144.037 103.735 142.64 106.357 141.265 108.938C132.322 125.721 124.315 140.749 114.332 151.724C108.611 158.014 102.316 162.875 94.9307 165.912C87.5545 168.946 78.9503 170.218 68.5213 169.132C44.7201 166.655 29.1368 158.43 19.9995 145.434C10.8089 132.362 7.77895 113.962 10.2341 90.3777C11.4664 78.5393 18.7362 67.7633 30.0755 58.2456C41.402 48.7385 56.5617 40.6872 73.0256 34.3044C106.013 21.5154 143.561 15.6751 164.619 17.8673C169.732 18.3996 173.138 19.7189 175.343 21.4349C177.489 23.1052 178.685 25.296 179.136 28.0297C180.083 33.7621 177.729 41.6995 173.434 50.8193C169.253 59.6958 163.506 69.1531 158.17 77.9351L157.959 78.2813C152.687 86.9577 147.735 95.1192 145.467 101.08Z" stroke="white" stroke-width="5"/>
<path d="M119.447 106.504C118.382 108.493 117.342 110.454 116.319 112.383C109.629 125.002 103.684 136.214 96.2801 144.401C92.0508 149.078 87.422 152.667 82.013 154.907C76.614 157.144 70.2976 158.094 62.6034 157.293C44.9501 155.455 33.5186 149.343 26.8398 139.783C20.1057 130.144 17.8444 116.499 19.6817 98.85C20.5849 90.1734 25.8931 82.209 34.2962 75.1125C42.6874 68.0262 53.9425 62.0026 66.2006 57.2157C90.7779 47.6181 118.712 43.2443 134.302 44.8673C138.047 45.2571 140.46 46.2201 141.979 47.4094C143.441 48.5534 144.263 50.0509 144.577 51.9715C145.248 56.0753 143.567 61.8861 140.358 68.7335C137.246 75.3733 132.964 82.4562 128.969 89.0657L128.821 89.3109C124.905 95.7892 121.176 101.963 119.447 106.504Z" fill="#B403CC" stroke="white" stroke-width="5"/>
<path d="M58.457 90.5557H62.0664C63.7852 90.5557 65.0586 90.126 65.8867 89.2666C66.7148 88.4072 67.1289 87.2666 67.1289 85.8447C67.1289 84.4697 66.7148 83.3994 65.8867 82.6338C65.0742 81.8682 63.9492 81.4854 62.5117 81.4854C61.2148 81.4854 60.1289 81.8447 59.2539 82.5635C58.3789 83.2666 57.9414 84.1885 57.9414 85.3291H51.168C51.168 83.5479 51.6445 81.9541 52.5977 80.5479C53.5664 79.126 54.9102 78.0166 56.6289 77.2197C58.3633 76.4229 60.2695 76.0244 62.3477 76.0244C65.957 76.0244 68.7852 76.8916 70.832 78.626C72.8789 80.3447 73.9023 82.7197 73.9023 85.751C73.9023 87.3135 73.4258 88.751 72.4727 90.0635C71.5195 91.376 70.2695 92.3838 68.7227 93.0869C70.6445 93.7744 72.0742 94.8057 73.0117 96.1807C73.9648 97.5557 74.4414 99.1807 74.4414 101.056C74.4414 104.087 73.332 106.517 71.1133 108.345C68.9102 110.173 65.9883 111.087 62.3477 111.087C58.9414 111.087 56.1523 110.188 53.9805 108.392C51.8242 106.595 50.7461 104.22 50.7461 101.267H57.5195C57.5195 102.548 57.9961 103.595 58.9492 104.407C59.918 105.22 61.1055 105.626 62.5117 105.626C64.1211 105.626 65.3789 105.204 66.2852 104.36C67.207 103.501 67.668 102.368 67.668 100.962C67.668 97.5557 65.793 95.8525 62.043 95.8525H58.457V90.5557ZM95.582 110.618H88.8086V84.5088L80.7227 87.0166V81.5088L94.8555 76.4463H95.582V110.618Z" fill="white"/>
</svg>
