<svg width="184" height="182" viewBox="0 0 184 182" fill="none" xmlns="http://www.w3.org/2000/svg">
<path d="M145.467 101.08C144.037 103.735 142.64 106.357 141.265 108.938C132.322 125.721 124.315 140.749 114.332 151.724C108.611 158.014 102.316 162.875 94.9307 165.912C87.5545 168.946 78.9503 170.218 68.5213 169.132C44.7201 166.655 29.1368 158.43 19.9995 145.434C10.8089 132.362 7.77895 113.962 10.2341 90.3777C11.4664 78.5393 18.7362 67.7633 30.0755 58.2456C41.402 48.7385 56.5617 40.6872 73.0256 34.3044C106.013 21.5154 143.561 15.6751 164.619 17.8673C169.732 18.3996 173.138 19.7189 175.343 21.4349C177.489 23.1052 178.685 25.296 179.136 28.0297C180.083 33.7621 177.729 41.6995 173.434 50.8193C169.253 59.6958 163.506 69.1531 158.17 77.9351L157.959 78.2813C152.687 86.9577 147.735 95.1192 145.467 101.08Z" stroke="white" stroke-width="5"/>
<path d="M119.447 106.504C118.382 108.493 117.342 110.454 116.319 112.383C109.629 125.002 103.684 136.214 96.2801 144.401C92.0508 149.078 87.422 152.667 82.013 154.907C76.614 157.144 70.2976 158.094 62.6034 157.293C44.9501 155.455 33.5186 149.343 26.8398 139.783C20.1057 130.144 17.8444 116.499 19.6817 98.85C20.5849 90.1734 25.8931 82.209 34.2962 75.1125C42.6874 68.0262 53.9425 62.0026 66.2006 57.2157C90.7779 47.6181 118.712 43.2443 134.302 44.8673C138.047 45.2571 140.46 46.2201 141.979 47.4094C143.441 48.5534 144.263 50.0509 144.577 51.9715C145.248 56.0753 143.567 61.8861 140.358 68.7335C137.246 75.3733 132.964 82.4562 128.969 89.0657L128.821 89.3109C124.905 95.7892 121.176 101.963 119.447 106.504Z" fill="#B403CC" stroke="white" stroke-width="5"/>
<path d="M56.2109 99.9375H59.8203C61.5391 99.9375 62.8125 99.5078 63.6406 98.6484C64.4688 97.7891 64.8828 96.6484 64.8828 95.2266C64.8828 93.8516 64.4688 92.7812 63.6406 92.0156C62.8281 91.25 61.7031 90.8672 60.2656 90.8672C58.9688 90.8672 57.8828 91.2266 57.0078 91.9453C56.1328 92.6484 55.6953 93.5703 55.6953 94.7109H48.9219C48.9219 92.9297 49.3984 91.3359 50.3516 89.9297C51.3203 88.5078 52.6641 87.3984 54.3828 86.6016C56.1172 85.8047 58.0234 85.4062 60.1016 85.4062C63.7109 85.4062 66.5391 86.2734 68.5859 88.0078C70.6328 89.7266 71.6562 92.1016 71.6562 95.1328C71.6562 96.6953 71.1797 98.1328 70.2266 99.4453C69.2734 100.758 68.0234 101.766 66.4766 102.469C68.3984 103.156 69.8281 104.188 70.7656 105.562C71.7188 106.938 72.1953 108.562 72.1953 110.438C72.1953 113.469 71.0859 115.898 68.8672 117.727C66.6641 119.555 63.7422 120.469 60.1016 120.469C56.6953 120.469 53.9062 119.57 51.7344 117.773C49.5781 115.977 48.5 113.602 48.5 110.648H55.2734C55.2734 111.93 55.75 112.977 56.7031 113.789C57.6719 114.602 58.8594 115.008 60.2656 115.008C61.875 115.008 63.1328 114.586 64.0391 113.742C64.9609 112.883 65.4219 111.75 65.4219 110.344C65.4219 106.938 63.5469 105.234 59.7969 105.234H56.2109V99.9375ZM93.3359 120H86.5625V93.8906L78.4766 96.3984V90.8906L92.6094 85.8281H93.3359V120Z" fill="white"/>
</svg>
