<svg width="184" height="182" viewBox="0 0 184 182" fill="none" xmlns="http://www.w3.org/2000/svg">
<path d="M145.467 101.08C144.037 103.735 142.64 106.357 141.265 108.938C132.322 125.721 124.315 140.749 114.332 151.724C108.611 158.014 102.316 162.875 94.9307 165.912C87.5545 168.946 78.9503 170.218 68.5213 169.132C44.7201 166.655 29.1368 158.43 19.9995 145.434C10.8089 132.362 7.77895 113.962 10.2341 90.3777C11.4664 78.5393 18.7362 67.7633 30.0755 58.2456C41.402 48.7385 56.5617 40.6872 73.0256 34.3044C106.013 21.5154 143.561 15.6751 164.619 17.8673C169.732 18.3996 173.138 19.7189 175.343 21.4349C177.489 23.1052 178.685 25.296 179.136 28.0297C180.083 33.7621 177.729 41.6995 173.434 50.8193C169.253 59.6958 163.506 69.1531 158.17 77.9351L157.959 78.2813C152.687 86.9577 147.735 95.1192 145.467 101.08Z" stroke="white" stroke-width="5"/>
</svg>
