<svg width="87" height="86" viewBox="0 0 87 86" fill="none" xmlns="http://www.w3.org/2000/svg">
<path d="M54.5924 28.2491C55.2031 29.101 55.8069 29.9359 56.4 30.7559C60.3072 36.1587 63.7481 40.9166 65.6339 45.6587C66.7071 48.3576 67.2432 50.9839 67.0714 53.6481C66.9 56.3059 66.0184 59.0923 64.1248 62.107C59.754 69.0659 54.9157 72.511 49.666 73.319C44.3589 74.1358 38.2658 72.3185 31.2882 67.9359C27.9431 65.8349 25.7367 62.0668 24.5077 57.1345C23.281 52.2114 23.0754 46.3004 23.5934 40.2058C24.6328 27.9776 28.5424 15.4418 32.394 9.30939C33.3081 7.8541 34.1657 7.09722 34.9007 6.74255C35.5962 6.40697 36.3047 6.37062 37.1029 6.61307C38.8521 7.14438 40.8828 8.96784 43.0865 11.7188C45.2138 14.3744 47.2891 17.612 49.2367 20.6504L49.3038 20.755L49.3121 20.768C51.2006 23.7141 53.0269 26.5633 54.5924 28.2491Z" fill="#B403CC" stroke="white" stroke-width="3"/>
<path d="M32.6543 42.4678L34.459 42.4678C35.3184 42.4678 35.9551 42.2529 36.3691 41.8232C36.7832 41.3936 36.9902 40.8232 36.9902 40.1123C36.9902 39.4248 36.7832 38.8896 36.3691 38.5068C35.9629 38.124 35.4004 37.9326 34.6816 37.9326C34.0332 37.9326 33.4902 38.1123 33.0527 38.4717C32.6152 38.8232 32.3965 39.2842 32.3965 39.8545L29.0098 39.8545C29.0098 38.9639 29.248 38.167 29.7246 37.4639C30.209 36.7529 30.8809 36.1982 31.7402 35.7998C32.6074 35.4014 33.5605 35.2021 34.5996 35.2021C36.4043 35.2021 37.8184 35.6357 38.8418 36.5029C39.8652 37.3623 40.377 38.5498 40.377 40.0654C40.377 40.8467 40.1387 41.5654 39.6621 42.2217C39.1855 42.8779 38.5605 43.3818 37.7871 43.7334C38.748 44.0771 39.4629 44.5928 39.9316 45.2803C40.4082 45.9678 40.6465 46.7803 40.6465 47.7178C40.6465 49.2334 40.0918 50.4482 38.9824 51.3623C37.8809 52.2764 36.4199 52.7334 34.5996 52.7334C32.8965 52.7334 31.502 52.2842 30.416 51.3857C29.3379 50.4873 28.7988 49.2998 28.7988 47.8232L32.1855 47.8232C32.1855 48.4639 32.4238 48.9873 32.9004 49.3936C33.3848 49.7998 33.9785 50.0029 34.6816 50.0029C35.4863 50.0029 36.1152 49.792 36.5684 49.3701C37.0293 48.9404 37.2598 48.374 37.2598 47.6709C37.2598 45.9678 36.3223 45.1162 34.4473 45.1162L32.6543 45.1162L32.6543 42.4678ZM51.2168 52.499L47.8301 52.499L47.8301 39.4443L43.7871 40.6982L43.7871 37.9443L50.8535 35.4131L51.2168 35.4131L51.2168 52.499Z" fill="white"/>
</svg>
