<svg width="102" height="115" viewBox="0 0 102 115" fill="none" xmlns="http://www.w3.org/2000/svg">
<path d="M59.6777 37.242C60.4924 38.3837 61.2992 39.504 62.0925 40.6057C67.279 47.8081 71.8922 54.2143 74.4143 60.6101C75.8557 64.2652 76.5813 67.8503 76.3362 71.5061C76.0916 75.1558 74.8737 78.9663 72.2979 83.0674C66.3933 92.4683 59.8159 97.2162 52.6216 98.3455C45.3723 99.4834 37.1309 97.0089 27.7968 91.1463C23.1967 88.257 20.2172 83.0898 18.579 76.4301C16.9432 69.7801 16.6925 61.8173 17.4083 53.6338C18.8432 37.2282 24.1179 20.3664 29.3336 12.0623C30.5891 10.0634 31.8006 8.96388 32.8976 8.43092C33.9544 7.91743 35.03 7.8676 36.1963 8.21991C38.6832 8.97113 41.4653 11.5136 44.3965 15.1868C47.24 18.7502 50.0075 23.0898 52.5884 27.1369L52.6848 27.2881C55.2168 31.2584 57.6267 35.0348 59.6777 37.242Z" stroke="white" stroke-width="3"/>
<path d="M56.5924 49.2491C57.2031 50.101 57.8069 50.9359 58.4 51.7559C62.3072 57.1587 65.7481 61.9166 67.6339 66.6587C68.7071 69.3576 69.2432 71.9839 69.0714 74.6481C68.9 77.3059 68.0184 80.0923 66.1248 83.107C61.754 90.0659 56.9157 93.511 51.666 94.319C46.3589 95.1358 40.2658 93.3185 33.2882 88.9359C29.9431 86.8349 27.7367 83.0668 26.5077 78.1345C25.281 73.2114 25.0754 67.3004 25.5934 61.2058C26.6328 48.9776 30.5423 36.4418 34.394 30.3094C35.3081 28.8541 36.1657 28.0972 36.9007 27.7425C37.5962 27.407 38.3047 27.3706 39.1029 27.6131C40.8521 28.1444 42.8828 29.9678 45.0865 32.7188C47.2138 35.3744 49.2891 38.612 51.2368 41.6505L51.3038 41.755L51.3121 41.768C53.2006 44.7141 55.0269 47.5633 56.5924 49.2491Z" fill="#B403CC" stroke="white" stroke-width="3"/>
<path d="M34.6543 63.4678L36.459 63.4678C37.3184 63.4678 37.9551 63.2529 38.3691 62.8232C38.7832 62.3936 38.9902 61.8232 38.9902 61.1123C38.9902 60.4248 38.7832 59.8896 38.3691 59.5068C37.9629 59.124 37.4004 58.9326 36.6816 58.9326C36.0332 58.9326 35.4902 59.1123 35.0527 59.4717C34.6152 59.8232 34.3965 60.2842 34.3965 60.8545L31.0098 60.8545C31.0098 59.9639 31.248 59.167 31.7246 58.4639C32.209 57.7529 32.8809 57.1982 33.7402 56.7998C34.6074 56.4014 35.5605 56.2021 36.5996 56.2021C38.4043 56.2021 39.8184 56.6357 40.8418 57.5029C41.8652 58.3623 42.377 59.5498 42.377 61.0654C42.377 61.8467 42.1387 62.5654 41.6621 63.2217C41.1855 63.8779 40.5605 64.3818 39.7871 64.7334C40.748 65.0771 41.4629 65.5928 41.9316 66.2803C42.4082 66.9678 42.6465 67.7803 42.6465 68.7178C42.6465 70.2334 42.0918 71.4482 40.9824 72.3623C39.8809 73.2764 38.4199 73.7334 36.5996 73.7334C34.8965 73.7334 33.502 73.2842 32.416 72.3857C31.3379 71.4873 30.7988 70.2998 30.7988 68.8232L34.1855 68.8232C34.1855 69.4639 34.4238 69.9873 34.9004 70.3936C35.3848 70.7998 35.9785 71.0029 36.6816 71.0029C37.4863 71.0029 38.1152 70.792 38.5684 70.3701C39.0293 69.9404 39.2598 69.374 39.2598 68.6709C39.2598 66.9678 38.3223 66.1162 36.4473 66.1162L34.6543 66.1162L34.6543 63.4678ZM53.2168 73.499L49.8301 73.499L49.8301 60.4443L45.7871 61.6982L45.7871 58.9443L52.8535 56.4131L53.2168 56.4131L53.2168 73.499Z" fill="white"/>
</svg>
