<svg width="1150" height="230" viewBox="0 0 1150 230" fill="none" xmlns="http://www.w3.org/2000/svg">
<path d="M132.475 79.8564C130.665 86.5972 128.263 85.3634 118.185 81.0677C108.106 76.772 94.8309 64.3904 96.6408 57.6496C98.4507 50.9088 108.088 48.9267 118.167 53.2224C128.245 57.5182 134.285 73.1156 132.475 79.8564Z" fill="white"/>
<path d="M130.923 103.884C129.191 116.841 118.847 132.189 111.628 131.964C104.41 131.739 107.178 116.156 108.91 103.198C110.641 90.2409 117.896 79.9191 125.115 80.144C132.333 80.3688 132.654 90.9266 130.923 103.884Z" fill="white"/>
<path d="M130.268 138.015C137.662 147.664 143.816 173.065 137.06 180.521C130.305 187.978 113.992 171.76 106.598 162.111C99.2047 152.462 98.6872 138.595 105.443 131.138C112.198 123.682 122.874 128.366 130.268 138.015Z" fill="white"/>
<path d="M129.359 31.2824C122.447 40.0048 114.307 62.8828 116.24 52.422C115.798 52.1751 120.173 39.2625 125.812 32.1463C131.452 25.0301 140.102 20.3564 140.545 20.6033C140.987 20.8502 134.999 24.1662 129.359 31.2824Z" fill="white"/>
<path d="M135.359 41.3995C128.446 50.1219 106.45 65.2721 117.2 59.7281C117.642 59.975 130.142 51.5936 135.781 44.4774C141.421 37.3612 143.211 28.8616 142.768 28.6147C142.326 28.3678 140.998 34.2833 135.359 41.3995Z" fill="white"/>
<ellipse rx="2.48809" ry="11.1106" transform="matrix(0.214222 0.991149 -0.904137 0.389381 111.577 152.892)" fill="white"/>
<path d="M104.158 175.796C104.44 187.149 103.992 196.498 102.482 195.603C101.374 195.523 100.428 186.86 100.146 175.507C99.8645 164.154 100.962 156.169 102.07 156.248C103.178 156.328 103.876 164.443 104.158 175.796Z" fill="white"/>
<path d="M132.16 174.761C133.252 186.223 133.102 194.636 132.102 194.636C131.16 194.26 129.565 186.217 128.474 174.754C127.382 163.292 127.798 155.138 128.816 155.139C129.834 155.141 131.069 163.298 132.16 174.761Z" fill="white"/>
<path d="M94.0299 195.887C89.2397 195.397 82.8169 196.634 83.0671 195.796C83.3173 194.958 90.1457 192.362 94.9359 192.852C99.7261 193.343 103.407 194.42 103.156 195.258C102.906 196.096 98.8201 196.377 94.0299 195.887Z" fill="white"/>
<path d="M109.027 95.3324C98.5394 100.083 89.6553 103.424 89.941 101.797C89.6123 100.834 97.3492 96.594 107.837 91.8433C118.325 87.0926 126.174 84.841 126.503 85.8045C126.832 86.768 119.516 90.5817 109.027 95.3324Z" fill="white"/>
<path d="M82.197 99.9237C77.573 98.0537 70.8637 97.373 71.3374 96.6379C71.8112 95.9027 79.2886 95.3914 83.9126 97.2615C88.5366 99.1315 91.9011 101.243 91.4274 101.979C90.9536 102.714 86.8211 101.794 82.197 99.9237Z" fill="white"/>
<path d="M112.027 105.72C101.539 110.471 92.6553 113.811 92.941 112.185C92.6123 111.221 100.349 106.982 110.837 102.231C121.325 97.4803 129.174 95.2287 129.503 96.1922C129.832 97.1557 122.516 100.969 112.027 105.72Z" fill="white"/>
<path d="M85.197 110.311C80.573 108.441 73.8637 107.761 74.3374 107.026C74.8112 106.29 82.2886 105.779 86.9126 107.649C91.5366 109.519 94.9011 111.631 94.4274 112.366C93.9536 113.101 89.8211 112.181 85.197 110.311Z" fill="white"/>
<path d="M111.21 111.971C103.601 120.612 96.8746 127.309 96.4667 125.708C95.7711 124.965 101.082 117.92 108.691 109.279C116.3 100.638 122.53 95.3594 123.226 96.1027C123.921 96.8459 118.819 103.329 111.21 111.971Z" fill="white"/>
<path d="M88.6347 127.182C83.6506 127.378 77.2544 129.515 77.3841 128.65C77.5139 127.785 84.1205 124.246 89.1045 124.05C94.0886 123.855 98.0237 124.397 97.894 125.262C97.7642 126.127 93.6187 126.987 88.6347 127.182Z" fill="white"/>
<path d="M111.436 119.948C105.923 130.056 100.842 138.073 100.091 136.603C99.2483 136.031 102.872 127.987 108.385 117.879C113.897 107.771 118.808 101.247 119.65 101.818C120.493 102.389 116.949 109.839 111.436 119.948Z" fill="white"/>
<path d="M92.7797 139.77C87.9619 141.062 82.1956 144.559 82.1311 143.686C82.0666 142.814 87.7285 137.903 92.5462 136.612C97.364 135.32 101.322 134.98 101.386 135.853C101.451 136.725 97.5974 138.479 92.7797 139.77Z" fill="white"/>
<path d="M141.247 195.116C146.248 194.851 152.792 196.201 152.604 195.437C152.416 194.673 145.568 192.084 140.567 192.35C135.567 192.615 131.851 193.689 132.039 194.453C131.526 194.906 136.247 195.381 141.247 195.116Z" fill="white"/>
<path d="M1052.48 79.8564C1050.67 86.5972 1048.26 85.3634 1038.18 81.0677C1028.11 76.772 1014.83 64.3904 1016.64 57.6496C1018.45 50.9088 1028.09 48.9267 1038.17 53.2224C1048.25 57.5182 1054.29 73.1156 1052.48 79.8564Z" fill="white"/>
<path d="M1050.92 103.884C1049.19 116.841 1038.85 132.189 1031.63 131.964C1024.41 131.739 1027.18 116.156 1028.91 103.198C1030.64 90.2409 1037.9 79.9191 1045.11 80.144C1052.33 80.3688 1052.65 90.9266 1050.92 103.884Z" fill="white"/>
<path d="M1050.27 138.015C1057.66 147.664 1063.82 173.065 1057.06 180.521C1050.31 187.978 1033.99 171.76 1026.6 162.111C1019.2 152.462 1018.69 138.595 1025.44 131.138C1032.2 123.682 1042.87 128.366 1050.27 138.015Z" fill="white"/>
<path d="M1049.36 31.2824C1042.45 40.0048 1034.31 62.8828 1036.24 52.422C1035.8 52.1751 1040.17 39.2625 1045.81 32.1463C1051.45 25.0301 1060.1 20.3564 1060.54 20.6033C1060.99 20.8502 1055 24.1662 1049.36 31.2824Z" fill="white"/>
<path d="M1055.36 41.3995C1048.45 50.1219 1026.45 65.2721 1037.2 59.7281C1037.64 59.975 1050.14 51.5936 1055.78 44.4774C1061.42 37.3612 1063.21 28.8616 1062.77 28.6147C1062.33 28.3678 1061 34.2833 1055.36 41.3995Z" fill="white"/>
<ellipse rx="2.48809" ry="11.1106" transform="matrix(0.214222 0.991149 -0.904137 0.389381 1031.58 152.892)" fill="white"/>
<path d="M1024.16 175.796C1024.44 187.149 1023.99 196.498 1022.48 195.603C1021.37 195.523 1020.43 186.86 1020.15 175.507C1019.86 164.154 1020.96 156.169 1022.07 156.248C1023.18 156.328 1023.88 164.443 1024.16 175.796Z" fill="white"/>
<path d="M1052.16 174.761C1053.25 186.223 1053.1 194.636 1052.1 194.636C1051.16 194.26 1049.57 186.217 1048.47 174.754C1047.38 163.292 1047.8 155.138 1048.82 155.139C1049.83 155.141 1051.07 163.298 1052.16 174.761Z" fill="white"/>
<path d="M1014.03 195.887C1009.24 195.397 1002.82 196.634 1003.07 195.796C1003.32 194.958 1010.15 192.362 1014.94 192.852C1019.73 193.343 1023.41 194.42 1023.16 195.258C1022.91 196.096 1018.82 196.377 1014.03 195.887Z" fill="white"/>
<path d="M1029.03 95.3324C1018.54 100.083 1009.66 103.424 1009.94 101.797C1009.61 100.834 1017.35 96.594 1027.84 91.8433C1038.33 87.0926 1046.17 84.841 1046.5 85.8045C1046.83 86.768 1039.52 90.5817 1029.03 95.3324Z" fill="white"/>
<path d="M1002.2 99.9237C997.573 98.0537 990.864 97.373 991.337 96.6379C991.811 95.9027 999.289 95.3914 1003.91 97.2615C1008.54 99.1315 1011.9 101.243 1011.43 101.979C1010.95 102.714 1006.82 101.794 1002.2 99.9237Z" fill="white"/>
<path d="M1032.03 105.72C1021.54 110.471 1012.66 113.811 1012.94 112.185C1012.61 111.221 1020.35 106.982 1030.84 102.231C1041.33 97.4803 1049.17 95.2287 1049.5 96.1922C1049.83 97.1557 1042.52 100.969 1032.03 105.72Z" fill="white"/>
<path d="M1005.2 110.311C1000.57 108.441 993.864 107.761 994.337 107.026C994.811 106.29 1002.29 105.779 1006.91 107.649C1011.54 109.519 1014.9 111.631 1014.43 112.366C1013.95 113.101 1009.82 112.181 1005.2 110.311Z" fill="white"/>
<path d="M1031.21 111.971C1023.6 120.612 1016.87 127.309 1016.47 125.708C1015.77 124.965 1021.08 117.92 1028.69 109.279C1036.3 100.638 1042.53 95.3594 1043.23 96.1027C1043.92 96.8459 1038.82 103.329 1031.21 111.971Z" fill="white"/>
<path d="M1008.63 127.182C1003.65 127.378 997.254 129.515 997.384 128.65C997.514 127.785 1004.12 124.246 1009.1 124.05C1014.09 123.855 1018.02 124.397 1017.89 125.262C1017.76 126.127 1013.62 126.987 1008.63 127.182Z" fill="white"/>
<path d="M1031.44 119.948C1025.92 130.056 1020.84 138.073 1020.09 136.603C1019.25 136.031 1022.87 127.987 1028.38 117.879C1033.9 107.771 1038.81 101.247 1039.65 101.818C1040.49 102.389 1036.95 109.839 1031.44 119.948Z" fill="white"/>
<path d="M1012.78 139.77C1007.96 141.062 1002.2 144.559 1002.13 143.686C1002.07 142.814 1007.73 137.903 1012.55 136.612C1017.36 135.32 1021.32 134.98 1021.39 135.853C1021.45 136.725 1017.6 138.479 1012.78 139.77Z" fill="white"/>
<path d="M1061.25 195.116C1066.25 194.851 1072.79 196.201 1072.6 195.437C1072.42 194.673 1065.57 192.084 1060.57 192.35C1055.57 192.615 1051.85 193.689 1052.04 194.453C1051.53 194.906 1056.25 195.381 1061.25 195.116Z" fill="white"/>
<path d="M822.475 79.8564C820.665 86.5972 818.263 85.3634 808.185 81.0677C798.106 76.772 784.831 64.3904 786.641 57.6496C788.451 50.9088 798.088 48.9267 808.167 53.2224C818.245 57.5182 824.285 73.1156 822.475 79.8564Z" fill="white"/>
<path d="M820.923 103.884C819.191 116.841 808.847 132.189 801.628 131.964C794.41 131.739 797.178 116.156 798.91 103.198C800.641 90.2409 807.896 79.9191 815.115 80.144C822.333 80.3688 822.654 90.9266 820.923 103.884Z" fill="white"/>
<path d="M820.268 138.015C827.662 147.664 833.816 173.065 827.06 180.521C820.305 187.978 803.992 171.76 796.598 162.111C789.205 152.462 788.687 138.595 795.443 131.138C802.198 123.682 812.874 128.366 820.268 138.015Z" fill="white"/>
<path d="M819.359 31.2824C812.447 40.0048 804.307 62.8828 806.24 52.422C805.798 52.1751 810.173 39.2625 815.812 32.1463C821.452 25.0301 830.102 20.3564 830.545 20.6033C830.987 20.8502 824.999 24.1662 819.359 31.2824Z" fill="white"/>
<path d="M825.359 41.3995C818.446 50.1219 796.45 65.2721 807.2 59.7281C807.642 59.975 820.142 51.5936 825.781 44.4774C831.421 37.3612 833.211 28.8616 832.768 28.6147C832.326 28.3678 830.998 34.2833 825.359 41.3995Z" fill="white"/>
<ellipse rx="2.48809" ry="11.1106" transform="matrix(0.214222 0.991149 -0.904137 0.389381 801.577 152.892)" fill="white"/>
<path d="M777.835 170.601C768.962 177.688 761.244 182.983 761.044 181.239C760.438 180.308 766.766 174.318 775.64 167.231C784.513 160.143 791.539 156.19 792.145 157.121C792.751 158.051 786.709 163.513 777.835 170.601Z" fill="white"/>
<path d="M822.16 174.761C823.252 186.223 823.102 194.636 822.102 194.636C821.16 194.26 819.565 186.217 818.474 174.754C817.382 163.292 817.798 155.138 818.816 155.139C819.834 155.141 821.069 163.298 822.16 174.761Z" fill="white"/>
<path d="M752.997 181.086C748.27 180.167 741.762 180.822 742.087 180.009C742.411 179.197 749.445 177.226 754.172 178.145C758.899 179.064 762.467 180.468 762.143 181.28C761.818 182.092 757.723 182.005 752.997 181.086Z" fill="white"/>
<path d="M799.027 95.3324C788.539 100.083 779.655 103.424 779.941 101.797C779.612 100.834 787.349 96.594 797.837 91.8433C808.325 87.0926 816.174 84.841 816.503 85.8045C816.832 86.768 809.516 90.5817 799.027 95.3324Z" fill="white"/>
<path d="M772.197 99.9237C767.573 98.0537 760.864 97.373 761.337 96.6379C761.811 95.9027 769.289 95.3914 773.913 97.2615C778.537 99.1315 781.901 101.243 781.427 101.979C780.954 102.714 776.821 101.794 772.197 99.9237Z" fill="white"/>
<path d="M802.027 105.72C791.539 110.471 782.655 113.811 782.941 112.185C782.612 111.221 790.349 106.982 800.837 102.231C811.325 97.4803 819.174 95.2287 819.503 96.1922C819.832 97.1557 812.516 100.969 802.027 105.72Z" fill="white"/>
<path d="M775.197 110.311C770.573 108.441 763.864 107.761 764.337 107.026C764.811 106.29 772.289 105.779 776.913 107.649C781.537 109.519 784.901 111.631 784.427 112.366C783.954 113.101 779.821 112.181 775.197 110.311Z" fill="white"/>
<path d="M801.21 111.97C793.601 120.611 786.875 127.308 786.467 125.707C785.771 124.964 791.082 117.919 798.691 109.278C806.3 100.637 812.53 95.3584 813.226 96.1017C813.921 96.845 808.819 103.328 801.21 111.97Z" fill="white"/>
<path d="M778.305 122.783C774.039 120.426 767.584 119.012 768.142 118.339C768.701 117.666 776.063 117.989 780.328 120.346C784.593 122.703 787.598 125.16 787.039 125.833C786.48 126.505 782.57 125.14 778.305 122.783Z" fill="white"/>
<path d="M801.44 119.948C795.927 130.056 790.846 138.073 790.095 136.603C789.252 136.031 792.876 127.987 798.389 117.879C803.901 107.771 808.812 101.247 809.654 101.818C810.497 102.389 806.952 109.839 801.44 119.948Z" fill="white"/>
<path d="M786.147 143.469C782.938 147.287 780.215 153.457 779.662 152.779C779.11 152.101 780.937 144.832 784.147 141.014C787.356 137.195 790.405 134.649 790.957 135.327C791.51 136.005 789.356 139.65 786.147 143.469Z" fill="white"/>
<path d="M831.247 195.116C836.248 194.851 842.792 196.201 842.604 195.437C842.416 194.673 835.568 192.084 830.567 192.35C825.567 192.615 821.851 193.689 822.039 194.453C821.526 194.906 826.247 195.381 831.247 195.116Z" fill="white"/>
<path d="M592.475 79.8564C590.665 86.5972 588.263 85.3634 578.185 81.0677C568.106 76.772 554.831 64.3904 556.641 57.6496C558.451 50.9088 568.088 48.9267 578.167 53.2224C588.245 57.5182 594.285 73.1156 592.475 79.8564Z" fill="white"/>
<path d="M590.923 103.884C589.191 116.841 578.847 132.189 571.628 131.964C564.41 131.739 567.178 116.156 568.91 103.198C570.641 90.2409 577.896 79.9191 585.115 80.144C592.333 80.3688 592.654 90.9266 590.923 103.884Z" fill="white"/>
<path d="M590.268 138.015C597.662 147.664 603.816 173.065 597.06 180.521C590.305 187.978 573.992 171.76 566.598 162.111C559.205 152.462 558.687 138.595 565.443 131.138C572.198 123.682 582.874 128.366 590.268 138.015Z" fill="white"/>
<path d="M589.359 31.2824C582.447 40.0048 574.307 62.8828 576.24 52.422C575.798 52.1751 580.173 39.2625 585.812 32.1463C591.452 25.0301 600.102 20.3564 600.545 20.6033C600.987 20.8502 594.999 24.1662 589.359 31.2824Z" fill="white"/>
<path d="M595.359 41.3995C588.446 50.1219 566.45 65.2721 577.2 59.7281C577.642 59.975 590.142 51.5936 595.781 44.4774C601.421 37.3612 603.211 28.8616 602.768 28.6147C602.326 28.3678 600.998 34.2833 595.359 41.3995Z" fill="white"/>
<ellipse rx="2.48809" ry="11.1106" transform="matrix(0.214222 0.991149 -0.904137 0.389381 571.577 152.892)" fill="white"/>
<path d="M564.158 175.796C564.44 187.149 563.992 196.498 562.482 195.603C561.374 195.523 560.428 186.86 560.146 175.507C559.865 164.154 560.962 156.169 562.07 156.248C563.178 156.328 563.876 164.443 564.158 175.796Z" fill="white"/>
<path d="M592.16 174.761C593.252 186.223 593.102 194.636 592.102 194.636C591.16 194.26 589.565 186.217 588.474 174.754C587.382 163.292 587.798 155.138 588.816 155.139C589.834 155.141 591.069 163.298 592.16 174.761Z" fill="white"/>
<path d="M554.03 195.887C549.24 195.397 542.817 196.634 543.067 195.796C543.317 194.958 550.146 192.362 554.936 192.852C559.726 193.343 563.407 194.42 563.156 195.258C562.906 196.096 558.82 196.377 554.03 195.887Z" fill="white"/>
<path d="M569.027 95.3324C558.539 100.083 549.655 103.424 549.941 101.797C549.612 100.834 557.349 96.594 567.837 91.8433C578.325 87.0926 586.174 84.841 586.503 85.8045C586.832 86.768 579.516 90.5817 569.027 95.3324Z" fill="white"/>
<path d="M542.197 99.9237C537.573 98.0537 530.864 97.373 531.337 96.6379C531.811 95.9027 539.289 95.3914 543.913 97.2615C548.537 99.1315 551.901 101.243 551.427 101.979C550.954 102.714 546.821 101.794 542.197 99.9237Z" fill="white"/>
<path d="M572.027 105.72C561.539 110.471 552.655 113.811 552.941 112.185C552.612 111.221 560.349 106.982 570.837 102.231C581.325 97.4803 589.174 95.2287 589.503 96.1922C589.832 97.1557 582.516 100.969 572.027 105.72Z" fill="white"/>
<path d="M545.197 110.311C540.573 108.441 533.864 107.761 534.337 107.026C534.811 106.29 542.289 105.779 546.913 107.649C551.537 109.519 554.901 111.631 554.427 112.366C553.954 113.101 549.821 112.181 545.197 110.311Z" fill="white"/>
<path d="M571.21 111.971C563.601 120.612 556.875 127.309 556.467 125.708C555.771 124.965 561.082 117.92 568.691 109.279C576.3 100.638 582.53 95.3594 583.226 96.1027C583.921 96.8459 578.819 103.329 571.21 111.971Z" fill="white"/>
<path d="M548.635 127.182C543.651 127.378 537.254 129.515 537.384 128.65C537.514 127.785 544.121 124.246 549.105 124.05C554.089 123.855 558.024 124.397 557.894 125.262C557.764 126.127 553.619 126.987 548.635 127.182Z" fill="white"/>
<path d="M571.436 119.948C565.923 130.056 560.842 138.073 560.091 136.603C559.248 136.031 562.872 127.987 568.385 117.879C573.897 107.771 578.808 101.247 579.65 101.818C580.493 102.389 576.949 109.839 571.436 119.948Z" fill="white"/>
<path d="M552.78 139.77C547.962 141.062 542.196 144.559 542.131 143.686C542.067 142.814 547.728 137.903 552.546 136.612C557.364 135.32 561.322 134.98 561.386 135.853C561.451 136.725 557.597 138.479 552.78 139.77Z" fill="white"/>
<path d="M601.247 195.116C606.248 194.851 612.792 196.201 612.604 195.437C612.416 194.673 605.568 192.084 600.567 192.35C595.567 192.615 591.851 193.689 592.039 194.453C591.526 194.906 596.247 195.381 601.247 195.116Z" fill="white"/>
<path d="M362.475 79.8564C360.665 86.5972 358.263 85.3634 348.185 81.0677C338.106 76.772 324.831 64.3904 326.641 57.6496C328.451 50.9088 338.088 48.9267 348.167 53.2224C358.245 57.5182 364.285 73.1156 362.475 79.8564Z" fill="white"/>
<path d="M360.923 103.884C359.191 116.841 348.847 132.189 341.628 131.964C334.41 131.739 337.178 116.156 338.91 103.198C340.641 90.2409 347.896 79.9191 355.115 80.144C362.333 80.3688 362.654 90.9266 360.923 103.884Z" fill="white"/>
<path d="M360.268 138.015C367.662 147.664 373.816 173.065 367.06 180.521C360.305 187.978 343.992 171.76 336.598 162.111C329.205 152.462 328.687 138.595 335.443 131.138C342.198 123.682 352.874 128.366 360.268 138.015Z" fill="white"/>
<path d="M359.359 31.2824C352.447 40.0048 344.307 62.8828 346.24 52.422C345.798 52.1751 350.173 39.2625 355.812 32.1463C361.452 25.0301 370.102 20.3564 370.545 20.6033C370.987 20.8502 364.999 24.1662 359.359 31.2824Z" fill="white"/>
<path d="M365.359 41.3995C358.446 50.1219 336.45 65.2721 347.2 59.7281C347.642 59.975 360.142 51.5936 365.781 44.4774C371.421 37.3612 373.211 28.8616 372.768 28.6147C372.326 28.3678 370.998 34.2833 365.359 41.3995Z" fill="white"/>
<ellipse rx="2.48809" ry="11.1106" transform="matrix(0.214222 0.991149 -0.904137 0.389381 341.577 152.892)" fill="white"/>
<path d="M317.835 170.601C308.962 177.688 301.244 182.983 301.044 181.239C300.438 180.308 306.766 174.318 315.64 167.231C324.513 160.143 331.539 156.19 332.145 157.121C332.751 158.051 326.709 163.513 317.835 170.601Z" fill="white"/>
<path d="M362.16 174.761C363.252 186.223 363.102 194.636 362.102 194.636C361.16 194.26 359.565 186.217 358.474 174.754C357.382 163.292 357.798 155.138 358.816 155.139C359.834 155.141 361.069 163.298 362.16 174.761Z" fill="white"/>
<path d="M292.997 181.086C288.27 180.167 281.762 180.822 282.087 180.009C282.411 179.197 289.445 177.226 294.172 178.145C298.899 179.064 302.467 180.468 302.143 181.28C301.818 182.092 297.723 182.005 292.997 181.086Z" fill="white"/>
<path d="M339.027 95.3324C328.539 100.083 319.655 103.424 319.941 101.797C319.612 100.834 327.349 96.594 337.837 91.8433C348.325 87.0926 356.174 84.841 356.503 85.8045C356.832 86.768 349.516 90.5817 339.027 95.3324Z" fill="white"/>
<path d="M312.197 99.9237C307.573 98.0537 300.864 97.373 301.337 96.6379C301.811 95.9027 309.289 95.3914 313.913 97.2615C318.537 99.1315 321.901 101.243 321.427 101.979C320.954 102.714 316.821 101.794 312.197 99.9237Z" fill="white"/>
<path d="M342.027 105.72C331.539 110.471 322.655 113.811 322.941 112.185C322.612 111.221 330.349 106.982 340.837 102.231C351.325 97.4803 359.174 95.2287 359.503 96.1922C359.832 97.1557 352.516 100.969 342.027 105.72Z" fill="white"/>
<path d="M315.197 110.311C310.573 108.441 303.864 107.761 304.337 107.026C304.811 106.29 312.289 105.779 316.913 107.649C321.537 109.519 324.901 111.631 324.427 112.366C323.954 113.101 319.821 112.181 315.197 110.311Z" fill="white"/>
<path d="M341.21 111.97C333.601 120.611 326.875 127.308 326.467 125.707C325.771 124.964 331.082 117.919 338.691 109.278C346.3 100.637 352.53 95.3584 353.226 96.1017C353.921 96.845 348.819 103.328 341.21 111.97Z" fill="white"/>
<path d="M318.305 122.783C314.039 120.426 307.584 119.012 308.142 118.339C308.701 117.666 316.063 117.989 320.328 120.346C324.593 122.703 327.598 125.16 327.039 125.833C326.48 126.505 322.57 125.14 318.305 122.783Z" fill="white"/>
<path d="M341.44 119.948C335.927 130.056 330.846 138.073 330.095 136.603C329.252 136.031 332.876 127.987 338.389 117.879C343.901 107.771 348.812 101.247 349.654 101.818C350.497 102.389 346.952 109.839 341.44 119.948Z" fill="white"/>
<path d="M326.147 143.469C322.938 147.287 320.215 153.457 319.662 152.779C319.11 152.101 320.937 144.832 324.147 141.014C327.356 137.195 330.405 134.649 330.957 135.327C331.51 136.005 329.356 139.65 326.147 143.469Z" fill="white"/>
<path d="M371.247 195.116C376.248 194.851 382.792 196.201 382.604 195.437C382.416 194.673 375.568 192.084 370.567 192.35C365.567 192.615 361.851 193.689 362.039 194.453C361.526 194.906 366.247 195.381 371.247 195.116Z" fill="white"/>
</svg>
