<svg width="1150" height="230" viewBox="0 0 1150 230" fill="none" xmlns="http://www.w3.org/2000/svg">
<g clip-path="url(#clip0)">
<path d="M80.2591 80.123C82.069 86.8638 84.471 85.63 94.5495 81.3343C104.628 77.0386 117.903 64.657 116.094 57.9162C114.284 51.1754 104.646 49.1933 94.5675 53.489C84.489 57.7848 78.4492 73.3822 80.2591 80.123Z" fill="white"/>
<path d="M81.8119 104.15C83.5433 117.107 93.8877 132.454 101.106 132.229C108.325 132.005 105.556 116.421 103.825 103.464C102.093 90.5066 94.838 80.1848 87.6195 80.4096C80.401 80.6345 80.0805 91.1922 81.8119 104.15Z" fill="white"/>
<path d="M81.9308 134.811C71.9827 141.797 58.491 164.181 62.6978 173.321C66.9047 182.461 87.3321 171.884 97.2803 164.898C107.228 157.912 111.883 144.84 107.676 135.7C103.469 126.56 91.8789 127.825 81.9308 134.811Z" fill="white"/>
<path d="M83.3751 31.548C90.2876 40.2705 98.4279 63.1484 96.4941 52.6876C96.9368 52.4407 92.5615 39.5282 86.922 32.412C81.2825 25.2958 72.6326 20.622 72.1899 20.8689C71.7472 21.1158 77.7356 24.4318 83.3751 31.548Z" fill="white"/>
<path d="M77.3759 41.6651C84.2883 50.3875 106.284 65.5378 95.5347 59.9938C95.092 60.2407 82.5927 51.8592 76.9532 44.743C71.3137 37.6268 69.5233 29.1272 69.966 28.8803C70.4086 28.6334 71.7364 34.5489 77.3759 41.6651Z" fill="white"/>
<ellipse rx="2.48809" ry="11.1106" transform="matrix(-0.214222 0.991149 0.904137 0.389381 103.423 156.382)" fill="white"/>
<path d="M128.969 171.725C138.884 177.579 147.356 181.859 147.247 180.211C147.678 179.288 140.443 174.239 130.529 168.385C120.614 162.531 113.054 159.446 112.623 160.369C112.193 161.291 119.055 165.871 128.969 171.725Z" fill="white"/>
<path d="M80.5742 175.026C79.4827 186.488 79.6328 194.901 80.6328 194.901C81.5742 194.525 83.1692 186.482 84.2607 175.02C85.3522 163.558 84.9359 155.403 83.9179 155.405C82.8999 155.407 81.6657 163.564 80.5742 175.026Z" fill="white"/>
<path d="M151.742 187.695C155.171 191.316 158.256 197.313 158.767 196.604C159.278 195.894 157.023 188.747 153.593 185.126C150.163 181.504 146.968 179.144 146.457 179.853C145.946 180.563 148.312 184.074 151.742 187.695Z" fill="white"/>
<path d="M111.044 92.8591C118.545 84.1231 124.242 76.5316 122.6 76.35C121.768 75.7644 115.529 82.0026 108.029 90.7386C100.529 99.4746 96.1673 106.378 97 106.963C97.8328 107.549 103.544 101.595 111.044 92.8591Z" fill="white"/>
<path d="M122.973 68.3918C122.474 63.4289 123.701 56.7978 122.863 57.0465C122.024 57.2951 119.438 64.3295 119.936 69.2923C120.435 74.2551 121.52 78.0767 122.358 77.8281C123.197 77.5794 123.472 73.3546 122.973 68.3918Z" fill="white"/>
<path d="M109.415 109.326C118.619 102.408 125.816 96.2206 124.252 95.6901C123.565 94.9391 116.13 99.6887 106.926 106.606C97.7219 113.524 91.9773 119.326 92.6645 120.077C93.3517 120.828 100.211 116.243 109.415 109.326Z" fill="white"/>
<path d="M126.328 87.9974C126.908 83.0435 129.534 76.8318 128.662 76.8942C127.789 76.9566 123.749 83.2695 123.169 88.2235C122.588 93.1774 122.824 97.1428 123.697 97.0803C124.569 97.0179 125.747 92.9513 126.328 87.9974Z" fill="white"/>
<path d="M110.866 119.496C122.144 121.815 131.546 123.113 130.908 121.59C131.016 120.578 122.534 118.149 111.257 115.83C99.9788 113.511 91.8266 113.047 91.7187 114.059C91.6107 115.071 99.5878 117.177 110.866 119.496Z" fill="white"/>
<path d="M138.047 118.054C142.144 115.21 148.538 113.066 147.914 112.453C147.29 111.841 139.884 112.992 135.786 115.836C131.689 118.681 128.873 121.483 129.498 122.095C130.122 122.708 133.95 120.899 138.047 118.054Z" fill="white"/>
<path d="M112.052 128.81C123.033 132.271 132.253 134.524 131.775 132.943C131.986 131.947 123.797 128.664 112.816 125.203C101.834 121.742 93.7723 120.446 93.5614 121.442C93.3504 122.438 101.07 125.349 112.052 128.81Z" fill="white"/>
<path d="M139.238 130.157C143.604 127.747 150.184 126.268 149.626 125.595C149.067 124.921 141.583 125.309 137.216 127.719C132.849 130.129 129.761 132.629 130.32 133.302C130.878 133.975 134.871 132.567 139.238 130.157Z" fill="white"/>
<path d="M71.4869 195.381C66.4864 195.116 59.9426 196.466 60.1304 195.703C60.3183 194.939 67.1667 192.35 72.1671 192.615C77.1676 192.88 80.8833 193.954 80.6954 194.718C81.2082 195.172 76.4873 195.647 71.4869 195.381Z" fill="white"/>
<path d="M1000.26 80.123C1002.07 86.8638 1004.47 85.63 1014.55 81.3343C1024.63 77.0386 1037.9 64.657 1036.09 57.9162C1034.28 51.1754 1024.65 49.1933 1014.57 53.489C1004.49 57.7848 998.449 73.3822 1000.26 80.123Z" fill="white"/>
<path d="M1001.81 104.15C1003.54 117.107 1013.89 132.454 1021.11 132.229C1028.32 132.005 1025.56 116.421 1023.82 103.464C1022.09 90.5066 1014.84 80.1848 1007.62 80.4096C1000.4 80.6345 1000.08 91.1922 1001.81 104.15Z" fill="white"/>
<path d="M1001.93 134.811C991.983 141.797 978.491 164.181 982.698 173.321C986.905 182.461 1007.33 171.884 1017.28 164.898C1027.23 157.912 1031.88 144.84 1027.68 135.7C1023.47 126.56 1011.88 127.825 1001.93 134.811Z" fill="white"/>
<path d="M1003.38 31.548C1010.29 40.2705 1018.43 63.1484 1016.49 52.6876C1016.94 52.4407 1012.56 39.5282 1006.92 32.412C1001.28 25.2958 992.633 20.622 992.19 20.8689C991.747 21.1158 997.736 24.4318 1003.38 31.548Z" fill="white"/>
<path d="M997.376 41.6651C1004.29 50.3875 1026.28 65.5378 1015.53 59.9938C1015.09 60.2407 1002.59 51.8592 996.953 44.743C991.314 37.6268 989.523 29.1272 989.966 28.8803C990.409 28.6334 991.736 34.5489 997.376 41.6651Z" fill="white"/>
<ellipse rx="2.48809" ry="11.1106" transform="matrix(-0.214222 0.991149 0.904137 0.389381 1023.42 156.382)" fill="white"/>
<path d="M1048.97 171.725C1058.88 177.579 1067.36 181.859 1067.25 180.211C1067.68 179.288 1060.44 174.239 1050.53 168.385C1040.61 162.531 1033.05 159.446 1032.62 160.369C1032.19 161.291 1039.05 165.871 1048.97 171.725Z" fill="white"/>
<path d="M1000.57 175.026C999.483 186.488 999.633 194.901 1000.63 194.901C1001.57 194.525 1003.17 186.482 1004.26 175.02C1005.35 163.558 1004.94 155.403 1003.92 155.405C1002.9 155.407 1001.67 163.564 1000.57 175.026Z" fill="white"/>
<path d="M1071.74 187.695C1075.17 191.316 1078.26 197.313 1078.77 196.604C1079.28 195.894 1077.02 188.747 1073.59 185.126C1070.16 181.504 1066.97 179.144 1066.46 179.853C1065.95 180.563 1068.31 184.074 1071.74 187.695Z" fill="white"/>
<path d="M1031.04 92.8591C1038.54 84.1231 1044.24 76.5316 1042.6 76.35C1041.77 75.7644 1035.53 82.0026 1028.03 90.7386C1020.53 99.4746 1016.17 106.378 1017 106.963C1017.83 107.549 1023.54 101.595 1031.04 92.8591Z" fill="white"/>
<path d="M1042.97 68.3918C1042.47 63.4289 1043.7 56.7978 1042.86 57.0465C1042.02 57.2951 1039.44 64.3295 1039.94 69.2923C1040.44 74.2551 1041.52 78.0767 1042.36 77.8281C1043.2 77.5794 1043.47 73.3546 1042.97 68.3918Z" fill="white"/>
<path d="M1029.41 109.326C1038.62 102.408 1045.82 96.2206 1044.25 95.6901C1043.57 94.9391 1036.13 99.6887 1026.93 106.606C1017.72 113.524 1011.98 119.326 1012.66 120.077C1013.35 120.828 1020.21 116.243 1029.41 109.326Z" fill="white"/>
<path d="M1046.33 87.9974C1046.91 83.0435 1049.53 76.8318 1048.66 76.8942C1047.79 76.9566 1043.75 83.2695 1043.17 88.2235C1042.59 93.1774 1042.82 97.1428 1043.7 97.0803C1044.57 97.0179 1045.75 92.9513 1046.33 87.9974Z" fill="white"/>
<path d="M1030.87 119.496C1042.14 121.815 1051.55 123.113 1050.91 121.59C1051.02 120.578 1042.53 118.149 1031.26 115.83C1019.98 113.511 1011.83 113.047 1011.72 114.059C1011.61 115.071 1019.59 117.177 1030.87 119.496Z" fill="white"/>
<path d="M1058.05 118.054C1062.14 115.21 1068.54 113.066 1067.91 112.453C1067.29 111.841 1059.88 112.992 1055.79 115.836C1051.69 118.681 1048.87 121.483 1049.5 122.095C1050.12 122.708 1053.95 120.899 1058.05 118.054Z" fill="white"/>
<path d="M1032.05 128.81C1043.03 132.271 1052.25 134.524 1051.77 132.943C1051.99 131.947 1043.8 128.664 1032.82 125.203C1021.83 121.742 1013.77 120.446 1013.56 121.442C1013.35 122.438 1021.07 125.349 1032.05 128.81Z" fill="white"/>
<path d="M1059.24 130.157C1063.6 127.747 1070.18 126.268 1069.63 125.595C1069.07 124.921 1061.58 125.309 1057.22 127.719C1052.85 130.129 1049.76 132.629 1050.32 133.302C1050.88 133.975 1054.87 132.567 1059.24 130.157Z" fill="white"/>
<path d="M991.487 195.381C986.486 195.116 979.943 196.466 980.13 195.703C980.318 194.939 987.167 192.35 992.167 192.615C997.168 192.88 1000.88 193.954 1000.7 194.718C1001.21 195.172 996.487 195.647 991.487 195.381Z" fill="white"/>
<path d="M770.263 80.123C772.073 86.8638 774.475 85.63 784.553 81.3343C794.632 77.0386 807.907 64.657 806.097 57.9162C804.288 51.1754 794.65 49.1933 784.571 53.489C774.493 57.7848 768.453 73.3822 770.263 80.123Z" fill="white"/>
<path d="M771.812 104.151C773.543 117.108 783.888 132.455 791.106 132.23C798.325 132.006 795.556 116.422 793.825 103.465C792.093 90.5075 784.838 80.1857 777.619 80.4106C770.401 80.6354 770.08 91.1932 771.812 104.151Z" fill="white"/>
<path d="M771.931 134.811C761.983 141.797 748.491 164.181 752.698 173.321C756.905 182.461 777.332 171.884 787.28 164.898C797.228 157.912 801.883 144.84 797.676 135.7C793.469 126.56 781.879 127.825 771.931 134.811Z" fill="white"/>
<path d="M773.379 31.548C780.291 40.2705 788.432 63.1484 786.498 52.6876C786.941 52.4407 782.565 39.5282 776.926 32.412C771.286 25.2958 762.636 20.622 762.194 20.8689C761.751 21.1158 767.74 24.4318 773.379 31.548Z" fill="white"/>
<path d="M767.376 41.6651C774.288 50.3875 796.284 65.5378 785.535 59.9938C785.092 60.2407 772.593 51.8592 766.953 44.743C761.314 37.6268 759.523 29.1272 759.966 28.8803C760.409 28.6334 761.736 34.5489 767.376 41.6651Z" fill="white"/>
<ellipse rx="2.48809" ry="11.1106" transform="matrix(-0.373901 0.942584 0.82802 0.532414 780.129 146.626)" fill="white"/>
<path d="M802.811 165.952C811.631 173.353 819.287 178.964 819.45 177.321C820.026 176.482 813.718 170.314 804.898 162.913C796.077 155.512 789.126 151.229 788.55 152.068C787.973 152.907 793.991 158.551 802.811 165.952Z" fill="white"/>
<path d="M770.574 175.026C769.483 186.488 769.633 194.901 770.633 194.901C771.574 194.525 773.169 186.482 774.261 175.02C775.352 163.558 774.936 155.403 773.918 155.405C772.9 155.407 771.666 163.564 770.574 175.026Z" fill="white"/>
<path d="M822.658 185.441C825.447 189.576 827.506 195.997 828.127 195.381C828.748 194.765 827.695 187.345 824.906 183.21C822.117 179.075 819.352 176.222 818.731 176.838C818.111 177.454 819.869 181.306 822.658 185.441Z" fill="white"/>
<path d="M801.048 92.8591C808.548 84.1231 814.245 76.5316 812.604 76.35C811.771 75.7644 805.533 82.0026 798.033 90.7386C790.533 99.4746 786.171 106.378 787.004 106.963C787.837 107.549 793.548 101.595 801.048 92.8591Z" fill="white"/>
<path d="M810.994 68.4475C811.21 63.4644 809.609 56.9135 810.46 57.1142C811.311 57.315 814.293 64.1913 814.076 69.1745C813.859 74.1576 812.994 78.0345 812.142 77.8338C811.291 77.633 810.777 73.4307 810.994 68.4475Z" fill="white"/>
<path d="M799.419 109.326C808.623 102.408 815.82 96.2206 814.256 95.6901C813.569 94.9391 806.134 99.6887 796.93 106.606C787.726 113.524 781.981 119.326 782.668 120.077C783.356 120.828 790.214 116.243 799.419 109.326Z" fill="white"/>
<path d="M814.686 87.5985C816.095 82.8136 816.116 76.0699 816.894 76.4694C817.672 76.869 818.912 84.2605 817.504 89.0453C816.095 93.8301 814.322 97.3851 813.544 96.9856C812.766 96.586 813.278 92.3833 814.686 87.5985Z" fill="white"/>
<path d="M800.866 119.496C812.144 121.815 821.546 123.113 820.908 121.59C821.016 120.578 812.534 118.149 801.257 115.83C789.979 113.511 781.827 113.047 781.719 114.059C781.611 115.071 789.588 117.177 800.866 119.496Z" fill="white"/>
<path d="M828.047 118.054C832.144 115.21 838.538 113.066 837.914 112.453C837.29 111.841 829.884 112.992 825.786 115.836C821.689 118.681 818.873 121.483 819.498 122.095C820.122 122.708 823.95 120.899 828.047 118.054Z" fill="white"/>
<path d="M802.052 128.81C813.033 132.271 822.253 134.524 821.775 132.943C821.986 131.947 813.797 128.664 802.816 125.203C791.834 121.742 783.772 120.446 783.561 121.442C783.35 122.438 791.07 125.349 802.052 128.81Z" fill="white"/>
<path d="M829.238 130.157C833.604 127.747 840.184 126.268 839.626 125.595C839.067 124.921 831.583 125.309 827.216 127.719C822.849 130.129 819.761 132.629 820.32 133.302C820.878 133.975 824.871 132.567 829.238 130.157Z" fill="white"/>
<path d="M761.491 195.382C756.49 195.117 749.946 196.467 750.134 195.704C750.322 194.94 757.171 192.351 762.171 192.616C767.171 192.881 770.887 193.955 770.699 194.719C771.212 195.173 766.491 195.648 761.491 195.382Z" fill="white"/>
<path d="M540.259 80.123C542.069 86.8638 544.471 85.63 554.55 81.3343C564.628 77.0386 577.903 64.657 576.094 57.9162C574.284 51.1754 564.646 49.1933 554.568 53.489C544.489 57.7848 538.449 73.3822 540.259 80.123Z" fill="white"/>
<path d="M541.812 104.15C543.543 117.107 553.888 132.454 561.106 132.229C568.325 132.005 565.556 116.421 563.825 103.464C562.093 90.5066 554.838 80.1848 547.619 80.4096C540.401 80.6345 540.08 91.1922 541.812 104.15Z" fill="white"/>
<path d="M541.931 134.811C531.983 141.797 518.491 164.181 522.698 173.321C526.905 182.461 547.332 171.884 557.28 164.898C567.228 157.912 571.883 144.84 567.676 135.7C563.469 126.56 551.879 127.825 541.931 134.811Z" fill="white"/>
<path d="M543.375 31.548C550.288 40.2705 558.428 63.1484 556.494 52.6876C556.937 52.4407 552.561 39.5282 546.922 32.412C541.282 25.2958 532.633 20.622 532.19 20.8689C531.747 21.1158 537.736 24.4318 543.375 31.548Z" fill="white"/>
<path d="M537.376 41.6651C544.288 50.3875 566.284 65.5378 555.535 59.9938C555.092 60.2407 542.593 51.8592 536.953 44.743C531.314 37.6268 529.523 29.1272 529.966 28.8803C530.409 28.6334 531.736 34.5489 537.376 41.6651Z" fill="white"/>
<ellipse rx="2.48809" ry="11.1106" transform="matrix(-0.214222 0.991149 0.904137 0.389381 563.423 156.382)" fill="white"/>
<path d="M588.969 171.725C598.884 177.579 607.356 181.859 607.247 180.211C607.678 179.288 600.443 174.239 590.529 168.385C580.614 162.531 573.054 159.446 572.623 160.369C572.193 161.291 579.055 165.871 588.969 171.725Z" fill="white"/>
<path d="M540.574 175.026C539.483 186.488 539.633 194.901 540.633 194.901C541.574 194.525 543.169 186.482 544.261 175.02C545.352 163.558 544.936 155.403 543.918 155.405C542.9 155.407 541.666 163.564 540.574 175.026Z" fill="white"/>
<path d="M611.742 187.695C615.171 191.316 618.256 197.313 618.767 196.604C619.278 195.894 617.023 188.747 613.593 185.126C610.163 181.504 606.968 179.144 606.457 179.853C605.946 180.563 608.312 184.074 611.742 187.695Z" fill="white"/>
<path d="M571.044 92.8591C578.545 84.1231 584.242 76.5316 582.6 76.35C581.768 75.7644 575.529 82.0026 568.029 90.7386C560.529 99.4746 556.167 106.378 557 106.963C557.833 107.549 563.544 101.595 571.044 92.8591Z" fill="white"/>
<path d="M582.973 68.3918C582.474 63.4289 583.701 56.7978 582.863 57.0465C582.024 57.2951 579.438 64.3295 579.936 69.2923C580.435 74.2551 581.52 78.0767 582.358 77.8281C583.197 77.5794 583.472 73.3546 582.973 68.3918Z" fill="white"/>
<path d="M569.415 109.326C578.619 102.408 585.816 96.2206 584.252 95.6901C583.565 94.9391 576.13 99.6887 566.926 106.606C557.722 113.524 551.977 119.326 552.664 120.077C553.352 120.828 560.211 116.243 569.415 109.326Z" fill="white"/>
<path d="M586.328 87.9974C586.908 83.0435 589.534 76.8318 588.662 76.8942C587.789 76.9566 583.749 83.2695 583.169 88.2235C582.588 93.1774 582.824 97.1428 583.697 97.0803C584.569 97.0179 585.747 92.9513 586.328 87.9974Z" fill="white"/>
<path d="M570.866 119.496C582.144 121.815 591.546 123.113 590.908 121.59C591.016 120.578 582.534 118.149 571.257 115.83C559.979 113.511 551.827 113.047 551.719 114.059C551.611 115.071 559.588 117.177 570.866 119.496Z" fill="white"/>
<path d="M598.047 118.054C602.144 115.21 608.538 113.066 607.914 112.453C607.29 111.841 599.884 112.992 595.786 115.836C591.689 118.681 588.873 121.483 589.498 122.095C590.122 122.708 593.95 120.899 598.047 118.054Z" fill="white"/>
<path d="M572.052 128.81C583.033 132.271 592.253 134.524 591.775 132.943C591.986 131.947 583.797 128.664 572.816 125.203C561.834 121.742 553.772 120.446 553.561 121.442C553.35 122.438 561.07 125.349 572.052 128.81Z" fill="white"/>
<path d="M599.238 130.157C603.604 127.747 610.184 126.268 609.626 125.595C609.067 124.921 601.583 125.309 597.216 127.719C592.849 130.129 589.761 132.629 590.32 133.302C590.878 133.975 594.871 132.567 599.238 130.157Z" fill="white"/>
<path d="M531.487 195.381C526.486 195.116 519.943 196.466 520.13 195.703C520.318 194.939 527.167 192.35 532.167 192.615C537.168 192.88 540.883 193.954 540.695 194.718C541.208 195.172 536.487 195.647 531.487 195.381Z" fill="white"/>
<path d="M310.263 80.123C312.073 86.8638 314.475 85.63 324.553 81.3343C334.632 77.0386 347.907 64.657 346.097 57.9162C344.288 51.1754 334.65 49.1933 324.571 53.489C314.493 57.7848 308.453 73.3822 310.263 80.123Z" fill="white"/>
<path d="M311.812 104.151C313.543 117.108 323.888 132.455 331.106 132.23C338.325 132.006 335.556 116.422 333.825 103.465C332.093 90.5075 324.838 80.1857 317.619 80.4106C310.401 80.6354 310.08 91.1932 311.812 104.151Z" fill="white"/>
<path d="M311.931 134.811C301.983 141.797 288.491 164.181 292.698 173.321C296.905 182.461 317.332 171.884 327.28 164.898C337.228 157.912 341.883 144.84 337.676 135.7C333.469 126.56 321.879 127.825 311.931 134.811Z" fill="white"/>
<path d="M313.379 31.548C320.291 40.2705 328.432 63.1484 326.498 52.6876C326.941 52.4407 322.565 39.5282 316.926 32.412C311.286 25.2958 302.636 20.622 302.194 20.8689C301.751 21.1158 307.74 24.4318 313.379 31.548Z" fill="white"/>
<path d="M307.376 41.6651C314.288 50.3875 336.284 65.5378 325.535 59.9938C325.092 60.2407 312.593 51.8592 306.953 44.743C301.314 37.6268 299.523 29.1272 299.966 28.8803C300.409 28.6334 301.736 34.5489 307.376 41.6651Z" fill="white"/>
<ellipse rx="2.48809" ry="11.1106" transform="matrix(-0.373901 0.942584 0.82802 0.532414 320.129 146.626)" fill="white"/>
<path d="M342.811 165.952C351.631 173.353 359.287 178.964 359.45 177.321C360.026 176.482 353.718 170.314 344.898 162.913C336.077 155.512 329.126 151.229 328.55 152.068C327.973 152.907 333.991 158.551 342.811 165.952Z" fill="white"/>
<path d="M310.574 175.026C309.483 186.488 309.633 194.901 310.633 194.901C311.574 194.525 313.169 186.482 314.261 175.02C315.352 163.558 314.936 155.403 313.918 155.405C312.9 155.407 311.666 163.564 310.574 175.026Z" fill="white"/>
<path d="M362.658 185.441C365.447 189.576 367.506 195.997 368.127 195.381C368.748 194.765 367.695 187.345 364.906 183.21C362.117 179.075 359.352 176.222 358.731 176.838C358.111 177.454 359.869 181.306 362.658 185.441Z" fill="white"/>
<path d="M341.048 92.8591C348.548 84.1231 354.245 76.5316 352.604 76.35C351.771 75.7644 345.533 82.0026 338.033 90.7386C330.533 99.4746 326.171 106.378 327.004 106.963C327.837 107.549 333.548 101.595 341.048 92.8591Z" fill="white"/>
<path d="M350.994 68.4475C351.21 63.4644 349.609 56.9135 350.46 57.1142C351.311 57.315 354.293 64.1913 354.076 69.1745C353.859 74.1576 352.994 78.0345 352.142 77.8338C351.291 77.633 350.777 73.4307 350.994 68.4475Z" fill="white"/>
<path d="M339.419 109.326C348.623 102.408 355.82 96.2206 354.256 95.6901C353.569 94.9391 346.134 99.6887 336.93 106.606C327.726 113.524 321.981 119.326 322.668 120.077C323.356 120.828 330.214 116.243 339.419 109.326Z" fill="white"/>
<path d="M354.686 87.5985C356.095 82.8136 356.116 76.0699 356.894 76.4694C357.672 76.869 358.912 84.2605 357.504 89.0453C356.095 93.8301 354.322 97.3851 353.544 96.9856C352.766 96.586 353.278 92.3833 354.686 87.5985Z" fill="white"/>
<path d="M340.866 119.496C352.144 121.815 361.546 123.113 360.908 121.59C361.016 120.578 352.534 118.149 341.257 115.83C329.979 113.511 321.827 113.047 321.719 114.059C321.611 115.071 329.588 117.177 340.866 119.496Z" fill="white"/>
<path d="M368.047 118.054C372.144 115.21 378.538 113.066 377.914 112.453C377.29 111.841 369.884 112.992 365.786 115.836C361.689 118.681 358.873 121.483 359.498 122.095C360.122 122.708 363.95 120.899 368.047 118.054Z" fill="white"/>
<path d="M342.052 128.81C353.033 132.271 362.253 134.524 361.775 132.943C361.986 131.947 353.797 128.664 342.816 125.203C331.834 121.742 323.772 120.446 323.561 121.442C323.35 122.438 331.07 125.349 342.052 128.81Z" fill="white"/>
<path d="M369.238 130.157C373.604 127.747 380.184 126.268 379.626 125.595C379.067 124.921 371.583 125.309 367.216 127.719C362.849 130.129 359.761 132.629 360.32 133.302C360.878 133.975 364.871 132.567 369.238 130.157Z" fill="white"/>
<path d="M301.491 195.382C296.49 195.117 289.946 196.467 290.134 195.704C290.322 194.94 297.171 192.351 302.171 192.616C307.171 192.881 310.887 193.955 310.699 194.719C311.212 195.173 306.491 195.648 301.491 195.382Z" fill="white"/>
</g>
<defs>
<clipPath id="clip0">
<rect width="1150" height="230" fill="white"/>
</clipPath>
</defs>
</svg>
