<svg width="1150" height="230" viewBox="0 0 1150 230" fill="none" xmlns="http://www.w3.org/2000/svg">
<g clip-path="url(#clip0)">
<path d="M80.2591 80.1592C82.069 86.9 84.471 85.6662 94.5495 81.3704C104.628 77.0747 117.903 64.6932 116.094 57.9524C114.284 51.2116 104.646 49.2294 94.5675 53.5252C84.489 57.8209 78.4492 73.4184 80.2591 80.1592Z" fill="white"/>
<path d="M81.8119 104.187C83.5433 117.144 93.8877 132.491 101.106 132.266C108.325 132.042 105.556 116.459 103.825 103.501C102.093 90.5437 94.838 80.2219 87.6195 80.4467C80.401 80.6716 80.0805 91.2294 81.8119 104.187Z" fill="white"/>
<path d="M82.4663 138.318C75.0726 147.967 68.9185 173.367 75.6739 180.824C82.4293 188.28 98.7423 172.062 106.136 162.413C113.53 152.764 114.047 138.898 107.292 131.441C100.536 123.984 89.86 128.669 82.4663 138.318Z" fill="white"/>
<path d="M83.3751 31.5851C90.2876 40.3076 98.4279 63.1855 96.4941 52.7247C96.9368 52.4778 92.5615 39.5653 86.922 32.4491C81.2825 25.3329 72.6326 20.6591 72.1899 20.906C71.7472 21.1529 77.7356 24.4689 83.3751 31.5851Z" fill="white"/>
<path d="M77.3759 41.7022C84.2883 50.4247 106.284 65.5749 95.5347 60.0309C95.092 60.2778 82.5927 51.8963 76.9532 44.7801C71.3137 37.6639 69.5233 29.1643 69.966 28.9174C70.4086 28.6705 71.7364 34.586 77.3759 41.7022Z" fill="white"/>
<ellipse rx="2.48809" ry="11.1106" transform="matrix(-0.214222 0.991149 0.904137 0.389381 103.419 156.418)" fill="white"/>
<path d="M118.648 178.045C123.109 188.66 127.353 197.15 128.249 195.763C129.145 195.28 126.354 186.911 121.893 176.296C117.432 165.682 113.208 158.694 112.312 159.177C111.416 159.66 114.187 167.431 118.648 178.045Z" fill="white"/>
<path d="M80.5742 175.063C79.4827 186.525 79.6328 194.938 80.6328 194.938C81.5742 194.562 83.1692 186.519 84.2607 175.057C85.3522 163.595 84.9359 155.44 83.9179 155.442C82.8999 155.444 81.6657 163.601 80.5742 175.063Z" fill="white"/>
<path d="M137.062 196.227C142.024 195.719 148.658 196.935 148.407 196.097C148.157 195.259 141.118 192.685 136.156 193.193C131.194 193.701 127.375 194.792 127.625 195.63C127.875 196.468 132.1 196.735 137.062 196.227Z" fill="white"/>
<path d="M106.344 100.342C117.493 97.4675 126.509 94.5001 125.266 93.4122C124.918 92.4555 116.233 94.0031 105.083 96.8777C93.9341 99.7522 86.4079 102.919 86.7559 103.876C87.1039 104.832 95.1944 103.217 106.344 100.342Z" fill="white"/>
<path d="M130.124 87.0977C132.554 82.7417 137.354 78.0051 136.524 77.7294C135.694 77.4536 129.548 81.7433 127.119 86.0992C124.689 90.4552 123.392 94.2098 124.222 94.4855C125.052 94.7613 127.694 91.4536 130.124 87.0977Z" fill="white"/>
<path d="M104.531 110.309C115.946 108.8 125.253 106.941 124.151 105.711C123.921 104.719 115.112 105.208 103.698 106.718C92.2831 108.227 84.4298 110.463 84.66 111.455C84.8901 112.446 93.1164 111.818 104.531 110.309Z" fill="white"/>
<path d="M129.737 100.028C132.674 95.9971 138.011 91.8738 137.22 91.5C136.429 91.1262 129.811 94.6435 126.873 98.6746C123.936 102.706 122.196 106.277 122.986 106.65C123.777 107.024 126.799 104.059 129.737 100.028Z" fill="white"/>
<path d="M109.499 120.682C118.187 128.238 125.741 133.984 125.934 132.344C126.524 131.515 120.327 125.236 111.639 117.68C102.952 110.123 96.077 105.718 95.4861 106.546C94.8952 107.375 100.812 113.125 109.499 120.682Z" fill="white"/>
<path d="M133.892 132.768C138.858 132.301 145.481 133.571 145.238 132.731C144.995 131.891 137.977 129.259 133.011 129.726C128.045 130.193 124.217 131.252 124.46 132.092C124.703 132.932 128.926 133.235 133.892 132.768Z" fill="white"/>
<path d="M110.606 130.583C118.269 139.176 125.037 145.831 125.435 144.228C126.125 143.48 120.771 136.469 113.108 127.875C105.445 119.282 99.1825 114.042 98.4915 114.79C97.8006 115.537 102.943 121.989 110.606 130.583Z" fill="white"/>
<path d="M133.274 145.654C138.259 145.819 144.668 147.916 144.533 147.052C144.398 146.188 137.769 142.69 132.784 142.525C127.799 142.361 123.867 142.928 124.003 143.792C124.138 144.656 128.288 145.49 133.274 145.654Z" fill="white"/>
<path d="M71.4869 195.419C66.4864 195.153 59.9426 196.504 60.1304 195.74C60.3183 194.976 67.1667 192.387 72.1671 192.652C77.1676 192.918 80.8833 193.991 80.6954 194.755C81.2082 195.209 76.4873 195.684 71.4869 195.419Z" fill="white"/>
<path d="M1000.26 80.1592C1002.07 86.9 1004.47 85.6662 1014.55 81.3704C1024.63 77.0747 1037.9 64.6932 1036.09 57.9524C1034.28 51.2116 1024.65 49.2294 1014.57 53.5252C1004.49 57.8209 998.449 73.4184 1000.26 80.1592Z" fill="white"/>
<path d="M1001.81 104.187C1003.54 117.144 1013.89 132.491 1021.11 132.266C1028.32 132.042 1025.56 116.459 1023.82 103.501C1022.09 90.5437 1014.84 80.2219 1007.62 80.4467C1000.4 80.6716 1000.08 91.2294 1001.81 104.187Z" fill="white"/>
<path d="M1002.47 138.318C995.073 147.967 988.919 173.367 995.674 180.824C1002.43 188.28 1018.74 172.062 1026.14 162.413C1033.53 152.764 1034.05 138.898 1027.29 131.441C1020.54 123.984 1009.86 128.669 1002.47 138.318Z" fill="white"/>
<path d="M1003.38 31.5851C1010.29 40.3076 1018.43 63.1855 1016.49 52.7247C1016.94 52.4778 1012.56 39.5653 1006.92 32.4491C1001.28 25.3329 992.633 20.6591 992.19 20.906C991.747 21.1529 997.736 24.4689 1003.38 31.5851Z" fill="white"/>
<path d="M997.376 41.7022C1004.29 50.4247 1026.28 65.5749 1015.53 60.0309C1015.09 60.2778 1002.59 51.8963 996.953 44.7801C991.314 37.6639 989.523 29.1643 989.966 28.9174C990.409 28.6705 991.736 34.586 997.376 41.7022Z" fill="white"/>
<ellipse rx="2.48809" ry="11.1106" transform="matrix(-0.214222 0.991149 0.904137 0.389381 1023.42 156.418)" fill="white"/>
<path d="M1038.65 178.045C1043.11 188.66 1047.35 197.15 1048.25 195.763C1049.15 195.28 1046.35 186.911 1041.89 176.296C1037.43 165.682 1033.21 158.694 1032.31 159.177C1031.42 159.66 1034.19 167.431 1038.65 178.045Z" fill="white"/>
<path d="M1000.57 175.063C999.483 186.525 999.633 194.938 1000.63 194.938C1001.57 194.562 1003.17 186.519 1004.26 175.057C1005.35 163.595 1004.94 155.44 1003.92 155.442C1002.9 155.444 1001.67 163.601 1000.57 175.063Z" fill="white"/>
<path d="M1057.06 196.227C1062.02 195.719 1068.66 196.935 1068.41 196.097C1068.16 195.259 1061.12 192.685 1056.16 193.193C1051.19 193.701 1047.37 194.792 1047.62 195.63C1047.88 196.468 1052.1 196.735 1057.06 196.227Z" fill="white"/>
<path d="M1026.34 100.342C1037.49 97.4675 1046.51 94.5001 1045.27 93.4122C1044.92 92.4555 1036.23 94.0031 1025.08 96.8777C1013.93 99.7522 1006.41 102.919 1006.76 103.876C1007.1 104.832 1015.19 103.217 1026.34 100.342Z" fill="white"/>
<path d="M1050.12 87.0977C1052.55 82.7417 1057.35 78.0051 1056.52 77.7294C1055.69 77.4536 1049.55 81.7433 1047.12 86.0992C1044.69 90.4552 1043.39 94.2098 1044.22 94.4855C1045.05 94.7613 1047.69 91.4536 1050.12 87.0977Z" fill="white"/>
<path d="M1024.53 110.309C1035.95 108.8 1045.25 106.941 1044.15 105.711C1043.92 104.719 1035.11 105.208 1023.7 106.718C1012.28 108.227 1004.43 110.463 1004.66 111.455C1004.89 112.446 1013.12 111.818 1024.53 110.309Z" fill="white"/>
<path d="M1049.74 100.028C1052.67 95.9971 1058.01 91.8738 1057.22 91.5C1056.43 91.1262 1049.81 94.6435 1046.87 98.6746C1043.94 102.706 1042.2 106.277 1042.99 106.65C1043.78 107.024 1046.8 104.059 1049.74 100.028Z" fill="white"/>
<path d="M1029.5 120.682C1038.19 128.238 1045.74 133.984 1045.93 132.344C1046.52 131.515 1040.33 125.236 1031.64 117.68C1022.95 110.123 1016.08 105.718 1015.49 106.546C1014.9 107.375 1020.81 113.125 1029.5 120.682Z" fill="white"/>
<path d="M1053.89 132.768C1058.86 132.301 1065.48 133.571 1065.24 132.731C1064.99 131.891 1057.98 129.259 1053.01 129.726C1048.05 130.193 1044.22 131.252 1044.46 132.092C1044.7 132.932 1048.93 133.235 1053.89 132.768Z" fill="white"/>
<path d="M1030.61 130.583C1038.27 139.176 1045.04 145.831 1045.43 144.228C1046.13 143.48 1040.77 136.469 1033.11 127.875C1025.45 119.282 1019.18 114.042 1018.49 114.79C1017.8 115.537 1022.94 121.989 1030.61 130.583Z" fill="white"/>
<path d="M1053.27 145.654C1058.26 145.819 1064.67 147.916 1064.53 147.052C1064.4 146.188 1057.77 142.69 1052.78 142.525C1047.8 142.361 1043.87 142.928 1044 143.792C1044.14 144.656 1048.29 145.49 1053.27 145.654Z" fill="white"/>
<path d="M991.487 195.419C986.486 195.153 979.943 196.504 980.13 195.74C980.318 194.976 987.167 192.387 992.167 192.652C997.168 192.918 1000.88 193.991 1000.7 194.755C1001.21 195.209 996.487 195.684 991.487 195.419Z" fill="white"/>
<path d="M770.259 80.1601C772.069 86.9009 774.471 85.6671 784.55 81.3714C794.628 77.0757 807.903 64.6941 806.094 57.9533C804.284 51.2125 794.646 49.2304 784.568 53.5261C774.489 57.8219 768.449 73.4193 770.259 80.1601Z" fill="white"/>
<path d="M771.808 104.187C773.539 117.144 783.884 132.491 791.102 132.266C798.321 132.042 795.552 116.459 793.821 103.501C792.089 90.5437 784.834 80.2219 777.616 80.4467C770.397 80.6716 770.077 91.2294 771.808 104.187Z" fill="white"/>
<path d="M772.466 138.318C765.073 147.967 758.919 173.367 765.674 180.824C772.429 188.28 788.742 172.062 796.136 162.413C803.53 152.764 804.047 138.898 797.292 131.441C790.536 123.984 779.86 128.669 772.466 138.318Z" fill="white"/>
<path d="M775.433 30.8157C781.582 40.0925 787.754 63.5778 786.714 52.9908C787.176 52.7823 783.91 39.5455 778.894 31.9771C773.878 24.4087 765.655 19.0189 765.193 19.2274C764.731 19.4359 770.417 23.2473 775.433 30.8157Z" fill="white"/>
<path d="M765.662 43.4751C773.73 51.1408 797.635 63.0533 786.214 59.0732C785.81 59.3797 772.258 52.8359 765.676 46.5819C759.093 40.3278 756.127 32.1637 756.531 31.8571C756.934 31.5506 759.079 37.2211 765.662 43.4751Z" fill="white"/>
<ellipse rx="2.48809" ry="11.1106" transform="matrix(-0.214222 0.991149 0.904137 0.389381 793.419 156.419)" fill="white"/>
<path d="M808.645 178.045C813.106 188.66 817.349 197.15 818.245 195.763C819.141 195.28 816.351 186.911 811.89 176.296C807.428 165.682 803.204 158.694 802.308 159.177C801.412 159.66 804.183 167.431 808.645 178.045Z" fill="white"/>
<path d="M770.574 175.063C769.483 186.525 769.633 194.938 770.633 194.938C771.574 194.562 773.169 186.519 774.261 175.057C775.352 163.595 774.936 155.44 773.918 155.442C772.9 155.444 771.666 163.601 770.574 175.063Z" fill="white"/>
<path d="M827.062 196.228C832.024 195.72 838.658 196.936 838.407 196.098C838.157 195.26 831.118 192.686 826.156 193.194C821.194 193.702 817.375 194.793 817.625 195.631C817.875 196.469 822.1 196.736 827.062 196.228Z" fill="white"/>
<path d="M796.252 100.367C807.348 97.5059 816.319 94.5499 815.081 93.461C814.733 92.5044 806.088 94.0415 794.992 96.9023C783.896 99.763 776.408 102.92 776.756 103.877C777.104 104.833 785.156 103.227 796.252 100.367Z" fill="white"/>
<path d="M818.538 85.5435C819.901 80.6584 823.485 74.8289 822.613 74.7556C821.742 74.6822 816.745 80.3927 815.382 85.2778C814.019 90.1629 813.621 94.1825 814.492 94.2559C815.364 94.3293 817.175 90.4286 818.538 85.5435Z" fill="white"/>
<path d="M794.531 110.309C805.946 108.8 815.253 106.941 814.151 105.711C813.921 104.719 805.112 105.208 793.698 106.718C782.283 108.227 774.43 110.463 774.66 111.455C774.89 112.446 783.116 111.818 794.531 110.309Z" fill="white"/>
<path d="M820.813 107.222C825.789 106.882 832.378 108.321 832.156 107.475C831.935 106.629 824.987 103.818 820.01 104.158C815.034 104.498 811.18 105.459 811.401 106.305C811.623 107.151 815.837 107.562 820.813 107.222Z" fill="white"/>
<path d="M799.499 120.682C808.187 128.238 815.741 133.984 815.934 132.344C816.524 131.515 810.327 125.236 801.639 117.68C792.952 110.123 786.077 105.718 785.486 106.546C784.895 107.375 790.812 113.125 799.499 120.682Z" fill="white"/>
<path d="M823.892 132.768C828.858 132.301 835.481 133.571 835.238 132.731C834.995 131.891 827.977 129.259 823.011 129.726C818.045 130.193 814.217 131.252 814.46 132.092C814.703 132.932 818.926 133.235 823.892 132.768Z" fill="white"/>
<path d="M800.606 130.584C808.269 139.177 815.037 145.832 815.435 144.229C816.125 143.481 810.771 136.47 803.108 127.876C795.445 119.282 789.182 114.043 788.492 114.791C787.801 115.538 792.943 121.99 800.606 130.584Z" fill="white"/>
<path d="M823.274 145.655C828.259 145.82 834.668 147.917 834.533 147.053C834.398 146.189 827.769 142.691 822.784 142.526C817.799 142.362 813.867 142.929 814.003 143.793C814.138 144.657 818.288 145.491 823.274 145.655Z" fill="white"/>
<path d="M761.487 195.42C756.486 195.154 749.943 196.505 750.13 195.741C750.318 194.977 757.167 192.388 762.167 192.653C767.168 192.919 770.883 193.992 770.695 194.756C771.208 195.21 766.487 195.685 761.487 195.42Z" fill="white"/>
<path d="M540.259 80.1592C542.069 86.9 544.471 85.6662 554.55 81.3704C564.628 77.0747 577.903 64.6932 576.094 57.9524C574.284 51.2116 564.646 49.2294 554.568 53.5252C544.489 57.8209 538.449 73.4184 540.259 80.1592Z" fill="white"/>
<path d="M541.812 104.187C543.543 117.144 553.888 132.491 561.106 132.266C568.325 132.042 565.556 116.459 563.825 103.501C562.093 90.5437 554.838 80.2219 547.619 80.4467C540.401 80.6716 540.08 91.2294 541.812 104.187Z" fill="white"/>
<path d="M542.466 138.318C535.073 147.967 528.919 173.367 535.674 180.824C542.429 188.28 558.742 172.062 566.136 162.413C573.53 152.764 574.047 138.898 567.292 131.441C560.536 123.984 549.86 128.669 542.466 138.318Z" fill="white"/>
<path d="M543.375 31.5851C550.288 40.3076 558.428 63.1855 556.494 52.7247C556.937 52.4778 552.561 39.5653 546.922 32.4491C541.282 25.3329 532.633 20.6591 532.19 20.906C531.747 21.1529 537.736 24.4689 543.375 31.5851Z" fill="white"/>
<path d="M537.376 41.7022C544.288 50.4247 566.284 65.5749 555.535 60.0309C555.092 60.2778 542.593 51.8963 536.953 44.7801C531.314 37.6639 529.523 29.1643 529.966 28.9174C530.409 28.6705 531.736 34.586 537.376 41.7022Z" fill="white"/>
<ellipse rx="2.48809" ry="11.1106" transform="matrix(-0.214222 0.991149 0.904137 0.389381 563.419 156.418)" fill="white"/>
<path d="M578.648 178.045C583.109 188.66 587.353 197.15 588.249 195.763C589.145 195.28 586.354 186.911 581.893 176.296C577.432 165.682 573.208 158.694 572.312 159.177C571.416 159.66 574.187 167.431 578.648 178.045Z" fill="white"/>
<path d="M540.574 175.063C539.483 186.525 539.633 194.938 540.633 194.938C541.574 194.562 543.169 186.519 544.261 175.057C545.352 163.595 544.936 155.44 543.918 155.442C542.9 155.444 541.666 163.601 540.574 175.063Z" fill="white"/>
<path d="M597.062 196.227C602.024 195.719 608.658 196.935 608.407 196.097C608.157 195.259 601.118 192.685 596.156 193.193C591.194 193.701 587.375 194.792 587.625 195.63C587.875 196.468 592.1 196.735 597.062 196.227Z" fill="white"/>
<path d="M566.344 100.342C577.493 97.4675 586.509 94.5001 585.266 93.4122C584.918 92.4555 576.233 94.0031 565.083 96.8777C553.934 99.7522 546.408 102.919 546.756 103.876C547.104 104.832 555.194 103.217 566.344 100.342Z" fill="white"/>
<path d="M590.124 87.0977C592.554 82.7417 597.354 78.0051 596.524 77.7294C595.694 77.4536 589.548 81.7433 587.119 86.0992C584.689 90.4552 583.392 94.2098 584.222 94.4855C585.052 94.7613 587.694 91.4536 590.124 87.0977Z" fill="white"/>
<path d="M564.531 110.309C575.946 108.8 585.253 106.941 584.151 105.711C583.921 104.719 575.112 105.208 563.698 106.718C552.283 108.227 544.43 110.463 544.66 111.455C544.89 112.446 553.116 111.818 564.531 110.309Z" fill="white"/>
<path d="M589.737 100.028C592.674 95.9971 598.011 91.8738 597.22 91.5C596.429 91.1262 589.811 94.6435 586.873 98.6746C583.936 102.706 582.196 106.277 582.986 106.65C583.777 107.024 586.799 104.059 589.737 100.028Z" fill="white"/>
<path d="M569.499 120.682C578.187 128.238 585.741 133.984 585.934 132.344C586.524 131.515 580.327 125.236 571.639 117.68C562.952 110.123 556.077 105.718 555.486 106.546C554.895 107.375 560.812 113.125 569.499 120.682Z" fill="white"/>
<path d="M593.892 132.768C598.858 132.301 605.481 133.571 605.238 132.731C604.995 131.891 597.977 129.259 593.011 129.726C588.045 130.193 584.217 131.252 584.46 132.092C584.703 132.932 588.926 133.235 593.892 132.768Z" fill="white"/>
<path d="M570.606 130.583C578.269 139.176 585.037 145.831 585.435 144.228C586.125 143.48 580.771 136.469 573.108 127.875C565.445 119.282 559.182 114.042 558.492 114.79C557.801 115.537 562.943 121.989 570.606 130.583Z" fill="white"/>
<path d="M593.274 145.654C598.259 145.819 604.668 147.916 604.533 147.052C604.398 146.188 597.769 142.69 592.784 142.525C587.799 142.361 583.867 142.928 584.003 143.792C584.138 144.656 588.288 145.49 593.274 145.654Z" fill="white"/>
<path d="M531.487 195.419C526.486 195.153 519.943 196.504 520.13 195.74C520.318 194.976 527.167 192.387 532.167 192.652C537.168 192.918 540.883 193.991 540.695 194.755C541.208 195.209 536.487 195.684 531.487 195.419Z" fill="white"/>
<path d="M310.259 80.1601C312.069 86.9009 314.471 85.6671 324.55 81.3714C334.628 77.0757 347.903 64.6941 346.094 57.9533C344.284 51.2125 334.646 49.2304 324.568 53.5261C314.489 57.8219 308.449 73.4193 310.259 80.1601Z" fill="white"/>
<path d="M311.808 104.187C313.539 117.144 323.884 132.491 331.102 132.266C338.321 132.042 335.552 116.459 333.821 103.501C332.089 90.5437 324.834 80.2219 317.616 80.4467C310.397 80.6716 310.077 91.2294 311.808 104.187Z" fill="white"/>
<path d="M312.466 138.318C305.073 147.967 298.919 173.367 305.674 180.824C312.429 188.28 328.742 172.062 336.136 162.413C343.53 152.764 344.047 138.898 337.292 131.441C330.536 123.984 319.86 128.669 312.466 138.318Z" fill="white"/>
<path d="M315.433 30.8157C321.582 40.0925 327.754 63.5778 326.714 52.9908C327.176 52.7823 323.91 39.5455 318.894 31.9771C313.878 24.4087 305.655 19.0189 305.193 19.2274C304.731 19.4359 310.417 23.2473 315.433 30.8157Z" fill="white"/>
<path d="M305.662 43.4751C313.73 51.1408 337.635 63.0533 326.214 59.0732C325.81 59.3797 312.258 52.8359 305.676 46.5819C299.093 40.3278 296.127 32.1637 296.531 31.8571C296.934 31.5506 299.079 37.2211 305.662 43.4751Z" fill="white"/>
<ellipse rx="2.48809" ry="11.1106" transform="matrix(-0.214222 0.991149 0.904137 0.389381 333.419 156.419)" fill="white"/>
<path d="M348.645 178.045C353.106 188.66 357.349 197.15 358.245 195.763C359.141 195.28 356.351 186.911 351.89 176.296C347.428 165.682 343.204 158.694 342.308 159.177C341.412 159.66 344.183 167.431 348.645 178.045Z" fill="white"/>
<path d="M310.574 175.063C309.483 186.525 309.633 194.938 310.633 194.938C311.574 194.562 313.169 186.519 314.261 175.057C315.352 163.595 314.936 155.44 313.918 155.442C312.9 155.444 311.666 163.601 310.574 175.063Z" fill="white"/>
<path d="M367.062 196.228C372.024 195.72 378.658 196.936 378.407 196.098C378.157 195.26 371.118 192.686 366.156 193.194C361.194 193.702 357.375 194.793 357.625 195.631C357.875 196.469 362.1 196.736 367.062 196.228Z" fill="white"/>
<path d="M336.252 100.367C347.348 97.5059 356.319 94.5499 355.081 93.461C354.733 92.5044 346.088 94.0415 334.992 96.9023C323.896 99.763 316.408 102.92 316.756 103.877C317.104 104.833 325.156 103.227 336.252 100.367Z" fill="white"/>
<path d="M358.538 85.5435C359.901 80.6584 363.485 74.8289 362.613 74.7556C361.742 74.6822 356.745 80.3927 355.382 85.2778C354.019 90.1629 353.621 94.1825 354.492 94.2559C355.364 94.3293 357.175 90.4286 358.538 85.5435Z" fill="white"/>
<path d="M334.531 110.309C345.946 108.8 355.253 106.941 354.151 105.711C353.921 104.719 345.112 105.208 333.698 106.718C322.283 108.227 314.43 110.463 314.66 111.455C314.89 112.446 323.116 111.818 334.531 110.309Z" fill="white"/>
<path d="M360.813 107.222C365.789 106.882 372.378 108.321 372.156 107.475C371.935 106.629 364.987 103.818 360.01 104.158C355.034 104.498 351.18 105.459 351.401 106.305C351.623 107.151 355.837 107.562 360.813 107.222Z" fill="white"/>
<path d="M339.499 120.682C348.187 128.238 355.741 133.984 355.934 132.344C356.524 131.515 350.327 125.236 341.639 117.68C332.952 110.123 326.077 105.718 325.486 106.546C324.895 107.375 330.812 113.125 339.499 120.682Z" fill="white"/>
<path d="M363.892 132.768C368.858 132.301 375.481 133.571 375.238 132.731C374.995 131.891 367.977 129.259 363.011 129.726C358.045 130.193 354.217 131.252 354.46 132.092C354.703 132.932 358.926 133.235 363.892 132.768Z" fill="white"/>
<path d="M340.606 130.584C348.269 139.177 355.037 145.832 355.435 144.229C356.125 143.481 350.771 136.47 343.108 127.876C335.445 119.282 329.182 114.043 328.492 114.791C327.801 115.538 332.943 121.99 340.606 130.584Z" fill="white"/>
<path d="M363.274 145.655C368.259 145.82 374.668 147.917 374.533 147.053C374.398 146.189 367.769 142.691 362.784 142.526C357.799 142.362 353.867 142.929 354.003 143.793C354.138 144.657 358.288 145.491 363.274 145.655Z" fill="white"/>
<path d="M301.487 195.42C296.486 195.154 289.943 196.505 290.13 195.741C290.318 194.977 297.167 192.388 302.167 192.653C307.168 192.919 310.883 193.992 310.695 194.756C311.208 195.21 306.487 195.685 301.487 195.42Z" fill="white"/>
</g>
<defs>
<clipPath id="clip0">
<rect width="1150" height="230" fill="white"/>
</clipPath>
</defs>
</svg>
