<svg width="1150" height="230" viewBox="0 0 1150 230" fill="none" xmlns="http://www.w3.org/2000/svg">
<path d="M131.616 77.2999C130.083 84.109 127.633 82.9744 117.387 79.0942C107.141 75.2139 93.3712 63.3852 94.9041 56.5761C96.437 49.767 105.985 47.3926 116.231 51.2729C126.477 55.1531 133.149 70.4907 131.616 77.2999Z" fill="white"/>
<path d="M130.923 103.551C129.191 116.508 118.847 131.856 111.628 131.631C104.41 131.406 107.178 115.823 108.91 102.865C110.641 89.9079 117.896 79.5861 125.115 79.811C132.333 80.0358 132.654 90.5936 130.923 103.551Z" fill="white"/>
<path d="M130.264 137.682C137.658 147.331 143.812 172.732 137.057 180.188C130.301 187.645 113.988 171.427 106.595 161.778C99.2008 152.129 98.6833 138.262 105.439 130.805C112.194 123.349 122.87 128.033 130.264 137.682Z" fill="white"/>
<path d="M126.519 28.8938C119.969 37.8914 112.77 61.0829 114.275 50.5518C113.822 50.3232 117.666 37.2426 123.01 29.9019C128.354 22.5612 136.806 17.5379 137.258 17.7665C137.711 17.9951 131.863 21.553 126.519 28.8938Z" fill="white"/>
<path d="M132.927 38.7579C126.377 47.7556 105.019 63.7921 115.533 57.8134C115.985 58.042 128.131 49.1567 133.475 41.816C138.819 34.4753 140.261 25.9096 139.808 25.681C139.356 25.4524 138.271 31.4172 132.927 38.7579Z" fill="white"/>
<ellipse rx="2.48809" ry="11.1106" transform="matrix(0.214222 0.991149 -0.904137 0.389381 109.312 155.784)" fill="white"/>
<path d="M100.502 174.931C99.6693 184.079 98.2555 191.515 96.7273 190.579C95.5487 190.356 95.4013 183.27 96.2344 174.122C97.0674 164.974 99.0413 158.726 100.22 158.949C101.398 159.173 101.335 165.783 100.502 174.931Z" fill="white"/>
<path d="M121.528 175.1C122.784 186.39 122.755 194.692 121.755 194.708C120.808 194.352 119.098 186.443 117.842 175.152C116.585 163.862 116.884 155.811 117.902 155.797C118.92 155.782 120.272 163.81 121.528 175.1Z" fill="white"/>
<path d="M88.9293 192.769C84.1096 193.442 78.1047 196.183 78.1479 195.31C78.1911 194.436 84.266 190.279 89.0857 189.606C93.9054 188.933 97.7775 189.096 97.7343 189.969C97.6911 190.843 93.749 192.096 88.9293 192.769Z" fill="white"/>
<path d="M109.027 95.0004C98.5394 99.751 89.6553 103.092 89.941 101.465C89.6123 100.502 97.3492 96.2619 107.837 91.5113C118.325 86.7606 126.174 84.509 126.503 85.4725C126.832 86.436 119.516 90.2497 109.027 95.0004Z" fill="white"/>
<path d="M82.197 99.5917C77.573 97.7216 70.8637 97.041 71.3374 96.3059C71.8112 95.5707 79.2886 95.0594 83.9126 96.9294C88.5366 98.7995 91.9011 100.911 91.4274 101.647C90.9536 102.382 86.8211 101.462 82.197 99.5917Z" fill="white"/>
<path d="M112.512 104.208C102.681 110.2 94.2692 114.597 94.3548 112.948C93.9113 112.032 101.074 106.882 110.906 100.889C120.738 94.8971 128.254 91.7067 128.698 92.623C129.141 93.5393 122.344 98.2153 112.512 104.208Z" fill="white"/>
<path d="M86.2816 113.253C81.4643 114.546 74.722 114.405 75.1028 115.192C75.4835 115.979 82.843 117.397 87.6603 116.104C92.4776 114.811 96.0742 113.124 95.6935 112.337C95.3128 111.55 91.0989 111.96 86.2816 113.253Z" fill="white"/>
<path d="M108.654 120.647C103.642 131.012 98.9578 139.267 98.1356 137.835C97.2662 137.305 100.493 129.094 105.506 118.729C110.519 108.364 115.105 101.608 115.974 102.137C116.844 102.667 113.667 110.281 108.654 120.647Z" fill="white"/>
<path d="M90.9877 141.356C86.2387 142.881 80.6499 146.655 80.5429 145.787C80.436 144.919 85.8514 139.738 90.6004 138.213C95.3494 136.687 99.2859 136.155 99.3929 137.023C99.4998 137.891 95.7367 139.831 90.9877 141.356Z" fill="white"/>
<path d="M105.994 134.907C101.86 145.653 97.8782 154.269 96.9399 152.91C96.0295 152.454 98.563 144.004 102.697 133.258C106.831 122.511 110.84 115.398 111.751 115.853C112.661 116.309 110.128 124.161 105.994 134.907Z" fill="white"/>
<path d="M90.1083 157.013C85.5025 158.927 80.2465 163.153 80.0678 162.296C79.8891 161.44 84.8553 155.827 89.4611 153.913C94.067 151.998 97.9457 151.14 98.1244 151.996C98.3031 152.853 94.7142 155.098 90.1083 157.013Z" fill="white"/>
<path d="M130.255 195.093C134.991 194.842 141.209 196.21 141.021 195.446C140.834 194.682 134.31 192.076 129.575 192.327C124.84 192.578 121.332 193.641 121.52 194.405C121.04 194.857 125.52 195.344 130.255 195.093Z" fill="white"/>
<path d="M1051.62 77.2999C1050.08 84.109 1047.63 82.9744 1037.39 79.0942C1027.14 75.2139 1013.37 63.3852 1014.9 56.5761C1016.44 49.767 1025.99 47.3926 1036.23 51.2729C1046.48 55.1531 1053.15 70.4907 1051.62 77.2999Z" fill="white"/>
<path d="M1050.92 103.551C1049.19 116.508 1038.85 131.856 1031.63 131.631C1024.41 131.406 1027.18 115.823 1028.91 102.865C1030.64 89.9079 1037.9 79.5861 1045.11 79.811C1052.33 80.0358 1052.65 90.5936 1050.92 103.551Z" fill="white"/>
<path d="M1050.26 137.682C1057.66 147.331 1063.81 172.732 1057.06 180.188C1050.3 187.645 1033.99 171.427 1026.59 161.778C1019.2 152.129 1018.68 138.262 1025.44 130.805C1032.19 123.349 1042.87 128.033 1050.26 137.682Z" fill="white"/>
<path d="M1046.52 28.8938C1039.97 37.8914 1032.77 61.0829 1034.27 50.5518C1033.82 50.3232 1037.67 37.2426 1043.01 29.9019C1048.35 22.5612 1056.81 17.5379 1057.26 17.7665C1057.71 17.9951 1051.86 21.553 1046.52 28.8938Z" fill="white"/>
<path d="M1052.93 38.7579C1046.38 47.7556 1025.02 63.7921 1035.53 57.8134C1035.98 58.042 1048.13 49.1567 1053.48 41.816C1058.82 34.4753 1060.26 25.9096 1059.81 25.681C1059.36 25.4524 1058.27 31.4172 1052.93 38.7579Z" fill="white"/>
<ellipse rx="2.48809" ry="11.1106" transform="matrix(0.214222 0.991149 -0.904137 0.389381 1029.31 155.784)" fill="white"/>
<path d="M1020.5 174.931C1019.67 184.079 1018.26 191.515 1016.73 190.579C1015.55 190.356 1015.4 183.27 1016.23 174.122C1017.07 164.974 1019.04 158.726 1020.22 158.949C1021.4 159.173 1021.34 165.783 1020.5 174.931Z" fill="white"/>
<path d="M1041.53 175.1C1042.78 186.39 1042.75 194.692 1041.76 194.708C1040.81 194.352 1039.1 186.443 1037.84 175.152C1036.59 163.862 1036.88 155.811 1037.9 155.797C1038.92 155.782 1040.27 163.81 1041.53 175.1Z" fill="white"/>
<path d="M1008.93 192.769C1004.11 193.442 998.105 196.183 998.148 195.31C998.191 194.436 1004.27 190.279 1009.09 189.606C1013.91 188.933 1017.78 189.096 1017.73 189.969C1017.69 190.843 1013.75 192.096 1008.93 192.769Z" fill="white"/>
<path d="M1029.03 95.0004C1018.54 99.751 1009.66 103.092 1009.94 101.465C1009.61 100.502 1017.35 96.2619 1027.84 91.5113C1038.33 86.7606 1046.17 84.509 1046.5 85.4725C1046.83 86.436 1039.52 90.2497 1029.03 95.0004Z" fill="white"/>
<path d="M1002.2 99.5917C997.573 97.7216 990.864 97.041 991.337 96.3059C991.811 95.5707 999.289 95.0594 1003.91 96.9294C1008.54 98.7995 1011.9 100.911 1011.43 101.647C1010.95 102.382 1006.82 101.462 1002.2 99.5917Z" fill="white"/>
<path d="M1032.51 104.208C1022.68 110.2 1014.27 114.597 1014.35 112.948C1013.91 112.032 1021.07 106.882 1030.91 100.889C1040.74 94.8971 1048.25 91.7067 1048.7 92.623C1049.14 93.5393 1042.34 98.2153 1032.51 104.208Z" fill="white"/>
<path d="M1006.28 113.253C1001.46 114.546 994.722 114.405 995.103 115.192C995.483 115.979 1002.84 117.397 1007.66 116.104C1012.48 114.811 1016.07 113.124 1015.69 112.337C1015.31 111.55 1011.1 111.96 1006.28 113.253Z" fill="white"/>
<path d="M1028.65 120.647C1023.64 131.012 1018.96 139.267 1018.14 137.835C1017.27 137.305 1020.49 129.094 1025.51 118.729C1030.52 108.364 1035.1 101.608 1035.97 102.137C1036.84 102.667 1033.67 110.281 1028.65 120.647Z" fill="white"/>
<path d="M1010.99 141.356C1006.24 142.881 1000.65 146.655 1000.54 145.787C1000.44 144.919 1005.85 139.738 1010.6 138.213C1015.35 136.687 1019.29 136.155 1019.39 137.023C1019.5 137.891 1015.74 139.831 1010.99 141.356Z" fill="white"/>
<path d="M1025.99 134.907C1021.86 145.653 1017.88 154.269 1016.94 152.91C1016.03 152.454 1018.56 144.004 1022.7 133.258C1026.83 122.511 1030.84 115.398 1031.75 115.853C1032.66 116.309 1030.13 124.161 1025.99 134.907Z" fill="white"/>
<path d="M1010.11 157.013C1005.5 158.927 1000.25 163.153 1000.07 162.296C999.889 161.44 1004.86 155.827 1009.46 153.913C1014.07 151.998 1017.95 151.14 1018.12 151.996C1018.3 152.853 1014.71 155.098 1010.11 157.013Z" fill="white"/>
<path d="M1050.26 195.093C1054.99 194.842 1061.21 196.21 1061.02 195.446C1060.83 194.682 1054.31 192.076 1049.58 192.327C1044.84 192.578 1041.33 193.641 1041.52 194.405C1041.04 194.857 1045.52 195.344 1050.26 195.093Z" fill="white"/>
<path d="M849.789 111.935C843.528 115.02 842.871 112.401 839.453 101.992C836.035 91.5828 836.587 73.438 842.848 70.3528C849.108 67.2676 856.954 73.2048 860.372 83.6139C863.79 94.0229 856.049 108.85 849.789 111.935Z" fill="white"/>
<path d="M828.927 127.887C817.759 134.681 799.319 136.274 794.959 130.517C790.599 124.76 804.463 117.124 815.631 110.33C826.8 103.537 839.389 102.697 843.749 108.454C848.109 114.211 840.096 121.094 828.927 127.887Z" fill="white"/>
<path d="M820.264 137.682C827.658 147.331 833.812 172.732 827.057 180.188C820.301 187.645 803.988 171.427 796.595 161.778C789.201 152.129 788.683 138.262 795.439 130.805C802.194 123.349 812.87 128.033 820.264 137.682Z" fill="white"/>
<path d="M884.249 77.5577C873.133 78.1143 850.568 87.0838 859.706 81.6383C859.6 81.1426 872.192 75.9155 881.26 75.4614C890.329 75.0072 899.547 78.4268 899.653 78.9224C899.759 79.4181 893.317 77.1036 884.249 77.5577Z" fill="white"/>
<path d="M880.596 88.7406C869.48 89.2973 843.586 82.7553 854.842 87.179C854.949 87.6746 869.493 91.5424 878.561 91.0883C887.63 90.6342 895.199 86.3743 895.093 85.8788C894.987 85.3832 889.664 88.2865 880.596 88.7406Z" fill="white"/>
<ellipse rx="2.48809" ry="11.1106" transform="matrix(0.214222 0.991149 -0.904137 0.389381 799.312 155.784)" fill="white"/>
<path d="M790.502 174.931C789.669 184.079 788.256 191.515 786.727 190.579C785.549 190.356 785.401 183.27 786.234 174.122C787.067 164.974 789.041 158.726 790.22 158.949C791.398 159.173 791.335 165.783 790.502 174.931Z" fill="white"/>
<path d="M811.528 175.1C812.784 186.39 812.755 194.692 811.755 194.708C810.808 194.352 809.098 186.443 807.842 175.152C806.585 163.862 806.884 155.811 807.902 155.797C808.92 155.782 810.272 163.81 811.528 175.1Z" fill="white"/>
<path d="M778.929 192.769C774.11 193.442 768.105 196.183 768.148 195.31C768.191 194.436 774.266 190.279 779.086 189.606C783.905 188.933 787.777 189.096 787.734 189.969C787.691 190.843 783.749 192.096 778.929 192.769Z" fill="white"/>
<path d="M825.19 105.482C814.905 100.307 806.725 95.494 808.17 94.6945C808.713 93.8335 816.872 97.1892 827.157 102.364C837.442 107.54 844.125 112.232 843.582 113.093C843.039 113.954 835.476 110.658 825.19 105.482Z" fill="white"/>
<path d="M804.764 87.4925C803.314 82.7201 799.629 77.0726 800.498 76.9793C801.368 76.886 806.463 82.3823 807.913 87.1547C809.364 91.9271 809.834 95.8715 808.965 95.9648C808.095 96.0581 806.214 92.2649 804.764 87.4925Z" fill="white"/>
<path d="M820.215 113.978C809.376 110.094 800.671 106.312 802.008 105.343C802.442 104.422 810.949 106.759 821.788 110.644C832.627 114.529 839.831 118.372 839.397 119.293C838.962 120.213 831.054 117.863 820.215 113.978Z" fill="white"/>
<path d="M796.699 99.2505C792.666 96.315 788.541 90.9807 788.167 91.7715C787.794 92.5624 791.314 99.179 795.347 102.114C799.379 105.05 802.951 106.789 803.325 105.998C803.698 105.207 800.732 102.186 796.699 99.2505Z" fill="white"/>
<path d="M805 121.301C793.786 123.913 784.421 125.455 785.018 123.916C784.884 122.907 793.3 120.259 804.513 117.647C815.727 115.035 823.864 114.358 823.999 115.367C824.133 116.377 816.213 118.689 805 121.301Z" fill="white"/>
<path d="M777.786 120.567C773.616 117.83 767.169 115.853 767.777 115.225C768.385 114.596 775.818 115.554 779.989 118.291C784.159 121.028 787.046 123.756 786.438 124.384C785.83 125.013 781.956 123.304 777.786 120.567Z" fill="white"/>
<path d="M792.235 128.191C781.278 131.726 772.073 134.041 772.541 132.457C772.323 131.463 780.489 128.125 791.447 124.59C802.405 121.055 810.458 119.705 810.676 120.7C810.893 121.694 803.193 124.657 792.235 128.191Z" fill="white"/>
<path d="M765.058 129.722C760.675 127.341 754.086 125.906 754.64 125.229C755.194 124.553 762.681 124.89 767.064 127.27C771.447 129.651 774.551 132.13 773.997 132.807C773.443 133.484 769.441 132.102 765.058 129.722Z" fill="white"/>
<path d="M820.255 195.093C824.991 194.842 831.209 196.21 831.021 195.446C830.834 194.682 824.31 192.076 819.575 192.327C814.84 192.578 811.332 193.641 811.52 194.405C811.04 194.857 815.52 195.344 820.255 195.093Z" fill="white"/>
<path d="M591.616 77.2999C590.083 84.109 587.633 82.9744 577.387 79.0942C567.141 75.2139 553.371 63.3852 554.904 56.5761C556.437 49.767 565.985 47.3926 576.231 51.2729C586.477 55.1531 593.149 70.4907 591.616 77.2999Z" fill="white"/>
<path d="M590.923 103.551C589.191 116.508 578.847 131.856 571.628 131.631C564.41 131.406 567.178 115.823 568.91 102.865C570.641 89.9079 577.896 79.5861 585.115 79.811C592.333 80.0358 592.654 90.5936 590.923 103.551Z" fill="white"/>
<path d="M590.264 137.682C597.658 147.331 603.812 172.732 597.057 180.188C590.301 187.645 573.988 171.427 566.595 161.778C559.201 152.129 558.683 138.262 565.439 130.805C572.194 123.349 582.87 128.033 590.264 137.682Z" fill="white"/>
<path d="M586.519 28.8938C579.969 37.8914 572.77 61.0829 574.275 50.5518C573.822 50.3232 577.666 37.2426 583.01 29.9019C588.354 22.5612 596.806 17.5379 597.258 17.7665C597.711 17.9951 591.863 21.553 586.519 28.8938Z" fill="white"/>
<path d="M592.927 38.7579C586.377 47.7556 565.019 63.7921 575.533 57.8134C575.985 58.042 588.131 49.1567 593.475 41.816C598.819 34.4753 600.261 25.9096 599.808 25.681C599.356 25.4524 598.271 31.4172 592.927 38.7579Z" fill="white"/>
<ellipse rx="2.48809" ry="11.1106" transform="matrix(0.214222 0.991149 -0.904137 0.389381 569.312 155.784)" fill="white"/>
<path d="M560.502 174.931C559.669 184.079 558.256 191.515 556.727 190.579C555.549 190.356 555.401 183.27 556.234 174.122C557.067 164.974 559.041 158.726 560.22 158.949C561.398 159.173 561.335 165.783 560.502 174.931Z" fill="white"/>
<path d="M581.528 175.1C582.784 186.39 582.755 194.692 581.755 194.708C580.808 194.352 579.098 186.443 577.842 175.152C576.585 163.862 576.884 155.811 577.902 155.797C578.92 155.782 580.272 163.81 581.528 175.1Z" fill="white"/>
<path d="M548.929 192.769C544.11 193.442 538.105 196.183 538.148 195.31C538.191 194.436 544.266 190.279 549.086 189.606C553.905 188.933 557.777 189.096 557.734 189.969C557.691 190.843 553.749 192.096 548.929 192.769Z" fill="white"/>
<path d="M569.027 95.0004C558.539 99.751 549.655 103.092 549.941 101.465C549.612 100.502 557.349 96.2619 567.837 91.5113C578.325 86.7606 586.174 84.509 586.503 85.4725C586.832 86.436 579.516 90.2497 569.027 95.0004Z" fill="white"/>
<path d="M542.197 99.5917C537.573 97.7216 530.864 97.041 531.337 96.3059C531.811 95.5707 539.289 95.0594 543.913 96.9294C548.537 98.7995 551.901 100.911 551.427 101.647C550.954 102.382 546.821 101.462 542.197 99.5917Z" fill="white"/>
<path d="M572.512 104.208C562.681 110.2 554.269 114.597 554.355 112.948C553.911 112.032 561.074 106.882 570.906 100.889C580.738 94.8971 588.254 91.7067 588.698 92.623C589.141 93.5393 582.344 98.2153 572.512 104.208Z" fill="white"/>
<path d="M546.282 113.253C541.464 114.546 534.722 114.405 535.103 115.192C535.483 115.979 542.843 117.397 547.66 116.104C552.478 114.811 556.074 113.124 555.693 112.337C555.313 111.55 551.099 111.96 546.282 113.253Z" fill="white"/>
<path d="M568.654 120.647C563.642 131.012 558.958 139.267 558.136 137.835C557.266 137.305 560.493 129.094 565.506 118.729C570.519 108.364 575.105 101.608 575.974 102.137C576.844 102.667 573.667 110.281 568.654 120.647Z" fill="white"/>
<path d="M550.988 141.356C546.239 142.881 540.65 146.655 540.543 145.787C540.436 144.919 545.851 139.738 550.6 138.213C555.349 136.687 559.286 136.155 559.393 137.023C559.5 137.891 555.737 139.831 550.988 141.356Z" fill="white"/>
<path d="M565.994 134.907C561.86 145.653 557.878 154.269 556.94 152.91C556.03 152.454 558.563 144.004 562.697 133.258C566.831 122.511 570.84 115.398 571.751 115.853C572.661 116.309 570.128 124.161 565.994 134.907Z" fill="white"/>
<path d="M550.108 157.013C545.502 158.927 540.247 163.153 540.068 162.296C539.889 161.44 544.855 155.827 549.461 153.913C554.067 151.998 557.946 151.14 558.124 151.996C558.303 152.853 554.714 155.098 550.108 157.013Z" fill="white"/>
<path d="M590.255 195.093C594.991 194.842 601.209 196.21 601.021 195.446C600.834 194.682 594.31 192.076 589.575 192.327C584.84 192.578 581.332 193.641 581.52 194.405C581.04 194.857 585.52 195.344 590.255 195.093Z" fill="white"/>
<path d="M389.789 111.935C383.528 115.02 382.871 112.401 379.453 101.992C376.035 91.5828 376.587 73.438 382.848 70.3528C389.108 67.2676 396.954 73.2048 400.372 83.6139C403.79 94.0229 396.049 108.85 389.789 111.935Z" fill="white"/>
<path d="M368.927 127.887C357.759 134.681 339.319 136.274 334.959 130.517C330.599 124.76 344.463 117.124 355.631 110.33C366.8 103.537 379.389 102.697 383.749 108.454C388.109 114.211 380.096 121.094 368.927 127.887Z" fill="white"/>
<path d="M360.264 137.682C367.658 147.331 373.812 172.732 367.057 180.188C360.301 187.645 343.988 171.427 336.595 161.778C329.201 152.129 328.683 138.262 335.439 130.805C342.194 123.349 352.87 128.033 360.264 137.682Z" fill="white"/>
<path d="M424.249 77.5577C413.133 78.1143 390.568 87.0838 399.706 81.6383C399.6 81.1426 412.192 75.9155 421.26 75.4614C430.329 75.0072 439.547 78.4268 439.653 78.9224C439.759 79.4181 433.317 77.1036 424.249 77.5577Z" fill="white"/>
<path d="M420.596 88.7406C409.48 89.2973 383.586 82.7553 394.842 87.179C394.949 87.6746 409.493 91.5424 418.561 91.0883C427.63 90.6342 435.199 86.3743 435.093 85.8788C434.987 85.3832 429.664 88.2865 420.596 88.7406Z" fill="white"/>
<ellipse rx="2.48809" ry="11.1106" transform="matrix(0.214222 0.991149 -0.904137 0.389381 339.312 155.784)" fill="white"/>
<path d="M330.502 174.931C329.669 184.079 328.256 191.515 326.727 190.579C325.549 190.356 325.401 183.27 326.234 174.122C327.067 164.974 329.041 158.726 330.22 158.949C331.398 159.173 331.335 165.783 330.502 174.931Z" fill="white"/>
<path d="M351.528 175.1C352.784 186.39 352.755 194.692 351.755 194.708C350.808 194.352 349.098 186.443 347.842 175.152C346.585 163.862 346.884 155.811 347.902 155.797C348.92 155.782 350.272 163.81 351.528 175.1Z" fill="white"/>
<path d="M318.929 192.769C314.11 193.442 308.105 196.183 308.148 195.31C308.191 194.436 314.266 190.279 319.086 189.606C323.905 188.933 327.777 189.096 327.734 189.969C327.691 190.843 323.749 192.096 318.929 192.769Z" fill="white"/>
<path d="M365.19 105.482C354.905 100.307 346.725 95.494 348.17 94.6945C348.713 93.8335 356.872 97.1892 367.157 102.364C377.442 107.54 384.125 112.232 383.582 113.093C383.039 113.954 375.476 110.658 365.19 105.482Z" fill="white"/>
<path d="M344.764 87.4925C343.314 82.7201 339.629 77.0726 340.498 76.9793C341.368 76.886 346.463 82.3823 347.913 87.1547C349.364 91.9271 349.834 95.8715 348.965 95.9648C348.095 96.0581 346.214 92.2649 344.764 87.4925Z" fill="white"/>
<path d="M360.215 113.978C349.376 110.094 340.671 106.312 342.008 105.343C342.442 104.422 350.949 106.759 361.788 110.644C372.627 114.529 379.831 118.372 379.397 119.293C378.962 120.213 371.054 117.863 360.215 113.978Z" fill="white"/>
<path d="M336.699 99.2505C332.666 96.315 328.541 90.9807 328.167 91.7715C327.794 92.5624 331.314 99.179 335.347 102.114C339.379 105.05 342.951 106.789 343.325 105.998C343.698 105.207 340.732 102.186 336.699 99.2505Z" fill="white"/>
<path d="M345 121.301C333.786 123.913 324.421 125.455 325.018 123.916C324.884 122.907 333.3 120.259 344.513 117.647C355.727 115.035 363.864 114.358 363.999 115.367C364.133 116.377 356.213 118.689 345 121.301Z" fill="white"/>
<path d="M317.786 120.567C313.616 117.83 307.169 115.853 307.777 115.225C308.385 114.596 315.818 115.554 319.989 118.291C324.159 121.028 327.046 123.756 326.438 124.384C325.83 125.013 321.956 123.304 317.786 120.567Z" fill="white"/>
<path d="M332.235 128.191C321.278 131.726 312.073 134.041 312.541 132.457C312.323 131.463 320.489 128.125 331.447 124.59C342.405 121.055 350.458 119.705 350.676 120.7C350.893 121.694 343.193 124.657 332.235 128.191Z" fill="white"/>
<path d="M305.058 129.722C300.675 127.341 294.086 125.906 294.64 125.229C295.194 124.553 302.681 124.89 307.064 127.27C311.447 129.651 314.551 132.13 313.997 132.807C313.443 133.484 309.441 132.102 305.058 129.722Z" fill="white"/>
<path d="M360.255 195.093C364.991 194.842 371.209 196.21 371.021 195.446C370.834 194.682 364.31 192.076 359.575 192.327C354.84 192.578 351.332 193.641 351.52 194.405C351.04 194.857 355.52 195.344 360.255 195.093Z" fill="white"/>
</svg>
