<svg width="1150" height="230" viewBox="0 0 1150 230" fill="none" xmlns="http://www.w3.org/2000/svg">
<path d="M132.471 80.3828C130.661 87.1236 128.26 85.8898 118.181 81.5941C108.102 77.2984 94.827 64.9168 96.6369 58.176C98.4468 51.4352 108.084 49.4531 118.163 53.7488C128.241 58.0445 134.281 73.642 132.471 80.3828Z" fill="white"/>
<path d="M130.923 104.41C129.191 117.368 118.847 132.715 111.628 132.49C104.41 132.265 107.178 116.682 108.91 103.725C110.641 90.7673 117.896 80.4455 125.115 80.6704C132.333 80.8952 132.654 91.453 130.923 104.41Z" fill="white"/>
<path d="M130.264 138.541C137.658 148.19 143.812 173.59 137.057 181.047C130.301 188.503 113.988 172.285 106.595 162.636C99.2008 152.987 98.6833 139.12 105.439 131.664C112.194 124.207 122.87 128.892 130.264 138.541Z" fill="white"/>
<path d="M129.355 31.8078C122.443 40.5302 114.303 63.4082 116.236 52.9474C115.794 52.7005 120.169 39.7879 125.809 32.6717C131.448 25.5555 140.098 20.8818 140.541 21.1287C140.983 21.3756 134.995 24.6916 129.355 31.8078Z" fill="white"/>
<path d="M135.359 41.9249C128.446 50.6473 106.45 65.7975 117.2 60.2535C117.642 60.5004 130.142 52.119 135.781 45.0028C141.421 37.8866 143.211 29.387 142.768 29.1401C142.326 28.8932 140.998 34.8087 135.359 41.9249Z" fill="white"/>
<ellipse rx="2.48809" ry="11.1106" transform="matrix(0.214222 0.991149 -0.904137 0.389381 111.577 153.417)" fill="white"/>
<path d="M83.0812 158.757C71.7281 158.476 62.4125 157.566 63.3814 156.102C63.5157 155 72.2147 154.484 83.5678 154.764C94.9208 155.045 102.843 156.536 102.708 157.639C102.574 158.741 94.4342 159.037 83.0812 158.757Z" fill="white"/>
<path d="M132.16 175.286C133.252 186.748 133.102 195.161 132.102 195.161C131.16 194.785 129.565 186.742 128.474 175.28C127.382 163.818 127.798 155.663 128.816 155.665C129.834 155.666 131.069 163.824 132.16 175.286Z" fill="white"/>
<path d="M59.1947 149.207C57.343 144.762 53.0901 139.727 53.9938 139.537C54.8976 139.348 60.6158 144.076 62.4675 148.521C64.3192 152.966 65.0877 156.723 64.1839 156.912C63.2802 157.102 61.0464 153.652 59.1947 149.207Z" fill="white"/>
<path d="M107.414 98.2727C96.0228 99.9523 86.5623 100.718 87.2848 99.2331C87.2341 98.2163 95.8392 96.2704 107.23 94.5907C118.621 92.9111 126.786 92.9074 126.837 93.9241C126.887 94.9408 118.804 96.593 107.414 98.2727Z" fill="white"/>
<path d="M80.3565 95.3003C76.4259 92.2295 70.1633 89.7281 70.8211 89.1518C71.4789 88.5754 78.8081 90.1425 82.7387 93.2133C86.6692 96.2841 89.3222 99.2406 88.6644 99.817C88.0065 100.393 84.287 98.3711 80.3565 95.3003Z" fill="white"/>
<path d="M113.059 101.228C106.088 110.391 99.8582 117.552 99.3367 115.986C98.5897 115.294 103.383 107.887 110.354 98.7231C117.324 89.5593 123.161 83.8486 123.908 84.5402C124.655 85.2318 120.03 92.0638 113.059 101.228Z" fill="white"/>
<path d="M91.6351 118.017C86.6779 118.569 80.451 121.158 80.5186 120.286C80.5861 119.414 86.9224 115.411 91.8796 114.86C96.8368 114.308 100.801 114.567 100.733 115.439C100.666 116.311 96.5924 117.465 91.6351 118.017Z" fill="white"/>
<path d="M118.29 109.821C112.511 119.779 107.219 127.658 106.507 126.168C105.68 125.575 109.516 117.63 115.295 107.672C121.075 97.7136 126.157 91.3225 126.984 91.916C127.811 92.5095 124.07 99.8628 118.29 109.821Z" fill="white"/>
<path d="M99.117 129.14C94.2666 130.303 88.4094 133.646 88.3681 132.772C88.3269 131.898 94.1172 127.14 98.9676 125.977C103.818 124.814 107.783 124.579 107.825 125.453C107.866 126.326 103.967 127.977 99.117 129.14Z" fill="white"/>
<path d="M115.065 121.275C109.552 131.383 104.471 139.4 103.72 137.93C102.877 137.358 106.501 129.315 112.014 119.206C117.526 109.098 122.437 102.574 123.279 103.145C124.122 103.716 120.577 111.167 115.065 121.275Z" fill="white"/>
<path d="M96.4086 141.098C91.5908 142.389 85.8245 145.886 85.76 145.014C85.6955 144.141 91.3574 139.231 96.1751 137.939C100.993 136.648 104.951 136.308 105.015 137.18C105.08 138.052 101.226 139.806 96.4086 141.098Z" fill="white"/>
<path d="M141.244 195.642C146.244 195.377 152.788 196.727 152.6 195.963C152.412 195.199 145.564 192.611 140.563 192.876C135.563 193.141 131.847 194.215 132.035 194.979C131.522 195.432 136.243 195.907 141.244 195.642Z" fill="white"/>
<path d="M1052.47 80.3828C1050.66 87.1236 1048.26 85.8898 1038.18 81.5941C1028.1 77.2984 1014.83 64.9168 1016.64 58.176C1018.45 51.4352 1028.08 49.4531 1038.16 53.7488C1048.24 58.0445 1054.28 73.642 1052.47 80.3828Z" fill="white"/>
<path d="M1050.92 104.41C1049.19 117.368 1038.85 132.715 1031.63 132.49C1024.41 132.265 1027.18 116.682 1028.91 103.725C1030.64 90.7673 1037.9 80.4455 1045.11 80.6704C1052.33 80.8952 1052.65 91.453 1050.92 104.41Z" fill="white"/>
<path d="M1050.26 138.541C1057.66 148.19 1063.81 173.59 1057.06 181.047C1050.3 188.503 1033.99 172.285 1026.59 162.636C1019.2 152.987 1018.68 139.12 1025.44 131.664C1032.19 124.207 1042.87 128.892 1050.26 138.541Z" fill="white"/>
<path d="M1049.36 31.8078C1042.44 40.5302 1034.3 63.4082 1036.24 52.9474C1035.79 52.7005 1040.17 39.7879 1045.81 32.6717C1051.45 25.5555 1060.1 20.8818 1060.54 21.1287C1060.98 21.3756 1054.99 24.6916 1049.36 31.8078Z" fill="white"/>
<path d="M1055.36 41.9249C1048.45 50.6473 1026.45 65.7975 1037.2 60.2535C1037.64 60.5004 1050.14 52.119 1055.78 45.0028C1061.42 37.8866 1063.21 29.387 1062.77 29.1401C1062.33 28.8932 1061 34.8087 1055.36 41.9249Z" fill="white"/>
<ellipse rx="2.48809" ry="11.1106" transform="matrix(0.214222 0.991149 -0.904137 0.389381 1031.58 153.417)" fill="white"/>
<path d="M1003.08 158.757C991.728 158.476 982.412 157.566 983.381 156.102C983.516 155 992.215 154.484 1003.57 154.764C1014.92 155.045 1022.84 156.536 1022.71 157.639C1022.57 158.741 1014.43 159.037 1003.08 158.757Z" fill="white"/>
<path d="M1052.16 175.286C1053.25 186.748 1053.1 195.161 1052.1 195.161C1051.16 194.785 1049.57 186.742 1048.47 175.28C1047.38 163.818 1047.8 155.663 1048.82 155.665C1049.83 155.666 1051.07 163.824 1052.16 175.286Z" fill="white"/>
<path d="M979.195 149.207C977.343 144.762 973.09 139.727 973.994 139.537C974.898 139.348 980.616 144.076 982.468 148.521C984.319 152.966 985.088 156.723 984.184 156.912C983.28 157.102 981.046 153.652 979.195 149.207Z" fill="white"/>
<path d="M1027.41 98.2727C1016.02 99.9523 1006.56 100.718 1007.28 99.2331C1007.23 98.2163 1015.84 96.2704 1027.23 94.5907C1038.62 92.9111 1046.79 92.9074 1046.84 93.9241C1046.89 94.9408 1038.8 96.593 1027.41 98.2727Z" fill="white"/>
<path d="M1000.36 95.3003C996.426 92.2295 990.163 89.7281 990.821 89.1518C991.479 88.5754 998.808 90.1425 1002.74 93.2133C1006.67 96.2841 1009.32 99.2406 1008.66 99.817C1008.01 100.393 1004.29 98.3711 1000.36 95.3003Z" fill="white"/>
<path d="M1033.06 101.228C1026.09 110.391 1019.86 117.552 1019.34 115.986C1018.59 115.294 1023.38 107.887 1030.35 98.7231C1037.32 89.5593 1043.16 83.8486 1043.91 84.5402C1044.65 85.2318 1040.03 92.0638 1033.06 101.228Z" fill="white"/>
<path d="M1011.64 118.017C1006.68 118.569 1000.45 121.158 1000.52 120.286C1000.59 119.414 1006.92 115.411 1011.88 114.86C1016.84 114.308 1020.8 114.567 1020.73 115.439C1020.67 116.311 1016.59 117.465 1011.64 118.017Z" fill="white"/>
<path d="M1038.29 109.821C1032.51 119.779 1027.22 127.658 1026.51 126.168C1025.68 125.575 1029.52 117.63 1035.3 107.672C1041.07 97.7136 1046.16 91.3225 1046.98 91.916C1047.81 92.5095 1044.07 99.8628 1038.29 109.821Z" fill="white"/>
<path d="M1019.12 129.14C1014.27 130.303 1008.41 133.646 1008.37 132.772C1008.33 131.898 1014.12 127.14 1018.97 125.977C1023.82 124.814 1027.78 124.579 1027.82 125.453C1027.87 126.326 1023.97 127.977 1019.12 129.14Z" fill="white"/>
<path d="M1035.06 121.275C1029.55 131.383 1024.47 139.4 1023.72 137.93C1022.88 137.358 1026.5 129.315 1032.01 119.206C1037.53 109.098 1042.44 102.574 1043.28 103.145C1044.12 103.716 1040.58 111.167 1035.06 121.275Z" fill="white"/>
<path d="M1016.41 141.098C1011.59 142.389 1005.82 145.886 1005.76 145.014C1005.7 144.141 1011.36 139.231 1016.18 137.939C1020.99 136.648 1024.95 136.308 1025.02 137.18C1025.08 138.052 1021.23 139.806 1016.41 141.098Z" fill="white"/>
<path d="M1061.24 195.642C1066.24 195.377 1072.79 196.727 1072.6 195.963C1072.41 195.199 1065.56 192.611 1060.56 192.876C1055.56 193.141 1051.85 194.215 1052.04 194.979C1051.52 195.432 1056.24 195.907 1061.24 195.642Z" fill="white"/>
<path d="M822.471 80.3828C820.661 87.1236 818.26 85.8898 808.181 81.5941C798.102 77.2984 784.827 64.9168 786.637 58.176C788.447 51.4352 798.084 49.4531 808.163 53.7488C818.241 58.0445 824.281 73.642 822.471 80.3828Z" fill="white"/>
<path d="M820.923 104.41C819.191 117.368 808.847 132.715 801.628 132.49C794.41 132.265 797.178 116.682 798.91 103.725C800.641 90.7673 807.896 80.4455 815.115 80.6704C822.333 80.8952 822.654 91.453 820.923 104.41Z" fill="white"/>
<path d="M820.264 138.541C827.658 148.19 833.812 173.59 827.057 181.047C820.301 188.503 803.988 172.285 796.595 162.636C789.201 152.987 788.683 139.12 795.439 131.664C802.194 124.207 812.87 128.892 820.264 138.541Z" fill="white"/>
<path d="M812.063 31.0713C808.101 41.4719 807.237 65.7396 805.927 55.1825C805.431 55.0805 805.71 41.4497 808.941 32.9644C812.173 24.4791 819.011 17.4149 819.508 17.5169C820.004 17.6188 815.294 22.586 812.063 31.0713Z" fill="white"/>
<path d="M827.099 49.3571C817.307 54.6477 791.12 59.8984 803.185 59.0416C803.494 59.443 818.285 56.6686 826.274 52.3524C834.262 48.0362 839.259 40.9309 838.949 40.5295C838.64 40.1281 835.087 45.0409 827.099 49.3571Z" fill="white"/>
<ellipse rx="2.48809" ry="11.1106" transform="matrix(0.214222 0.991149 -0.904137 0.389381 801.577 153.418)" fill="white"/>
<path d="M773.085 158.758C761.732 158.477 752.416 157.567 753.385 156.103C753.52 155.001 762.219 154.484 773.572 154.765C784.925 155.046 792.846 156.537 792.712 157.64C792.578 158.742 784.438 159.038 773.085 158.758Z" fill="white"/>
<path d="M822.16 175.286C823.252 186.748 823.102 195.161 822.102 195.161C821.16 194.785 819.565 186.742 818.474 175.28C817.382 163.818 817.798 155.663 818.816 155.665C819.834 155.666 821.069 163.824 822.16 175.286Z" fill="white"/>
<path d="M746.612 160.387C741.988 161.731 736.51 165.396 736.422 164.477C736.335 163.557 741.672 158.403 746.296 157.059C750.92 155.715 754.739 155.37 754.826 156.289C754.914 157.209 751.236 159.043 746.612 160.387Z" fill="white"/>
<path d="M797.414 98.2727C786.023 99.9523 776.562 100.718 777.285 99.2331C777.234 98.2163 785.839 96.2704 797.23 94.5907C808.621 92.9111 816.786 92.9074 816.837 93.9241C816.887 94.9408 808.804 96.593 797.414 98.2727Z" fill="white"/>
<path d="M770.356 95.3003C766.426 92.2295 760.163 89.7281 760.821 89.1518C761.479 88.5754 768.808 90.1425 772.739 93.2133C776.669 96.2841 779.322 99.2406 778.664 99.817C778.007 100.393 774.287 98.3711 770.356 95.3003Z" fill="white"/>
<path d="M803.059 101.229C796.088 110.392 789.858 117.553 789.337 115.987C788.59 115.295 793.383 107.888 800.354 98.7241C807.324 89.5603 813.161 83.8496 813.908 84.5411C814.655 85.2327 810.03 92.0648 803.059 101.229Z" fill="white"/>
<path d="M781.635 118.018C776.678 118.57 770.451 121.159 770.519 120.287C770.586 119.415 776.922 115.412 781.88 114.861C786.837 114.309 790.801 114.568 790.733 115.44C790.666 116.312 786.592 117.466 781.635 118.018Z" fill="white"/>
<path d="M808.294 109.822C802.515 119.78 797.223 127.659 796.511 126.169C795.684 125.576 799.52 117.631 805.299 107.673C811.079 97.7145 816.161 91.3235 816.988 91.917C817.815 92.5105 814.074 99.8638 808.294 109.822Z" fill="white"/>
<path d="M789.121 129.141C784.271 130.304 778.413 133.647 778.372 132.773C778.331 131.899 784.121 127.141 788.972 125.978C793.822 124.815 797.787 124.58 797.829 125.454C797.87 126.327 793.971 127.978 789.121 129.141Z" fill="white"/>
<path d="M805.065 121.276C799.552 131.384 794.471 139.401 793.72 137.931C792.877 137.359 796.501 129.316 802.014 119.207C807.526 109.099 812.437 102.575 813.279 103.146C814.122 103.717 810.577 111.168 805.065 121.276Z" fill="white"/>
<path d="M786.409 141.098C781.591 142.39 775.824 145.887 775.76 145.015C775.696 144.142 781.357 139.231 786.175 137.94C790.993 136.649 794.951 136.309 795.015 137.181C795.08 138.053 791.226 139.807 786.409 141.098Z" fill="white"/>
<path d="M831.244 195.642C836.244 195.377 842.788 196.727 842.6 195.963C842.412 195.199 835.564 192.611 830.563 192.876C825.563 193.141 821.847 194.215 822.035 194.979C821.522 195.432 826.243 195.907 831.244 195.642Z" fill="white"/>
<path d="M592.471 80.3828C590.661 87.1236 588.26 85.8898 578.181 81.5941C568.102 77.2984 554.827 64.9168 556.637 58.176C558.447 51.4352 568.084 49.4531 578.163 53.7488C588.241 58.0445 594.281 73.642 592.471 80.3828Z" fill="white"/>
<path d="M590.923 104.41C589.191 117.368 578.847 132.715 571.628 132.49C564.41 132.265 567.178 116.682 568.91 103.725C570.641 90.7673 577.896 80.4455 585.115 80.6704C592.333 80.8952 592.654 91.453 590.923 104.41Z" fill="white"/>
<path d="M590.264 138.541C597.658 148.19 603.812 173.59 597.057 181.047C590.301 188.503 573.988 172.285 566.595 162.636C559.201 152.987 558.683 139.12 565.439 131.664C572.194 124.207 582.87 128.892 590.264 138.541Z" fill="white"/>
<path d="M589.355 31.8078C582.443 40.5302 574.303 63.4082 576.236 52.9474C575.794 52.7005 580.169 39.7879 585.809 32.6717C591.448 25.5555 600.098 20.8818 600.541 21.1287C600.983 21.3756 594.995 24.6916 589.355 31.8078Z" fill="white"/>
<path d="M595.359 41.9249C588.446 50.6473 566.45 65.7975 577.2 60.2535C577.642 60.5004 590.142 52.119 595.781 45.0028C601.421 37.8866 603.211 29.387 602.768 29.1401C602.326 28.8932 600.998 34.8087 595.359 41.9249Z" fill="white"/>
<ellipse rx="2.48809" ry="11.1106" transform="matrix(0.214222 0.991149 -0.904137 0.389381 571.577 153.417)" fill="white"/>
<path d="M543.081 158.757C531.728 158.476 522.412 157.566 523.381 156.102C523.516 155 532.215 154.484 543.568 154.764C554.921 155.045 562.843 156.536 562.708 157.639C562.574 158.741 554.434 159.037 543.081 158.757Z" fill="white"/>
<path d="M592.16 175.286C593.252 186.748 593.102 195.161 592.102 195.161C591.16 194.785 589.565 186.742 588.474 175.28C587.382 163.818 587.798 155.663 588.816 155.665C589.834 155.666 591.069 163.824 592.16 175.286Z" fill="white"/>
<path d="M519.195 149.207C517.343 144.762 513.09 139.727 513.994 139.537C514.898 139.348 520.616 144.076 522.468 148.521C524.319 152.966 525.088 156.723 524.184 156.912C523.28 157.102 521.046 153.652 519.195 149.207Z" fill="white"/>
<path d="M567.414 98.2727C556.023 99.9523 546.562 100.718 547.285 99.2331C547.234 98.2163 555.839 96.2704 567.23 94.5907C578.621 92.9111 586.786 92.9074 586.837 93.9241C586.887 94.9408 578.804 96.593 567.414 98.2727Z" fill="white"/>
<path d="M540.356 95.3003C536.426 92.2295 530.163 89.7281 530.821 89.1518C531.479 88.5754 538.808 90.1425 542.739 93.2133C546.669 96.2841 549.322 99.2406 548.664 99.817C548.007 100.393 544.287 98.3711 540.356 95.3003Z" fill="white"/>
<path d="M573.059 101.228C566.088 110.391 559.858 117.552 559.337 115.986C558.59 115.294 563.383 107.887 570.354 98.7231C577.324 89.5593 583.161 83.8486 583.908 84.5402C584.655 85.2318 580.03 92.0638 573.059 101.228Z" fill="white"/>
<path d="M551.635 118.017C546.678 118.569 540.451 121.158 540.519 120.286C540.586 119.414 546.922 115.411 551.88 114.86C556.837 114.308 560.801 114.567 560.733 115.439C560.666 116.311 556.592 117.465 551.635 118.017Z" fill="white"/>
<path d="M578.29 109.821C572.511 119.779 567.219 127.658 566.507 126.168C565.68 125.575 569.516 117.63 575.295 107.672C581.075 97.7136 586.157 91.3225 586.984 91.916C587.811 92.5095 584.07 99.8628 578.29 109.821Z" fill="white"/>
<path d="M559.117 129.14C554.267 130.303 548.409 133.646 548.368 132.772C548.327 131.898 554.117 127.14 558.968 125.977C563.818 124.814 567.783 124.579 567.825 125.453C567.866 126.326 563.967 127.977 559.117 129.14Z" fill="white"/>
<path d="M575.065 121.275C569.552 131.383 564.471 139.4 563.72 137.93C562.877 137.358 566.501 129.315 572.014 119.206C577.526 109.098 582.437 102.574 583.279 103.145C584.122 103.716 580.577 111.167 575.065 121.275Z" fill="white"/>
<path d="M556.409 141.098C551.591 142.389 545.824 145.886 545.76 145.014C545.696 144.141 551.357 139.231 556.175 137.939C560.993 136.648 564.951 136.308 565.015 137.18C565.08 138.052 561.226 139.806 556.409 141.098Z" fill="white"/>
<path d="M601.244 195.642C606.244 195.377 612.788 196.727 612.6 195.963C612.412 195.199 605.564 192.611 600.563 192.876C595.563 193.141 591.847 194.215 592.035 194.979C591.522 195.432 596.243 195.907 601.244 195.642Z" fill="white"/>
<path d="M362.471 80.3828C360.661 87.1236 358.26 85.8898 348.181 81.5941C338.102 77.2984 324.827 64.9168 326.637 58.176C328.447 51.4352 338.084 49.4531 348.163 53.7488C358.241 58.0445 364.281 73.642 362.471 80.3828Z" fill="white"/>
<path d="M360.923 104.41C359.191 117.368 348.847 132.715 341.628 132.49C334.41 132.265 337.178 116.682 338.91 103.725C340.641 90.7673 347.896 80.4455 355.115 80.6704C362.333 80.8952 362.654 91.453 360.923 104.41Z" fill="white"/>
<path d="M360.264 138.541C367.658 148.19 373.812 173.59 367.057 181.047C360.301 188.503 343.988 172.285 336.595 162.636C329.201 152.987 328.683 139.12 335.439 131.664C342.194 124.207 352.87 128.892 360.264 138.541Z" fill="white"/>
<path d="M352.063 31.0713C348.101 41.4719 347.237 65.7396 345.927 55.1825C345.431 55.0805 345.71 41.4497 348.941 32.9644C352.173 24.4791 359.011 17.4149 359.508 17.5169C360.004 17.6188 355.294 22.586 352.063 31.0713Z" fill="white"/>
<path d="M367.099 49.3571C357.307 54.6477 331.12 59.8984 343.185 59.0416C343.494 59.443 358.285 56.6686 366.274 52.3524C374.262 48.0362 379.259 40.9309 378.949 40.5295C378.64 40.1281 375.087 45.0409 367.099 49.3571Z" fill="white"/>
<ellipse rx="2.48809" ry="11.1106" transform="matrix(0.214222 0.991149 -0.904137 0.389381 341.577 153.418)" fill="white"/>
<path d="M313.085 158.758C301.732 158.477 292.416 157.567 293.385 156.103C293.52 155.001 302.219 154.484 313.572 154.765C324.925 155.046 332.846 156.537 332.712 157.64C332.578 158.742 324.438 159.038 313.085 158.758Z" fill="white"/>
<path d="M362.16 175.286C363.252 186.748 363.102 195.161 362.102 195.161C361.16 194.785 359.565 186.742 358.474 175.28C357.382 163.818 357.798 155.663 358.816 155.665C359.834 155.666 361.069 163.824 362.16 175.286Z" fill="white"/>
<path d="M286.612 160.387C281.988 161.731 276.51 165.396 276.422 164.477C276.335 163.557 281.672 158.403 286.296 157.059C290.92 155.715 294.739 155.37 294.826 156.289C294.914 157.209 291.236 159.043 286.612 160.387Z" fill="white"/>
<path d="M337.414 98.2727C326.023 99.9523 316.562 100.718 317.285 99.2331C317.234 98.2163 325.839 96.2704 337.23 94.5907C348.621 92.9111 356.786 92.9074 356.837 93.9241C356.887 94.9408 348.804 96.593 337.414 98.2727Z" fill="white"/>
<path d="M310.356 95.3003C306.426 92.2295 300.163 89.7281 300.821 89.1518C301.479 88.5754 308.808 90.1425 312.739 93.2133C316.669 96.2841 319.322 99.2406 318.664 99.817C318.007 100.393 314.287 98.3711 310.356 95.3003Z" fill="white"/>
<path d="M343.059 101.229C336.088 110.392 329.858 117.553 329.337 115.987C328.59 115.295 333.383 107.888 340.354 98.7241C347.324 89.5603 353.161 83.8496 353.908 84.5411C354.655 85.2327 350.03 92.0648 343.059 101.229Z" fill="white"/>
<path d="M321.635 118.018C316.678 118.57 310.451 121.159 310.519 120.287C310.586 119.415 316.922 115.412 321.88 114.861C326.837 114.309 330.801 114.568 330.733 115.44C330.666 116.312 326.592 117.466 321.635 118.018Z" fill="white"/>
<path d="M348.294 109.822C342.515 119.78 337.223 127.659 336.511 126.169C335.684 125.576 339.52 117.631 345.299 107.673C351.079 97.7145 356.161 91.3235 356.988 91.917C357.815 92.5105 354.074 99.8638 348.294 109.822Z" fill="white"/>
<path d="M329.121 129.141C324.271 130.304 318.413 133.647 318.372 132.773C318.331 131.899 324.121 127.141 328.972 125.978C333.822 124.815 337.787 124.58 337.829 125.454C337.87 126.327 333.971 127.978 329.121 129.141Z" fill="white"/>
<path d="M345.065 121.276C339.552 131.384 334.471 139.401 333.72 137.931C332.877 137.359 336.501 129.316 342.014 119.207C347.526 109.099 352.437 102.575 353.279 103.146C354.122 103.717 350.577 111.168 345.065 121.276Z" fill="white"/>
<path d="M326.409 141.098C321.591 142.39 315.824 145.887 315.76 145.015C315.696 144.142 321.357 139.231 326.175 137.94C330.993 136.649 334.951 136.309 335.015 137.181C335.08 138.053 331.226 139.807 326.409 141.098Z" fill="white"/>
<path d="M371.244 195.642C376.244 195.377 382.788 196.727 382.6 195.963C382.412 195.199 375.564 192.611 370.563 192.876C365.563 193.141 361.847 194.215 362.035 194.979C361.522 195.432 366.243 195.907 371.244 195.642Z" fill="white"/>
</svg>
