<svg width="1150" height="230" viewBox="0 0 1150 230" fill="none" xmlns="http://www.w3.org/2000/svg">
<path d="M132.475 79.8564C130.665 86.5972 128.263 85.3634 118.185 81.0677C108.106 76.772 94.8309 64.3904 96.6408 57.6496C98.4507 50.9088 108.088 48.9267 118.167 53.2224C128.245 57.5182 134.285 73.1156 132.475 79.8564Z" fill="white"/>
<path d="M130.923 103.884C129.191 116.841 118.847 132.189 111.628 131.964C104.41 131.739 107.178 116.156 108.91 103.198C110.641 90.2409 117.896 79.9191 125.115 80.144C132.333 80.3688 132.654 90.9266 130.923 103.884Z" fill="white"/>
<path d="M130.268 138.015C137.662 147.664 143.816 173.065 137.06 180.521C130.305 187.978 113.992 171.76 106.598 162.111C99.2047 152.462 98.6872 138.595 105.443 131.138C112.198 123.682 122.874 128.366 130.268 138.015Z" fill="white"/>
<path d="M129.359 31.2824C122.447 40.0048 114.307 62.8828 116.24 52.422C115.798 52.1751 120.173 39.2625 125.812 32.1463C131.452 25.0301 140.102 20.3564 140.545 20.6033C140.987 20.8502 134.999 24.1662 129.359 31.2824Z" fill="white"/>
<path d="M135.359 41.3995C128.446 50.1219 106.45 65.2721 117.2 59.7281C117.642 59.975 130.142 51.5936 135.781 44.4774C141.421 37.3612 143.211 28.8616 142.768 28.6147C142.326 28.3678 140.998 34.2833 135.359 41.3995Z" fill="white"/>
<ellipse rx="2.48809" ry="11.1106" transform="matrix(0.214222 0.991149 -0.904137 0.389381 109.312 156.116)" fill="white"/>
<path d="M94.0859 177.743C89.6249 188.357 85.3814 196.847 84.4852 195.46C83.5891 194.977 86.3799 186.608 90.841 175.993C95.302 165.379 99.5267 158.391 100.423 158.874C101.319 159.357 98.547 167.128 94.0859 177.743Z" fill="white"/>
<path d="M132.16 174.761C133.252 186.223 133.102 194.636 132.102 194.636C131.16 194.26 129.565 186.217 128.474 174.754C127.382 163.292 127.798 155.138 128.816 155.139C129.834 155.141 131.069 163.298 132.16 174.761Z" fill="white"/>
<path d="M75.6682 195.926C70.7063 195.418 64.0729 196.633 64.3231 195.795C64.5733 194.957 71.6123 192.383 76.5742 192.891C81.5362 193.399 85.3558 194.49 85.1056 195.328C84.8554 196.166 80.6301 196.434 75.6682 195.926Z" fill="white"/>
<path d="M109.027 95.3324C98.5394 100.083 89.6553 103.424 89.941 101.797C89.6123 100.834 97.3492 96.594 107.837 91.8433C118.325 87.0926 126.174 84.841 126.503 85.8045C126.832 86.768 119.516 90.5817 109.027 95.3324Z" fill="white"/>
<path d="M82.197 99.9237C77.573 98.0537 70.8637 97.373 71.3374 96.6379C71.8112 95.9027 79.2886 95.3914 83.9126 97.2615C88.5366 99.1315 91.9011 101.243 91.4274 101.979C90.9536 102.714 86.8211 101.794 82.197 99.9237Z" fill="white"/>
<path d="M112.027 105.72C101.539 110.471 92.6553 113.811 92.941 112.185C92.6123 111.221 100.349 106.982 110.837 102.231C121.325 97.4803 129.174 95.2287 129.503 96.1922C129.832 97.1557 122.516 100.969 112.027 105.72Z" fill="white"/>
<path d="M85.197 110.311C80.573 108.441 73.8637 107.761 74.3374 107.026C74.8112 106.29 82.2886 105.779 86.9126 107.649C91.5366 109.519 94.9011 111.631 94.4274 112.366C93.9536 113.101 89.8211 112.181 85.197 110.311Z" fill="white"/>
<path d="M102.073 118.664C92.6655 125.302 84.5678 130.253 84.5427 128.602C84.0388 127.717 90.8406 122.099 100.249 115.461C109.657 108.823 116.942 105.136 117.446 106.021C117.95 106.905 111.481 112.026 102.073 118.664Z" fill="white"/>
<path d="M76.5846 128.218C71.6915 127.251 64.9738 127.843 65.3009 127.032C65.628 126.221 72.8759 124.313 77.7691 125.281C82.6622 126.248 86.3638 127.69 86.0367 128.501C85.7096 129.312 81.4777 129.185 76.5846 128.218Z" fill="white"/>
<path d="M102.107 130.98C93.8899 139.045 86.6946 145.235 86.404 143.609C85.7643 142.817 91.5734 136.177 99.7906 128.112C108.008 120.047 114.605 115.236 115.245 116.028C115.885 116.819 110.324 122.915 102.107 130.98Z" fill="white"/>
<path d="M78.4883 144.511C73.5033 144.344 66.9686 146.01 67.1609 145.157C67.3532 144.304 74.1997 141.254 79.1847 141.422C84.1698 141.589 88.055 142.416 87.8627 143.269C87.6705 144.123 83.4734 144.679 78.4883 144.511Z" fill="white"/>
<path d="M141.247 195.116C146.248 194.851 152.792 196.201 152.604 195.437C152.416 194.673 145.568 192.084 140.567 192.35C135.567 192.615 131.851 193.689 132.039 194.453C131.526 194.906 136.247 195.381 141.247 195.116Z" fill="white"/>
<path d="M1052.48 79.8564C1050.67 86.5972 1048.26 85.3634 1038.18 81.0677C1028.11 76.772 1014.83 64.3904 1016.64 57.6496C1018.45 50.9088 1028.09 48.9267 1038.17 53.2224C1048.25 57.5182 1054.29 73.1156 1052.48 79.8564Z" fill="white"/>
<path d="M1050.92 103.884C1049.19 116.841 1038.85 132.189 1031.63 131.964C1024.41 131.739 1027.18 116.156 1028.91 103.198C1030.64 90.2409 1037.9 79.9191 1045.11 80.144C1052.33 80.3688 1052.65 90.9266 1050.92 103.884Z" fill="white"/>
<path d="M1050.27 138.015C1057.66 147.664 1063.82 173.065 1057.06 180.521C1050.31 187.978 1033.99 171.76 1026.6 162.111C1019.2 152.462 1018.69 138.595 1025.44 131.138C1032.2 123.682 1042.87 128.366 1050.27 138.015Z" fill="white"/>
<path d="M1049.36 31.2824C1042.45 40.0048 1034.31 62.8828 1036.24 52.422C1035.8 52.1751 1040.17 39.2625 1045.81 32.1463C1051.45 25.0301 1060.1 20.3564 1060.54 20.6033C1060.99 20.8502 1055 24.1662 1049.36 31.2824Z" fill="white"/>
<path d="M1055.36 41.3995C1048.45 50.1219 1026.45 65.2721 1037.2 59.7281C1037.64 59.975 1050.14 51.5936 1055.78 44.4774C1061.42 37.3612 1063.21 28.8616 1062.77 28.6147C1062.33 28.3678 1061 34.2833 1055.36 41.3995Z" fill="white"/>
<ellipse rx="2.48809" ry="11.1106" transform="matrix(0.214222 0.991149 -0.904137 0.389381 1029.31 156.116)" fill="white"/>
<path d="M1014.09 177.743C1009.62 188.357 1005.38 196.847 1004.49 195.46C1003.59 194.977 1006.38 186.608 1010.84 175.993C1015.3 165.379 1019.53 158.391 1020.42 158.874C1021.32 159.357 1018.55 167.128 1014.09 177.743Z" fill="white"/>
<path d="M1052.16 174.761C1053.25 186.223 1053.1 194.636 1052.1 194.636C1051.16 194.26 1049.57 186.217 1048.47 174.754C1047.38 163.292 1047.8 155.138 1048.82 155.139C1049.83 155.141 1051.07 163.298 1052.16 174.761Z" fill="white"/>
<path d="M995.668 195.926C990.706 195.418 984.073 196.633 984.323 195.795C984.573 194.957 991.612 192.383 996.574 192.891C1001.54 193.399 1005.36 194.49 1005.11 195.328C1004.86 196.166 1000.63 196.434 995.668 195.926Z" fill="white"/>
<path d="M1029.03 95.3324C1018.54 100.083 1009.66 103.424 1009.94 101.797C1009.61 100.834 1017.35 96.594 1027.84 91.8433C1038.33 87.0926 1046.17 84.841 1046.5 85.8045C1046.83 86.768 1039.52 90.5817 1029.03 95.3324Z" fill="white"/>
<path d="M1002.2 99.9237C997.573 98.0537 990.864 97.373 991.337 96.6379C991.811 95.9027 999.289 95.3914 1003.91 97.2615C1008.54 99.1315 1011.9 101.243 1011.43 101.979C1010.95 102.714 1006.82 101.794 1002.2 99.9237Z" fill="white"/>
<path d="M1032.03 105.72C1021.54 110.471 1012.66 113.811 1012.94 112.185C1012.61 111.221 1020.35 106.982 1030.84 102.231C1041.33 97.4803 1049.17 95.2287 1049.5 96.1922C1049.83 97.1557 1042.52 100.969 1032.03 105.72Z" fill="white"/>
<path d="M1005.2 110.311C1000.57 108.441 993.864 107.761 994.337 107.026C994.811 106.29 1002.29 105.779 1006.91 107.649C1011.54 109.519 1014.9 111.631 1014.43 112.366C1013.95 113.101 1009.82 112.181 1005.2 110.311Z" fill="white"/>
<path d="M1022.07 118.664C1012.67 125.302 1004.57 130.253 1004.54 128.602C1004.04 127.717 1010.84 122.099 1020.25 115.461C1029.66 108.823 1036.94 105.136 1037.45 106.021C1037.95 106.905 1031.48 112.026 1022.07 118.664Z" fill="white"/>
<path d="M996.585 128.218C991.691 127.251 984.974 127.843 985.301 127.032C985.628 126.221 992.876 124.313 997.769 125.281C1002.66 126.248 1006.36 127.69 1006.04 128.501C1005.71 129.312 1001.48 129.185 996.585 128.218Z" fill="white"/>
<path d="M1022.11 130.98C1013.89 139.045 1006.69 145.235 1006.4 143.609C1005.76 142.817 1011.57 136.177 1019.79 128.112C1028.01 120.047 1034.61 115.236 1035.24 116.028C1035.88 116.819 1030.32 122.915 1022.11 130.98Z" fill="white"/>
<path d="M998.488 144.511C993.503 144.344 986.969 146.01 987.161 145.157C987.353 144.304 994.2 141.254 999.185 141.422C1004.17 141.589 1008.06 142.416 1007.86 143.269C1007.67 144.123 1003.47 144.679 998.488 144.511Z" fill="white"/>
<path d="M1061.25 195.116C1066.25 194.851 1072.79 196.201 1072.6 195.437C1072.42 194.673 1065.57 192.084 1060.57 192.35C1055.57 192.615 1051.85 193.689 1052.04 194.453C1051.53 194.906 1056.25 195.381 1061.25 195.116Z" fill="white"/>
<path d="M822.471 79.8574C820.661 86.5982 818.26 85.3644 808.181 81.0687C798.102 76.773 784.827 64.3914 786.637 57.6506C788.447 50.9098 798.084 48.9277 808.163 53.2234C818.241 57.5191 824.281 73.1166 822.471 79.8574Z" fill="white"/>
<path d="M820.923 103.885C819.191 116.842 808.847 132.19 801.628 131.965C794.41 131.74 797.178 116.157 798.91 103.199C800.641 90.2419 807.896 79.9201 815.115 80.145C822.333 80.3698 822.654 90.9276 820.923 103.885Z" fill="white"/>
<path d="M820.264 138.015C827.658 147.664 833.812 173.065 827.057 180.521C820.301 187.978 803.988 171.76 796.595 162.111C789.201 152.462 788.683 138.595 795.439 131.138C802.194 123.682 812.87 128.366 820.264 138.015Z" fill="white"/>
<path d="M819.355 31.2824C812.443 40.0048 804.303 62.8828 806.236 52.422C805.794 52.1751 810.169 39.2625 815.809 32.1463C821.448 25.0301 830.098 20.3564 830.541 20.6033C830.983 20.8502 824.995 24.1662 819.355 31.2824Z" fill="white"/>
<path d="M825.359 41.3995C818.446 50.1219 796.45 65.2721 807.2 59.7281C807.642 59.975 820.142 51.5936 825.781 44.4774C831.421 37.3612 833.211 28.8616 832.768 28.6147C832.326 28.3678 830.998 34.2833 825.359 41.3995Z" fill="white"/>
<ellipse rx="2.48809" ry="11.1106" transform="matrix(0.214222 0.991149 -0.904137 0.389381 799.312 156.117)" fill="white"/>
<path d="M784.086 177.743C779.625 188.357 775.381 196.847 774.485 195.46C773.589 194.977 776.38 186.608 780.841 175.993C785.302 165.379 789.527 158.391 790.423 158.874C791.319 159.357 788.547 167.128 784.086 177.743Z" fill="white"/>
<path d="M822.16 174.761C823.252 186.223 823.102 194.636 822.102 194.636C821.16 194.26 819.565 186.217 818.474 174.754C817.382 163.292 817.798 155.138 818.816 155.139C819.834 155.141 821.069 163.298 822.16 174.761Z" fill="white"/>
<path d="M765.899 193.478C761.341 191.649 754.718 191.02 755.189 190.284C755.661 189.547 763.05 188.982 767.607 190.812C772.165 192.642 775.477 194.722 775.005 195.458C774.533 196.195 770.456 195.308 765.899 193.478Z" fill="white"/>
<path d="M799.275 95.2211C788.932 99.9062 780.168 103.192 780.444 101.571C780.115 100.607 787.742 96.4171 798.085 91.732C808.428 87.0469 816.174 84.842 816.503 85.8055C816.832 86.769 809.619 90.536 799.275 95.2211Z" fill="white"/>
<path d="M774.081 96.0147C770.885 92.3155 765.306 88.7399 766.063 88.302C766.82 87.8641 773.627 90.7297 776.823 94.4289C780.019 98.1281 781.996 101.482 781.239 101.92C780.482 102.358 777.277 99.7139 774.081 96.0147Z" fill="white"/>
<path d="M802.024 105.72C791.535 110.471 782.651 113.811 782.937 112.185C782.608 111.221 790.345 106.982 800.833 102.231C811.322 97.4803 819.17 95.2287 819.499 96.1922C819.828 97.1557 812.512 100.969 802.024 105.72Z" fill="white"/>
<path d="M775.193 110.311C770.569 108.441 763.86 107.761 764.334 107.026C764.807 106.29 772.285 105.779 776.909 107.649C781.533 109.519 784.897 111.631 784.423 112.366C783.95 113.101 779.817 112.181 775.193 110.311Z" fill="white"/>
<path d="M792.07 118.665C782.662 125.303 774.564 130.254 774.539 128.603C774.035 127.718 780.837 122.1 790.245 115.462C799.653 108.824 806.938 105.137 807.442 106.022C807.946 106.906 801.478 112.027 792.07 118.665Z" fill="white"/>
<path d="M768.74 133.368C764.337 135.712 759.507 140.418 759.248 139.583C758.989 138.747 763.398 132.687 767.801 130.343C772.204 128 775.984 126.777 776.243 127.612C776.502 128.447 773.143 131.024 768.74 133.368Z" fill="white"/>
<path d="M792.107 130.981C783.89 139.046 776.695 145.236 776.404 143.61C775.764 142.818 781.573 136.178 789.791 128.113C798.008 120.048 804.605 115.237 805.245 116.029C805.885 116.82 800.324 122.916 792.107 130.981Z" fill="white"/>
<path d="M768.488 144.512C763.503 144.345 756.969 146.011 757.161 145.158C757.353 144.305 764.2 141.255 769.185 141.423C774.17 141.59 778.055 142.417 777.863 143.27C777.67 144.124 773.473 144.68 768.488 144.512Z" fill="white"/>
<path d="M831.244 195.117C836.244 194.852 842.788 196.202 842.6 195.438C842.412 194.674 835.564 192.085 830.563 192.351C825.563 192.616 821.847 193.69 822.035 194.454C821.522 194.907 826.243 195.382 831.244 195.117Z" fill="white"/>
<path d="M592.475 79.8564C590.665 86.5972 588.263 85.3634 578.185 81.0677C568.106 76.772 554.831 64.3904 556.641 57.6496C558.451 50.9088 568.088 48.9267 578.167 53.2224C588.245 57.5182 594.285 73.1156 592.475 79.8564Z" fill="white"/>
<path d="M590.923 103.884C589.191 116.841 578.847 132.189 571.628 131.964C564.41 131.739 567.178 116.156 568.91 103.198C570.641 90.2409 577.896 79.9191 585.115 80.144C592.333 80.3688 592.654 90.9266 590.923 103.884Z" fill="white"/>
<path d="M590.268 138.015C597.662 147.664 603.816 173.065 597.06 180.521C590.305 187.978 573.992 171.76 566.598 162.111C559.205 152.462 558.687 138.595 565.443 131.138C572.198 123.682 582.874 128.366 590.268 138.015Z" fill="white"/>
<path d="M589.359 31.2824C582.447 40.0048 574.307 62.8828 576.24 52.422C575.798 52.1751 580.173 39.2625 585.812 32.1463C591.452 25.0301 600.102 20.3564 600.545 20.6033C600.987 20.8502 594.999 24.1662 589.359 31.2824Z" fill="white"/>
<path d="M595.359 41.3995C588.446 50.1219 566.45 65.2721 577.2 59.7281C577.642 59.975 590.142 51.5936 595.781 44.4774C601.421 37.3612 603.211 28.8616 602.768 28.6147C602.326 28.3678 600.998 34.2833 595.359 41.3995Z" fill="white"/>
<ellipse rx="2.48809" ry="11.1106" transform="matrix(0.214222 0.991149 -0.904137 0.389381 569.312 156.116)" fill="white"/>
<path d="M554.086 177.743C549.625 188.357 545.381 196.847 544.485 195.46C543.589 194.977 546.38 186.608 550.841 175.993C555.302 165.379 559.527 158.391 560.423 158.874C561.319 159.357 558.547 167.128 554.086 177.743Z" fill="white"/>
<path d="M592.16 174.761C593.252 186.223 593.102 194.636 592.102 194.636C591.16 194.26 589.565 186.217 588.474 174.754C587.382 163.292 587.798 155.138 588.816 155.139C589.834 155.141 591.069 163.298 592.16 174.761Z" fill="white"/>
<path d="M535.668 195.926C530.706 195.418 524.073 196.633 524.323 195.795C524.573 194.957 531.612 192.383 536.574 192.891C541.536 193.399 545.356 194.49 545.106 195.328C544.855 196.166 540.63 196.434 535.668 195.926Z" fill="white"/>
<path d="M569.027 95.3324C558.539 100.083 549.655 103.424 549.941 101.797C549.612 100.834 557.349 96.594 567.837 91.8433C578.325 87.0926 586.174 84.841 586.503 85.8045C586.832 86.768 579.516 90.5817 569.027 95.3324Z" fill="white"/>
<path d="M542.197 99.9237C537.573 98.0537 530.864 97.373 531.337 96.6379C531.811 95.9027 539.289 95.3914 543.913 97.2615C548.537 99.1315 551.901 101.243 551.427 101.979C550.954 102.714 546.821 101.794 542.197 99.9237Z" fill="white"/>
<path d="M572.027 105.72C561.539 110.471 552.655 113.811 552.941 112.185C552.612 111.221 560.349 106.982 570.837 102.231C581.325 97.4803 589.174 95.2287 589.503 96.1922C589.832 97.1557 582.516 100.969 572.027 105.72Z" fill="white"/>
<path d="M545.197 110.311C540.573 108.441 533.864 107.761 534.337 107.026C534.811 106.29 542.289 105.779 546.913 107.649C551.537 109.519 554.901 111.631 554.427 112.366C553.954 113.101 549.821 112.181 545.197 110.311Z" fill="white"/>
<path d="M562.073 118.664C552.665 125.302 544.568 130.253 544.543 128.602C544.039 127.717 550.841 122.099 560.249 115.461C569.657 108.823 576.942 105.136 577.446 106.021C577.95 106.905 571.481 112.026 562.073 118.664Z" fill="white"/>
<path d="M536.585 128.218C531.691 127.251 524.974 127.843 525.301 127.032C525.628 126.221 532.876 124.313 537.769 125.281C542.662 126.248 546.364 127.69 546.037 128.501C545.71 129.312 541.478 129.185 536.585 128.218Z" fill="white"/>
<path d="M562.107 130.98C553.89 139.045 546.695 145.235 546.404 143.609C545.764 142.817 551.573 136.177 559.791 128.112C568.008 120.047 574.605 115.236 575.245 116.028C575.885 116.819 570.324 122.915 562.107 130.98Z" fill="white"/>
<path d="M538.488 144.511C533.503 144.344 526.969 146.01 527.161 145.157C527.353 144.304 534.2 141.254 539.185 141.422C544.17 141.589 548.055 142.416 547.863 143.269C547.67 144.123 543.473 144.679 538.488 144.511Z" fill="white"/>
<path d="M601.247 195.116C606.248 194.851 612.792 196.201 612.604 195.437C612.416 194.673 605.568 192.084 600.567 192.35C595.567 192.615 591.851 193.689 592.039 194.453C591.526 194.906 596.247 195.381 601.247 195.116Z" fill="white"/>
<path d="M362.471 79.8574C360.661 86.5982 358.26 85.3644 348.181 81.0687C338.102 76.773 324.827 64.3914 326.637 57.6506C328.447 50.9098 338.084 48.9277 348.163 53.2234C358.241 57.5191 364.281 73.1166 362.471 79.8574Z" fill="white"/>
<path d="M360.923 103.885C359.191 116.842 348.847 132.19 341.628 131.965C334.41 131.74 337.178 116.157 338.91 103.199C340.641 90.2419 347.896 79.9201 355.115 80.145C362.333 80.3698 362.654 90.9276 360.923 103.885Z" fill="white"/>
<path d="M360.264 138.015C367.658 147.664 373.812 173.065 367.057 180.521C360.301 187.978 343.988 171.76 336.595 162.111C329.201 152.462 328.683 138.595 335.439 131.138C342.194 123.682 352.87 128.366 360.264 138.015Z" fill="white"/>
<path d="M359.355 31.2824C352.443 40.0048 344.303 62.8828 346.236 52.422C345.794 52.1751 350.169 39.2625 355.809 32.1463C361.448 25.0301 370.098 20.3564 370.541 20.6033C370.983 20.8502 364.995 24.1662 359.355 31.2824Z" fill="white"/>
<path d="M365.359 41.3995C358.446 50.1219 336.45 65.2721 347.2 59.7281C347.642 59.975 360.142 51.5936 365.781 44.4774C371.421 37.3612 373.211 28.8616 372.768 28.6147C372.326 28.3678 370.998 34.2833 365.359 41.3995Z" fill="white"/>
<ellipse rx="2.48809" ry="11.1106" transform="matrix(0.214222 0.991149 -0.904137 0.389381 339.312 156.117)" fill="white"/>
<path d="M324.086 177.743C319.625 188.357 315.381 196.847 314.485 195.46C313.589 194.977 316.38 186.608 320.841 175.993C325.302 165.379 329.527 158.391 330.423 158.874C331.319 159.357 328.547 167.128 324.086 177.743Z" fill="white"/>
<path d="M362.16 174.761C363.252 186.223 363.102 194.636 362.102 194.636C361.16 194.26 359.565 186.217 358.474 174.754C357.382 163.292 357.798 155.138 358.816 155.139C359.834 155.141 361.069 163.298 362.16 174.761Z" fill="white"/>
<path d="M305.899 193.478C301.341 191.649 294.718 191.02 295.189 190.284C295.661 189.547 303.05 188.982 307.607 190.812C312.165 192.642 315.477 194.722 315.005 195.458C314.533 196.195 310.456 195.308 305.899 193.478Z" fill="white"/>
<path d="M339.275 95.2211C328.932 99.9062 320.168 103.192 320.444 101.571C320.115 100.607 327.742 96.4171 338.085 91.732C348.428 87.0469 356.174 84.842 356.503 85.8055C356.832 86.769 349.619 90.536 339.275 95.2211Z" fill="white"/>
<path d="M314.081 96.0147C310.885 92.3155 305.306 88.7399 306.063 88.302C306.82 87.8641 313.627 90.7297 316.823 94.4289C320.019 98.1281 321.996 101.482 321.239 101.92C320.482 102.358 317.277 99.7139 314.081 96.0147Z" fill="white"/>
<path d="M342.024 105.72C331.535 110.471 322.651 113.811 322.937 112.185C322.608 111.221 330.345 106.982 340.833 102.231C351.322 97.4803 359.17 95.2287 359.499 96.1922C359.828 97.1557 352.512 100.969 342.024 105.72Z" fill="white"/>
<path d="M315.193 110.311C310.569 108.441 303.86 107.761 304.334 107.026C304.807 106.29 312.285 105.779 316.909 107.649C321.533 109.519 324.897 111.631 324.423 112.366C323.95 113.101 319.817 112.181 315.193 110.311Z" fill="white"/>
<path d="M332.07 118.665C322.662 125.303 314.564 130.254 314.539 128.603C314.035 127.718 320.837 122.1 330.245 115.462C339.653 108.824 346.938 105.137 347.442 106.022C347.946 106.906 341.478 112.027 332.07 118.665Z" fill="white"/>
<path d="M308.74 133.368C304.337 135.712 299.507 140.418 299.248 139.583C298.989 138.747 303.398 132.687 307.801 130.343C312.204 128 315.984 126.777 316.243 127.612C316.502 128.447 313.143 131.024 308.74 133.368Z" fill="white"/>
<path d="M332.107 130.981C323.89 139.046 316.695 145.236 316.404 143.61C315.764 142.818 321.573 136.178 329.791 128.113C338.008 120.048 344.605 115.237 345.245 116.029C345.885 116.82 340.324 122.916 332.107 130.981Z" fill="white"/>
<path d="M308.488 144.512C303.503 144.345 296.969 146.011 297.161 145.158C297.353 144.305 304.2 141.255 309.185 141.423C314.17 141.59 318.055 142.417 317.863 143.27C317.67 144.124 313.473 144.68 308.488 144.512Z" fill="white"/>
<path d="M371.244 195.117C376.244 194.852 382.788 196.202 382.6 195.438C382.412 194.674 375.564 192.085 370.563 192.351C365.563 192.616 361.847 193.69 362.035 194.454C361.522 194.907 366.243 195.382 371.244 195.117Z" fill="white"/>
</svg>
