<svg width="1150" height="230" viewBox="0 0 1150 230" fill="none" xmlns="http://www.w3.org/2000/svg">
<g clip-path="url(#clip0)">
<path d="M365.074 78.6243C363.701 85.4675 361.225 84.3907 350.891 80.752C340.557 77.1132 326.513 65.6109 327.886 58.7677C329.258 51.9245 338.748 49.3267 349.082 52.9655C359.416 56.6043 366.446 71.7811 365.074 78.6243Z" fill="white"/>
<path d="M362.665 103.784C360.933 116.742 350.589 132.089 343.37 131.864C336.152 131.639 338.921 116.056 340.652 103.099C342.383 90.1413 349.639 79.8195 356.857 80.0444C364.076 80.2692 364.396 90.827 362.665 103.784Z" fill="white"/>
<path d="M362.006 137.915C369.4 147.564 375.554 172.964 368.799 180.421C362.043 187.877 345.73 171.659 338.337 162.01C330.943 152.361 330.426 138.494 337.181 131.038C343.936 123.581 354.613 128.266 362.006 137.915Z" fill="white"/>
<path d="M359.38 30.4002C353.214 39.6648 346.995 63.1379 348.056 52.553C347.594 52.3435 350.886 39.1132 355.917 31.5547C360.949 23.9962 369.182 18.6226 369.644 18.832C370.105 19.0415 364.412 22.8417 359.38 30.4002Z" fill="white"/>
<path d="M368.026 42.3394C360.257 50.3087 336.826 63.1283 348.086 58.7135C348.501 59.0044 361.793 51.9461 368.131 45.4445C374.469 38.9428 377.12 30.671 376.705 30.3801C376.29 30.0892 374.364 35.8378 368.026 42.3394Z" fill="white"/>
<path d="M324.479 102.342C312.113 98.5834 303.016 99.7512 302.647 98.5813C302.279 97.4114 312.877 95.3445 323.41 98.8445C336.385 93.1396 361.121 81.7514 361.49 82.9214C361.858 84.0913 337.454 96.6374 324.479 102.342Z" fill="white"/>
<path d="M326.66 110.294C314.215 108.775 305.89 111.478 305.296 110.405C304.703 109.332 314.251 105.496 324.914 107.08C335.935 99.2995 356.838 83.9688 357.432 85.042C358.026 86.1151 337.681 102.513 326.66 110.294Z" fill="white"/>
<ellipse rx="2.48809" ry="11.1106" transform="matrix(0.169297 0.999803 -0.920781 0.348202 341.054 156.016)" fill="white"/>
<path d="M325.833 177.618C321.524 188.295 317.402 196.845 316.486 195.471C315.583 195.001 318.254 186.593 322.563 175.915C326.871 165.238 330.996 158.191 331.899 158.661C332.801 159.131 330.141 166.941 325.833 177.618Z" fill="white"/>
<path d="M363.902 174.66C364.994 186.122 364.844 194.535 363.844 194.535C362.902 194.159 361.307 186.116 360.216 174.654C359.124 163.192 359.541 155.037 360.559 155.039C361.577 155.04 362.811 163.198 363.902 174.66Z" fill="white"/>
<path d="M307.547 193.466C302.919 191.606 296.208 190.94 296.68 190.204C297.152 189.468 304.629 188.94 309.257 190.8C313.885 192.66 317.254 194.765 316.782 195.501C316.31 196.237 312.175 195.326 307.547 193.466Z" fill="white"/>
<path d="M372.986 195.016C377.986 194.751 384.53 196.101 384.342 195.337C384.154 194.574 377.306 191.985 372.306 192.25C367.305 192.515 363.589 193.589 363.777 194.353C363.264 194.806 367.985 195.281 372.986 195.016Z" fill="white"/>
<path d="M594.256 79.7568C592.447 86.4976 590.045 85.2638 579.966 80.9681C569.888 76.6724 556.612 64.2908 558.422 57.55C560.232 50.8092 569.87 48.8271 579.948 53.1228C590.027 57.4185 596.066 73.016 594.256 79.7568Z" fill="white"/>
<path d="M592.704 103.784C590.972 116.742 580.628 132.089 573.409 131.864C566.191 131.639 568.96 116.056 570.691 103.099C572.422 90.1413 579.678 79.8195 586.896 80.0444C594.115 80.2692 594.435 90.827 592.704 103.784Z" fill="white"/>
<path d="M592.049 137.916C599.443 147.565 605.597 172.965 598.842 180.422C592.086 187.878 575.773 171.66 568.38 162.011C560.986 152.362 560.468 138.495 567.224 131.039C573.979 123.582 584.656 128.267 592.049 137.916Z" fill="white"/>
<path d="M588.272 30.4573C582.767 40.1297 578.202 63.9797 578.522 53.3465C578.047 53.1698 580.407 39.7419 584.898 31.8507C589.39 23.9594 597.228 18.0243 597.703 18.201C598.178 18.3777 592.764 22.566 588.272 30.4573Z" fill="white"/>
<path d="M598.455 42.3225C590.933 50.5248 567.904 64.0525 579.024 59.2966C579.448 59.5747 592.518 52.1147 598.655 45.4229C604.792 38.7311 607.19 30.3824 606.766 30.1043C606.342 29.8261 604.592 35.6307 598.455 42.3225Z" fill="white"/>
<path d="M550.157 127.125C536.478 125.369 526.758 128.047 526.259 126.927C525.759 125.807 537.02 121.974 548.697 123.771C562.208 115.875 587.921 100.305 588.421 101.425C588.92 102.546 563.668 119.229 550.157 127.125Z" fill="white"/>
<path d="M554.518 102.342C542.152 98.5834 533.055 99.7512 532.686 98.5813C532.318 97.4114 542.916 95.3445 553.449 98.8445C566.424 93.1396 591.16 81.7514 591.529 82.9214C591.897 84.0913 567.493 96.6374 554.518 102.342Z" fill="white"/>
<path d="M556.703 110.294C544.258 108.775 535.933 111.478 535.339 110.405C534.746 109.332 544.294 105.496 554.957 107.08C565.978 99.2995 586.881 83.9688 587.475 85.042C588.069 86.1151 567.724 102.513 556.703 110.294Z" fill="white"/>
<path d="M551.69 143.526C537.911 144.111 528.785 148.396 528.102 147.377C527.42 146.357 537.87 140.673 549.683 140.467C561.661 130.397 584.366 110.698 585.049 111.717C585.731 112.737 563.668 133.456 551.69 143.526Z" fill="white"/>
<ellipse rx="2.48809" ry="11.1106" transform="matrix(0.214222 0.991149 -0.904137 0.389381 571.093 156.016)" fill="white"/>
<path d="M555.867 177.643C551.406 188.258 547.163 196.748 546.266 195.361C545.37 194.878 548.161 186.508 552.622 175.894C557.083 165.279 561.308 158.292 562.204 158.775C563.1 159.258 560.328 167.029 555.867 177.643Z" fill="white"/>
<path d="M593.941 174.661C595.033 186.123 594.883 194.536 593.883 194.536C592.941 194.16 591.346 186.117 590.255 174.655C589.163 163.193 589.58 155.038 590.598 155.04C591.616 155.041 592.85 163.199 593.941 174.661Z" fill="white"/>
<path d="M537.449 195.826C532.488 195.318 525.854 196.533 526.104 195.695C526.355 194.857 533.394 192.283 538.355 192.791C543.317 193.299 547.137 194.39 546.887 195.228C546.637 196.066 542.411 196.334 537.449 195.826Z" fill="white"/>
<path d="M603.029 195.016C608.029 194.751 614.573 196.101 614.385 195.337C614.197 194.574 607.349 191.985 602.349 192.25C597.348 192.515 593.632 193.589 593.82 194.353C593.307 194.806 598.028 195.281 603.029 195.016Z" fill="white"/>
<path d="M825.077 78.6284C823.704 85.4716 821.227 84.3947 810.894 80.7556C800.56 77.1165 786.516 65.6137 787.889 58.7706C789.262 51.9274 798.752 49.33 809.086 52.9691C819.42 56.6082 826.45 71.7853 825.077 78.6284Z" fill="white"/>
<path d="M822.665 103.784C820.933 116.742 810.589 132.089 803.37 131.864C796.152 131.639 798.921 116.056 800.652 103.099C802.383 90.1413 809.639 79.8195 816.857 80.0444C824.076 80.2692 824.396 90.827 822.665 103.784Z" fill="white"/>
<path d="M822.006 137.916C829.4 147.565 835.554 172.965 828.799 180.422C822.043 187.878 805.73 171.66 798.337 162.011C790.943 152.362 790.426 138.495 797.181 131.039C803.936 123.582 814.613 128.267 822.006 137.916Z" fill="white"/>
<path d="M821.542 31.4438C813.933 39.5653 803.93 61.6923 806.721 51.4271C806.3 51.1444 811.728 38.6376 817.936 32.0117C824.144 25.3859 833.151 21.4428 833.572 21.7255C833.992 22.0081 827.75 24.8179 821.542 31.4438Z" fill="white"/>
<path d="M826.834 41.0211C820.44 50.1303 799.362 66.5324 809.771 60.3734C810.227 60.5942 822.218 51.501 827.435 44.0693C832.652 36.6376 833.946 28.0484 833.489 27.8276C833.033 27.6068 832.051 33.5894 826.834 41.0211Z" fill="white"/>
<path d="M784.479 102.342C772.113 98.5834 763.016 99.7512 762.647 98.5813C762.279 97.4114 772.877 95.3445 783.41 98.8445C796.385 93.1396 821.121 81.7514 821.49 82.9214C821.858 84.0913 797.454 96.6374 784.479 102.342Z" fill="white"/>
<path d="M786.66 110.295C774.215 108.776 765.89 111.479 765.296 110.406C764.703 109.333 774.251 105.497 784.914 107.081C795.935 99.3004 816.838 83.9698 817.432 85.043C818.026 86.1161 797.681 102.514 786.66 110.295Z" fill="white"/>
<ellipse rx="2.48809" ry="11.1106" transform="matrix(0.169297 0.999803 -0.920781 0.348202 801.054 156.016)" fill="white"/>
<path d="M785.833 177.618C781.524 188.295 777.402 196.845 776.486 195.471C775.583 195.001 778.254 186.593 782.563 175.915C786.871 165.238 790.996 158.191 791.899 158.661C792.801 159.131 790.141 166.941 785.833 177.618Z" fill="white"/>
<path d="M823.898 174.661C824.99 186.123 824.84 194.536 823.84 194.536C822.898 194.16 821.303 186.117 820.212 174.655C819.12 163.193 819.537 155.038 820.555 155.04C821.573 155.041 822.807 163.199 823.898 174.661Z" fill="white"/>
<path d="M767.547 193.467C762.919 191.607 756.208 190.941 756.68 190.205C757.152 189.469 764.629 188.941 769.257 190.801C773.885 192.661 777.254 194.766 776.782 195.502C776.31 196.238 772.175 195.327 767.547 193.467Z" fill="white"/>
<path d="M832.986 195.016C837.986 194.751 844.53 196.101 844.342 195.337C844.154 194.574 837.306 191.985 832.306 192.25C827.305 192.515 823.589 193.589 823.777 194.353C823.264 194.806 827.985 195.281 832.986 195.016Z" fill="white"/>
<path d="M1054.26 79.7568C1052.45 86.4976 1050.04 85.2638 1039.97 80.9681C1029.89 76.6724 1016.61 64.2908 1018.42 57.55C1020.23 50.8092 1029.87 48.8271 1039.95 53.1228C1050.03 57.4185 1056.07 73.016 1054.26 79.7568Z" fill="white"/>
<path d="M1052.71 103.784C1050.98 116.742 1040.63 132.089 1033.41 131.864C1026.19 131.639 1028.96 116.056 1030.69 103.099C1032.43 90.1413 1039.68 79.8195 1046.9 80.0444C1054.12 80.2692 1054.44 90.827 1052.71 103.784Z" fill="white"/>
<path d="M1052.05 137.916C1059.44 147.565 1065.6 172.965 1058.84 180.422C1052.09 187.878 1035.77 171.66 1028.38 162.011C1020.99 152.362 1020.47 138.495 1027.22 131.039C1033.98 123.582 1044.66 128.267 1052.05 137.916Z" fill="white"/>
<path d="M1051.14 31.1828C1044.23 39.9052 1036.09 62.7832 1038.02 52.3224C1037.58 52.0755 1041.95 39.1629 1047.59 32.0467C1053.23 24.9305 1061.88 20.2568 1062.33 20.5037C1062.77 20.7506 1056.78 24.0666 1051.14 31.1828Z" fill="white"/>
<path d="M1057.14 41.2999C1050.23 50.0223 1028.24 65.1725 1038.98 59.6285C1039.43 59.8754 1051.93 51.494 1057.57 44.3778C1063.21 37.2616 1065 28.762 1064.55 28.5151C1064.11 28.2682 1062.78 34.1837 1057.14 41.2999Z" fill="white"/>
<path d="M1010.16 127.125C996.478 125.369 986.758 128.047 986.259 126.927C985.759 125.807 997.02 121.974 1008.7 123.771C1022.21 115.875 1047.92 100.305 1048.42 101.425C1048.92 102.546 1023.67 119.229 1010.16 127.125Z" fill="white"/>
<path d="M1014.52 102.342C1002.16 98.5834 993.059 99.7512 992.69 98.5813C992.322 97.4114 1002.92 95.3445 1013.45 98.8445C1026.43 93.1396 1051.16 81.7514 1051.53 82.9214C1051.9 84.0913 1027.5 96.6374 1014.52 102.342Z" fill="white"/>
<path d="M1016.71 110.295C1004.26 108.776 995.937 111.479 995.343 110.406C994.749 109.333 1004.3 105.497 1014.96 107.081C1025.98 99.3004 1046.88 83.9698 1047.48 85.043C1048.07 86.1161 1027.73 102.514 1016.71 110.295Z" fill="white"/>
<path d="M1011.69 143.526C997.915 144.112 988.789 148.397 988.106 147.378C987.424 146.358 997.874 140.674 1009.69 140.468C1021.67 130.398 1044.37 110.699 1045.05 111.718C1045.73 112.738 1023.67 133.457 1011.69 143.526Z" fill="white"/>
<ellipse rx="2.48809" ry="11.1106" transform="matrix(0.214222 0.991149 -0.904137 0.389381 1031.1 156.017)" fill="white"/>
<path d="M1015.87 177.643C1011.41 188.258 1007.17 196.748 1006.27 195.361C1005.37 194.878 1008.17 186.508 1012.63 175.894C1017.09 165.279 1021.31 158.292 1022.21 158.775C1023.1 159.258 1020.33 167.029 1015.87 177.643Z" fill="white"/>
<path d="M1053.95 174.661C1055.04 186.123 1054.89 194.536 1053.89 194.536C1052.95 194.16 1051.35 186.117 1050.26 174.655C1049.17 163.193 1049.58 155.038 1050.6 155.04C1051.62 155.041 1052.85 163.199 1053.95 174.661Z" fill="white"/>
<path d="M997.453 195.826C992.491 195.318 985.858 196.533 986.108 195.695C986.358 194.857 993.397 192.283 998.359 192.791C1003.32 193.299 1007.14 194.39 1006.89 195.228C1006.64 196.066 1002.42 196.334 997.453 195.826Z" fill="white"/>
<path d="M1063.03 195.016C1068.03 194.751 1074.57 196.101 1074.39 195.337C1074.2 194.574 1067.35 191.985 1062.35 192.25C1057.35 192.515 1053.63 193.589 1053.82 194.353C1053.31 194.806 1058.03 195.281 1063.03 195.016Z" fill="white"/>
<path d="M134.256 79.7578C132.447 86.4986 130.045 85.2648 119.966 80.9691C109.888 76.6734 96.6122 64.2918 98.4221 57.551C100.232 50.8102 109.87 48.8281 119.948 53.1238C130.027 57.4195 136.066 73.017 134.256 79.7578Z" fill="white"/>
<path d="M132.704 103.784C130.972 116.742 120.628 132.089 113.409 131.864C106.191 131.639 108.96 116.056 110.691 103.099C112.422 90.1413 119.678 79.8195 126.896 80.0444C134.115 80.2692 134.435 90.827 132.704 103.784Z" fill="white"/>
<path d="M132.045 137.916C139.439 147.565 145.593 172.965 138.838 180.422C132.082 187.878 115.769 171.66 108.376 162.011C100.982 152.362 100.465 138.495 107.22 131.039C113.975 123.582 124.652 128.267 132.045 137.916Z" fill="white"/>
<path d="M131.141 31.1828C124.228 39.9052 116.088 62.7832 118.022 52.3224C117.579 52.0755 121.954 39.1629 127.594 32.0467C133.233 24.9305 141.883 20.2568 142.326 20.5037C142.768 20.7506 136.78 24.0666 131.141 31.1828Z" fill="white"/>
<path d="M137.14 41.2999C130.227 50.0223 108.232 65.1725 118.981 59.6285C119.424 59.8754 131.923 51.494 137.562 44.3778C143.202 37.2616 144.992 28.762 144.55 28.5151C144.107 28.2682 142.779 34.1837 137.14 41.2999Z" fill="white"/>
<path d="M90.1571 127.124C76.478 125.368 66.7582 128.046 66.2585 126.926C65.7588 125.806 77.0202 121.973 88.6973 123.77C102.208 115.874 127.921 100.304 128.421 101.425C128.92 102.545 103.668 119.228 90.1571 127.124Z" fill="white"/>
<path d="M94.5181 102.342C82.1519 98.5834 73.0547 99.7512 72.6864 98.5813C72.3181 97.4114 82.9159 95.3445 93.4487 98.8445C106.424 93.1396 131.16 81.7514 131.529 82.9214C131.897 84.0913 107.493 96.6374 94.5181 102.342Z" fill="white"/>
<path d="M96.7026 110.294C84.2581 108.775 75.9334 111.478 75.3394 110.405C74.7455 109.332 84.2944 105.496 94.9568 107.08C105.978 99.2995 126.881 83.9688 127.475 85.042C128.069 86.1151 107.724 102.513 96.7026 110.294Z" fill="white"/>
<path d="M91.6895 143.526C77.9106 144.111 68.7846 148.396 68.1025 147.377C67.4203 146.357 77.8701 140.673 89.6828 140.467C101.661 130.397 124.366 110.698 125.049 111.717C125.731 112.737 103.668 133.456 91.6895 143.526Z" fill="white"/>
<path d="M320.024 127.126C306.345 125.37 296.625 128.048 296.126 126.928C295.626 125.808 306.887 121.975 318.564 123.772C332.075 115.876 357.788 100.306 358.288 101.426C358.788 102.547 333.535 119.23 320.024 127.126Z" fill="white"/>
<path d="M321.561 143.527C307.782 144.113 298.656 148.398 297.974 147.379C297.291 146.359 307.741 140.675 319.554 140.469C331.532 130.399 354.238 110.7 354.92 111.719C355.602 112.739 333.539 133.458 321.561 143.527Z" fill="white"/>
<path d="M780.02 127.126C766.341 125.37 756.622 128.048 756.122 126.928C755.622 125.808 766.883 121.975 778.561 123.772C792.071 115.876 817.784 100.306 818.284 101.426C818.784 102.547 793.531 119.23 780.02 127.126Z" fill="white"/>
<path d="M781.557 143.527C767.778 144.113 758.652 148.398 757.97 147.379C757.287 146.359 767.737 140.675 779.55 140.469C791.529 130.399 814.234 110.7 814.916 111.719C815.598 112.739 793.535 133.458 781.557 143.527Z" fill="white"/>
<ellipse rx="2.48809" ry="11.1106" transform="matrix(0.214222 0.991149 -0.904137 0.389381 111.093 156.016)" fill="white"/>
<path d="M95.8672 177.643C91.4062 188.258 87.1627 196.748 86.2664 195.361C85.3703 194.878 88.1612 186.508 92.6222 175.894C97.0832 165.279 101.308 158.292 102.204 158.775C103.1 159.258 100.328 167.029 95.8672 177.643Z" fill="white"/>
<path d="M133.941 174.661C135.033 186.123 134.883 194.536 133.883 194.536C132.941 194.16 131.346 186.117 130.255 174.655C129.163 163.193 129.58 155.038 130.598 155.04C131.616 155.041 132.85 163.199 133.941 174.661Z" fill="white"/>
<path d="M77.4494 195.826C72.4875 195.318 65.8542 196.533 66.1044 195.695C66.3546 194.857 73.3936 192.283 78.3555 192.791C83.3174 193.299 87.137 194.39 86.8868 195.228C86.6366 196.066 82.4114 196.334 77.4494 195.826Z" fill="white"/>
<path d="M143.029 195.016C148.029 194.751 154.573 196.101 154.385 195.337C154.197 194.574 147.349 191.985 142.349 192.25C137.348 192.515 133.632 193.589 133.82 194.353C133.307 194.806 138.028 195.281 143.029 195.016Z" fill="white"/>
</g>
<defs>
<clipPath id="clip0">
<rect width="1150" height="230" fill="white"/>
</clipPath>
</defs>
</svg>
