<svg width="1150" height="230" viewBox="0 0 1150 230" fill="none" xmlns="http://www.w3.org/2000/svg">
<g clip-path="url(#clip0)">
<path d="M80.2591 79.5986C82.069 86.3394 84.471 85.1056 94.5495 80.8099C104.628 76.5142 117.903 64.1326 116.094 57.3918C114.284 50.651 104.646 48.6689 94.5675 52.9646C84.489 57.2603 78.4492 72.8578 80.2591 79.5986Z" fill="white"/>
<path d="M81.8119 103.625C83.5433 116.583 93.8877 131.93 101.106 131.705C108.325 131.48 105.556 115.897 103.825 102.94C102.093 89.9822 94.838 79.6604 87.6195 79.8852C80.401 80.1101 80.0805 90.6678 81.8119 103.625Z" fill="white"/>
<path d="M81.9308 134.287C71.9827 141.273 58.491 163.656 62.6978 172.796C66.9047 181.936 87.3321 171.36 97.2803 164.374C107.228 157.388 111.883 144.315 107.676 135.175C103.469 126.035 91.8789 127.301 81.9308 134.287Z" fill="white"/>
<path d="M83.3751 31.0236C90.2876 39.7461 98.4279 62.624 96.4941 52.1632C96.9368 51.9163 92.5615 39.0037 86.922 31.8875C81.2825 24.7714 72.6326 20.0976 72.1899 20.3445C71.7472 20.5914 77.7356 23.9074 83.3751 31.0236Z" fill="white"/>
<path d="M77.3759 41.1407C84.2883 49.8631 106.284 65.0134 95.5347 59.4694C95.092 59.7162 82.5927 51.3348 76.9532 44.2186C71.3137 37.1024 69.5233 28.6028 69.966 28.3559C70.4086 28.109 71.7364 34.0245 77.3759 41.1407Z" fill="white"/>
<ellipse rx="2.48809" ry="11.1106" transform="matrix(-0.214222 0.991149 0.904137 0.389381 103.423 155.858)" fill="white"/>
<path d="M118.648 177.484C123.109 188.099 127.353 196.588 128.249 195.202C129.145 194.718 126.354 186.349 121.893 175.735C117.432 165.12 113.208 158.133 112.312 158.616C111.416 159.099 114.187 166.869 118.648 177.484Z" fill="white"/>
<path d="M80.5742 174.502C79.4827 185.964 79.6328 194.377 80.6328 194.377C81.5742 194.001 83.1692 185.958 84.2607 174.496C85.3522 163.034 84.9359 154.879 83.9179 154.881C82.8999 154.882 81.6657 163.04 80.5742 174.502Z" fill="white"/>
<path d="M137.066 195.667C142.028 195.159 148.661 196.374 148.411 195.536C148.161 194.698 141.122 192.124 136.16 192.632C131.198 193.14 127.379 194.231 127.629 195.069C127.879 195.907 132.104 196.175 137.066 195.667Z" fill="white"/>
<path d="M111.044 92.3347C118.545 83.5987 124.242 76.0072 122.6 75.8255C121.768 75.24 115.529 81.4782 108.029 90.2142C100.529 98.9502 96.1673 105.853 97 106.439C97.8328 107.024 103.544 101.071 111.044 92.3347Z" fill="white"/>
<path d="M122.973 67.8673C122.474 62.9045 123.701 56.2734 122.863 56.5221C122.024 56.7707 119.438 63.805 119.936 68.7679C120.435 73.7307 121.52 77.5523 122.358 77.3036C123.197 77.055 123.472 72.8302 122.973 67.8673Z" fill="white"/>
<path d="M104.531 109.747C115.946 108.238 125.253 106.379 124.151 105.15C123.921 104.158 115.112 104.647 103.698 106.156C92.2831 107.665 84.4298 109.901 84.66 110.893C84.8901 111.885 93.1164 111.256 104.531 109.747Z" fill="white"/>
<path d="M129.737 99.4667C132.674 95.4355 138.011 91.3122 137.22 90.9385C136.429 90.5647 129.811 94.082 126.873 98.1131C123.936 102.144 122.196 105.715 122.986 106.089C123.777 106.463 126.799 103.498 129.737 99.4667Z" fill="white"/>
<path d="M110.866 118.971C122.144 121.291 131.546 122.589 130.908 121.065C131.016 120.053 122.534 117.625 111.257 115.306C99.9788 112.986 91.8266 112.522 91.7187 113.534C91.6107 114.547 99.5878 116.652 110.866 118.971Z" fill="white"/>
<path d="M138.047 117.53C142.144 114.686 148.538 112.541 147.914 111.929C147.29 111.316 139.884 112.468 135.786 115.312C131.689 118.156 128.873 120.958 129.498 121.571C130.122 122.183 133.95 120.374 138.047 117.53Z" fill="white"/>
<path d="M112.052 128.285C123.033 131.746 132.253 133.999 131.775 132.419C131.986 131.423 123.797 128.14 112.816 124.679C101.834 121.218 93.7723 119.922 93.5614 120.918C93.3504 121.914 101.07 124.824 112.052 128.285Z" fill="white"/>
<path d="M139.238 129.632C143.604 127.222 150.184 125.743 149.626 125.07C149.067 124.397 141.583 124.785 137.216 127.195C132.849 129.605 129.761 132.104 130.32 132.777C130.878 133.451 134.871 132.043 139.238 129.632Z" fill="white"/>
<path d="M71.4869 194.857C66.4864 194.592 59.9426 195.942 60.1304 195.178C60.3183 194.414 67.1667 191.826 72.1671 192.091C77.1676 192.356 80.8833 193.43 80.6954 194.194C81.2082 194.647 76.4873 195.122 71.4869 194.857Z" fill="white"/>
<path d="M1000.26 79.5986C1002.07 86.3394 1004.47 85.1056 1014.55 80.8099C1024.63 76.5142 1037.9 64.1326 1036.09 57.3918C1034.28 50.651 1024.65 48.6689 1014.57 52.9646C1004.49 57.2603 998.449 72.8578 1000.26 79.5986Z" fill="white"/>
<path d="M1001.81 103.625C1003.54 116.583 1013.89 131.93 1021.11 131.705C1028.32 131.48 1025.56 115.897 1023.82 102.94C1022.09 89.9822 1014.84 79.6604 1007.62 79.8852C1000.4 80.1101 1000.08 90.6678 1001.81 103.625Z" fill="white"/>
<path d="M1001.93 134.287C991.983 141.273 978.491 163.656 982.698 172.796C986.905 181.936 1007.33 171.36 1017.28 164.374C1027.23 157.388 1031.88 144.315 1027.68 135.175C1023.47 126.035 1011.88 127.301 1001.93 134.287Z" fill="white"/>
<path d="M1003.38 31.0236C1010.29 39.7461 1018.43 62.624 1016.49 52.1632C1016.94 51.9163 1012.56 39.0037 1006.92 31.8875C1001.28 24.7714 992.633 20.0976 992.19 20.3445C991.747 20.5914 997.736 23.9074 1003.38 31.0236Z" fill="white"/>
<path d="M997.376 41.1407C1004.29 49.8631 1026.28 65.0134 1015.53 59.4694C1015.09 59.7162 1002.59 51.3348 996.953 44.2186C991.314 37.1024 989.523 28.6028 989.966 28.3559C990.409 28.109 991.736 34.0245 997.376 41.1407Z" fill="white"/>
<ellipse rx="2.48809" ry="11.1106" transform="matrix(-0.214222 0.991149 0.904137 0.389381 1023.42 155.858)" fill="white"/>
<path d="M1038.65 177.484C1043.11 188.099 1047.35 196.588 1048.25 195.202C1049.15 194.718 1046.35 186.349 1041.89 175.735C1037.43 165.12 1033.21 158.133 1032.31 158.616C1031.42 159.099 1034.19 166.869 1038.65 177.484Z" fill="white"/>
<path d="M1000.57 174.502C999.483 185.964 999.633 194.377 1000.63 194.377C1001.57 194.001 1003.17 185.958 1004.26 174.496C1005.35 163.034 1004.94 154.879 1003.92 154.881C1002.9 154.882 1001.67 163.04 1000.57 174.502Z" fill="white"/>
<path d="M1057.07 195.667C1062.03 195.159 1068.66 196.374 1068.41 195.536C1068.16 194.698 1061.12 192.124 1056.16 192.632C1051.2 193.14 1047.38 194.231 1047.63 195.069C1047.88 195.907 1052.1 196.175 1057.07 195.667Z" fill="white"/>
<path d="M1031.04 92.3347C1038.54 83.5987 1044.24 76.0072 1042.6 75.8255C1041.77 75.24 1035.53 81.4782 1028.03 90.2142C1020.53 98.9502 1016.17 105.853 1017 106.439C1017.83 107.024 1023.54 101.071 1031.04 92.3347Z" fill="white"/>
<path d="M1042.97 67.8673C1042.47 62.9045 1043.7 56.2734 1042.86 56.5221C1042.02 56.7707 1039.44 63.805 1039.94 68.7679C1040.44 73.7307 1041.52 77.5523 1042.36 77.3036C1043.2 77.055 1043.47 72.8302 1042.97 67.8673Z" fill="white"/>
<path d="M1024.53 109.747C1035.95 108.238 1045.25 106.379 1044.15 105.15C1043.92 104.158 1035.11 104.647 1023.7 106.156C1012.28 107.665 1004.43 109.901 1004.66 110.893C1004.89 111.885 1013.12 111.256 1024.53 109.747Z" fill="white"/>
<path d="M1049.74 99.4667C1052.67 95.4355 1058.01 91.3122 1057.22 90.9385C1056.43 90.5647 1049.81 94.082 1046.87 98.1131C1043.94 102.144 1042.2 105.715 1042.99 106.089C1043.78 106.463 1046.8 103.498 1049.74 99.4667Z" fill="white"/>
<path d="M1030.87 118.971C1042.14 121.291 1051.55 122.589 1050.91 121.065C1051.02 120.053 1042.53 117.625 1031.26 115.306C1019.98 112.986 1011.83 112.522 1011.72 113.534C1011.61 114.547 1019.59 116.652 1030.87 118.971Z" fill="white"/>
<path d="M1058.05 117.53C1062.14 114.686 1068.54 112.541 1067.91 111.929C1067.29 111.316 1059.88 112.468 1055.79 115.312C1051.69 118.156 1048.87 120.958 1049.5 121.571C1050.12 122.183 1053.95 120.374 1058.05 117.53Z" fill="white"/>
<path d="M1032.05 128.285C1043.03 131.746 1052.25 133.999 1051.77 132.419C1051.99 131.423 1043.8 128.14 1032.82 124.679C1021.83 121.218 1013.77 119.922 1013.56 120.918C1013.35 121.914 1021.07 124.824 1032.05 128.285Z" fill="white"/>
<path d="M1059.24 129.632C1063.6 127.222 1070.18 125.743 1069.63 125.07C1069.07 124.397 1061.58 124.785 1057.22 127.195C1052.85 129.605 1049.76 132.104 1050.32 132.777C1050.88 133.451 1054.87 132.043 1059.24 129.632Z" fill="white"/>
<path d="M991.487 194.857C986.486 194.592 979.943 195.942 980.13 195.178C980.318 194.414 987.167 191.826 992.167 192.091C997.168 192.356 1000.88 193.43 1000.7 194.194C1001.21 194.647 996.487 195.122 991.487 194.857Z" fill="white"/>
<path d="M770.259 79.5976C772.069 86.3384 774.471 85.1046 784.55 80.8089C794.628 76.5132 807.903 64.1316 806.094 57.3908C804.284 50.65 794.646 48.6679 784.568 52.9636C774.489 57.2594 768.449 72.8568 770.259 79.5976Z" fill="white"/>
<path d="M771.812 103.625C773.543 116.583 783.888 131.93 791.106 131.705C798.325 131.48 795.556 115.897 793.825 102.94C792.093 89.9822 784.838 79.6604 777.619 79.8852C770.401 80.1101 770.08 90.6678 771.812 103.625Z" fill="white"/>
<path d="M771.265 136.119C762.123 144.132 751.11 167.833 756.273 176.469C761.435 185.105 780.611 172.399 789.752 164.387C798.894 156.374 802.119 142.878 796.957 134.242C791.794 125.606 780.406 128.107 771.265 136.119Z" fill="white"/>
<path d="M773.375 31.0236C780.288 39.7461 788.428 62.624 786.494 52.1632C786.937 51.9163 782.561 39.0037 776.922 31.8875C771.282 24.7714 762.633 20.0976 762.19 20.3445C761.747 20.5914 767.736 23.9074 773.375 31.0236Z" fill="white"/>
<path d="M767.376 41.1407C774.288 49.8631 796.284 65.0134 785.535 59.4694C785.092 59.7162 772.593 51.3348 766.953 44.2186C761.314 37.1024 759.523 28.6028 759.966 28.3559C760.409 28.109 761.736 34.0245 767.376 41.1407Z" fill="white"/>
<ellipse rx="2.48809" ry="11.1106" transform="matrix(-0.214222 0.991149 0.904137 0.389381 793.423 155.857)" fill="white"/>
<path d="M808.648 177.484C813.109 188.099 817.353 196.588 818.249 195.202C819.145 194.718 816.354 186.349 811.893 175.735C807.432 165.12 803.208 158.133 802.312 158.616C801.416 159.099 804.187 166.869 808.648 177.484Z" fill="white"/>
<path d="M770.574 174.502C769.483 185.964 769.633 194.377 770.633 194.377C771.574 194.001 773.169 185.958 774.261 174.496C775.352 163.034 774.936 154.879 773.918 154.881C772.9 154.882 771.666 163.04 770.574 174.502Z" fill="white"/>
<path d="M827.066 195.667C832.028 195.159 838.661 196.374 838.411 195.536C838.161 194.698 831.122 192.124 826.16 192.632C821.198 193.14 817.379 194.231 817.629 195.069C817.879 195.907 822.104 196.175 827.066 195.667Z" fill="white"/>
<path d="M797.859 100.115C809.104 97.6404 818.22 94.9967 817.017 93.8651C816.704 92.8966 807.968 94.1332 796.723 96.6079C785.479 99.0827 777.844 101.979 778.158 102.947C778.471 103.916 786.614 102.59 797.859 100.115Z" fill="white"/>
<path d="M823.581 90.6064C827.585 87.6325 833.907 85.2846 833.264 84.6924C832.62 84.1002 825.255 85.4879 821.25 88.4619C817.246 91.4358 814.522 94.3268 815.165 94.919C815.809 95.5112 819.577 93.5804 823.581 90.6064Z" fill="white"/>
<path d="M794.531 109.747C805.946 108.238 815.253 106.379 814.151 105.15C813.921 104.158 805.112 104.647 793.698 106.156C782.283 107.665 774.43 109.901 774.66 110.893C774.89 111.885 783.116 111.256 794.531 109.747Z" fill="white"/>
<path d="M822.118 104.045C826.862 102.505 833.603 102.299 833.182 101.532C832.761 100.765 825.338 99.7287 820.594 101.269C815.85 102.808 812.345 104.678 812.766 105.445C813.187 106.212 817.374 105.585 822.118 104.045Z" fill="white"/>
<path d="M800.866 118.971C812.144 121.291 821.546 122.589 820.908 121.065C821.016 120.053 812.534 117.625 801.257 115.306C789.979 112.986 781.827 112.522 781.719 113.534C781.611 114.547 789.588 116.652 800.866 118.971Z" fill="white"/>
<path d="M828.047 117.53C832.144 114.686 838.538 112.541 837.914 111.929C837.29 111.316 829.884 112.468 825.786 115.312C821.689 118.156 818.873 120.958 819.498 121.571C820.122 122.183 823.95 120.374 828.047 117.53Z" fill="white"/>
<path d="M802.052 128.285C813.033 131.746 822.253 133.999 821.775 132.419C821.986 131.423 813.797 128.14 802.816 124.679C791.834 121.218 783.772 119.922 783.561 120.918C783.35 121.914 791.07 124.824 802.052 128.285Z" fill="white"/>
<path d="M829.238 129.632C833.604 127.222 840.184 125.743 839.626 125.07C839.067 124.397 831.583 124.785 827.216 127.195C822.849 129.605 819.761 132.104 820.32 132.777C820.878 133.451 824.871 132.043 829.238 129.632Z" fill="white"/>
<path d="M761.487 194.857C756.486 194.592 749.943 195.942 750.13 195.178C750.318 194.414 757.167 191.826 762.167 192.091C767.168 192.356 770.883 193.43 770.695 194.194C771.208 194.647 766.487 195.122 761.487 194.857Z" fill="white"/>
<path d="M540.259 79.5986C542.069 86.3394 544.471 85.1056 554.55 80.8099C564.628 76.5142 577.903 64.1326 576.094 57.3918C574.284 50.651 564.646 48.6689 554.568 52.9646C544.489 57.2603 538.449 72.8578 540.259 79.5986Z" fill="white"/>
<path d="M541.812 103.625C543.543 116.583 553.888 131.93 561.106 131.705C568.325 131.48 565.556 115.897 563.825 102.94C562.093 89.9822 554.838 79.6604 547.619 79.8852C540.401 80.1101 540.08 90.6678 541.812 103.625Z" fill="white"/>
<path d="M541.931 134.287C531.983 141.273 518.491 163.656 522.698 172.796C526.905 181.936 547.332 171.36 557.28 164.374C567.228 157.388 571.883 144.315 567.676 135.175C563.469 126.035 551.879 127.301 541.931 134.287Z" fill="white"/>
<path d="M543.375 31.0236C550.288 39.7461 558.428 62.624 556.494 52.1632C556.937 51.9163 552.561 39.0037 546.922 31.8875C541.282 24.7714 532.633 20.0976 532.19 20.3445C531.747 20.5914 537.736 23.9074 543.375 31.0236Z" fill="white"/>
<path d="M537.376 41.1407C544.288 49.8631 566.284 65.0134 555.535 59.4694C555.092 59.7162 542.593 51.3348 536.953 44.2186C531.314 37.1024 529.523 28.6028 529.966 28.3559C530.409 28.109 531.736 34.0245 537.376 41.1407Z" fill="white"/>
<ellipse rx="2.48809" ry="11.1106" transform="matrix(-0.214222 0.991149 0.904137 0.389381 563.423 155.858)" fill="white"/>
<path d="M578.648 177.484C583.109 188.099 587.353 196.588 588.249 195.202C589.145 194.718 586.354 186.349 581.893 175.735C577.432 165.12 573.208 158.133 572.312 158.616C571.416 159.099 574.187 166.869 578.648 177.484Z" fill="white"/>
<path d="M540.574 174.502C539.483 185.964 539.633 194.377 540.633 194.377C541.574 194.001 543.169 185.958 544.261 174.496C545.352 163.034 544.936 154.879 543.918 154.881C542.9 154.882 541.666 163.04 540.574 174.502Z" fill="white"/>
<path d="M597.066 195.667C602.028 195.159 608.661 196.374 608.411 195.536C608.161 194.698 601.122 192.124 596.16 192.632C591.198 193.14 587.379 194.231 587.629 195.069C587.879 195.907 592.104 196.175 597.066 195.667Z" fill="white"/>
<path d="M571.044 92.3347C578.545 83.5987 584.242 76.0072 582.6 75.8255C581.768 75.24 575.529 81.4782 568.029 90.2142C560.529 98.9502 556.167 105.853 557 106.439C557.833 107.024 563.544 101.071 571.044 92.3347Z" fill="white"/>
<path d="M582.973 67.8673C582.474 62.9045 583.701 56.2734 582.863 56.5221C582.024 56.7707 579.438 63.805 579.936 68.7679C580.435 73.7307 581.52 77.5523 582.358 77.3036C583.197 77.055 583.472 72.8302 582.973 67.8673Z" fill="white"/>
<path d="M564.531 109.747C575.946 108.238 585.253 106.379 584.151 105.15C583.921 104.158 575.112 104.647 563.698 106.156C552.283 107.665 544.43 109.901 544.66 110.893C544.89 111.885 553.116 111.256 564.531 109.747Z" fill="white"/>
<path d="M589.737 99.4667C592.674 95.4355 598.011 91.3122 597.22 90.9385C596.429 90.5647 589.811 94.082 586.873 98.1131C583.936 102.144 582.196 105.715 582.986 106.089C583.777 106.463 586.799 103.498 589.737 99.4667Z" fill="white"/>
<path d="M570.866 118.971C582.144 121.291 591.546 122.589 590.908 121.065C591.016 120.053 582.534 117.625 571.257 115.306C559.979 112.986 551.827 112.522 551.719 113.534C551.611 114.547 559.588 116.652 570.866 118.971Z" fill="white"/>
<path d="M598.047 117.53C602.144 114.686 608.538 112.541 607.914 111.929C607.29 111.316 599.884 112.468 595.786 115.312C591.689 118.156 588.873 120.958 589.498 121.571C590.122 122.183 593.95 120.374 598.047 117.53Z" fill="white"/>
<path d="M572.052 128.285C583.033 131.746 592.253 133.999 591.775 132.419C591.986 131.423 583.797 128.14 572.816 124.679C561.834 121.218 553.772 119.922 553.561 120.918C553.35 121.914 561.07 124.824 572.052 128.285Z" fill="white"/>
<path d="M599.238 129.632C603.604 127.222 610.184 125.743 609.626 125.07C609.067 124.397 601.583 124.785 597.216 127.195C592.849 129.605 589.761 132.104 590.32 132.777C590.878 133.451 594.871 132.043 599.238 129.632Z" fill="white"/>
<path d="M531.487 194.857C526.486 194.592 519.943 195.942 520.13 195.178C520.318 194.414 527.167 191.826 532.167 192.091C537.168 192.356 540.883 193.43 540.695 194.194C541.208 194.647 536.487 195.122 531.487 194.857Z" fill="white"/>
<path d="M310.259 79.5976C312.069 86.3384 314.471 85.1046 324.55 80.8089C334.628 76.5132 347.903 64.1316 346.094 57.3908C344.284 50.65 334.646 48.6679 324.568 52.9636C314.489 57.2594 308.449 72.8568 310.259 79.5976Z" fill="white"/>
<path d="M311.812 103.625C313.543 116.583 323.888 131.93 331.106 131.705C338.325 131.48 335.556 115.897 333.825 102.94C332.093 89.9822 324.838 79.6604 317.619 79.8852C310.401 80.1101 310.08 90.6678 311.812 103.625Z" fill="white"/>
<path d="M311.265 136.119C302.123 144.132 291.11 167.833 296.273 176.469C301.435 185.105 320.611 172.399 329.752 164.387C338.894 156.374 342.119 142.878 336.957 134.242C331.794 125.606 320.406 128.107 311.265 136.119Z" fill="white"/>
<path d="M313.375 31.0236C320.288 39.7461 328.428 62.624 326.494 52.1632C326.937 51.9163 322.561 39.0037 316.922 31.8875C311.282 24.7714 302.633 20.0976 302.19 20.3445C301.747 20.5914 307.736 23.9074 313.375 31.0236Z" fill="white"/>
<path d="M307.376 41.1407C314.288 49.8631 336.284 65.0134 325.535 59.4694C325.092 59.7162 312.593 51.3348 306.953 44.2186C301.314 37.1024 299.523 28.6028 299.966 28.3559C300.409 28.109 301.736 34.0245 307.376 41.1407Z" fill="white"/>
<ellipse rx="2.48809" ry="11.1106" transform="matrix(-0.214222 0.991149 0.904137 0.389381 333.423 155.857)" fill="white"/>
<path d="M348.648 177.484C353.109 188.099 357.353 196.588 358.249 195.202C359.145 194.718 356.354 186.349 351.893 175.735C347.432 165.12 343.208 158.133 342.312 158.616C341.416 159.099 344.187 166.869 348.648 177.484Z" fill="white"/>
<path d="M310.574 174.502C309.483 185.964 309.633 194.377 310.633 194.377C311.574 194.001 313.169 185.958 314.261 174.496C315.352 163.034 314.936 154.879 313.918 154.881C312.9 154.882 311.666 163.04 310.574 174.502Z" fill="white"/>
<path d="M367.066 195.667C372.028 195.159 378.661 196.374 378.411 195.536C378.161 194.698 371.122 192.124 366.16 192.632C361.198 193.14 357.379 194.231 357.629 195.069C357.879 195.907 362.104 196.175 367.066 195.667Z" fill="white"/>
<path d="M337.859 100.115C349.104 97.6404 358.22 94.9967 357.017 93.8651C356.704 92.8966 347.968 94.1332 336.723 96.6079C325.479 99.0827 317.844 101.979 318.158 102.947C318.471 103.916 326.614 102.59 337.859 100.115Z" fill="white"/>
<path d="M363.581 90.6064C367.585 87.6325 373.907 85.2846 373.264 84.6924C372.62 84.1002 365.255 85.4879 361.25 88.4619C357.246 91.4358 354.522 94.3268 355.165 94.919C355.809 95.5112 359.577 93.5804 363.581 90.6064Z" fill="white"/>
<path d="M334.531 109.747C345.946 108.238 355.253 106.379 354.151 105.15C353.921 104.158 345.112 104.647 333.698 106.156C322.283 107.665 314.43 109.901 314.66 110.893C314.89 111.885 323.116 111.256 334.531 109.747Z" fill="white"/>
<path d="M362.118 104.045C366.862 102.505 373.603 102.299 373.182 101.532C372.761 100.765 365.338 99.7287 360.594 101.269C355.85 102.808 352.345 104.678 352.766 105.445C353.187 106.212 357.374 105.585 362.118 104.045Z" fill="white"/>
<path d="M340.866 118.971C352.144 121.291 361.546 122.589 360.908 121.065C361.016 120.053 352.534 117.625 341.257 115.306C329.979 112.986 321.827 112.522 321.719 113.534C321.611 114.547 329.588 116.652 340.866 118.971Z" fill="white"/>
<path d="M368.047 117.53C372.144 114.686 378.538 112.541 377.914 111.929C377.29 111.316 369.884 112.468 365.786 115.312C361.689 118.156 358.873 120.958 359.498 121.571C360.122 122.183 363.95 120.374 368.047 117.53Z" fill="white"/>
<path d="M342.052 128.285C353.033 131.746 362.253 133.999 361.775 132.419C361.986 131.423 353.797 128.14 342.816 124.679C331.834 121.218 323.772 119.922 323.561 120.918C323.35 121.914 331.07 124.824 342.052 128.285Z" fill="white"/>
<path d="M369.238 129.632C373.604 127.222 380.184 125.743 379.626 125.07C379.067 124.397 371.583 124.785 367.216 127.195C362.849 129.605 359.761 132.104 360.32 132.777C360.878 133.451 364.871 132.043 369.238 129.632Z" fill="white"/>
<path d="M301.487 194.857C296.486 194.592 289.943 195.942 290.13 195.178C290.318 194.414 297.167 191.826 302.167 192.091C307.168 192.356 310.883 193.43 310.695 194.194C311.208 194.647 306.487 195.122 301.487 194.857Z" fill="white"/>
</g>
<defs>
<clipPath id="clip0">
<rect width="1150" height="230" fill="white"/>
</clipPath>
</defs>
</svg>
