<svg width="1150" height="230" viewBox="0 0 1150 230" fill="none" xmlns="http://www.w3.org/2000/svg">
<path d="M80.2591 79.6738C82.069 86.4146 84.471 85.1808 94.5495 80.8851C104.628 76.5894 117.903 64.2078 116.094 57.467C114.284 50.7262 104.646 48.7441 94.5675 53.0398C84.489 57.3355 78.4492 72.933 80.2591 79.6738Z" fill="white"/>
<path d="M81.8119 103.7C83.5433 116.658 93.8877 132.005 101.106 131.78C108.325 131.555 105.556 115.972 103.825 103.015C102.093 90.0573 94.838 79.7356 87.6195 79.9604C80.401 80.1852 80.0805 90.743 81.8119 103.7Z" fill="white"/>
<path d="M85.6817 126.633C73.5585 127.525 50.4936 139.816 49.4151 149.819C48.3365 159.823 71.2967 161.226 83.42 160.333C95.5433 159.441 106.245 150.608 107.324 140.605C108.402 130.601 97.805 125.741 85.6817 126.633Z" fill="white"/>
<path d="M83.3751 31.0988C90.2876 39.8213 98.4279 62.6992 96.4941 52.2384C96.9368 51.9915 92.5615 39.0789 86.922 31.9627C81.2825 24.8465 72.6326 20.1728 72.1899 20.4197C71.7472 20.6666 77.7356 23.9826 83.3751 31.0988Z" fill="white"/>
<path d="M77.3759 41.2159C84.2883 49.9383 106.284 65.0886 95.5347 59.5445C95.092 59.7914 82.5927 51.41 76.9532 44.2938C71.3137 37.1776 69.5233 28.678 69.966 28.4311C70.4086 28.1842 71.7364 34.0997 77.3759 41.2159Z" fill="white"/>
<ellipse rx="2.48809" ry="11.1106" transform="matrix(-0.214222 0.991149 0.904137 0.389381 103.423 155.933)" fill="white"/>
<path d="M118.648 177.559C123.109 188.174 127.353 196.664 128.249 195.277C129.145 194.794 126.354 186.424 121.893 175.81C117.432 165.195 113.208 158.208 112.312 158.691C111.416 159.174 114.187 166.945 118.648 177.559Z" fill="white"/>
<path d="M85.4922 174.577C84.4007 186.039 84.5508 194.452 85.5508 194.452C86.4922 194.076 88.0872 186.033 89.1787 174.571C90.2701 163.109 89.8539 154.954 88.8359 154.956C87.8179 154.957 86.5836 163.115 85.4922 174.577Z" fill="white"/>
<path d="M137.066 195.742C142.028 195.234 148.661 196.449 148.411 195.611C148.161 194.773 141.122 192.199 136.16 192.707C131.198 193.215 127.379 194.306 127.629 195.144C127.879 195.982 132.104 196.25 137.066 195.742Z" fill="white"/>
<path d="M111.044 92.4099C118.545 83.6739 124.242 76.0824 122.6 75.9007C121.768 75.3152 115.529 81.5534 108.029 90.2894C100.529 99.0254 96.1673 105.928 97 106.514C97.8328 107.1 103.544 101.146 111.044 92.4099Z" fill="white"/>
<path d="M122.973 67.9425C122.474 62.9797 123.701 56.3486 122.863 56.5973C122.024 56.8459 119.438 63.8802 119.936 68.8431C120.435 73.8059 121.52 77.6275 122.358 77.3788C123.197 77.1302 123.472 72.9054 122.973 67.9425Z" fill="white"/>
<path d="M104.531 109.822C115.946 108.313 125.253 106.455 124.151 105.225C123.921 104.233 115.112 104.722 103.698 106.231C92.2831 107.74 84.4298 109.977 84.66 110.968C84.8901 111.96 93.1164 111.332 104.531 109.822Z" fill="white"/>
<path d="M129.737 99.5419C132.674 95.5107 138.011 91.3874 137.22 91.0136C136.429 90.6399 129.811 94.1572 126.873 98.1883C123.936 102.219 122.196 105.79 122.986 106.164C123.777 106.538 126.799 103.573 129.737 99.5419Z" fill="white"/>
<path d="M110.866 119.047C122.144 121.366 131.546 122.664 130.908 121.141C131.016 120.128 122.534 117.7 111.257 115.381C99.9788 113.062 91.8266 112.597 91.7187 113.61C91.6107 114.622 99.5878 116.727 110.866 119.047Z" fill="white"/>
<path d="M138.047 117.605C142.144 114.761 148.538 112.617 147.914 112.004C147.29 111.392 139.884 112.543 135.786 115.387C131.689 118.231 128.873 121.034 129.498 121.646C130.122 122.259 133.95 120.449 138.047 117.605Z" fill="white"/>
<path d="M107.003 132.498C111.104 143.257 115.059 151.885 116.001 150.529C116.913 150.077 114.406 141.618 110.305 130.859C106.204 120.101 102.217 112.975 101.305 113.427C100.393 113.88 102.902 121.74 107.003 132.498Z" fill="white"/>
<path d="M122.817 154.653C127.417 156.581 132.66 160.823 132.841 159.967C133.022 159.112 128.073 153.483 123.473 151.554C118.874 149.626 114.998 148.756 114.816 149.612C114.635 150.467 118.217 152.724 122.817 154.653Z" fill="white"/>
<path d="M76.4048 194.932C71.4044 194.667 64.8606 196.017 65.0484 195.253C65.2362 194.49 72.0846 191.901 77.0851 192.166C82.0855 192.431 85.8013 193.505 85.6134 194.269C86.1262 194.722 81.4053 195.197 76.4048 194.932Z" fill="white"/>
<path d="M1000.26 79.6738C1002.07 86.4146 1004.47 85.1808 1014.55 80.8851C1024.63 76.5894 1037.9 64.2078 1036.09 57.467C1034.28 50.7262 1024.65 48.7441 1014.57 53.0398C1004.49 57.3355 998.449 72.933 1000.26 79.6738Z" fill="white"/>
<path d="M1001.81 103.7C1003.54 116.658 1013.89 132.005 1021.11 131.78C1028.32 131.555 1025.56 115.972 1023.82 103.015C1022.09 90.0573 1014.84 79.7356 1007.62 79.9604C1000.4 80.1852 1000.08 90.743 1001.81 103.7Z" fill="white"/>
<path d="M1005.68 126.633C993.558 127.525 970.494 139.816 969.415 149.819C968.337 159.823 991.297 161.226 1003.42 160.333C1015.54 159.441 1026.25 150.608 1027.32 140.605C1028.4 130.601 1017.8 125.741 1005.68 126.633Z" fill="white"/>
<path d="M1003.38 31.0988C1010.29 39.8213 1018.43 62.6992 1016.49 52.2384C1016.94 51.9915 1012.56 39.0789 1006.92 31.9627C1001.28 24.8465 992.633 20.1728 992.19 20.4197C991.747 20.6666 997.736 23.9826 1003.38 31.0988Z" fill="white"/>
<path d="M997.376 41.2159C1004.29 49.9383 1026.28 65.0886 1015.53 59.5445C1015.09 59.7914 1002.59 51.41 996.953 44.2938C991.314 37.1776 989.523 28.678 989.966 28.4311C990.409 28.1842 991.736 34.0997 997.376 41.2159Z" fill="white"/>
<ellipse rx="2.48809" ry="11.1106" transform="matrix(-0.214222 0.991149 0.904137 0.389381 1023.42 155.933)" fill="white"/>
<path d="M1038.65 177.559C1043.11 188.174 1047.35 196.664 1048.25 195.277C1049.15 194.794 1046.35 186.424 1041.89 175.81C1037.43 165.195 1033.21 158.208 1032.31 158.691C1031.42 159.174 1034.19 166.945 1038.65 177.559Z" fill="white"/>
<path d="M1005.49 174.577C1004.4 186.039 1004.55 194.452 1005.55 194.452C1006.49 194.076 1008.09 186.033 1009.18 174.571C1010.27 163.109 1009.85 154.954 1008.84 154.956C1007.82 154.957 1006.58 163.115 1005.49 174.577Z" fill="white"/>
<path d="M1057.07 195.742C1062.03 195.234 1068.66 196.449 1068.41 195.611C1068.16 194.773 1061.12 192.199 1056.16 192.707C1051.2 193.215 1047.38 194.306 1047.63 195.144C1047.88 195.982 1052.1 196.25 1057.07 195.742Z" fill="white"/>
<path d="M1031.04 92.4099C1038.54 83.6739 1044.24 76.0824 1042.6 75.9007C1041.77 75.3152 1035.53 81.5534 1028.03 90.2894C1020.53 99.0254 1016.17 105.928 1017 106.514C1017.83 107.1 1023.54 101.146 1031.04 92.4099Z" fill="white"/>
<path d="M1042.97 67.9425C1042.47 62.9797 1043.7 56.3486 1042.86 56.5973C1042.02 56.8459 1039.44 63.8802 1039.94 68.8431C1040.44 73.8059 1041.52 77.6275 1042.36 77.3788C1043.2 77.1302 1043.47 72.9054 1042.97 67.9425Z" fill="white"/>
<path d="M1024.53 109.822C1035.95 108.313 1045.25 106.455 1044.15 105.225C1043.92 104.233 1035.11 104.722 1023.7 106.231C1012.28 107.74 1004.43 109.977 1004.66 110.968C1004.89 111.96 1013.12 111.332 1024.53 109.822Z" fill="white"/>
<path d="M1049.74 99.5419C1052.67 95.5107 1058.01 91.3874 1057.22 91.0136C1056.43 90.6399 1049.81 94.1572 1046.87 98.1883C1043.94 102.219 1042.2 105.79 1042.99 106.164C1043.78 106.538 1046.8 103.573 1049.74 99.5419Z" fill="white"/>
<path d="M1030.87 119.047C1042.14 121.366 1051.55 122.664 1050.91 121.141C1051.02 120.128 1042.53 117.7 1031.26 115.381C1019.98 113.062 1011.83 112.597 1011.72 113.61C1011.61 114.622 1019.59 116.727 1030.87 119.047Z" fill="white"/>
<path d="M1058.05 117.605C1062.14 114.761 1068.54 112.617 1067.91 112.004C1067.29 111.392 1059.88 112.543 1055.79 115.387C1051.69 118.231 1048.87 121.034 1049.5 121.646C1050.12 122.259 1053.95 120.449 1058.05 117.605Z" fill="white"/>
<path d="M1027 132.498C1031.1 143.257 1035.06 151.885 1036 150.529C1036.91 150.077 1034.41 141.618 1030.3 130.859C1026.2 120.101 1022.22 112.975 1021.3 113.427C1020.39 113.88 1022.9 121.74 1027 132.498Z" fill="white"/>
<path d="M1042.82 154.653C1047.42 156.581 1052.66 160.823 1052.84 159.967C1053.02 159.112 1048.07 153.483 1043.47 151.554C1038.87 149.626 1035 148.756 1034.82 149.612C1034.63 150.467 1038.22 152.724 1042.82 154.653Z" fill="white"/>
<path d="M996.405 194.932C991.404 194.667 984.861 196.017 985.048 195.253C985.236 194.49 992.085 191.901 997.085 192.166C1002.09 192.431 1005.8 193.505 1005.61 194.269C1006.13 194.722 1001.41 195.197 996.405 194.932Z" fill="white"/>
<path d="M770.664 81.4791C774.399 87.3754 776.325 85.4824 784.667 78.3809C793.01 71.2794 801.997 55.507 798.262 49.6107C794.528 43.7145 784.737 44.6915 776.394 51.793C768.052 58.8945 766.929 75.5828 770.664 81.4791Z" fill="white"/>
<path d="M771.808 103.701C773.539 116.659 783.884 132.006 791.102 131.781C798.321 131.556 795.552 115.973 793.821 103.016C792.089 90.0583 784.834 79.7365 777.616 79.9614C770.397 80.1862 770.077 90.744 771.808 103.701Z" fill="white"/>
<path d="M775.678 126.634C763.555 127.526 740.49 139.817 739.411 149.82C738.333 159.824 761.293 161.227 773.416 160.334C785.539 159.442 796.242 150.609 797.32 140.606C798.399 130.602 787.801 125.742 775.678 126.634Z" fill="white"/>
<path d="M759.182 34.1793C768.378 40.4483 782.96 59.8653 778 50.4546C778.349 50.0871 770.328 39.0627 762.826 33.9482C755.323 28.8336 745.674 26.947 745.325 27.3146C744.976 27.6821 751.68 29.0648 759.182 34.1793Z" fill="white"/>
<path d="M756.461 45.6232C765.657 51.8922 791.166 59.8069 779.253 57.7146C778.904 58.0821 764.476 53.8019 756.974 48.6874C749.472 43.5729 745.232 35.9917 745.581 35.6242C745.93 35.2568 748.959 40.5087 756.461 45.6232Z" fill="white"/>
<ellipse rx="2.48809" ry="11.1106" transform="matrix(-0.214222 0.991149 0.904137 0.389381 793.419 155.933)" fill="white"/>
<path d="M808.645 177.559C813.106 188.174 817.349 196.664 818.245 195.277C819.141 194.794 816.351 186.424 811.89 175.81C807.428 165.195 803.204 158.208 802.308 158.691C801.412 159.174 804.183 166.945 808.645 177.559Z" fill="white"/>
<path d="M775.492 174.577C774.401 186.039 774.551 194.452 775.551 194.452C776.492 194.076 778.087 186.033 779.179 174.571C780.27 163.109 779.854 154.954 778.836 154.956C777.818 154.957 776.584 163.115 775.492 174.577Z" fill="white"/>
<path d="M827.062 195.742C832.024 195.234 838.658 196.449 838.407 195.611C838.157 194.773 831.118 192.199 826.156 192.707C821.194 193.215 817.375 194.306 817.625 195.144C817.875 195.982 822.1 196.25 827.062 195.742Z" fill="white"/>
<path d="M800.86 86.5862C806.061 76.314 809.784 67.5831 808.146 67.798C807.198 67.4279 802.627 74.9736 797.426 85.2459C792.225 95.5181 789.635 103.262 790.583 103.632C791.531 104.002 795.659 96.8585 800.86 86.5862Z" fill="white"/>
<path d="M806.613 59.9808C804.945 55.28 804.556 48.5475 803.801 48.9889C803.046 49.4303 802.211 56.8785 803.879 61.5793C805.546 66.2801 807.51 69.733 808.265 69.2916C809.021 68.8502 808.281 64.6816 806.613 59.9808Z" fill="white"/>
<path d="M796.682 108.465C807.296 104.002 815.786 99.7572 814.399 98.8612C813.915 97.9652 805.546 100.757 794.933 105.22C784.319 109.683 777.332 113.908 777.815 114.804C778.298 115.7 786.069 112.927 796.682 108.465Z" fill="white"/>
<path d="M818.288 91.9081C820.06 87.2455 824.121 81.8622 823.26 81.7099C822.399 81.5576 816.941 86.694 815.169 91.3566C813.397 96.0191 812.659 99.9223 813.52 100.075C814.382 100.227 816.516 96.5706 818.288 91.9081Z" fill="white"/>
<path d="M798.871 120.839C808.741 126.768 817.181 131.111 817.085 129.463C817.522 128.544 810.326 123.439 800.456 117.511C790.586 111.582 783.05 108.439 782.612 109.359C782.174 110.278 789.001 114.91 798.871 120.839Z" fill="white"/>
<path d="M824.991 128.496C829.8 127.172 836.543 127.27 836.157 126.485C835.771 125.7 828.403 124.329 823.594 125.653C818.785 126.977 815.199 128.687 815.585 129.472C815.971 130.257 820.182 129.82 824.991 128.496Z" fill="white"/>
<path d="M796.432 134.567C802.63 144.27 808.254 151.916 808.901 150.397C809.702 149.769 805.531 141.995 799.332 132.292C793.134 122.589 787.784 116.421 786.983 117.049C786.182 117.677 790.233 124.864 796.432 134.567Z" fill="white"/>
<path d="M816.412 153.052C821.308 154.007 827.302 157.097 827.306 156.222C827.31 155.347 821.322 150.84 816.427 149.885C811.531 148.93 807.559 148.864 807.555 149.739C807.551 150.613 811.517 152.097 816.412 153.052Z" fill="white"/>
<path d="M766.405 194.932C761.404 194.667 754.861 196.017 755.048 195.253C755.236 194.49 762.085 191.901 767.085 192.166C772.086 192.431 775.801 193.505 775.613 194.269C776.126 194.722 771.405 195.197 766.405 194.932Z" fill="white"/>
<path d="M540.259 79.6738C542.069 86.4146 544.471 85.1808 554.55 80.8851C564.628 76.5894 577.903 64.2078 576.094 57.467C574.284 50.7262 564.646 48.7441 554.568 53.0398C544.489 57.3355 538.449 72.933 540.259 79.6738Z" fill="white"/>
<path d="M541.812 103.7C543.543 116.658 553.888 132.005 561.106 131.78C568.325 131.555 565.556 115.972 563.825 103.015C562.093 90.0573 554.838 79.7356 547.619 79.9604C540.401 80.1852 540.08 90.743 541.812 103.7Z" fill="white"/>
<path d="M545.682 126.633C533.558 127.525 510.494 139.816 509.415 149.819C508.337 159.823 531.297 161.226 543.42 160.333C555.543 159.441 566.245 150.608 567.324 140.605C568.402 130.601 557.805 125.741 545.682 126.633Z" fill="white"/>
<path d="M543.375 31.0988C550.288 39.8213 558.428 62.6992 556.494 52.2384C556.937 51.9915 552.561 39.0789 546.922 31.9627C541.282 24.8465 532.633 20.1728 532.19 20.4197C531.747 20.6666 537.736 23.9826 543.375 31.0988Z" fill="white"/>
<path d="M537.376 41.2159C544.288 49.9383 566.284 65.0886 555.535 59.5445C555.092 59.7914 542.593 51.41 536.953 44.2938C531.314 37.1776 529.523 28.678 529.966 28.4311C530.409 28.1842 531.736 34.0997 537.376 41.2159Z" fill="white"/>
<ellipse rx="2.48809" ry="11.1106" transform="matrix(-0.214222 0.991149 0.904137 0.389381 563.423 155.933)" fill="white"/>
<path d="M578.648 177.559C583.109 188.174 587.353 196.664 588.249 195.277C589.145 194.794 586.354 186.424 581.893 175.81C577.432 165.195 573.208 158.208 572.312 158.691C571.416 159.174 574.187 166.945 578.648 177.559Z" fill="white"/>
<path d="M545.492 174.577C544.401 186.039 544.551 194.452 545.551 194.452C546.492 194.076 548.087 186.033 549.179 174.571C550.27 163.109 549.854 154.954 548.836 154.956C547.818 154.957 546.584 163.115 545.492 174.577Z" fill="white"/>
<path d="M597.066 195.742C602.028 195.234 608.661 196.449 608.411 195.611C608.161 194.773 601.122 192.199 596.16 192.707C591.198 193.215 587.379 194.306 587.629 195.144C587.879 195.982 592.104 196.25 597.066 195.742Z" fill="white"/>
<path d="M571.044 92.4099C578.545 83.6739 584.242 76.0824 582.6 75.9007C581.768 75.3152 575.529 81.5534 568.029 90.2894C560.529 99.0254 556.167 105.928 557 106.514C557.833 107.1 563.544 101.146 571.044 92.4099Z" fill="white"/>
<path d="M582.973 67.9425C582.474 62.9797 583.701 56.3486 582.863 56.5973C582.024 56.8459 579.438 63.8802 579.936 68.8431C580.435 73.8059 581.52 77.6275 582.358 77.3788C583.197 77.1302 583.472 72.9054 582.973 67.9425Z" fill="white"/>
<path d="M564.531 109.822C575.946 108.313 585.253 106.455 584.151 105.225C583.921 104.233 575.112 104.722 563.698 106.231C552.283 107.74 544.43 109.977 544.66 110.968C544.89 111.96 553.116 111.332 564.531 109.822Z" fill="white"/>
<path d="M589.737 99.5419C592.674 95.5107 598.011 91.3874 597.22 91.0136C596.429 90.6399 589.811 94.1572 586.873 98.1883C583.936 102.219 582.196 105.79 582.986 106.164C583.777 106.538 586.799 103.573 589.737 99.5419Z" fill="white"/>
<path d="M570.866 119.047C582.144 121.366 591.546 122.664 590.908 121.141C591.016 120.128 582.534 117.7 571.257 115.381C559.979 113.062 551.827 112.597 551.719 113.61C551.611 114.622 559.588 116.727 570.866 119.047Z" fill="white"/>
<path d="M598.047 117.605C602.144 114.761 608.538 112.617 607.914 112.004C607.29 111.392 599.884 112.543 595.786 115.387C591.689 118.231 588.873 121.034 589.498 121.646C590.122 122.259 593.95 120.449 598.047 117.605Z" fill="white"/>
<path d="M567.003 132.498C571.104 143.257 575.059 151.885 576.001 150.529C576.913 150.077 574.406 141.618 570.305 130.859C566.204 120.101 562.217 112.975 561.305 113.427C560.393 113.88 562.902 121.74 567.003 132.498Z" fill="white"/>
<path d="M582.817 154.653C587.417 156.581 592.66 160.823 592.841 159.967C593.022 159.112 588.073 153.483 583.473 151.554C578.874 149.626 574.998 148.756 574.816 149.612C574.635 150.467 578.217 152.724 582.817 154.653Z" fill="white"/>
<path d="M536.405 194.932C531.404 194.667 524.861 196.017 525.048 195.253C525.236 194.49 532.085 191.901 537.085 192.166C542.086 192.431 545.801 193.505 545.613 194.269C546.126 194.722 541.405 195.197 536.405 194.932Z" fill="white"/>
<path d="M310.664 81.4791C314.399 87.3754 316.325 85.4824 324.667 78.3809C333.01 71.2794 341.997 55.507 338.262 49.6107C334.528 43.7145 324.737 44.6915 316.394 51.793C308.052 58.8945 306.929 75.5828 310.664 81.4791Z" fill="white"/>
<path d="M311.808 103.701C313.539 116.659 323.884 132.006 331.102 131.781C338.321 131.556 335.552 115.973 333.821 103.016C332.089 90.0583 324.834 79.7365 317.616 79.9614C310.397 80.1862 310.077 90.744 311.808 103.701Z" fill="white"/>
<path d="M315.678 126.634C303.555 127.526 280.49 139.817 279.411 149.82C278.333 159.824 301.293 161.227 313.416 160.334C325.539 159.442 336.242 150.609 337.32 140.606C338.399 130.602 327.801 125.742 315.678 126.634Z" fill="white"/>
<path d="M299.182 34.1793C308.378 40.4483 322.96 59.8653 318 50.4546C318.349 50.0871 310.328 39.0627 302.826 33.9482C295.323 28.8336 285.674 26.947 285.325 27.3146C284.976 27.6821 291.68 29.0648 299.182 34.1793Z" fill="white"/>
<path d="M296.461 45.6232C305.657 51.8922 331.166 59.8069 319.253 57.7146C318.904 58.0821 304.476 53.8019 296.974 48.6874C289.472 43.5729 285.232 35.9917 285.581 35.6242C285.93 35.2568 288.959 40.5087 296.461 45.6232Z" fill="white"/>
<ellipse rx="2.48809" ry="11.1106" transform="matrix(-0.214222 0.991149 0.904137 0.389381 333.419 155.933)" fill="white"/>
<path d="M348.645 177.559C353.106 188.174 357.349 196.664 358.245 195.277C359.141 194.794 356.351 186.424 351.89 175.81C347.428 165.195 343.204 158.208 342.308 158.691C341.412 159.174 344.183 166.945 348.645 177.559Z" fill="white"/>
<path d="M315.492 174.577C314.401 186.039 314.551 194.452 315.551 194.452C316.492 194.076 318.087 186.033 319.179 174.571C320.27 163.109 319.854 154.954 318.836 154.956C317.818 154.957 316.584 163.115 315.492 174.577Z" fill="white"/>
<path d="M367.062 195.742C372.024 195.234 378.658 196.449 378.407 195.611C378.157 194.773 371.118 192.199 366.156 192.707C361.194 193.215 357.375 194.306 357.625 195.144C357.875 195.982 362.1 196.25 367.062 195.742Z" fill="white"/>
<path d="M340.86 86.5862C346.061 76.314 349.784 67.5831 348.146 67.798C347.198 67.4279 342.627 74.9736 337.426 85.2459C332.225 95.5181 329.635 103.262 330.583 103.632C331.531 104.002 335.659 96.8585 340.86 86.5862Z" fill="white"/>
<path d="M346.613 59.9808C344.945 55.28 344.556 48.5475 343.801 48.9889C343.046 49.4303 342.211 56.8785 343.879 61.5793C345.546 66.2801 347.51 69.733 348.265 69.2916C349.021 68.8502 348.281 64.6816 346.613 59.9808Z" fill="white"/>
<path d="M336.682 108.465C347.296 104.002 355.786 99.7572 354.399 98.8612C353.915 97.9652 345.546 100.757 334.933 105.22C324.319 109.683 317.332 113.908 317.815 114.804C318.298 115.7 326.069 112.927 336.682 108.465Z" fill="white"/>
<path d="M358.288 91.9081C360.06 87.2455 364.121 81.8622 363.26 81.7099C362.399 81.5576 356.941 86.694 355.169 91.3566C353.397 96.0191 352.659 99.9223 353.52 100.075C354.382 100.227 356.516 96.5706 358.288 91.9081Z" fill="white"/>
<path d="M338.871 120.839C348.741 126.768 357.181 131.111 357.085 129.463C357.522 128.544 350.326 123.439 340.456 117.511C330.586 111.582 323.05 108.439 322.612 109.359C322.174 110.278 329.001 114.91 338.871 120.839Z" fill="white"/>
<path d="M364.991 128.496C369.8 127.172 376.543 127.27 376.157 126.485C375.771 125.7 368.403 124.329 363.594 125.653C358.785 126.977 355.199 128.687 355.585 129.472C355.971 130.257 360.182 129.82 364.991 128.496Z" fill="white"/>
<path d="M336.432 134.567C342.63 144.27 348.254 151.916 348.901 150.397C349.702 149.769 345.531 141.995 339.332 132.292C333.134 122.589 327.784 116.421 326.983 117.049C326.182 117.677 330.233 124.864 336.432 134.567Z" fill="white"/>
<path d="M356.412 153.052C361.308 154.007 367.302 157.097 367.306 156.222C367.31 155.347 361.322 150.84 356.427 149.885C351.531 148.93 347.559 148.864 347.555 149.739C347.551 150.613 351.517 152.097 356.412 153.052Z" fill="white"/>
<path d="M306.405 194.932C301.404 194.667 294.861 196.017 295.048 195.253C295.236 194.49 302.085 191.901 307.085 192.166C312.086 192.431 315.801 193.505 315.613 194.269C316.126 194.722 311.405 195.197 306.405 194.932Z" fill="white"/>
</svg>
