<svg width="108" height="107" viewBox="0 0 108 107" fill="none" xmlns="http://www.w3.org/2000/svg">
<path d="M66.3203 42.1701C63.1213 43.6681 62.8154 42.3362 61.1907 37.0346C59.5661 31.7331 60.0281 22.5572 63.2272 21.0592C66.4262 19.5611 70.3366 22.6444 71.9612 27.946C73.5859 33.2475 69.5194 40.672 66.3203 42.1701Z" fill="white"/>
<path d="M61.4808 49.3476C57.9622 54.9506 49.9756 59.8451 46.6989 58.2255C43.4221 56.6059 47.9698 50.0117 51.4884 44.4087C55.007 38.8058 60.5157 35.5766 63.7925 37.1962C67.0692 38.8157 64.9994 43.7447 61.4808 49.3476Z" fill="white"/>
<path d="M52.4226 65.8062C52.0763 71.9488 46.057 83.7271 41.0041 84.3597C35.9513 84.9923 35.0422 73.3857 35.3886 67.2432C35.7349 61.1006 40.1118 55.6083 45.1646 54.9757C50.2174 54.3431 52.7689 59.6637 52.4226 65.8062Z" fill="white"/>
<path d="M70.4908 9.98061C68.9063 15.3859 69.4366 27.6643 68.3553 22.39C68.1007 22.3583 67.6986 15.4699 68.9913 11.06C70.284 6.65016 73.4529 2.81374 73.7075 2.84542C73.9621 2.87709 71.7834 5.57074 70.4908 9.98061Z" fill="white"/>
<path d="M75.915 13.8929C74.3306 19.2982 66.893 30.5854 70.8813 25.9418C71.1358 25.9734 75.4057 19.6662 76.6983 15.2563C77.991 10.8464 77.2152 6.51929 76.9607 6.48762C76.7061 6.45595 77.2077 9.48304 75.915 13.8929Z" fill="white"/>
<path d="M42.7333 47.7131C39.5295 43.8446 28.6621 43.1415 28.6545 42.4795C28.6469 41.8175 38.6775 42.7908 43.2108 45.3293C49.8002 44.0592 56.5207 42.5865 56.5282 43.2485C56.5358 43.9105 49.3228 46.443 42.7333 47.7131Z" fill="white"/>
<path d="M39.19 53.3708C32.2548 52.5814 27.3554 54.007 27.0944 53.4438C26.8334 52.8806 32.5045 50.8594 38.4269 51.684C45.2068 47.5901 58.106 39.5241 58.367 40.0874C58.628 40.6506 45.9699 49.2769 39.19 53.3708Z" fill="white"/>
<path d="M51.1399 36.7559C56.9683 41.2552 65.416 42.1618 64.8998 42.8704C64.3836 43.5789 53.9856 42.4511 48.4436 37.1688C42.9017 31.8863 39.9059 31.5205 40.4221 30.812C40.9384 30.1034 46.8105 31.5236 51.1399 36.7559Z" fill="white"/>
<ellipse rx="1.25925" ry="5.6232" transform="matrix(-0.260857 0.979908 -0.982252 -0.0652905 41.1091 69.0611)" fill="white"/>
<ellipse rx="1.06692" ry="9.81335" transform="matrix(0.551965 0.83865 -0.776861 0.626507 29.0551 74.5253)" fill="white"/>
<path d="M43.6731 86.308C41.8305 91.1946 45.5582 96.5874 44.9567 96.4539C44.3553 96.3205 40.4454 90.3245 42.288 85.4379C44.1307 80.5514 46.5947 76.8263 47.1962 76.9598C47.7976 77.0933 45.5158 81.4215 43.6731 86.308Z" fill="white"/>
<path d="M17.3258 80.7697C14.791 80.5261 11.4493 81.027 11.5557 80.6625C11.6621 80.2979 15.1762 79.2059 17.7111 79.4495C20.2459 79.6931 22.2145 80.1862 22.1082 80.5507C22.0018 80.9153 19.8606 81.0133 17.3258 80.7697Z" fill="white"/>
<ellipse rx="2.77678" ry="2.1513" transform="matrix(-0.130512 -1.0058 -0.937782 0.312535 68.167 29.5797)" fill="white"/>
</svg>
