<svg width="277" height="470" viewBox="0 0 277 470" fill="none" xmlns="http://www.w3.org/2000/svg">
<path fill-rule="evenodd" clip-rule="evenodd" d="M242.293 0.46092C237.827 -0.0272187 233.405 1.24515 229.06 2.38937V2.38937C223.376 3.8864 218.162 7.09339 214.487 11.6814C212.424 14.2574 210.432 16.9152 209.079 19.8645C201.396 37.0804 203.591 57.3863 198.103 77.2507C193.932 92.0387 187.786 105.944 180.542 118.083C136.86 191.803 46.6412 231.752 11.5197 313.417C8.66603 322.246 5.59289 331.075 2.73926 339.903C-0.333879 350.939 -0.992408 370.141 1.64171 381.839C3.6173 390.889 2.30024 397.952 4.93436 406.118C13.2757 431.28 32.3731 450.924 55.4216 461.297C90.3237 476.968 144.543 469.464 172.859 454.676C237.615 420.906 259.127 369.259 281.517 293.553C286.221 277.908 286.899 261.214 289.449 244.583C290.538 237.486 291.395 230.338 291.395 223.158C291.395 218.683 291.395 214.216 291.395 209.681C292.492 189.154 293.59 168.407 294.687 147.88C297.541 129.119 300.614 110.358 303.468 91.5973C305.882 82.7687 311.37 66.4356 307.858 52.9719C300.682 25.9653 274.355 3.96513 242.293 0.46092Z" fill="#5C77D7"/>
</svg>
