<svg width="1143" height="1119" viewBox="0 0 1143 1119" fill="none" xmlns="http://www.w3.org/2000/svg">
<path d="M755.646 743.004L755.682 743.116L755.728 743.224C771.775 780.612 778.434 811.944 776.347 839.76C774.264 867.523 763.451 892.016 744.13 915.728C730.75 932.148 710.823 943.647 687.959 951.574C665.11 959.496 639.511 963.786 615.014 965.91C566.01 970.158 521.773 965.708 513.568 964.605C356.652 943.523 323.616 846.964 320.019 820.532C317.077 798.912 324.954 771.651 340.013 742.208C355.029 712.846 377.001 681.671 401.735 652.361C426.463 623.059 453.897 595.686 479.791 573.922C505.737 552.115 529.957 536.091 548.262 529.293C565.095 523.042 586.001 531.226 608.648 548.731C631.119 566.099 654.501 592.031 675.89 619.478C697.258 646.901 716.548 675.721 730.846 698.774C737.993 710.299 743.885 720.37 748.16 728.091C752.49 735.914 755.035 741.105 755.646 743.004Z" stroke="white" stroke-width="5"/>
<path d="M968.845 537.577L968.881 537.689L968.928 537.797C1002.25 615.448 1016.2 680.775 1011.83 738.954C1007.47 797.08 984.818 848.305 944.526 897.753C916.392 932.28 874.621 956.314 827.012 972.82C779.419 989.32 726.174 998.234 675.317 1002.64C573.595 1011.46 481.787 1002.23 464.662 999.927C138.403 956.094 69.1715 755.084 61.5796 699.298C55.3747 653.704 71.993 596.647 103.25 535.53C134.465 474.495 180.094 409.768 231.397 348.974C282.694 288.188 339.611 231.397 393.354 186.226C447.149 141.012 497.586 107.591 535.93 93.3516C572.218 79.8755 616.571 97.689 663.541 133.993C710.335 170.161 758.914 224.061 803.255 280.964C847.576 337.842 887.574 397.603 917.217 445.399C932.038 469.295 944.262 490.188 953.137 506.22C962.069 522.355 967.484 533.348 968.845 537.577Z" stroke="white" stroke-width="5"/>
<path d="M896.906 596.268L896.942 596.38L896.989 596.488C925.041 661.852 936.762 716.803 933.092 765.716C929.426 814.575 910.386 857.642 876.494 899.235C852.863 928.236 817.759 948.445 777.701 962.332C737.66 976.215 692.853 983.718 650.04 987.429C564.408 994.853 487.118 987.079 472.716 985.144C198.138 948.254 139.954 779.122 133.581 732.294C128.372 694.017 142.322 646.054 168.636 594.603C194.907 543.234 233.316 488.747 276.51 437.562C319.699 386.384 367.618 338.572 412.862 300.544C458.157 262.474 500.593 234.363 532.822 222.394C563.172 211.123 600.369 225.998 639.916 256.564C679.287 286.995 720.176 332.359 757.512 380.272C794.828 428.161 828.506 478.479 853.466 518.724C865.944 538.844 876.236 556.434 883.707 569.93C891.235 583.528 895.774 592.75 896.906 596.268Z" stroke="white" stroke-width="5"/>
<path d="M843.159 648.555L843.195 648.667L843.241 648.775C866.829 703.736 876.668 749.905 873.587 790.973C870.509 831.988 854.528 868.148 826.055 903.092C806.235 927.415 776.775 944.385 743.11 956.057C709.462 967.722 671.797 974.031 635.795 977.152C563.782 983.395 498.783 976.856 486.685 975.231C255.859 944.219 207.026 802.073 201.685 762.829C197.319 730.746 209.011 690.481 231.14 647.213C253.226 604.027 285.523 558.209 321.853 515.158C358.177 472.114 398.479 431.902 436.528 399.922C474.628 367.899 510.291 344.282 537.342 334.236C562.666 324.832 593.805 337.219 627.068 362.928C660.155 388.502 694.534 426.64 725.94 466.944C757.327 507.222 785.655 549.546 806.649 583.398C817.146 600.323 825.802 615.117 832.084 626.465C838.423 637.916 842.22 645.639 843.159 648.555Z" stroke="white" stroke-width="5"/>
</svg>
