<svg width="963" height="943" viewBox="0 0 963 943" fill="none" xmlns="http://www.w3.org/2000/svg">
<path d="M815.906 453.268L815.942 453.38L815.989 453.488C844.041 518.852 855.762 573.803 852.092 622.716C848.426 671.575 829.386 714.642 795.494 756.235C771.863 785.236 736.759 805.445 696.701 819.332C656.66 833.215 611.853 840.718 569.04 844.429C483.408 851.853 406.118 844.079 391.716 842.144C117.138 805.254 58.9536 636.122 52.5809 589.294C47.3717 551.017 61.3224 503.054 87.6357 451.603C113.907 400.234 152.316 345.747 195.51 294.562C238.699 243.384 286.618 195.572 331.862 157.544C377.157 119.474 419.593 91.3628 451.822 79.3941C482.172 68.123 519.369 82.9977 558.916 113.564C598.287 143.995 639.176 189.359 676.512 237.272C713.828 285.161 747.506 335.479 772.466 375.724C784.944 395.844 795.236 413.434 802.707 426.93C810.235 440.528 814.774 449.75 815.906 453.268Z" stroke="white" stroke-width="5"/>
<path d="M762.159 505.555L762.195 505.667L762.241 505.775C785.829 560.736 795.668 606.905 792.587 647.973C789.509 688.988 773.528 725.148 745.055 760.092C725.235 784.415 695.775 801.385 662.11 813.057C628.462 824.722 590.797 831.031 554.795 834.152C482.782 840.395 417.783 833.856 405.685 832.231C174.859 801.219 126.026 659.073 120.685 619.829C116.319 587.746 128.011 547.481 150.14 504.213C172.226 461.027 204.523 415.209 240.853 372.158C277.177 329.114 317.479 288.902 355.528 256.922C393.628 224.899 429.291 201.282 456.342 191.236C481.666 181.832 512.805 194.219 546.068 219.928C579.155 245.502 613.534 283.64 644.94 323.944C676.327 364.222 704.655 406.546 725.649 440.398C736.146 457.323 744.802 472.117 751.084 483.465C757.423 494.916 761.22 502.639 762.159 505.555Z" stroke="white" stroke-width="5"/>
<path d="M671.646 596.004L671.682 596.116L671.728 596.224C687.775 633.612 694.434 664.944 692.347 692.76C690.264 720.523 679.451 745.016 660.13 768.728C646.75 785.148 626.823 796.647 603.959 804.574C581.11 812.496 555.511 816.786 531.014 818.91C482.01 823.158 437.773 818.708 429.568 817.605C272.652 796.523 239.616 699.964 236.019 673.532C233.077 651.912 240.954 624.651 256.013 595.208C271.029 565.846 293.001 534.671 317.735 505.361C342.463 476.059 369.897 448.686 395.791 426.922C421.737 405.115 445.957 389.091 464.262 382.293C481.095 376.042 502.001 384.226 524.648 401.731C547.119 419.099 570.501 445.031 591.89 472.478C613.258 499.901 632.548 528.721 646.846 551.774C653.993 563.299 659.885 573.37 664.16 581.091C668.49 588.914 671.035 594.105 671.646 596.004Z" stroke="white" stroke-width="5"/>
</svg>
