<svg width="1143" height="1119" viewBox="0 0 1143 1119" fill="none" xmlns="http://www.w3.org/2000/svg">
<path d="M968.845 537.577L968.881 537.689L968.928 537.797C1002.25 615.448 1016.2 680.775 1011.83 738.954C1007.47 797.08 984.818 848.305 944.526 897.753C916.392 932.28 874.621 956.314 827.012 972.82C779.419 989.32 726.174 998.234 675.317 1002.64C573.595 1011.46 481.787 1002.23 464.662 999.927C138.403 956.094 69.1715 755.084 61.5796 699.298C55.3747 653.704 71.993 596.647 103.25 535.53C134.465 474.495 180.094 409.768 231.397 348.974C282.694 288.188 339.611 231.397 393.354 186.226C447.149 141.012 497.586 107.591 535.93 93.3516C572.218 79.8755 616.571 97.689 663.541 133.993C710.335 170.161 758.914 224.061 803.255 280.964C847.576 337.842 887.574 397.603 917.217 445.399C932.038 469.295 944.262 490.188 953.137 506.22C962.069 522.355 967.484 533.348 968.845 537.577Z" stroke="white" stroke-width="5"/>
</svg>
