<svg width="243" height="377" viewBox="0 0 243 377" fill="none" xmlns="http://www.w3.org/2000/svg">
<path d="M134.288 110.432L134.339 110.469L134.394 110.502C156.067 123.641 171.646 137.266 182.389 152.461C193.122 167.641 199.084 184.466 201.411 204.095C204.646 231.379 189.444 258.257 172.211 279.147C155.021 299.985 136.084 314.533 132.474 317.077C97.7992 341.52 67.3635 344.427 44.0763 339.756C20.7224 335.072 4.43075 322.739 -1.79374 316.554C-11.9597 306.453 -20.2125 289.304 -26.5605 268.378C-32.8948 247.496 -37.2782 223.039 -39.8186 198.505C-42.3586 173.975 -43.0518 149.409 -42.0223 128.32C-40.9905 107.184 -38.2342 89.6975 -33.9625 79.2313C-30.1131 69.8003 -18.9003 66.0471 -2.89652 66.4269C12.9482 66.8028 32.6994 71.2345 52.3276 77.2148C71.9317 83.1878 91.3106 90.6734 106.375 97.0935C113.906 100.303 120.35 103.243 125.198 105.59C130.101 107.963 133.247 109.673 134.288 110.432Z" stroke="white" stroke-width="3"/>
<path d="M129.544 136.065L129.596 136.103L129.651 136.136C147.702 146.952 160.643 158.185 169.538 170.725C178.422 183.25 183.327 197.159 185.19 213.418C187.773 235.959 175.013 258.279 160.526 275.693C146.084 293.052 130.207 305.201 127.19 307.321C98.1444 327.73 72.745 330.251 53.3567 326.477C33.9032 322.69 20.3732 312.539 15.2228 307.456C6.81101 299.154 -0.00548153 284.994 -5.22618 267.648C-10.4332 250.348 -13.9983 230.066 -16.0234 209.707C-18.048 189.351 -18.529 168.96 -17.5845 151.451C-16.6374 133.896 -14.2641 119.394 -10.667 110.723C-7.47258 103.023 1.77068 99.8548 15.1437 100.106C28.3593 100.354 44.833 103.949 61.2156 108.837C77.5745 113.717 93.7411 119.855 106.307 125.125C112.588 127.76 117.962 130.175 122.002 132.103C126.098 134.058 128.699 135.455 129.544 136.065Z" stroke="white" stroke-width="3"/>
<path d="M136.071 173.502L136.132 173.538L136.195 173.568C150.625 180.419 160.669 187.899 167.225 196.573C173.761 205.22 176.914 215.166 177.373 227.115C177.689 235.319 174.839 243.807 170.172 252.054C165.51 260.292 159.093 268.189 152.424 275.174C139.082 289.149 124.884 299.325 122.194 301.12C70.5538 335.589 35.9135 315.703 28.1256 308.963C21.7503 303.445 17.0157 293.466 13.8097 280.877C10.6172 268.342 8.99809 253.452 8.67874 238.379C8.3595 223.312 9.34009 208.112 11.3224 194.972C13.3106 181.792 16.2865 170.824 19.8837 164.13C23.0914 158.161 31.1351 155.148 42.3654 154.427C53.4628 153.715 67.0722 155.282 80.5204 157.823C93.95 160.36 107.133 163.851 117.345 166.938C122.45 168.481 126.805 169.92 130.068 171.086C133.397 172.275 135.448 173.131 136.071 173.502Z" stroke="white" stroke-width="3"/>
</svg>
