<svg width="1592" height="2089" viewBox="0 0 1592 2089" fill="none" xmlns="http://www.w3.org/2000/svg">
<path fill-rule="evenodd" clip-rule="evenodd" d="M1364.82 891.599C1362.38 885.103 1366.77 874.193 1365.78 867.055C1364.37 854.676 1358.75 849.643 1352.4 841.111C1287.63 824.096 1220.85 864.459 1194.83 907.73C1168.19 952.014 1177.79 1005.82 1204.21 1032.94C1210.68 1039.47 1220.25 1046.32 1229.11 1050.8C1252.61 1062.57 1277.76 1057.34 1293.24 1049.73C1337.91 1027.94 1353 960.057 1364.82 891.599Z" stroke="white" stroke-width="5" stroke-miterlimit="10"/>
<path fill-rule="evenodd" clip-rule="evenodd" d="M1220.26 328.321C1206.44 415.848 1143 419.178 1107.49 473.298C1086.91 504.626 1097.84 537.133 1101.18 565.522C1104.36 592.494 1094.05 630.794 1082.07 651.523C1060.63 688.856 1035.15 714.16 1006.91 740.564C1002.41 744.737 995.869 746.962 991.242 750.715C964.75 771.669 934.795 788.638 917.208 822.082C911.26 833.348 905.155 857.891 906.3 872.788C908.137 896.147 909.024 921.524 911.405 945.177C912.98 962.136 908.616 979.041 909.321 996.442C908.134 1003.18 906.948 1009.93 905.761 1016.67C900.574 1046.14 893.802 1073.34 878.283 1088.29C847.436 1118.2 763.314 1086.91 710.614 1077.64C687.919 1073.64 650.796 1060.36 637.924 1073.78C629.203 1082.77 627.003 1115.55 628.261 1128.68C629.814 1144.64 628.799 1160.54 630.703 1176.77C633.354 1198.88 637.465 1219.46 638.747 1243.72C640.201 1270.38 618.959 1299.81 604.309 1304.18C581.253 1311.24 548.812 1281.5 538.628 1271.77C504.319 1239.12 476.933 1200.93 435.034 1173.1C405.74 1153.65 368.053 1142.45 345.478 1118.62C325.415 1097.41 331.053 1057.49 351.402 1034.27C364.545 1019.3 375.81 1002.62 393.198 993.964C421.49 979.681 457.105 979 492.753 974.749C510.979 972.596 529.115 973.206 546.096 970.238C552.046 969.101 560.735 970.432 564.593 966.543C574.185 957.111 569.451 934.433 571.768 920.146C573.847 907.207 575.383 890.597 579.85 879.866C585.696 865.802 584.415 848.3 589.571 835.902C590.419 831.087 591.266 826.271 592.114 821.456C594.67 815.948 597.418 810.474 599.974 804.966C621.803 771.077 658.41 753.492 696.241 742.477C709.635 738.48 724.004 740.215 738.666 738.03C767.152 733.909 794.789 724.475 813.612 706.54C832.434 688.604 845.768 663.546 858.57 637.005C866.69 620.164 870.398 601.355 877.68 584.764C884.013 570.191 885.707 553.808 891.588 539.552C896.674 514.035 901.987 488.36 907.073 462.843C924.138 423.35 941.6 389.486 960.283 352.065C969.443 333.818 971.77 314.965 980.241 295.009C992.522 265.794 983.843 221.843 980.24 191.619C974.518 144.143 1123.13 112.709 1156.81 120.71C1258.31 144.819 1294.89 170.672 1309.31 173.211C1315.88 198.991 1174.81 134.71 1200.23 218.71C1229.55 123.21 1018.43 140.531 1031.31 191.619C1032.35 208.284 1013.77 260.001 1007.56 274.994C1006.61 280.387 1005.63 285.973 1004.68 291.366C1001.56 298.959 1000.26 310.844 996.876 318.788C989.98 348.951 982.858 379.273 975.963 409.436C964.054 436.532 948.061 457.547 935.304 482.706C929.547 494.006 928.633 505.958 923.092 518.288C915.979 533.916 909.612 552.058 902.567 567.301C876.228 623.432 861.568 697.704 822.498 734.913C797.262 758.869 754.44 754.31 715.986 759.854C680.168 765.067 645.563 781.416 627.524 811.802C614.834 833.2 611.233 878.439 613.851 900.745C614.859 909.66 613.639 916.594 615.552 924.874C625.222 969.074 649.837 1008.36 685.49 1034.49C697.416 1043.34 713.256 1049.11 727.354 1055.76C740.558 1061.86 760.222 1067.31 775.383 1070.17C801.699 1075 821.905 1077.37 839.587 1071.55C909.41 1048.88 892.427 921.184 886.499 861.359C885.037 846.009 889.896 813.899 897.179 800.684C910.469 777.008 935.922 764.212 958.15 752.833C964.248 749.736 969.983 744.192 975.288 739.963C997.606 722.444 1022.52 705.977 1039.26 680.725C1055.18 656.719 1077.19 607.173 1073.06 567.524C1070.41 542.035 1054.56 505.883 1069.25 476.497C1095.49 424.32 1157.2 418.499 1187.91 371.281C1206.75 342.028 1206.95 302.545 1200.23 273.162C1186.31 212.527 1216.7 277.213 1200.23 218.71C1207.54 219.996 1282 194.424 1289.31 195.711C1305.27 246.975 1197.1 208.668 1212.39 260.409C1216.59 274.851 1218.27 291.231 1220.15 306.456C1220.95 313.151 1217.72 322.511 1220.26 328.321Z" fill="#C761F7"/>
<path d="M1200.23 218.71C1174.81 134.71 1315.88 198.991 1309.31 173.211C1294.89 170.672 1258.31 144.819 1156.81 120.71C1123.13 112.709 974.518 144.143 980.24 191.619C983.843 221.843 992.522 265.794 980.241 295.009C971.77 314.965 969.443 333.818 960.283 352.065C941.6 389.486 924.138 423.35 907.073 462.843C901.987 488.36 896.674 514.035 891.588 539.552C885.707 553.808 884.013 570.191 877.68 584.764C870.398 601.355 866.69 620.164 858.57 637.005C845.768 663.546 832.434 688.604 813.612 706.54C794.789 724.475 767.152 733.909 738.666 738.03C724.004 740.215 709.635 738.48 696.241 742.477C658.41 753.492 621.803 771.077 599.974 804.966C597.418 810.474 594.67 815.948 592.114 821.456C591.266 826.271 590.419 831.087 589.571 835.902C584.415 848.3 585.696 865.802 579.85 879.866C575.383 890.597 573.847 907.207 571.768 920.146C569.451 934.433 574.185 957.111 564.593 966.543C560.735 970.432 552.046 969.101 546.096 970.238C529.115 973.206 510.979 972.596 492.753 974.749C457.105 979 421.49 979.681 393.198 993.964C375.81 1002.62 364.545 1019.3 351.402 1034.27C331.053 1057.49 325.415 1097.41 345.478 1118.62C368.053 1142.45 405.74 1153.65 435.034 1173.1C476.933 1200.93 504.319 1239.12 538.628 1271.77C548.812 1281.5 581.253 1311.24 604.309 1304.18C618.959 1299.81 640.201 1270.38 638.747 1243.72C637.465 1219.46 633.354 1198.88 630.703 1176.77C628.799 1160.54 629.814 1144.64 628.261 1128.68C627.003 1115.55 629.203 1082.77 637.924 1073.78C650.796 1060.36 687.919 1073.64 710.614 1077.64C763.314 1086.91 847.436 1118.2 878.283 1088.29C893.802 1073.34 900.574 1046.14 905.761 1016.67C906.948 1009.93 908.134 1003.18 909.321 996.442C908.616 979.041 912.98 962.136 911.405 945.177C909.024 921.524 908.137 896.147 906.3 872.788C905.155 857.891 911.26 833.348 917.208 822.082C934.795 788.638 964.75 771.669 991.242 750.715C995.869 746.962 1002.41 744.737 1006.91 740.564C1035.15 714.16 1060.63 688.856 1082.07 651.523C1094.05 630.794 1104.36 592.494 1101.18 565.522C1097.84 537.133 1086.91 504.626 1107.49 473.298C1143 419.178 1206.44 415.848 1220.26 328.321C1217.72 322.511 1220.95 313.151 1220.15 306.456C1218.27 291.231 1216.59 274.851 1212.39 260.409C1197.1 208.668 1305.27 246.975 1289.31 195.711C1282 194.424 1207.54 219.996 1200.23 218.71ZM1200.23 218.71C1229.55 123.21 1018.43 140.531 1031.31 191.619C1032.35 208.284 1013.77 260.001 1007.56 274.994C1006.61 280.387 1005.63 285.973 1004.68 291.366C1001.56 298.959 1000.26 310.844 996.876 318.788C989.98 348.951 982.858 379.273 975.963 409.436C964.054 436.532 948.061 457.547 935.304 482.706C929.547 494.006 928.633 505.958 923.092 518.288C915.979 533.916 909.612 552.058 902.567 567.301C876.228 623.432 861.568 697.704 822.498 734.913C797.262 758.869 754.44 754.31 715.986 759.854C680.168 765.067 645.563 781.416 627.524 811.802C614.834 833.2 611.233 878.439 613.851 900.745C614.859 909.66 613.639 916.594 615.552 924.874C625.222 969.074 649.837 1008.36 685.49 1034.49C697.416 1043.34 713.256 1049.11 727.354 1055.76C740.558 1061.86 760.222 1067.31 775.383 1070.17C801.699 1075 821.905 1077.37 839.587 1071.55C909.41 1048.88 892.427 921.184 886.499 861.359C885.037 846.009 889.896 813.899 897.179 800.684C910.469 777.008 935.922 764.212 958.15 752.833C964.248 749.736 969.983 744.192 975.288 739.963C997.606 722.444 1022.52 705.977 1039.26 680.725C1055.18 656.719 1077.19 607.173 1073.06 567.524C1070.41 542.035 1054.56 505.883 1069.25 476.497C1095.49 424.32 1157.2 418.499 1187.91 371.281C1206.75 342.028 1206.95 302.545 1200.23 273.162C1186.31 212.527 1216.7 277.213 1200.23 218.71Z" stroke="white" stroke-width="5" stroke-miterlimit="10"/>
<path fill-rule="evenodd" clip-rule="evenodd" d="M1048.14 579.49C1048.19 568.935 1047.99 558.559 1048.05 548.003C1045.51 529.124 1039.36 505.114 1027.35 492.659C1011.68 476.639 993.526 478.613 978.283 489.642C951.949 508.609 933.412 546.033 916.568 577.686C905.695 598.475 882.312 651.905 883.741 680.929C884.373 696.551 879.73 710.12 892.006 717.226C905.82 732.246 944.094 717.179 954.828 712.549C1004.58 691.185 1035.37 654.57 1048.14 579.49Z" fill="#5177FD" stroke="white" stroke-width="5" stroke-miterlimit="10"/>
<path fill-rule="evenodd" clip-rule="evenodd" d="M845.124 988.725C842.948 982.606 847.647 973.3 847.185 966.144C846.535 955.706 848.307 944.546 847.166 933.638C844.652 909.87 841.112 886.495 836.318 864.811C833.549 852.278 833.313 840.574 828.11 829.907C820.383 814.016 789.633 801.721 762.047 802.983C714.374 805.299 674.175 799.944 648.529 833.668C634.828 851.714 632.054 888.126 635.146 909.702C643.104 965.593 670.661 1009.06 720.152 1035.56C727.491 1039.53 736.018 1042.17 743.302 1045.37C749.176 1046.78 754.897 1047.98 760.771 1049.4C768.273 1052.44 779.944 1053.54 786.919 1053.05C822.452 1050.12 837.769 1031.6 845.124 988.725Z" fill="#0038FF" stroke="white" stroke-width="5" stroke-miterlimit="10"/>
<path d="M307.113 2002L334.269 2006.78C341.113 1988.26 363.97 1975.47 376.553 1963.79C398.284 1943.4 424.437 1927.16 449.568 1911.63C470.431 1898.72 491.678 1883.63 517.156 1877.58C545.689 1870.72 562.816 1902.21 590.767 1898.38C637.816 1877.58 604.191 1831.03 599.559 1810.26C595.413 1791.82 605.259 1770.24 613.28 1757.76C633.001 1727.15 654.718 1704.3 678.364 1680.67C709.369 1649.59 740.693 1619.23 774.561 1592.24C807.369 1566.19 845.468 1544.43 870.184 1507.08C875.038 1499.87 876.365 1493.6 880.72 1485.4C888.983 1470.27 898.481 1439.21 897.312 1416.59C896.272 1399.59 897.775 1382.15 895.061 1365.75C884.806 1301.86 861.443 1243.72 801.988 1213.75C763.506 1194.43 707.931 1192.04 685.192 1215.61C663.513 1238.25 665.251 1281.81 666.692 1314.35C667.284 1328.8 657.597 1368.56 653.038 1379.19C648.364 1390.48 648.278 1399.88 643.144 1409.96C625.813 1444.79 604.887 1460.61 563.42 1462.05C532.548 1463.12 497.587 1423.79 484.114 1409.98C446.176 1371.03 421.039 1324.23 376.61 1289.07C356.556 1273.21 337.974 1266.8 310.918 1255.09C276.386 1240.04 222.701 1233.28 196.036 1246.07C165.435 1260.86 151.556 1298.99 132.871 1331.34C123.917 1346.58 116.231 1366.07 108.096 1383.02C103.549 1392.31 102.108 1403.04 98.5839 1411.61C93.9485 1422.68 93.5579 1441.44 94.0588 1450.04C97.1002 1493.84 114.828 1506.38 144.814 1530.71C170.875 1551.89 196.555 1575.24 226.552 1594.41C261.597 1616.72 305.061 1630.65 344.642 1648.82C364.937 1658.23 388.386 1659.89 409.371 1669.19C463.151 1693.22 512.778 1719.22 528.306 1769.7C538.551 1803.11 508.019 1830.24 492.612 1845.23C482.877 1854.73 470.011 1861.66 460.098 1870.89C422.82 1905.8 379.164 1932.42 339.559 1964C331.23 1970.6 321.636 1980.57 315.032 1988.82C311.877 1992.75 310.779 1997.71 307.304 2000.91L307.113 2002Z" stroke="white" stroke-width="5" stroke-miterlimit="10"/>
<path fill-rule="evenodd" clip-rule="evenodd" d="M879.102 1427.52C877.222 1422.92 880.098 1418.04 879.611 1411.89C878.459 1399.34 878.01 1385.35 875.26 1372.97C864.591 1326.64 842.084 1273.75 802.053 1247.84C790.802 1240.48 769.693 1228.01 748.165 1229.38C724.348 1231.02 707.09 1241.23 697.415 1263.1C693.223 1272.91 693.366 1288.65 693.84 1296.14C690.634 1316.9 687.21 1337.62 684.004 1358.38C678.176 1372.4 678.817 1389.12 672.696 1403.53C655.851 1443.22 645.462 1483.14 609.617 1494.56C569.514 1507.26 529.023 1483.97 505.42 1462.75C482.968 1442.64 464.312 1416.24 447.306 1391.92C441.693 1383.07 436.297 1374.27 430.683 1365.42C400.367 1332.7 377.147 1301.67 330.443 1279.31C320.419 1276.43 310.613 1273.58 300.59 1270.69C213.744 1253.61 185.175 1286.07 155.434 1350.64C148.507 1365.81 137.581 1397.33 139.015 1418.46C144.075 1497.92 198.824 1548.41 262.981 1586.19C292.426 1603.49 325.986 1615.24 358.358 1629.91C384.12 1641.41 413.959 1643.74 439.03 1655.34C462.223 1666.16 486.667 1674.95 508.39 1687.75C524.627 1697.34 546.03 1713.23 571.675 1710.11C612.648 1705.2 641.166 1670.49 668.252 1645.18C677.916 1636.11 692.336 1630.56 703.47 1623.32C707.267 1620.85 710.642 1616.95 714.08 1613.96C729.113 1601.12 747.713 1590.93 763.039 1577.69C771.144 1572.38 779.031 1567.03 787.136 1561.73C817.049 1540.73 849.556 1517.72 867.539 1480.48C874.236 1466.62 875.959 1445.37 879.102 1427.52Z" stroke="white" stroke-width="5" stroke-miterlimit="10"/>
<path d="M1506.7 407.379C1516.87 394.832 1535.4 382.167 1538.71 370.453C1549.58 323.428 1495.09 375.991 1476.19 395.288L1458.48 408.97C1448.3 419.275 1436.91 431.829 1424.66 438.856C1388.37 459.572 1349.99 480.592 1320.12 511.175C1299.97 531.818 1279.14 553.912 1254.23 566.775C1247.49 570.293 1236.19 577.711 1223.82 571.502C1212.76 565.97 1204.98 554.522 1200.13 543.812C1193.52 529.209 1182.11 517.568 1179.31 499.828C1178.4 493.397 1180.87 488.678 1180.58 481.012C1180.44 477.18 1181.26 469.036 1183.64 463.631C1205.52 412.379 1249.1 395.411 1271.51 346.939C1287.24 313.197 1282.02 259.415 1277.16 233.696C1270.1 197.287 1263.46 163.189 1254.79 128.961C1251.19 114.663 1251.15 100.991 1248.02 86.3284C1244.27 68.1975 1236.44 47.7794 1235.81 28.1807L1218 25.0459C1219.68 47.9649 1229.34 70.7215 1234.81 91.8428C1237.32 101.917 1237.37 110.886 1239.92 120.742C1248.82 154.789 1256.41 188.156 1262.29 225.478C1266.52 252.431 1269.2 297.478 1254.01 330.42C1226.97 389.05 1175.06 403.434 1149.65 465.488C1141.43 485.545 1148.39 505.137 1151.36 519.548C1156.37 544.397 1159.45 589.514 1143.85 620.145C1116.73 673.386 1079.9 715.734 1042.84 753.563L1015.69 774.542C989.007 795.157 962.331 816.894 945.783 852.956C932.941 880.711 939.032 914.487 940.953 938.345C942.912 961.985 939.695 986.058 940.588 1009.96C941.161 1026.41 933.383 1041.62 933.962 1059.19C934.723 1087.33 925.973 1118.49 933.855 1140.93C953.727 1198.41 1060.57 1181.38 1117.7 1209.13C1153.59 1226.65 1182.03 1249.35 1205.87 1276.17C1212.52 1283.61 1217.4 1294.1 1223.81 1301.73C1229.55 1308.56 1236.51 1316.51 1240.16 1324.77C1246.81 1339.15 1254.71 1352.19 1261.36 1366.58C1263.83 1369.92 1266.26 1373.49 1268.74 1376.84C1273.14 1386.57 1280.15 1401.24 1290.06 1406.35C1290.9 1407.39 1290.18 1406.82 1291.85 1407.78C1298.34 1396.38 1301.94 1369.02 1301.41 1353.47C1300.89 1339.04 1304.68 1324.48 1304.11 1309.14C1303.01 1282.97 1304.74 1255.72 1301.28 1232.49C1299.6 1221.21 1299.65 1210.47 1294.38 1202.15C1289.56 1194.81 1278.75 1193.58 1270.19 1188.93C1251.55 1178.93 1230.78 1170.57 1213.28 1158.76C1164.97 1126.06 1108.46 1063.48 1099.08 1002.02C1097.39 990.744 1097.51 978.446 1097.09 966.948C1096.34 946.88 1106.24 917.264 1112.52 902.465C1116.38 893.289 1116.54 886.596 1120.88 878.176C1133.11 853.897 1147.69 833.617 1164.39 816.397C1169.51 812.818 1174.43 809.204 1179.55 805.625C1204.78 786.322 1235.48 770.671 1256.48 745.248C1265.04 734.882 1271.6 721.926 1277.41 707.492C1284.69 689.287 1278.81 670.556 1278.29 656.128C1277.52 632.697 1292.94 599.571 1300.61 587.259C1324.61 548.252 1365.14 508.122 1401.63 488.562C1425.08 475.889 1461.41 463.022 1479.84 444.09C1490.1 433.351 1497.05 419.343 1506.7 407.379Z" stroke="white" stroke-width="5" stroke-miterlimit="10"/>
<path fill-rule="evenodd" clip-rule="evenodd" d="M1257.38 688.669C1251.7 677.798 1254.72 672.05 1244.07 662.772C1229 649.352 1207.51 655.889 1195.04 661.993C1164.24 676.984 1147.52 714.865 1123.37 739.101C1109.01 753.396 1091.74 765.162 1075.42 776.644C1070.24 780.668 1065.1 784.474 1059.92 788.497C1020.14 808.86 986.153 828 966.061 877.401C960.091 892.276 964.958 909.059 966.371 920.074C968.955 940.941 969.448 960.992 971.203 981.489C974.523 1019.76 957.197 1071.21 967.48 1104.2C978.502 1139.34 1015.75 1163.84 1065.01 1159.5C1080.65 1158.22 1093.56 1159.82 1106.13 1154.4C1112.67 1151.52 1116.17 1145.63 1121.82 1141.46C1133.14 1093.66 1105.01 1071.89 1091.87 1038.62C1077.86 1002.73 1080.01 944.788 1099.74 898.689C1103.89 889.101 1102.59 881.245 1106.7 871.875C1113.84 855.411 1118.02 835.51 1126.92 820.478C1134.61 807.251 1144.85 796.044 1155.3 786.219C1189.59 753.898 1246.11 753.977 1257.38 688.669Z" fill="#B403CC" stroke="white" stroke-width="5" stroke-miterlimit="10"/>
<path fill-rule="evenodd" clip-rule="evenodd" d="M850.558 1435.08C848.859 1430.74 851.438 1426.27 850.875 1420.56C849.98 1411.66 849.468 1400.58 846.977 1391.85C838.598 1361.9 823.936 1333.31 802.789 1312.33C791.373 1300.9 787.414 1290.34 763.715 1286.39C759.451 1289.01 753.795 1289.36 750.246 1292.99C723.499 1320.34 716.97 1386.68 699.509 1428.67C694.467 1440.78 695.12 1456.14 690.448 1467.43C687.703 1474.12 687.156 1486.13 687.323 1491.54C686.251 1497.63 685.141 1503.94 684.069 1510.03C684.965 1526.55 683.001 1550.42 699.588 1555.35C712.345 1566.79 743.944 1547.47 751.873 1544.38C786.498 1530.75 822.885 1507.11 841.88 1471.66C846.897 1462.23 848.516 1447.95 850.558 1435.08Z" fill="#4A0B9B" stroke="white" stroke-width="5" stroke-miterlimit="10"/>
<path fill-rule="evenodd" clip-rule="evenodd" d="M623.345 1591.09C621.78 1587.25 621.883 1579.02 621.661 1575.19C617.232 1571.07 613.542 1565.29 608.347 1561.7C592.724 1551.15 572.345 1549.79 553.733 1540.95C539.892 1534.27 527.262 1525.81 516.563 1516.57C451.532 1460.77 427.827 1364.99 353.487 1316.25C345.287 1311.91 337.125 1307.35 328.925 1303.01C318.589 1298.07 299.791 1294.09 287.814 1294.66C278.559 1295.03 271.831 1292.51 263.332 1293.69C237.105 1297.54 214.448 1312.95 200.236 1333.85C178.752 1365.5 176.743 1420.2 186.398 1450.66C208.431 1520.28 255.567 1550.42 326.245 1585.6C343.95 1594.51 364.204 1597.85 383.224 1605.66C391.267 1607.07 399.092 1608.45 407.135 1609.87C427.161 1614.51 447.404 1619.18 467.429 1623.82C485.411 1629.89 503.355 1636.17 521.338 1642.23C529.614 1646.14 544.748 1654.37 558.617 1653.25C588.425 1650.69 616.387 1625.53 623.345 1591.09Z" fill="#5C77D7" stroke="white" stroke-width="5" stroke-miterlimit="10"/>
<path fill-rule="evenodd" clip-rule="evenodd" d="M879.916 473.828C872.805 514.231 859.505 545.259 831.85 556.067C810.236 564.356 782.792 559.973 759.606 565.746C735.947 571.659 710.692 577.739 688.004 584.496C672.151 589.319 656.412 589.684 642.208 596.59C598.101 618.164 562.947 660.125 532.123 700.385C514.693 723.071 506.953 756.869 479.322 764.994C462.051 770.241 439.253 757.27 433.448 745.722C423.014 724.85 416.999 700.5 408.314 678.592C405.513 671.604 399.161 664.44 396.36 657.452C383.954 626.155 368.456 595.881 361.887 560.684C357.29 535.912 354.43 479.645 367.973 449.78C379.996 423.455 392.901 395.941 406.395 371.443C417.859 350.842 426.14 325.425 447.831 320.509C466.47 316.4 499.577 328.05 514.783 334.534C525.798 339.384 534.972 339.431 545.514 344.422C573.243 357.365 602.531 370.359 630.363 383.992C642.35 389.685 655.778 392.273 667.228 397.199C677.45 401.462 700.295 405.259 710.669 404.846C723.764 404.24 733.361 409.512 745.805 408.791C766.591 407.747 787.825 409.245 807.831 406.272C822.318 404.119 849.706 394.831 863.662 407.142C874.526 416.668 878.712 434.873 880.673 450.447C881.621 457.78 877.256 467.314 879.916 473.828Z" fill="#D50EBB" stroke="white" stroke-width="5" stroke-miterlimit="10"/>
<path d="M603.708 557.618C618.598 543.213 632.149 513.605 624.731 478.565C612.264 430.445 598.506 398.186 545.129 376.021C523.35 367.035 498.381 373.617 485.098 378.896C440.649 396.611 394.616 462.885 406.683 530.873C413.445 569.028 423.611 583.938 450.017 608.748C463.689 621.684 495.547 633.594 517.772 624.736C531.421 619.296 533.959 616.416 554.314 601.723C572.136 584.697 584.617 576.088 603.708 557.618Z" fill="#5E0BC9" stroke="white" stroke-width="5" stroke-miterlimit="10"/>
<path fill-rule="evenodd" clip-rule="evenodd" d="M461.049 1538.24C453.885 1576.39 382.611 1574.37 344.372 1556.89C283.464 1529.15 239.002 1499.83 224.691 1439.54C218.274 1412.21 220.888 1370.57 240.748 1348.31C264.831 1321.2 313.916 1320.43 347.642 1346.97C386.135 1377.04 410.283 1422.27 431.329 1464.71C438.118 1478.45 447.161 1492.13 453.143 1506.62C456.738 1515.54 457.084 1530.15 461.049 1538.24Z" fill="#3907FF" stroke="white" stroke-width="5" stroke-miterlimit="10"/>
<path fill-rule="evenodd" clip-rule="evenodd" d="M1227.96 1576.91C1226.15 1571.89 1230.51 1563.7 1230.31 1557.18C1229.44 1536.65 1236.06 1514.31 1233.41 1495.04C1224.53 1429.68 1188.63 1363.82 1124.56 1337.09C1099.95 1326.72 1078.34 1337.46 1069.48 1350.9C1048.78 1381.96 1040.54 1423.71 1024.04 1462.67C1017.45 1478.52 1017.42 1493.96 1010.4 1508.39C997.349 1535.42 983.713 1559.43 968.198 1582.67C956.692 1599.67 940.891 1614.35 929.309 1631.79C916.807 1650.63 897.786 1688.69 908.076 1714.23C918.507 1740.25 976.904 1768.66 1022.04 1766.75C1028.13 1767.82 1034.43 1768.93 1040.51 1770C1053.42 1770.49 1066.59 1770.79 1079.5 1771.27C1179.11 1761.49 1206.86 1696.76 1227.96 1576.91Z" stroke="white" stroke-width="5" stroke-miterlimit="10"/>
<path fill-rule="evenodd" clip-rule="evenodd" d="M824.131 969.033C821.227 961.38 825.493 949.855 824.554 941.209C823.19 927.355 821.696 911.692 817.499 898.678C810.41 876.675 795.624 852.646 775.27 839.913C742.454 819.183 687.298 822.419 668.389 843.418C656.175 856.891 650.573 888.713 653.513 908.87C659.635 950.344 689.87 997.178 723.543 1019.4C731.765 1023.52 740.026 1027.43 748.248 1031.56C758.027 1035.73 770.191 1036.54 778.817 1035.82C813.617 1032.57 817.363 1010.02 824.131 969.033Z" fill="#D50EBB" stroke="white" stroke-width="5" stroke-miterlimit="10"/>
<path fill-rule="evenodd" clip-rule="evenodd" d="M1204.05 1539.7C1202.52 1535.63 1205.84 1529.5 1205.64 1524.31C1205.69 1513.8 1205.49 1503.47 1205.55 1492.95C1199.37 1449.1 1178.01 1411.31 1134.58 1393.14C1111.18 1383.43 1087.03 1402.24 1077.24 1413.28C1052.6 1441.18 1047.17 1488.58 1028.33 1525.57C1017.69 1546.53 1006.47 1568.29 992.948 1586.5C982.625 1600.58 970.421 1613.88 960.814 1628.98C948.665 1648.34 940.821 1681.44 950.374 1701.03C965.022 1731.15 1028.7 1737.43 1063.69 1732.17C1153.71 1718.69 1184.25 1652.19 1204.05 1539.7Z" stroke="white" stroke-width="5" stroke-miterlimit="10"/>
</svg>
