<svg width="141" height="99" viewBox="0 0 141 99" fill="none" xmlns="http://www.w3.org/2000/svg">
<g clip-path="url(#clip0)">
<path d="M10.5395 28.9057L8.53906 18.0323L11.2455 17.0969L15.2464 21.7737L15.3641 15.577L18.0705 14.6416L23.4834 24.229L20.777 25.1643L17.7175 19.5522L17.4822 26.3335L16.4231 26.6843L11.9516 21.6567L13.2459 27.8534L10.5395 28.9057Z" fill="white"/>
<path d="M32.3105 32.6475L35.6054 33.1151L37.1351 37.5581L40.1946 33.9336L43.3717 34.4012L34.664 44.1055L31.8398 43.6378L35.1347 39.8964L32.3105 32.6475Z" fill="white"/>
<path d="M65.0262 41.6495L62.2021 42.1172L60.5547 31.3606L65.0262 30.6591C66.2029 30.4253 67.262 30.6591 67.968 31.1268C68.6741 31.7114 69.1448 32.5298 69.3801 33.5821C69.6154 34.6344 69.3801 35.6866 68.7917 36.3882C68.2034 37.0897 67.3797 37.5574 66.0853 37.7912L64.4379 38.025L65.0262 41.6495ZM64.2025 35.8036L65.1439 35.6866C66.2029 35.5697 66.6736 34.9851 66.4383 34.1667C66.3206 33.2313 65.7323 32.8806 64.6732 33.1144L63.7318 33.2313L64.2025 35.8036Z" fill="white"/>
<path d="M88.5618 23.9955L84.5609 24.697L84.2079 26.6846L81.1484 27.1523L83.5019 15.6942L86.5613 15.2266L92.4449 25.2816L89.3855 25.7493L88.5618 23.9955ZM87.385 21.8909L85.5023 18.5003L84.7963 22.2417L87.385 21.8909Z" fill="white"/>
<path d="M103.387 32.7645L107.505 31.5953C108.447 31.3615 109.27 31.3615 109.859 31.5953C110.447 31.9461 110.918 32.5307 111.271 33.3491C111.388 33.8168 111.506 34.2844 111.388 34.7521C111.271 35.1029 111.153 35.5705 110.8 35.9213C111.271 35.9213 111.624 35.9213 111.859 35.9213C112.212 36.0382 112.447 36.1551 112.683 36.2721C112.918 36.389 113.154 36.6228 113.271 36.8567C113.389 37.0905 113.507 37.4412 113.624 37.6751C113.742 38.1428 113.86 38.6104 113.742 39.0781C113.742 39.5458 113.507 39.8966 113.271 40.2473C113.036 40.5981 112.683 40.9488 112.33 41.1827C111.977 41.4165 111.388 41.6503 110.918 41.8842L106.564 43.1703L103.387 32.7645ZM107.388 36.0382L107.858 35.9213C108.682 35.6875 109.035 35.2198 108.8 34.5183C108.564 33.8168 108.094 33.5829 107.152 33.9337L106.682 34.0506L107.388 36.0382ZM108.682 40.2473L109.27 40.0135C109.976 39.7796 110.447 39.5458 110.682 39.312C110.918 39.0781 111.035 38.7274 110.918 38.3766C110.8 38.0259 110.565 37.792 110.212 37.6751C109.859 37.5582 109.388 37.6751 108.682 37.9089L108.094 38.0258L108.682 40.2473Z" fill="white"/>
<path d="M132.101 22.9427L128.688 22.475L128.453 24.2288L131.63 24.6965L131.277 27.0348L128.1 26.5672L127.865 28.4379L131.277 28.9055L130.924 31.2439L124.688 30.4255L126.217 19.6689L132.454 20.4874L132.101 22.9427Z" fill="white"/>
<path d="M29.2538 67.2551L30.7836 73.8025L34.3137 66.0859L37.1378 65.3843L39.7266 76.024L36.9025 76.7255L35.3728 70.295L31.8426 78.0116L29.0185 78.7131L26.4297 68.0735L29.2538 67.2551ZM29.8422 63.3967C30.0775 63.9813 30.6659 64.2152 31.3719 63.9813C32.0779 63.8644 32.431 63.3967 32.431 62.6952L34.196 62.2275C34.3137 63.046 34.196 63.6306 33.7254 64.2152C33.2547 64.7998 32.6663 65.1505 31.7249 65.3843C30.7836 65.6182 30.0775 65.6182 29.3715 65.2674C28.7831 64.9167 28.3124 64.449 28.0771 63.6306L29.8422 63.3967Z" fill="white"/>
<path d="M60.7894 76.4912L64.908 77.0758L65.4963 72.8667L68.3204 73.3344L66.673 84.0909L63.8489 83.6233L64.5549 79.1804L60.4364 78.5958L59.7304 83.0387L56.9062 82.571L58.5537 71.8145L61.3778 72.2821L60.7894 76.4912Z" fill="white"/>
<path d="M78.789 54.7445L79.495 61.4089L84.0842 54.2768L86.9084 54.043L87.9674 64.9164L85.1433 65.1503L84.4372 58.4859L79.848 65.618L77.0239 65.8518L75.9648 54.9783L78.789 54.7445Z" fill="white"/>
<path d="M106.21 72.633L110.564 69.0085L113.976 69.8269L108.563 73.9191L111.858 80.5835L108.21 79.765L105.621 74.2698L104.562 78.8297L101.738 78.2451L104.209 67.6055L107.034 68.1901L106.21 72.633Z" fill="white"/>
</g>
<defs>
<clipPath id="clip0">
<rect width="99" height="141" fill="white" transform="translate(0 99) rotate(-90)"/>
</clipPath>
</defs>
</svg>
