<svg width="188" height="221" viewBox="0 0 188 221" fill="none" xmlns="http://www.w3.org/2000/svg">
<path fill-rule="evenodd" clip-rule="evenodd" d="M171.092 2.43682C160.621 -1.15168 148.329 -0.0247096 138.051 4.08595V4.08595C122.524 10.46 105.852 16.0169 89.8345 22.8813C50.7706 39.7154 22.4942 62.1064 6.47631 102.149C1.73633 113.916 -2.34985 135.98 1.57289 152.814C3.04391 158.862 4.67839 167.034 6.47631 172.427C12.5239 190.895 19.5521 204.624 34.2624 214.104C51.5878 225.381 73.6532 221.785 88.2 210.835C104.054 198.74 112.063 161.477 120.889 141.374C137.071 104.273 168.616 81.7189 183.817 44.1282C192.562 22.7106 187.253 7.97532 171.092 2.43682Z" fill="#6D44B4"/>
</svg>
