<svg width="64" height="49" viewBox="0 0 64 49" fill="none" xmlns="http://www.w3.org/2000/svg">
<path fill-rule="evenodd" clip-rule="evenodd" d="M39.6287 1.15845C29.7839 -0.998754 18.43 0.200948 9.94218 5.63507V5.63507C8.28129 6.64525 6.96473 7.97274 5.78012 9.42617C1.97922 14.0896 -0.293064 21.0151 0.596824 26.9651V26.9651C1.42873 32.5275 4.62223 36.613 8.88592 40.2808C10.9166 42.0277 13.0329 43.6519 15.4499 44.7171C23.8862 48.2804 38.3349 50.4792 49.0025 47.8302C59.7767 45.1548 66.1248 32.3823 62.4056 21.9225C61.8598 20.3873 61.2307 19.0127 60.6136 17.918C55.7967 8.93986 49.8838 3.40558 39.6287 1.15845Z" fill="#D35DFD"/>
</svg>
