<svg width="201" height="184" viewBox="0 0 201 184" fill="none" xmlns="http://www.w3.org/2000/svg">
<path fill-rule="evenodd" clip-rule="evenodd" d="M151.914 1.28877C134.292 0.408269 115.709 1.13057 98.5466 5.22254C98.1907 5.3074 97.8405 5.39934 97.4966 5.49912C84.0885 9.24467 68.922 13.4309 56.8328 19.8203C36.391 30.6163 15.2898 49.3441 6.27785 71.597C-8.44904 107.51 4.29961 161.27 28.2583 176.252C43.6446 185.946 75.9558 185.946 95.2986 179.557C135.083 166.337 175.967 128.441 192.012 91.4264C194.65 82.6133 197.068 73.8003 199.706 64.9872C202.123 54.6319 200.805 42.5139 198.607 34.1415C191.608 8.58681 176.778 2.53116 151.914 1.28877Z" fill="#D50EBB"/>
</svg>
