<svg width="100" height="114" viewBox="0 0 100 114" fill="none" xmlns="http://www.w3.org/2000/svg">
<path d="M0 13.0448L39.5864 1.70149C48.6347 -0.567164 56.552 -0.567164 62.2072 1.70149C67.8624 5.10448 72.3865 10.7761 75.7796 18.7164C76.9107 23.2537 78.0418 27.791 76.9107 32.3283C75.7797 35.7313 74.6487 40.2686 71.2555 43.6716C75.7797 43.6716 79.1727 43.6716 81.4348 43.6716C84.8279 44.8059 87.09 45.9403 89.3521 47.0746C91.6141 48.209 93.8762 50.4776 95.0073 52.7463C96.1383 55.0149 97.2694 58.4179 98.4004 60.6865C99.5314 65.2238 100.663 69.7612 99.5315 74.2985C99.5315 78.8358 97.2693 82.2388 95.0073 85.6418C92.7452 89.0448 89.3522 92.4477 85.9591 94.7164C82.566 96.985 76.9106 99.2538 72.3865 101.522L30.538 114L0 13.0448ZM38.4553 44.806L42.9795 43.6716C50.8968 41.4029 54.29 36.8657 52.0279 30.0597C49.7658 23.2537 45.2416 20.9851 36.1932 24.3881L31.6691 25.5224L38.4553 44.806ZM50.8968 85.6418L56.552 83.3731C63.3382 81.1044 67.8623 78.8358 70.1244 76.5671C72.3865 74.2985 73.5175 70.8956 72.3865 67.4926C71.2554 64.0896 68.9935 61.8209 65.6003 60.6865C62.2072 59.5522 57.683 60.6866 50.8968 62.9552L45.2416 64.0895L50.8968 85.6418Z" fill="#AD00FE"/>
</svg>
