<svg width="128" height="160" viewBox="0 0 128 160" fill="none" xmlns="http://www.w3.org/2000/svg">
<path d="M27.1858 48.7943L41.9115 112.34L75.8939 37.4468L103.08 30.6383L128 133.901L100.814 140.709L86.0885 78.2979L52.1061 153.191L24.9203 160L0 56.7376L27.1858 48.7943ZM32.8495 11.3475C35.115 17.0213 40.7788 19.2908 47.5752 17.0213C54.3717 15.8865 57.7699 11.3476 57.7699 4.53911L74.761 0C75.8938 7.94326 74.7611 13.617 70.2301 19.2907C65.6992 24.9645 60.0355 28.3687 50.9735 30.6383C41.9115 32.9078 35.1151 32.9079 28.3186 29.5036C22.6549 26.0993 18.1238 21.5602 15.8584 13.617L32.8495 11.3475Z" fill="#B562E7"/>
</svg>
