<svg width="320" height="160" viewBox="0 0 320 160" fill="none" xmlns="http://www.w3.org/2000/svg">
<path d="M40.9197 86.6074C41.9851 88.596 43.0251 90.5576 44.0477 92.4863C50.7384 105.105 56.6836 116.318 64.0871 124.504C68.3163 129.181 72.9452 132.77 78.3542 135.011C83.7532 137.247 90.0696 138.198 97.7638 137.397C115.417 135.559 126.849 129.447 133.527 119.887C140.262 110.248 142.523 96.6029 140.685 78.9535C139.782 70.2769 134.474 62.3125 126.071 55.2161C117.68 48.1297 106.425 42.1061 94.1666 37.3192C69.5893 27.7216 41.6553 23.3478 26.0654 24.9708C22.3202 25.3606 19.9075 26.3236 18.3882 27.5129C16.9266 28.657 16.1045 30.1545 15.7902 32.075C15.1187 36.1788 16.7998 41.9896 20.0094 48.837C23.1216 55.4767 27.4029 62.5596 31.398 69.169L31.5464 69.4144C35.462 75.8927 39.1916 82.0664 40.9197 86.6074Z" fill="#B403CC" stroke="white" stroke-width="5"/>
<path d="M73.8945 100.104H67.1211V73.9941L59.0352 76.502V70.9941L73.168 65.9316H73.8945V100.104ZM100.848 86.4629C99.082 88.1973 97.0195 89.0645 94.6602 89.0645C91.6445 89.0645 89.2305 88.0332 87.418 85.9707C85.6055 83.8926 84.6992 81.0957 84.6992 77.5801C84.6992 75.3457 85.1836 73.2988 86.1523 71.4395C87.1367 69.5645 88.5039 68.1113 90.2539 67.0801C92.0039 66.0332 93.9727 65.5098 96.1602 65.5098C98.4102 65.5098 100.41 66.0723 102.16 67.1973C103.91 68.3223 105.27 69.9395 106.238 72.0488C107.207 74.1582 107.699 76.5723 107.715 79.291V81.7988C107.715 87.4863 106.301 91.9551 103.473 95.2051C100.645 98.4551 96.6367 100.189 91.4492 100.408L89.7852 100.432V94.7832L91.2852 94.7598C97.1758 94.4941 100.363 91.7285 100.848 86.4629ZM96.3242 83.8848C97.418 83.8848 98.3555 83.6035 99.1367 83.041C99.9336 82.4785 100.535 81.7988 100.941 81.002V78.2129C100.941 75.916 100.504 74.1348 99.6289 72.8691C98.7539 71.6035 97.582 70.9707 96.1133 70.9707C94.7539 70.9707 93.6367 71.5957 92.7617 72.8457C91.8867 74.0801 91.4492 75.6348 91.4492 77.5098C91.4492 79.3691 91.8711 80.9004 92.7148 82.1035C93.5742 83.291 94.7773 83.8848 96.3242 83.8848Z" fill="white"/>
<path d="M200.92 86.6074C201.985 88.596 203.025 90.5576 204.048 92.4863C210.738 105.105 216.684 116.318 224.087 124.504C228.316 129.181 232.945 132.77 238.354 135.011C243.753 137.247 250.07 138.198 257.764 137.397C275.417 135.559 286.849 129.447 293.527 119.887C300.262 110.248 302.523 96.6029 300.685 78.9535C299.782 70.2769 294.474 62.3125 286.071 55.2161C277.68 48.1297 266.425 42.1061 254.167 37.3192C229.589 27.7216 201.655 23.3478 186.065 24.9708C182.32 25.3606 179.908 26.3236 178.388 27.5129C176.927 28.657 176.105 30.1545 175.79 32.075C175.119 36.1788 176.8 41.9896 180.009 48.837C183.122 55.4767 187.403 62.5596 191.398 69.169L191.546 69.4144C195.462 75.8927 199.192 82.0664 200.92 86.6074Z" fill="#9750E1" stroke="white" stroke-width="5"/>
<path d="M233.895 100.104H227.121V73.9941L219.035 76.502V70.9941L233.168 65.9316H233.895V100.104ZM260.848 86.4629C259.082 88.1973 257.02 89.0645 254.66 89.0645C251.645 89.0645 249.23 88.0332 247.418 85.9707C245.605 83.8926 244.699 81.0957 244.699 77.5801C244.699 75.3457 245.184 73.2988 246.152 71.4395C247.137 69.5645 248.504 68.1113 250.254 67.0801C252.004 66.0332 253.973 65.5098 256.16 65.5098C258.41 65.5098 260.41 66.0723 262.16 67.1973C263.91 68.3223 265.27 69.9395 266.238 72.0488C267.207 74.1582 267.699 76.5723 267.715 79.291V81.7988C267.715 87.4863 266.301 91.9551 263.473 95.2051C260.645 98.4551 256.637 100.189 251.449 100.408L249.785 100.432V94.7832L251.285 94.7598C257.176 94.4941 260.363 91.7285 260.848 86.4629ZM256.324 83.8848C257.418 83.8848 258.355 83.6035 259.137 83.041C259.934 82.4785 260.535 81.7988 260.941 81.002V78.2129C260.941 75.916 260.504 74.1348 259.629 72.8691C258.754 71.6035 257.582 70.9707 256.113 70.9707C254.754 70.9707 253.637 71.5957 252.762 72.8457C251.887 74.0801 251.449 75.6348 251.449 77.5098C251.449 79.3691 251.871 80.9004 252.715 82.1035C253.574 83.291 254.777 83.8848 256.324 83.8848Z" fill="white"/>
</svg>
