<svg width="1440" height="1564" viewBox="0 0 1440 1564" fill="none" xmlns="http://www.w3.org/2000/svg">
<g clip-path="url(#clip0)">
<path fill-rule="evenodd" clip-rule="evenodd" d="M605.729 277.129C589.526 276.883 572.066 275.355 556.642 280.325V280.325V280.325C538.21 285.779 531.526 308.626 534.589 327.603C543.3 381.573 586.332 426.25 626.335 441.631C674.567 460.192 725.897 441.41 748.022 410.695C753.332 403.182 758.42 392.576 761.297 383.074C768.819 357.884 759.305 334.02 749.128 320.099C723.401 284.672 666.426 278.052 605.729 277.129Z" stroke="white" stroke-width="5" stroke-miterlimit="10"/>
<path fill-rule="evenodd" clip-rule="evenodd" d="M29.7783 520.935C43.5529 516.767 59.022 516.375 73.315 518.056C142.797 526.224 159.471 579.657 213.623 602.958C248.045 617.8 278.164 601.396 305.545 593.193C331.557 585.382 371.064 588.897 393.556 597.099C434.041 611.746 463.378 632.447 494.279 655.687C499.169 659.398 502.494 665.452 506.992 669.358C532.222 691.816 554.127 718.376 590.113 729.898C602.239 733.804 627.469 735.562 641.942 731.851C664.629 725.993 689.468 720.72 712.351 714.275C725.371 710.715 739.005 710.835 752.572 709.191C759.683 708.33 766.814 707.44 773.977 707.44C777.23 707.44 780.484 707.44 783.737 707.44C813.661 707.44 841.629 709.393 859.035 722.087C893.848 747.28 877.615 835.552 877.615 889.062C877.615 912.107 870.965 950.97 886.416 961.321C896.782 968.351 929.444 964.836 942.156 961.321C957.607 957.024 973.449 955.267 989.095 950.58C1010.41 944.135 1029.97 936.518 1053.64 931.05C1079.65 924.996 1112.31 940.815 1119.16 954.485C1130.11 975.968 1106.44 1013.07 1098.62 1024.79C1072.41 1064.24 1039.55 1097.83 1019.41 1143.92C1005.33 1176.14 1000.83 1215.2 981.272 1241.57C963.866 1265 923.576 1266.37 897.173 1250.35C880.158 1240 861.773 1231.8 850.234 1216.18C831.263 1190.79 824.418 1155.83 814.052 1121.46C808.771 1103.88 806.229 1085.92 800.361 1069.71C798.21 1064.04 798.014 1055.26 793.516 1052.13C782.564 1044.32 761.05 1052.91 746.577 1053.11C733.473 1053.3 716.849 1054.67 705.505 1052.13C693.048 1049.35 679.081 1051.92 667.171 1051.1C662.715 1050.79 658.268 1050.18 653.803 1050.18V1050.18C648.526 1050.18 643.27 1049.5 638.192 1048.06C634.879 1047.13 631.565 1046.18 628.251 1045.3C591.091 1029.67 567.426 996.669 550.02 961.321C543.761 948.822 542.979 934.37 538.285 920.309C529.288 892.968 515.206 867.385 494.279 851.957C473.352 836.528 446.363 827.74 418.003 819.733C400.01 814.656 380.843 814.265 363.241 809.969C351.026 807.035 338.2 807.153 325.922 805.691C319.481 804.924 313.036 804.039 306.551 803.882C287.282 803.417 267.933 802.872 248.661 802.405C241.62 802.234 234.609 801.35 227.773 799.653C190.162 790.316 156.517 779.883 119.745 768.957C100.187 763.098 81.2157 764.075 60.0932 759.192C29.1916 752.162 -15.4005 752.357 -44.5418 761.145C-78.5919 771.461 -104.305 788.805 -130.06 806.499C-141.631 814.449 -157 806.188 -157 792.15V792.15C-157 785.165 -152.901 778.841 -146.582 775.866C-125.833 766.096 -105.104 755.366 -83.6577 746.498C-70.1627 741.03 -53.5385 739.272 -38.6744 735.757C-24.7574 732.408 8.2789 732.218 27.405 734.447C32.9249 735.09 38.4496 735.757 44.0068 735.757V735.757C49.4997 735.757 54.9804 736.409 60.459 736.805C64.1408 737.071 68.0601 737.202 71.8117 737.486C77.7213 737.934 83.6061 738.836 89.5247 739.141C114.332 740.421 139.24 741.803 164.048 743.084C170.354 743.41 176.636 744.265 182.702 746.022C207.408 753.178 228.674 763.597 252.739 770.91C264.865 774.621 276.795 773.449 289.899 776.769C306.523 781.065 325.494 784.19 341.728 788.486C401.575 804.696 477.264 806.258 520.683 838.286C548.651 858.987 551.584 901.952 563.71 938.862C575.054 973.234 597.154 1004.48 630.207 1016.98C653.481 1025.77 698.66 1021.47 720.174 1015.03C728.779 1012.49 735.82 1012.49 743.643 1009.17C785.497 991.982 819.919 960.93 839.477 921.286C846.127 908.006 849.061 891.406 853.168 876.368C856.884 862.307 858.84 841.997 859.035 826.568C859.231 799.813 858.057 779.503 849.256 763.098C814.834 698.261 692.01 737.124 634.119 753.334C619.255 757.435 586.789 758.216 572.511 753.334C546.89 744.35 529.875 721.501 514.815 701.581C510.708 696.113 504.254 691.426 499.169 686.934C478.046 667.991 457.511 646.313 429.738 634.205C403.335 622.683 350.724 609.598 312.391 620.534C287.748 627.565 254.89 649.438 223.402 640.064C167.466 623.268 151.038 563.509 99.209 541.441C67.134 527.965 28.2137 534.605 0.441437 546.323C-51.7314 568.37 -94.0153 600.455 -142.498 625.921C-149.155 629.418 -157 624.491 -157 616.972V616.972C-157 613.153 -154.866 609.671 -151.475 607.914C-105.666 584.189 -60.6692 559.651 -14.227 536.558C-0.732047 529.918 15.1099 525.427 29.7783 520.935V520.935Z" fill="#C761F7" stroke="white" stroke-width="5" stroke-miterlimit="10"/>
<path fill-rule="evenodd" clip-rule="evenodd" d="M336.689 643.055C331.247 642.956 325.799 643.458 320.442 644.424C312.797 645.803 305.211 647.241 297.503 648.557C279.349 654.33 256.768 664.544 246.584 678.532C233.523 696.739 238.614 714.28 252.119 727.38C275.364 750.028 315.435 761.796 349.528 772.898C371.888 780.003 428.562 793.769 456.9 787.33C465.696 785.412 474.126 785.335 480.624 783.071C490.164 779.746 495.456 768.542 494.958 758.452C494.106 741.202 480.584 719.245 475.717 711.838C447.134 668.194 407.656 644.339 336.689 643.055Z" fill="#5177FD" stroke="white" stroke-width="5" stroke-miterlimit="10"/>
<path fill-rule="evenodd" clip-rule="evenodd" d="M789.557 773.33C774.701 771.264 758.706 770.339 744.132 773.887V773.887C733.964 776.337 722.666 776.525 712.122 779.541C689.149 786.137 666.742 793.675 646.217 802.156C634.354 807.056 622.868 809.317 613.265 816.29C598.954 826.656 592.175 859.071 598.201 886.02C608.746 932.57 610.44 973.089 648.1 992.5C668.248 1002.87 704.59 999.285 725.303 992.5C778.968 974.973 817.004 940.297 834.516 886.963C836.205 881.89 837.276 876.431 838.323 871.13C839.465 865.346 840.35 859.503 840.631 853.614C840.656 853.075 840.682 852.536 840.708 851.997C840.946 847.044 841.763 842.123 841.953 837.168C842.211 830.451 841.382 823.048 840.165 818.175C832.879 790.373 817.884 777.268 789.557 773.33Z" fill="#0038FF" stroke="white" stroke-width="5" stroke-miterlimit="10"/>
<path fill-rule="evenodd" clip-rule="evenodd" d="M1846.14 1094.48C1852.61 1097.8 1857.93 1103.92 1857.93 1111.18C1857.93 1115.9 1857.93 1120.62 1857.93 1125.39C1857.93 1125.84 1857.58 1126.21 1857.13 1126.21V1126.21C1856.95 1126.21 1856.75 1126.15 1856.61 1126.04C1852.87 1123.34 1847.91 1123.07 1843.58 1120.7C1834.31 1115.62 1822.83 1107.9 1814.88 1100.85C1776.91 1067.32 1743.13 1028.93 1702.29 998.272C1691.47 990.111 1682.42 978.64 1671.38 970.699C1653.94 958.125 1621.93 932.758 1590.8 948.64C1543.78 972.684 1526.78 1026.07 1512.43 1083.2C1506.91 1105.48 1509.34 1128.86 1503.6 1150.48C1492.56 1192.61 1486.38 1237.83 1470.48 1276.21C1456.79 1309.08 1438.25 1338.42 1421.91 1367.76C1403.15 1401.51 1393.87 1421.14 1351.27 1431.73C1342.88 1433.71 1324.33 1436.58 1312.63 1433.93C1303.58 1431.95 1292.76 1432.39 1282.83 1429.52C1264.72 1424.45 1244.19 1420.26 1227.64 1414.08C1192.53 1401.29 1152.57 1394.23 1132.7 1366.65C1115.48 1342.61 1112.84 1288.57 1121.67 1251.95C1128.51 1223.27 1131.6 1203.86 1143.74 1181.36C1170.68 1131.51 1212.4 1098.64 1244.19 1054.52C1255.45 1038.86 1288.13 997.611 1281.72 967.39C1273.11 926.802 1253.91 908.934 1216.6 897.905C1205.78 894.596 1196.51 896.14 1184.59 893.493C1173.33 890.846 1132.48 888.199 1118.35 891.287C1086.56 898.346 1043.96 907.611 1017.9 890.185C990.75 871.876 983.464 816.729 995.827 775.479C1015.03 711.729 1068.24 678.641 1129.39 657.465C1145.07 651.95 1162.51 650.406 1179.07 646.436C1201.14 641.362 1233.38 645.333 1249.71 650.847C1258.54 653.715 1264.95 653.936 1272.89 657.465C1313.96 675.332 1341.99 709.082 1373.34 736.876C1405.8 765.553 1441.12 791.141 1477.1 816.288C1504.48 835.479 1530.75 852.905 1564.31 867.023C1578 872.758 1600.96 878.714 1618.4 871.435C1638.04 863.273 1652.84 847.611 1669.17 836.141C1686.39 824.008 1703.39 813.2 1719.95 800.847C1734.08 790.258 1745.34 775.038 1757.48 762.244C1768.52 750.553 1790.15 727.612 1779.56 702.685C1771.61 683.935 1752.4 674.671 1740.92 659.671C1732.31 648.421 1720.61 639.818 1712.22 628.789C1689.48 598.568 1668.95 573.862 1659.24 529.524C1653.72 504.157 1668.95 470.186 1675.8 454.525C1700.3 397.834 1722.82 359.893 1771.83 327.687C1784.53 319.357 1824.9 299.436 1849.29 308.167C1854.65 310.087 1858.13 314.934 1858.6 320.611C1859.71 333.89 1858.19 357.697 1857.95 366.692C1857.94 367.091 1857.63 367.393 1857.23 367.393V367.393C1856.99 367.393 1856.75 367.278 1856.61 367.085C1843.95 349.718 1801.07 347.391 1780.66 359.672C1743.35 382.172 1725.69 419.01 1711.12 464.451C1707.15 476.804 1700.52 498.201 1704.5 516.289C1713.11 554.892 1730.55 582.686 1758.58 601.215C1775.36 612.245 1797 617.097 1812.67 628.789C1833.2 644.23 1849.1 680.406 1855.72 710.406C1860.8 733.788 1849.32 755.847 1841.37 767.759C1834.31 778.567 1826.36 788.935 1815.98 796.435C1801.63 806.582 1784.86 810.994 1767.42 818.494C1745.12 828.2 1720.17 846.067 1706.7 864.817C1692.57 884.449 1687.28 914.008 1698.98 940.92C1709.35 964.964 1727.9 983.272 1744.23 1001.58C1763.88 1023.64 1784.41 1046.58 1808.26 1064.45C1819.09 1072.66 1831.72 1087.08 1846.14 1094.48Z" stroke="white" stroke-width="5" stroke-miterlimit="10"/>
<path fill-rule="evenodd" clip-rule="evenodd" d="M1208.78 662.181C1198.47 662.435 1187.5 662.092 1177.51 664.677V664.677C1165.35 667.987 1151.65 670.856 1139.93 675.711C1096.16 694.248 1047.96 725.585 1029.39 769.5C1024.09 781.858 1015.46 804.809 1020.55 825.773C1026.3 848.945 1039.34 864.172 1062.55 869.909C1069.13 871.447 1077.76 870.86 1085.05 869.774C1092.19 868.709 1099.35 867.622 1106.58 867.492C1119.93 867.251 1133.27 867.069 1146.62 866.832C1154.66 866.689 1162.69 867.699 1170.72 868.046C1182.09 868.537 1193.92 867.31 1205.15 869.909C1247.15 879.619 1288.27 882.929 1305.73 916.252C1325.19 953.547 1309.27 997.462 1292.47 1024.39C1276.55 1049.98 1253.78 1072.93 1232.78 1093.9C1227.29 1098.91 1221.8 1103.81 1216.31 1108.75C1211.81 1112.8 1207.74 1117.29 1204.03 1122.08C1180.48 1152.48 1157.92 1178.8 1144.53 1220.54C1142.84 1225.81 1141.84 1231.27 1141.25 1236.77C1140.44 1244.32 1139.63 1251.81 1138.82 1259.41C1137.05 1347.9 1173.97 1370.41 1242.73 1388.51C1258.87 1392.7 1291.81 1398 1312.37 1392.92C1389.74 1374.16 1429.98 1311.49 1456.07 1241.76C1468 1209.76 1473.75 1174.67 1482.59 1140.24C1489.45 1112.88 1486.57 1083.09 1493.65 1056.38C1500.28 1031.67 1504.7 1006.07 1513.55 982.456C1520.18 964.802 1532.12 940.968 1524.6 916.252C1512.66 876.75 1473.53 854.682 1443.91 832.394C1433.3 824.449 1425.34 811.208 1416.27 801.498C1413.18 798.188 1408.76 795.54 1405.22 792.671C1389.96 780.093 1376.7 763.542 1361 750.742C1354.37 743.68 1347.74 736.839 1341.11 729.777C1315.24 703.958 1286.94 675.932 1247.15 664.677C1236.5 661.662 1222.53 661.842 1208.78 662.181Z" stroke="white" stroke-width="5" stroke-miterlimit="10"/>
<path fill-rule="evenodd" clip-rule="evenodd" d="M-30.169 787.284C-11.6685 782.519 8.41235 778.907 27.2016 782.362C70.8363 790.386 101.209 817.271 129.316 838.422C136.949 844.26 144.84 850.614 150.409 859.19C160.663 874.983 154.47 897.587 140.345 910.039V910.039C111.67 935.601 77.2609 956.976 58.7328 992.674C47.0425 1015.15 52.7774 1046.88 45.4985 1074.21C32.4847 1122.69 16.6034 1177.78 -7.439 1216.34C-38.5397 1266.36 -85.7423 1299.2 -133.165 1333.13C-145.993 1342.31 -157.683 1353.87 -170.032 1363.98C-176.26 1369.08 -185 1364.47 -185 1356.42V1356.42C-185 1352.91 -183.192 1349.63 -180.222 1347.76C-124.435 1312.56 -68.4341 1272.47 -33.9077 1216.34C-23.9819 1200.03 -21.5556 1180.42 -15.159 1160.15C-4.79212 1127.09 3.58965 1064.29 -23.9819 1044.46C-41.8483 1031.68 -68.5376 1036.75 -86.8452 1044.46C-114.196 1056.14 -140.665 1078.39 -157.428 1100.65C-160.942 1105.33 -164.628 1111.05 -168.583 1116.63C-174.533 1125.04 -185 1120.5 -185 1110.2V1110.2C-185 1106.9 -183.674 1103.77 -181.567 1101.23C-167.434 1084.2 -158.054 1057.05 -146.4 1037.85C-130.298 1011.18 -110.667 985.623 -102.285 951.907C-92.8006 914.226 -124.563 895.275 -111.108 860.458C-98.7561 828.506 -66.1113 802.283 -35.0106 788.841C-33.6948 788.278 -32.0395 787.765 -30.169 787.284Z" fill="#9750E1" stroke="white" stroke-width="5" stroke-miterlimit="10"/>
<path d="M79.4955 221.221C65.3768 213.385 49.692 197.336 37.5805 196.106C-10.6169 193.548 50.5962 238.099 72.8773 253.369L89.4227 268.438C101.335 276.676 115.675 285.718 124.72 296.568C151.413 328.716 178.768 362.873 214.065 386.984C237.89 403.258 263.259 419.935 280.246 442.238C284.879 448.265 294.144 458.111 290.173 471.372C286.644 483.226 276.716 492.871 267.01 499.501C253.773 508.543 244.287 521.804 227.301 527.63C221.124 529.64 216.05 528.032 208.549 529.64C204.799 530.443 196.637 531.046 190.901 529.64C136.632 516.981 112.366 476.998 60.744 463.335C24.7854 453.69 -27.2774 468.157 -51.7645 477.399C-86.3995 490.66 -118.828 503.118 -151.037 517.584C-164.494 523.612 -177.951 526.023 -191.849 531.649C-207.02 537.671 -223.391 547.131 -240.207 552.04C-244.126 553.184 -247 556.675 -247 560.758V560.758C-247 566.379 -241.708 570.478 -236.418 568.58C-218.104 562.012 -200.804 551.299 -184.128 543.704C-174.642 539.485 -165.817 537.878 -156.552 533.658C-124.564 518.991 -93.0177 505.73 -57.2796 493.473C-31.4689 484.633 12.4315 474.185 47.5078 483.427C109.939 499.903 133.102 548.526 198.622 562.792C219.8 567.413 237.89 557.166 251.567 551.741C275.172 542.499 319.073 531.649 351.943 541.695C409.079 559.176 457.171 588.109 500.851 618.046L526.221 641.153C551.149 663.857 577.18 686.36 615.566 696.407C645.127 704.243 677.335 692.388 700.499 686.36C723.442 680.333 747.708 679.328 771.092 674.305C787.197 670.889 803.521 675.912 820.729 672.296C848.304 666.67 880.512 669.885 901.249 658.231C954.415 628.695 919.118 526.425 936.546 465.344C947.576 426.967 965.004 395.021 987.285 366.891C993.462 359.055 1002.95 352.425 1009.35 344.79C1015.08 337.958 1021.7 329.72 1029.2 324.697C1040.51 316.841 1050.66 308.226 1061.66 300.171C1064.98 297.736 1068.13 295.064 1071.03 292.133V292.133C1074.04 289.088 1077.34 286.344 1080.8 283.832C1088.8 278.04 1097.93 270.312 1100.78 261.791C1100.86 261.537 1101.07 261.214 1101.25 261.022V261.022C1101.99 260.259 1101.19 259.104 1100.17 258.813C1087.1 255.093 1061.36 256.332 1046.85 259.397C1032.73 262.411 1017.73 261.205 1002.73 264.42C977.137 270.046 950.003 273.06 927.722 280.494C916.912 284.11 906.323 285.919 899.043 292.549C892.646 298.577 893.307 309.427 890.219 318.669C883.601 338.762 878.968 360.663 870.365 379.951C846.539 433.196 794.697 499.702 735.796 519.593C724.986 523.21 712.853 525.219 701.602 527.63C681.968 531.85 651.083 527.229 635.42 523.612C625.714 521.402 619.095 522.406 610.051 519.593C587.461 512.793 567.531 503.724 549.681 492.648C544.278 489.296 539.401 485.181 534.858 480.733C532.715 478.634 530.571 476.533 528.427 474.386C505.043 452.887 484.306 425.36 455.627 409.085C443.935 402.455 430.037 398.235 414.815 395.021C395.623 391.002 378.195 400.044 364.076 403.057C341.133 407.88 305.836 398.436 292.379 393.011C249.803 376.134 203.255 343.182 177.665 310.632C161.119 289.736 142.147 256.182 120.307 241.314C107.954 233.076 92.9524 228.655 79.4955 221.221Z" stroke="white" stroke-width="5" stroke-miterlimit="10"/>
<path fill-rule="evenodd" clip-rule="evenodd" d="M428.949 422.288C410.702 416.282 386.464 419.151 376.553 435.607V435.607C365.949 452.774 376.111 472.801 384.285 484.025C404.388 511.755 444.594 521.659 472.65 541.246C489.219 552.911 503.799 567.876 517.938 581.961C520.454 584.24 522.912 586.519 525.371 588.798C529.961 593.052 534.183 597.693 538 602.652C562.891 634.994 587.683 661.765 636.127 672.195C651.811 675.496 667.496 667.793 678.1 664.492C698.203 658.33 717.865 654.368 737.747 649.086C774.86 639.183 828.542 647.326 859.249 631.48C891.945 614.533 909.618 573.598 896.805 525.841C892.828 510.655 892.166 497.67 884.654 486.226V486.226C877.316 475.259 861.833 471.83 848.809 473.948C814.757 479.484 798.918 504.492 773.093 520.339C740.177 540.366 682.739 548.289 633.917 536.845C623.755 534.424 616.244 537.065 606.303 534.644C588.851 530.462 568.527 529.802 552.179 523.64C537.82 518.358 525.007 510.215 513.52 501.632C482.137 478.228 470.117 435.84 428.949 422.288Z" fill="#B403CC" stroke="white" stroke-width="5" stroke-miterlimit="10"/>
<path fill-rule="evenodd" clip-rule="evenodd" d="M-104.414 145.5C-110.318 138.789 -105.151 129 -96.212 129V129C-91.481 129 -87.3498 132.094 -84.2822 135.696C-79.3659 141.468 -71.8293 146.084 -66.3191 149.983C-61.0309 153.737 -56.4037 160.584 -50.8951 164.339C-32.9257 176.603 -15.4538 188.202 1.80826 200.578C7.07821 204.356 11.9043 208.712 16.3388 213.443C19.2841 216.586 22.2393 219.728 25.1231 222.87C42.0895 239.877 60.3779 258.65 72.4968 280.296C88.1411 308.346 101.362 335.955 122.074 358.704C130.667 368.202 137.277 381.896 147.413 389.626C156.668 396.473 168.786 404.424 174.956 413.922C175.286 414.41 175.593 414.903 175.875 415.399C182.329 426.722 162.278 431.458 150.696 425.482C145.645 422.875 141.074 419.865 138.6 418.339C132.871 414.805 127.803 413.038 122.074 409.504C115.904 405.75 111.057 398.682 105.548 394.043C96.2938 386.092 72.0561 385.209 57.0728 389.626C23.14 399.344 -11.0131 410.609 -42.0814 422.757C-49.3527 425.628 -54.8613 426.07 -61.9122 429.383C-92.7602 444.402 -124.49 462.955 -156.66 475.765C-175.168 483.275 -193.236 487.471 -211.745 495.643C-219.49 499.129 -227.916 503.411 -236.615 506.694C-241.796 508.649 -247 504.633 -247 499.096V499.096C-247 495.667 -244.945 492.564 -241.761 491.292C-213.791 480.112 -184.445 472.36 -156.66 460.304C-125.151 446.39 -96.2857 427.616 -67.4208 411.713C-51.9968 403.099 -36.1321 395.369 -22.2506 385.209C-14.5386 379.466 -5.50452 377.478 1.98712 371.957C19.6145 358.925 44.9539 328.445 35.0385 292.443C32.8351 284.492 30.191 274.553 26.2248 267.043C-2.40927 211.618 -65.2011 190.077 -104.414 145.5Z" fill="#3907FF" stroke="white" stroke-width="5" stroke-miterlimit="10"/>
<path fill-rule="evenodd" clip-rule="evenodd" d="M1220.03 689.002C1210.44 689.038 1200.27 688.893 1191.03 691.476V691.476C1182.42 693.9 1171.6 696.325 1163.43 700.292C1135.39 713.737 1109.77 733.132 1092.77 757.597C1085.82 767.514 1078.61 773.216 1075.54 785.581C1073.18 795.037 1074.79 807.205 1082.84 812.697V812.697C1114.41 834.296 1180.87 829.227 1225.25 839.145C1238.06 842.011 1253.08 838.705 1265 841.349C1269.25 842.276 1275.25 842.089 1280.52 841.552C1286.39 840.954 1292.26 840.247 1298.16 840.247V840.247C1304.73 840.247 1311.3 839.537 1317.74 838.195C1323.94 836.901 1330.41 835.422 1335.91 833.078C1349.5 827.295 1354.48 809.033 1348.27 795.631C1342.76 783.735 1332.8 771.9 1330.14 767.515C1310.71 735.777 1281.12 704.039 1242.92 691.476C1236.5 689.387 1228.4 688.97 1220.03 689.002Z" fill="#4A0B9B" stroke="white" stroke-width="5" stroke-miterlimit="10"/>
<path fill-rule="evenodd" clip-rule="evenodd" d="M230.437 830.308C245.159 825.709 261.823 826.575 277.181 828.008C307.081 830.798 330.574 839.797 342.923 860.082C354.833 879.931 355.274 907.72 364.979 929.554C374.904 951.83 385.27 975.649 395.857 996.821C403.356 1011.6 406.444 1027.04 415.707 1039.83C444.6 1079.53 492.021 1106.87 537.015 1130.25C562.379 1143.49 597.007 1145.25 609.799 1171.05C617.96 1187.15 609.138 1211.85 598.771 1219.57C580.024 1233.47 557.086 1243.61 537.015 1255.96C530.619 1259.93 524.663 1267.43 518.267 1271.4C489.595 1289.05 462.466 1309.56 428.941 1322.13C405.341 1330.95 350.422 1343.52 318.661 1335.36C290.65 1328.08 261.316 1320.14 234.849 1311.1C212.572 1303.38 186.105 1299.63 177.503 1279.12C170.225 1261.48 175.959 1226.85 179.709 1210.75C182.576 1199.06 181.032 1190.02 184.12 1178.77C192.06 1149.22 199.78 1118.12 208.381 1088.35C211.91 1075.56 212.131 1061.88 214.998 1049.75C217.424 1038.95 217.204 1015.79 214.998 1005.64C212.131 992.851 215.66 982.486 212.793 970.356C208.161 950.065 205.955 928.893 199.559 909.705C194.927 895.811 181.032 870.448 190.737 854.568C198.236 842.218 215.439 834.94 230.437 830.308V830.308Z" fill="#D50EBB" stroke="white" stroke-width="5" stroke-miterlimit="10"/>
<path d="M384 1084.5C367.232 1072.33 335.724 1064.12 302.5 1077.5C257.27 1098.12 227.884 1117.26 215.308 1173.67C210.234 1196.68 221.045 1220.13 228.546 1232.3C253.699 1273 326.949 1306.85 391.816 1283.18C428.221 1269.9 441.143 1257.31 461 1227C471.37 1211.29 477.576 1177.85 465 1157.5C457.276 1145 454 1143 436 1125.5C416.143 1110.9 405.5 1100.1 384 1084.5Z" stroke="white" stroke-width="5" stroke-miterlimit="10"/>
<path fill-rule="evenodd" clip-rule="evenodd" d="M1344.73 1068.27C1362.73 1057.04 1389.46 1053.51 1401.51 1070.97C1417.6 1094.27 1420.58 1137.93 1413.1 1166.68C1396.34 1231.47 1375.17 1280.34 1318.27 1304.89C1292.47 1315.95 1251 1320.59 1225.64 1304.89C1194.77 1285.87 1185.5 1237.66 1205.79 1199.85C1228.73 1156.73 1269.09 1125.1 1307.24 1097.02C1319.59 1087.95 1331.5 1076.67 1344.73 1068.27V1068.27Z" fill="#3907FF" stroke="white" stroke-width="5" stroke-miterlimit="10"/>
<path fill-rule="evenodd" clip-rule="evenodd" d="M1299.72 293.165C1286.58 292.936 1272.67 291.437 1259.8 294.103V294.103C1239.74 298.516 1216.59 295.868 1198.07 301.825C1135.24 321.903 1076.59 368.677 1061.38 436.411C1055.43 462.445 1069.76 481.861 1084.53 488.259C1118.7 503.262 1161.25 504.144 1202.48 513.632C1219.23 517.382 1234.44 514.735 1249.88 519.147C1278.76 527.311 1304.77 536.577 1330.35 547.83C1349.09 556.214 1366.28 569.231 1385.46 577.615C1406.19 586.661 1446.97 598.795 1470.34 584.234C1492.28 570.612 1509.17 516.525 1504.1 473.588C1503.25 466.419 1502.31 459.244 1502.31 452.025C1502.31 449.377 1502.31 446.735 1502.31 444.133C1500.54 431.336 1498.56 418.319 1496.8 405.522C1471.42 314.542 1408.93 295.071 1299.72 293.165Z" stroke="white" stroke-width="5" stroke-miterlimit="10"/>
<path fill-rule="evenodd" clip-rule="evenodd" d="M1262.81 323.125C1252.58 322.955 1241.71 321.927 1231.71 324.104V324.104C1223.75 325.46 1215.92 326.947 1208.02 328.364C1203.24 329.221 1198.5 330.33 1193.95 332.016C1155.1 346.411 1124.64 373.439 1114.85 416.824C1109.33 441.549 1132.05 462.08 1144.61 469.807C1176.37 489.234 1223.99 486.364 1263.68 498.506C1286.17 505.349 1309.55 512.635 1329.83 522.79C1345.49 530.516 1360.7 540.23 1377.24 547.073C1398.41 555.683 1432.37 557.67 1450.01 544.866C1477.13 525.218 1472.28 461.418 1461.03 427.862C1433.48 345.561 1367.86 324.873 1262.81 323.125Z" stroke="white" stroke-width="5" stroke-miterlimit="10"/>
<path fill-rule="evenodd" clip-rule="evenodd" d="M1293.02 357.212C1272.17 356.198 1249.04 352.64 1228.67 357.199V357.199C1198.4 364.017 1175.2 373.913 1167.91 403.383C1163.27 422.076 1177.41 437.911 1186.69 444.068C1210.33 459.683 1248.11 460.343 1278.38 469.359C1299.15 475.517 1319.92 482.995 1339.14 491.352C1348.42 495.31 1357.48 502.788 1366.76 506.746C1382.01 513.124 1408.74 513.124 1417.58 501.248C1431.5 482.555 1425.75 449.127 1417.58 429.774C1398.8 385.569 1361.24 371.934 1310.42 359.398C1304.94 358.053 1299.05 357.505 1293.02 357.212Z" fill="#5E0BC9" stroke="white" stroke-width="5" stroke-miterlimit="10"/>
</g>
<defs>
<clipPath id="clip0">
<rect width="1440" height="1564" fill="white"/>
</clipPath>
</defs>
</svg>
